<?xml version="1.0" encoding="UTF-8"?>
<svg id="Layer_1" xmlns="http://www.w3.org/2000/svg" version="1.1" viewBox="0 0 547.5 635.52">
  <!-- Generator: Adobe Illustrator 29.6.1, SVG Export Plug-In . SVG Version: 2.1.1 Build 9)  -->
  <defs>
    <style>
      .st0 {
        fill: #f8c1cf;
      }

      .st1 {
        fill: #030202;
      }

      .st2 {
        fill: #f6c1cf;
      }

      .st3 {
        fill: #010101;
      }

      .st4 {
        fill: #a8366c;
      }

      .st5 {
        fill: #f7a1b7;
      }

      .st6 {
        fill: #090303;
      }

      .st7 {
        fill: #fcf2e9;
      }

      .st8 {
        fill: #e6e6e6;
      }

      .st9 {
        fill: #e75484;
      }

      .st10 {
        fill: #fcf2eb;
      }

      .st11 {
        fill: #f7c5d1;
      }

      .st12 {
        fill: #f5bfcd;
      }

      .st13 {
        fill: #f8a0b7;
      }

      .st14 {
        fill: #ea5487;
      }

      .st15 {
        fill: #0e0303;
      }

      .st16 {
        fill: #e95384;
      }

      .st17 {
        fill: #0b0403;
      }

      .st18 {
        fill: #fcf2ed;
      }

      .st19 {
        fill: #573249;
      }

      .st20 {
        fill: #e95a87;
      }

      .st21 {
        fill: #f6a0b6;
      }

      .st22 {
        fill: #0a0302;
      }

      .st23 {
        fill: #f8c2d1;
      }

      .st24 {
        fill: #0e0403;
      }

      .st25 {
        fill: #e65482;
      }

      .st26 {
        fill: #f9c5d4;
      }

      .st27 {
        fill: #f9c0d0;
      }

      .st28 {
        fill: #fbe7e5;
      }

      .st29 {
        fill: #fcf2ec;
      }

      .st30 {
        fill: #0b0303;
      }

      .st31 {
        fill: #e65282;
      }

      .st32 {
        fill: #fec6cf;
      }

      .st33 {
        fill: #fbf1eb;
      }

      .st34 {
        fill: #f27898;
      }

      .st35 {
        fill: #0c0303;
      }

      .st36 {
        fill: #fcf3eb;
      }

      .st37 {
        fill: #fcf2ea;
      }
    </style>
  </defs>
  <path class="st1" d="M219.82,95.31c.27.02,1.73,1.04,1.77,0-2.23-1.18-7.02-3.05-6.71-6.09.19-1.86,1.73-2.48,3.34-2.62,10.94-.99,24.48,3.54,34.45,7.85,2.97,1.28,6.3,3.62,9.29,4.53,3.76,1.15,8.65,1.48,12.63,2.38,31.46,7.11,56.67,24.95,72.42,53.19,4.38,7.86,7.27,16.91,11.87,24.47,3.63,5.94,8.22,10.34,12.4,15.65,4.25,5.4,4.17,8.59-3.54,9.28,1.89,2.23,4.05,4.25,6.11,6.33.72.73,1.69,1.13,2.39,1.95,4.75,5.58-2.41,8.66-7.32,8.31l4.4,10.41c29.08,30.25,56.77,62.82,79.66,98.09,21.51,33.15,51.34,87.53,41.6,127.96-1.18,4.89-2.05,5.72-2.01,10.99.11,15.95-7.05,35.61-17.41,47.8-2.19,2.57-8.43,9.83-9.87,3.18,1.45-6.78,3.95-13.43,4.55-20.36-3.51,7.24-7.56,14.58-13.03,20.55-1.74,1.89-8.69,8.43-11.04,8.29-1.36-.08-2.63-1.56-2.58-2.92.08-1.96,3.02-7.37,3.84-9.61,1.48-4.06,2.81-8.21,4.04-12.35-2.55,2.73-4.26,6.04-6.72,8.88-2.07,2.38-10.07,10.16-13.13,9.63-1.42-.25-2.38-1.82-2.2-3.19.25-1.89,3.04-7.27,3.89-9.58,4.27-11.64,7.38-23.38,9.72-35.57-9.86-9.9-16.75-22.21-23.62-34.28-6.76-11.88-12.83-25.49-20-36.88-.22-.35-.37-.88-.86-.91-.12,10.84-.83,21.76-2.03,32.54-2.19,19.69-5.92,39.68-11.69,58.62-2,6.55-3.81,15.1-9.85,18.99-10.72,6.91-47.64,6.07-59.26.92-8.95-3.96-7.02-8.36-8.03-16.46-1.05-8.42-2.32-17.2-5.23-25.18-.63-1.71-3.21-8.14-4.41-9.02-1.48-1.08-6.04,0-7.92.05-5.04.11-11.9-.65-16.63-.04-2.03.26-4.53,5.03-5.38,6.86-5.44,11.75-4.78,23.03-6.65,35.22-1.36,8.85-10.94,10.5-18.42,11.6-18.05,2.64-34.9-.47-52.89-.32-7.36-1.61-18.07.48-25.09-.98-2.42-.5-3.1-1.94-2.72-4.34.06-.38,2.79-5.25,3.21-5.88,3.99-5.97,11.21-9.66,17.26-13.15-4.09-13.91-6.75-28.28-8.59-42.67-2.63-20.61-3.6-41.4-3.8-62.16l-44.51,66.88c-6.01,8.14-12.69,15.76-20.68,22.01,1.52,10.08,4.01,20.17,7.31,29.81,1.05,3.06,6.15,14.1,5.97,16.19-.35,3.96-4.3,1.96-6.32.75-6.38-3.81-10.51-10.29-15.04-15.96,1.54,7.36,4.9,14.15,7.38,21.19-1.2,5.53-5.7,1.8-8.36-.27-4.92-3.83-10.12-10.53-13.31-15.92-1.83-3.09-3.45-6.36-4.68-9.74-.72-.09-.34.84-.28,1.27.84,6.33,3.38,12.81,4.65,19.09-1.18,7.13-8.07-.6-10.27-3.19-9.35-10.96-17.24-31.36-17.35-45.77-.01-1.34.77-3.6.58-5-.18-1.3-1.89-4.52-2.4-6.3-8.17-28.54,14.37-70.07,29.26-93.98,24.79-39.79,60.09-82.19,93.97-114.59.41-.39,1.73-1.14,1.79-1.38.17-.71-5.74-5.01-6.72-5.91-10.42-9.54-16.4-20.45-20.73-33.78-1.47-4.54-1.67-4.76-3.83-8.81-2.59-4.87-4.61-13.15-1.28-18.02,1.41-2.07,4.19-3.66,5.9-5.55,4.67-5.16,5.21-12.43,7.2-18.87,6.78-21.94,18.91-43.51,41.58-51.84-2.25-2.39-8.25-2.2-7.92-6.51.18-2.39,2.5-3.18,4.46-3.87,1.5-.53,6.64-1.86,8.01-1.86,5.01,0,10.47-.29,15.4,0Z"/>
  <g>
    <path class="st21" d="M184.47,131.64c-2.3-.22-3.4-1.54-5.13-2.96,6.9-7.61,15.12-13.77,24.78-17.48,2.74-1.05,7.72-.98,5.05-5.26l-8.9-4.72c8.74-1.98,17.82-1.17,26.54.51,2,.38,7.41,2.51,8.84,1.49,1.03-.73,1.2-2.36.58-3.41-1.2-2.04-7.42-5.85-9.64-7.35-.4-.27-1.23-.79-.07-.73,8.04,1.53,15.86,3.85,23.38,7.04,3.44,1.46,7.99,4.37,11.26,5.33,4.6,1.34,10.54,1.81,15.5,3.06,30.53,7.71,53.33,25.58,67.72,53.54,3.35,6.5,5.63,13.58,9.36,19.87,3.88,6.55,9.01,12.3,13.99,18.01.13.99-.27.47-.81.42-2.25-.21-7.45-2.04-8.86-.22-1.42,1.83-.2,3.13.97,4.55,3.34,4.04,8.6,7.58,12.25,11.45.04,2.06-9.41-2.26-9.87,2.41-.14,1.48,3.52,7.86,4.41,9.77,1.07,2.28,1.94,5.42,3.16,7.5.9,1.53,4.83,4.96,6.44,6.6,24.01,24.39,46.26,51.4,65.7,79.66,23.36,33.95,53.98,86.06,49.45,128.5-1.19.77-.64.25-.77-.6-1.25-7.88-1.09-15.27-2.97-23.5-11.92-52.32-55.63-111.67-89.88-152.36-7.69-9.14-15.67-19.43-24.48-27.55-1.29-1.19-4.21-2.81-5.09-4-2.02-2.74-4.03-8.8-5.63-12.14-2.19-4.56-6.21-11.11-7.36-15.94-.91-3.82,3.03-1.84,5.18-2.54,2.73-.89-2.98-4.96-3.57-5.62-.16-.18-.08-.68-.26-.88-1.13-1.31-8.75-9.44-7.37-10.82,1.39-.06,8.61,1.46,8.24-.91-4.35-5.76-9.19-10.95-12.8-17.24-9.13-15.92-14.02-27.65-28.83-39.9-27.4-22.66-83.52-35.32-115.25-16.52-2.04,1.21-14.15,9.88-14.09,11.58.04,1.08,2.97.09,3.15.98l-4.34.4Z"/>
    <path class="st32" d="M181.7,135.59c26.67-3.73,35.42,18.87,36.36,41.26.13,3.04.26,6.4-.61,9.3-8.5-8.84-18.5-18.07-30.31-22.22-10.64-3.74-21.5-1.76-23.11,11.07-2.57,20.44,18.22,22.31,30.1,32.5,4.15,3.55,7.33,8.11,9.99,12.83-6.13,6.2-13.79,10.19-22.03,12.83-5.9.49-11.8-3.03-16.41-6.31.29,1.77-.03,2.42-.97,1.97-3.39-5.03-6.48-10.36-8.29-16.19,4.1.26,9.13-.24,11.62-3.98.72-1.07,1.82-3.33.23-4.12-2.42-1.2-2,1.11-3.19,2.34-1.92,1.99-7.06,2.6-9.58,1.74-.81-.27-1.64-3.91-1.38-4.79.15-.53,2.12-2.46,2.63-3.32,3.04-5.05,4.94-12.71,1.26-17.9-.19-.61-.01-1.18.53-1.72,3.99-10.72,8.05-21.42,12.61-31.89.98-2.26,7.29-13.59,9.35-13.8l1.21.41Z"/>
    <path class="st25" d="M212.12,309.79c-2.45,5.31-5.51,10.36-8.53,15.37-15.88,26.35-34.31,51.37-51.45,76.93-9.15,13.65-17.53,27.89-27,41.33-6.48,9.2-13.36,18.55-22.25,25.54-3.88-7.26-12.55-8.97-16.98-1.19-3.31-4.22-10.68-4.62-13.43.4-1.95-3.53-5.13-7.25-9.5-7.51-1.24-.07-2.18.26-3.34.4-.12-.38.01-.52.39-.39,1.23-.96-.02-3.13.4-4.74,9.79,6.26,21.26,7.33,31.94,2.52,7.98-3.59,14.81-11.82,19.96-18.75,11.13-14.96,21.07-31.38,32.05-46.55,14.63-20.2,30.49-40.63,46.58-59.67,5.18-6.13,15.36-19.31,21.14-23.69Z"/>
    <path class="st9" d="M394.61,334.28c4.52,9.92,7.96,20.31,12.05,30.41,4.77,11.8,10,23.62,15.17,35.07,9.45,20.93,27.2,66.62,57.32,59.15.71-.18,1.35-.92,2.2-1.01.77-.09.42,1.07,1.35.81-3.27.61-6.13,4.85-7.7,7.5-3.75-4.82-9.9-4.38-13.83,0-3.89-7.25-12.75-5.81-16.59.79-8.18-8.54-14.16-19.12-20.02-29.35-9.06-15.83-17.02-32.29-26.22-48.04-.41-18.48-1.47-36.96-3.73-55.32Z"/>
    <path class="st13" d="M191.58,243.03l3.16-.39c.32.28-.92,1.8-1.19,2.16-10.04,13.39-23.42,26.87-34.35,39.91-18.64,22.25-37.38,45.36-54.29,68.95-16.69,23.3-35.45,52.86-42.38,80.86-2.11,8.51-2.35,17.43-2.48,26.15-.15.11-.27.26-.39.39-.28.03-.55.64-.98.01-5.38-15.8-.41-33.66,5.42-48.7,21.29-54.87,75.67-118.13,117.8-159.1,2.53-2.46,6.2-5.15,8.52-7.67.8-.87,1.15-1.36,1.17-2.59Z"/>
    <path class="st16" d="M212.91,320.06c.08,3.65-1.66,7.6-2.89,11.13-8.09,23.09-18.99,45.77-27.54,68.84-1.63,4.4-2.93,9.99-4.82,14.16-.26.59-1.01.57-1.1.94-.17.68.03,2.03,0,2.88l-1.2-15.59.2-25.51c12.55-18.65,26.37-37.23,37.34-56.86Z"/>
    <path class="st14" d="M340.89,456.33c-1.35,2.91-4.8,4.42-7.12,6.51-9.64,8.74-14.6,17.74-13.84,31.23.29,5,1.67,11.84,5.94,14.8-3.37-.62-10.54-1.64-12.33-4.86-1.07-1.94-.5-3.64-.71-5.61-1.41-13.22-3.23-26.03-9.08-38.12l12.44-.8c8.17-1.29,16.55-1.73,24.69-3.16Z"/>
    <path class="st31" d="M265.84,458.31c.85,2.89-1.84,5.19-3.06,7.81-5.21,11.22-5.85,25.07-7.01,37.23-.94,3.66-7.31,4.85-10.48,5.52,1.32-2.11,2.39-4.24,2.98-6.69,2.58-10.59,2.35-40.88,15.67-44.01.95-.22,1.5.19,1.88.14Z"/>
    <path class="st7" d="M76.24,471.34c2.43-.71,4.78,4.11,5.49,6.23.82,2.44,1.62,4.87,2.33,7.35,2.19,10.93,5.57,21.32,10.15,31.17.33.96-.03,1.46-.98,1.06-6.13-7.02-10.95-16.02-14.12-24.79-1.95-5.37-5.39-15.87-2.86-21.03Z"/>
    <path class="st27" d="M470.84,468.97l.08,1.21c-3.08,4.45-5.16,9.47-6.23,15.07-2.03,10.5-5.38,20.34-10.04,29.54-1.41,1.68-2.56,3.65-4.55,4.74-.27.08-.27-.32-.19-.58,1.84-5.81,4.51-11.33,6.2-17.5,1.77-6.43,4.81-27.23,7.62-31.09,1.82-2.51,4.8-4.15,7.11-1.38Z"/>
    <path class="st10" d="M60.05,466.6c1.82-2.05,3.9,2.27,4.65,3.94,1.14,2.56,1.94,5.2,2.32,7.98,1.02,9.53,2.51,19.13,5.22,28.54,1.09.84,1.4,2.88-.33,2.6-4.97-7.51-8.67-15.27-10.87-24.09-1.03-4.12-3.47-15.65-.98-18.96Z"/>
    <path class="st26" d="M456.62,468.18l-.16,1.4c-2.89,3.56-4.65,7.83-5.99,12.18-2.33,9.36-5.63,18.77-10.05,27.11-1,1.15-1.68,2.57-3.15,3.76-.28.23-1.86,1.62-1.58.4.96-4.19,3.94-10.25,5.32-14.82,1.34-4.43,2.44-8.94,3.56-13.42,1.29-5.14,1.83-14.13,6.11-17.59,2.33-1.89,4.61-1.96,5.93,1Z"/>
    <path class="st37" d="M470.84,468.97c3.23,3.87-1.06,17.15-2.76,21.93-3.16,8.91-7.39,16.65-13.44,23.89l.78-2.97c5.6-11.02,6.96-23.62,11.05-35.16,1.07-3.02,2.46-5.16,4.36-7.69Z"/>
    <path class="st36" d="M90.46,469.76c1.38-2.37,4.04,2.64,4.89,4.24,1.55,2.93,2.71,6.05,3.68,9.22,2.27,8.53,5,16.97,8.44,25.12.28.96.38,1.67-.81,1.71-2.6-3.06-4.76-5.63-6.88-9.12-4.38-7.2-12.17-22.97-9.32-31.17Z"/>
    <path class="st0" d="M76.24,471.34c2.42-4.95,7.29-.34,8.6,3.05,2.36,12.24,4.7,24.13,8.67,35.96.98,2.91,3.61,7.95,4.06,10.56.04.23.1.65-.2.59-1.46-1.38-2.83-2.83-4.15-4.34.85-.27-.03-1.16-.23-1.54-6.01-11.24-7.61-25.76-12-37.77-.9-2.45-2.46-5.2-4.75-6.51Z"/>
    <path class="st28" d="M158,182.6c-.48-.67-2.17-1.1-1.83-2.38.19-.68,2.59-3.37,3.21-4.73,3.09-6.74,4.48-16.47,7.3-23.9,1.05-2.78,8.14-18.41,10.15-19.1,2.34-.8,3.08,2.55,4.87,3.11-.89.12-2.04,1.02-2.61,1.73-2.16,2.71-6.04,9.53-7.6,12.75-4.83,9.98-7.93,20.71-12.14,30.92-.24.59-.79,1.28-1.35,1.61Z"/>
    <path class="st29" d="M475.58,507.29c-1.13.32-1.06-.59-.9-1.54,3.23-9.18,4.85-18.6,5.89-28.32.65-4.42,1.88-8.61,3.98-12.41.43-.48,1.12-.61,2.09-.38,2.07,2.04,1.77,5.2,1.6,8.11-.7,11.59-6.45,24.93-12.66,34.55Z"/>
    <path class="st12" d="M90.46,469.76c1.17-3.37,4.51-2.95,6.72-.6,3.74,3.98,4.83,15.03,6.26,20.6,2.24,8.73,5.09,17.4,8.74,25.63-.39.64-.87-.13-1.19-.39-1.84-1.55-2.9-3.25-4.34-4.94.58-.67-.3-2.45-.58-3.17-1.32-3.4-2.77-6.82-3.95-10.27-2.76-8.12-4.62-19.74-10.11-26.14-.35-.41-.94-1.44-1.56-.71Z"/>
    <path class="st18" d="M440.43,508.87c-.81-.37-.17-1.22.05-1.73,1.77-4.04,3.79-7.93,5.27-12.11,3.2-9.07,4.25-19.49,10.88-26.84,2.62,5.84-2.73,19.07-5.47,24.75-2.97,6.17-6.31,10.85-10.73,15.93Z"/>
    <path class="st23" d="M486.64,464.63c-.29,1.12-1.1.38-1.14.43-.87.92-2.64,5.65-3.02,7.06-1.81,6.77-2.01,14.5-3.46,21.43-.76,3.62-1.99,6.9-3.02,10.41-.24.83-.93,2.58-.42,3.33-1.19,1.85-2.16,4.17-3.95,5.53,2.29-9.69,4.3-19.5,5.52-29.43.7-5.65-.2-14.78,4.94-18.76,2.06-1.59,2.85-1.67,4.54,0Z"/>
    <path class="st11" d="M60.05,466.6c2.16-2.89,5.56.24,7.04,2.24,3.75,5.05,2.63,12.07,3.23,18.1.97,9.72,3.6,19.24,5.92,28.64-2.03-1.46-3.02-3.92-4.34-5.92,1.11-1.23-.32-2.09-.37-2.27-1.62-5.81-2.95-11.72-3.93-17.73-1.15-7.05-.83-15.78-5.33-21.52-.67-.86-.43-2.38-2.23-1.54Z"/>
    <path class="st19" d="M152.82,200.33c-1.72,1-3.53-5.26-3.81-6.56-1.03-4.85.15-8.06,4.39-10.74,4.34,3.15,3.41,9.34,1.52,13.68-.2.46-1.92,3.52-2.1,3.62Z"/>
    <path class="st20" d="M191.18,241.85c-.2.03-1.16-.73-1.81-.79-3.12-.31-6.21,5.39-7.81,5.07-1.36-.27-6.2-5.44-7.75-6.45.36-.63.85-.47,1.37-.6,1.76-.44,4.37-1.07,6.13-1.18.05,0,.32.39.92.35,4.06-.25,8.16-.72,12.25-.69.9.36.52.89.04,1.5-.24.3-3.12,2.76-3.34,2.78Z"/>
    <path class="st2" d="M188.42,503.73c1.54,2.27,3.64,4.34,5.53,6.32l-26.46-.79c.65-1.44,2.15-2.02,3.16-2.76,6.25-.84,12.18-1.77,17.77-2.76Z"/>
    <path class="st5" d="M182.1,233.16c-3.91,1.26-7.78,2.63-11.98,2.72-2.06-2.17-3.75-4.6-5.4-7.06.96-.41-.32-1.46-.4-1.78-.05-.23,1.3.08.4-1.37.61-.57,3.29,1.98,4.07,2.44,4.11,2.43,8.61,4.19,13.31,5.06Z"/>
    <path class="st33" d="M188.42,503.73c.24,1.15-.57.72-1.25.9-3.58.96-10.48,1.85-14.36,2.26-.63.07-1.77.23-2.16-.39,3.58-2.64,7.96-4.91,12.33-6.04,5.1-1.32,3.2-.03,5.44,3.27Z"/>
    <path class="st8" d="M184.47,496.23c-.07.07-1.41.01-1.99.18-2.03.57-3.89,1.62-5.91,2.19,1.14-1.12,5.64-4.2,6.99-4.28,1.04-.06,1.11,1.71.91,1.92Z"/>
    <g>
      <path class="st34" d="M184.47,131.64c.42-.74.5-1.19.57-2.04,23.1-25.54,62.65-24.21,93.93-14.1,23.72,7.67,44.7,21.17,56.69,43.44,6.26,11.79,12.91,22.95,21.67,33.12,1.56,2.97-6.47,2.49-7.98,2.04-1,.46,6.17,8.58,7.08,9.56.59,1.23,1.63,2.36,3.13,3.4,3.93,4.57-.59,4.56-4.21,4.48-1.03.33,1.19,5.34,1.64,6.35,3.75,7.32,7.28,14.7,10.58,22.13,5.71,4.9,11.2,10.07,16.54,16.16,25.72,29.28,51.25,61.91,71.4,95.34,17.75,29.44,34.07,62.6,34.72,97.32l.36.36c-.37,3.48-1.11,6.89-1.98,10.27-1.83-.58-3.98-1.15-5.92-.79-1.13-.27-2.24.03-3.33.92-27.12,6.07-43.15-26.52-52.56-46.8-11.73-25.3-23.27-51.85-32.2-78.55-2.81-22.83-7.39-45.88-13.54-68.02-.47-1.69-2.03-8.05-2.86-8.99-1.12-1.27-3.55-1.05-4.05.66-.36,1.22.19,2.9.43,4.14,1.61,8.5,4.52,17.4,6.41,25.98,14.55,66.11,18.1,140.09-2.47,205.31-1.12,3.56-2.64,9.52-5.45,11.93-8.17,7.04-36.81,5.46-47.19,3.56-4.03-1.13-5.5-6.41-6.18-10.16-3.46-19.03,6.43-32.27,21.19-42.38,4.94-.87,4.55-4.99,1-5.07-4.16-.09-10.94,1.47-15.42,1.9-12.96,1.25-26.09,2.38-39.08,2.79-4.13.13-16.67-.81-19.45.69-.7.38-1.64,1.6-2.09,1.66-.03.33-.16.74-.44.75-8.8.41-11.4,12.88-12.85,20.02-1.13,7.8-2.3,15.56-3.51,23.29-.49,2.91-1.74,5.08-3.75,6.5-10.2,2.16-25.31,2.27-35.74,1.18-5.76-.6-10.12-1.18-14.02-5.73-10.98-12.84-15.47-48.28-17.34-65.21-.72-6.53-1.82-14.65-1.63-21.09l-.13-2.65c3.34-9.8,6.94-20.15,11.01-30.27,9.59-21.63,18.08-43.31,25.45-65.04.99-1.77,4.5-7.67,4.34-9.24-.1-1.06-1.2-2.38-2.26-2.54s-2.04.89-2.87,1.52c-31.34,35.99-62.93,75.57-89.48,116.75-4.27,6.36-8.8,12.63-13.44,18.52-12.42,15.76-29.34,22.72-47.94,12.3.5,2.15.09,3.26-1.21,3.32-.2-.32-.38-.64-.51-.98-.93-2.41.23-13.33.66-16.64,3.64-28.01,23.47-61.02,39.86-83.89,27.72-38.67,58.14-75.15,89.41-110.39l3.99-5.18c-.94.32-1.57.13-1.88-.56,0-.21-.44-.81-.39-1.18l-.16-.83,2.99-2.59c-4.26.18-8.48.32-12.68.42l-.03-.96c13.17-4.64,25.42-11.73,32.46-24.22,12.37-21.97,12.68-72.8-17.06-81.04-4.76-1.32-7.74-.56-12.24-.99Z"/>
      <g>
        <path class="st35" d="M330.22,314.93c.52.35.49,6.23.39,7.3-.87,9.68-7.42,15.26-13.49,4.81-.64-1.1-3.45-6.55-2.3-7.37.79-.15,1.06.09,1.59.58,1.3,1.2,2.73,4.89,4.33,6.73.37.42,2.1,2.24,2.39,2.37,2.14.96,3.63-3.47,4.05-5.03.55-2.01.79-7.5,1.54-8.73.34-.57.99-1.01,1.5-.67Z"/>
        <path class="st30" d="M316.01,267.92c2.22-.59,2.23,2.05,2.36,3.76,1.01,12.87-6.72,20.39-14.53,6.63-.53-.94-2.8-4.49-.67-4.48,1.7.01,6.62,9.73,9.57,8.42,2.77-1.23,2.86-11.52,3.27-14.34Z"/>
        <path class="st6" d="M308.5,221.11c.28-.96,1.53-.76,2.07.3,1.29,2.55,1.02,10.44-.08,13.14-3.33,8.15-10.3,1.79-13.21-3.01-.82-1.34-2.53-4.76.56-3.32,1.63.76,4.51,6.92,7.71,6.95,1.64.02,2.96-4.16,2.96-5.37,0-1.87-.38-7.38,0-8.69Z"/>
        <path class="st30" d="M344.84,262.19c.24-.82,1.36-.8,1.94.04,1.12,1.64,1.42,7.66,1.04,9.66-.73,3.85-3.84,5.63-7.3,3.31-1.02-.68-6.91-6.72-4.17-7.28,1.32-.27,5.67,6.4,7.71,4.96.13-.09.77-1.48.77-1.6,0-1.94-.39-7.73,0-9.08Z"/>
        <path class="st15" d="M328.59,229.55c1.04-.65.32-8.82.44-10.42s.97-1.22,1.77-.18c1.8,2.37,2.12,10.63-.21,12.8-3.52,3.27-9.46-2.38-10.23-5.86.44-.76.84-.7,1.58-.47,1.58.5,4.59,5.41,6.65,4.13Z"/>
        <path class="st22" d="M348.79,310.18c2.54-.85,2.64,2.21,2.76,4.15.42,7.03-3.46,14.79-9.8,7.04-.63-.77-3.71-5.84-1.06-5.26,1.18.26,5.16,7.71,7.1,4.32.18-.31,1.01-3.83,1.01-4.13v-6.12Z"/>
        <path class="st15" d="M319.37,358.38c2.61-.84,1.53,6.03,1.27,7.19-1.29,5.72-5.45,8.68-9.23,2.73-.61-.96-2.9-5.22-.73-5.21,1.69,0,3.3,6.48,5.73,4.97,1.68-1.05,2.08-9.4,2.96-9.69Z"/>
        <path class="st17" d="M347.04,369.28c-.96,1.35-3.03,1.66-4.47,1.03-2.13-.92-6.43-7.86-3.46-7.2.89.2,4.3,5.54,5.71,4.32.25-.21,1.04-4.24,1.16-4.96.25-1.46-.54-3.91,1.43-4.49,2.04,2.63,1.51,8.66-.36,11.3Z"/>
        <path class="st24" d="M313.64,399.46c1.69-1.65,4.27,5.53,6.08,5.1,1.66-.39,2.66-8.66,4.38-8.27,2.1.49.45,12.94-6.14,10.88-1.95-.61-5.23-6.84-4.32-7.72Z"/>
      </g>
    </g>
    <g>
      <path class="st4" d="M214.35,187.87c.85,1,2.41,2.76,2.54,4,.24,2.31-1.73,9.23-2.6,11.65-.69,1.91-6.02,13.43-7.5,13.43-5.22-8.32-12.04-14.11-20.47-19.02-6.66-3.87-15.29-6.27-17.95-14.44-2.96-9.09.99-19.25,11.93-17.85,10.57,1.35,27.25,14.15,34.06,22.23Z"/>
      <path class="st3" d="M173.56,185.2c-3.29-2.39-2.69-10.79,1.54-12.17,2.48-.81,4.41-.33,5.82,1.86,3.52,5.47-.79,15.09-7.36,10.31Z"/>
    </g>
  </g>
</svg>