<?xml version="1.0" encoding="UTF-8"?>
<svg id="Layer_1" xmlns="http://www.w3.org/2000/svg" version="1.1" viewBox="0 0 470.88 689.03">
  <!-- Generator: Adobe Illustrator 29.6.1, SVG Export Plug-In . SVG Version: 2.1.1 Build 9)  -->
  <defs>
    <style>
      .st0 {
        fill: #732f48;
      }

      .st0, .st1, .st2, .st3, .st4, .st5, .st6, .st7, .st8, .st9, .st10, .st11, .st12, .st13, .st14, .st15, .st16, .st17, .st18, .st19, .st20, .st21, .st22, .st23, .st24, .st25, .st26, .st27, .st28, .st29, .st30, .st31, .st32, .st33, .st34, .st35, .st36, .st37, .st38, .st39, .st40, .st41, .st42, .st43, .st44, .st45, .st46, .st47, .st48, .st49, .st50, .st51, .st52, .st53, .st54, .st55, .st56, .st57, .st58, .st59, .st60, .st61, .st62, .st63, .st64, .st65, .st66, .st67, .st68, .st69, .st70, .st71, .st72, .st73, .st74, .st75, .st76, .st77, .st78, .st79, .st80, .st81, .st82, .st83, .st84, .st85, .st86, .st87, .st88, .st89, .st90, .st91, .st92, .st93, .st94, .st95, .st96, .st97, .st98, .st99, .st100, .st101, .st102, .st103, .st104, .st105, .st106, .st107, .st108, .st109, .st110, .st111, .st112, .st113, .st114, .st115, .st116, .st117, .st118, .st119, .st120, .st121, .st122, .st123, .st124, .st125, .st126, .st127, .st128, .st129, .st130, .st131, .st132, .st133, .st134, .st135, .st136, .st137, .st138, .st139, .st140, .st141, .st142, .st143, .st144, .st145, .st146, .st147, .st148, .st149, .st150, .st151, .st152, .st153, .st154, .st155, .st156, .st157, .st158, .st159, .st160, .st161, .st162, .st163, .st164, .st165, .st166, .st167, .st168, .st169, .st170, .st171, .st172, .st173, .st174, .st175, .st176, .st177, .st178, .st179, .st180, .st181, .st182, .st183, .st184, .st185, .st186, .st187 {
        fill-rule: evenodd;
      }

      .st1 {
        fill: #473139;
      }

      .st2 {
        fill: #6b4250;
      }

      .st3 {
        fill: #72565f;
      }

      .st4 {
        fill: #616161;
      }

      .st5 {
        fill: #323232;
      }

      .st6 {
        fill: #cbc9c9;
      }

      .st7 {
        fill: #94526a;
      }

      .st8 {
        fill: #da6c95;
      }

      .st9 {
        fill: #55464b;
      }

      .st10 {
        fill: #cbcaca;
      }

      .st11 {
        fill: #7d334e;
      }

      .st12 {
        fill: #dfdade;
      }

      .st13 {
        fill: #785461;
      }

      .st14 {
        fill: #bebebe;
      }

      .st15 {
        fill: #af5b7b;
      }

      .st16 {
        fill: #a59b9e;
      }

      .st17 {
        fill: #0b0b0c;
      }

      .st18 {
        fill: #b0b2b0;
      }

      .st19 {
        fill: #673f4c;
      }

      .st20 {
        fill: #dfe0e2;
      }

      .st21 {
        fill: #765c64;
      }

      .st22 {
        fill: #6b5458;
      }

      .st23 {
        fill: #561c30;
      }

      .st24 {
        fill: #806e74;
      }

      .st25 {
        fill: #7d4b5b;
      }

      .st26 {
        fill: #b7b3b4;
      }

      .st27 {
        fill: #d0cfcf;
      }

      .st28 {
        fill: #c6c5c5;
      }

      .st29 {
        fill: #67434f;
      }

      .st30 {
        fill: #c1bcc0;
      }

      .st31 {
        fill: #704b58;
      }

      .st32 {
        fill: #57444d;
      }

      .st33 {
        fill: #753249;
      }

      .st34 {
        fill: #4d4d4d;
      }

      .st35 {
        fill: #762f47;
      }

      .st36 {
        fill: #623c47;
      }

      .st37 {
        fill: #434344;
      }

      .st38 {
        fill: #6d2a3e;
      }

      .st39 {
        fill: #b9b9b9;
      }

      .st40 {
        fill: #e97ba4;
      }

      .st41 {
        fill: #4d4e50;
      }

      .st42 {
        fill: #afabad;
      }

      .st43 {
        fill: #b3abad;
      }

      .st44 {
        fill: #4b2c36;
      }

      .st45 {
        fill: #c14f78;
      }

      .st46 {
        fill: #ea769e;
      }

      .st47 {
        fill: #c4b3b9;
      }

      .st48 {
        fill: #8b8788;
      }

      .st49 {
        fill: #928a8c;
      }

      .st50 {
        fill: #74304a;
      }

      .st51 {
        fill: #714b58;
      }

      .st52 {
        fill: #aea9a9;
      }

      .st53 {
        fill: #d95587;
      }

      .st54 {
        fill: #5f3043;
      }

      .st55 {
        fill: #d3d3d3;
      }

      .st56 {
        fill: #b2b1b0;
      }

      .st57 {
        fill: #5d5d5d;
      }

      .st58 {
        fill: #9b4c69;
      }

      .st59 {
        fill: #bebebc;
      }

      .st60 {
        fill: #775b65;
      }

      .st61 {
        fill: #a7a0a3;
      }

      .st62 {
        fill: #693d4b;
      }

      .st63 {
        fill: #762c45;
      }

      .st64 {
        fill: #636362;
      }

      .st65 {
        fill: #d1d0cf;
      }

      .st66 {
        fill: #151515;
      }

      .st67 {
        fill: #a1516e;
      }

      .st68 {
        fill: #69404c;
      }

      .st69 {
        fill: #75364d;
      }

      .st70 {
        fill: #d84d7b;
      }

      .st71 {
        fill: #655057;
      }

      .st72 {
        fill: #7f7f7f;
      }

      .st73 {
        fill: #9f4e6e;
      }

      .st74 {
        fill: #55303d;
      }

      .st75 {
        fill: #cc638c;
      }

      .st76 {
        fill: #c55a7e;
      }

      .st77 {
        fill: #c6567c;
      }

      .st78 {
        fill: #cdcdcc;
      }

      .st79 {
        fill: #e6769e;
      }

      .st80 {
        fill: #613943;
      }

      .st81 {
        fill: #db7a9a;
      }

      .st82 {
        fill: #c2c2c2;
      }

      .st83 {
        fill: #dc5787;
      }

      .st84 {
        fill: #464646;
      }

      .st85 {
        fill: #666264;
      }

      .st86 {
        fill: #e3709b;
      }

      .st87 {
        fill: #867c7f;
      }

      .st88 {
        fill: #696969;
      }

      .st89 {
        fill: #b7b3b6;
      }

      .st90 {
        fill: #b2a1a9;
      }

      .st91 {
        fill: #bfbbbc;
      }

      .st92 {
        fill: #66404d;
      }

      .st93 {
        fill: #464847;
      }

      .st94 {
        fill: #943c58;
      }

      .st95 {
        fill: #df7399;
      }

      .st96 {
        fill: #624a4f;
      }

      .st97 {
        fill: #727273;
      }

      .st98 {
        fill: #968d90;
      }

      .st99 {
        fill: #8c3956;
      }

      .st100 {
        fill: #454243;
      }

      .st101 {
        fill: #794a59;
      }

      .st102 {
        fill: #555553;
      }

      .st103 {
        fill: #744456;
      }

      .st104 {
        fill: #de7499;
      }

      .st105 {
        fill: #bcbbbc;
      }

      .st106 {
        fill: #82445a;
      }

      .st107 {
        fill: #707172;
      }

      .st108 {
        fill: #2e2427;
      }

      .st109 {
        fill: #d8d4d7;
      }

      .st110 {
        fill: #cb678d;
      }

      .st111 {
        fill: #b7b7b6;
      }

      .st112 {
        fill: #cdcdcd;
      }

      .st113 {
        fill: #653d4c;
      }

      .st114 {
        fill: #8b495e;
      }

      .st115 {
        fill: #a75572;
      }

      .st116 {
        fill: #68424f;
      }

      .st117 {
        fill: #767676;
      }

      .st118 {
        fill: #4b1c2f;
      }

      .st119 {
        fill: #dc5c8a;
      }

      .st120 {
        fill: #484848;
      }

      .st121 {
        fill: #5d3f4a;
      }

      .st122 {
        fill: #ba6686;
      }

      .st123 {
        fill: #8d8a8d;
      }

      .st124 {
        fill: #636466;
      }

      .st125 {
        fill: #603848;
      }

      .st126 {
        fill: #606163;
      }

      .st127 {
        fill: #c96482;
      }

      .st128 {
        fill: #646162;
      }

      .st129 {
        fill: #676767;
      }

      .st130 {
        fill: #cccccb;
      }

      .st131 {
        fill: #555454;
      }

      .st132 {
        fill: #5d5f5e;
      }

      .st133 {
        fill: #999;
      }

      .st134 {
        fill: #424142;
      }

      .st135 {
        fill: #ef73a0;
      }

      .st136 {
        fill: #694451;
      }

      .st137 {
        fill: #7d7e7e;
      }

      .st138 {
        fill: #683b46;
      }

      .st139 {
        fill: #5f2b3e;
      }

      .st140 {
        fill: #cacaca;
      }

      .st141 {
        fill: #c56f8f;
      }

      .st142 {
        fill: #585858;
      }

      .st143 {
        fill: #ebebeb;
      }

      .st144 {
        fill: #e86c9c;
      }

      .st145 {
        fill: #5e3847;
      }

      .st146 {
        fill: #b3b2b2;
      }

      .st147 {
        fill: #9ea09f;
      }

      .st148 {
        fill: #4e2d3a;
      }

      .st149 {
        fill: #9a9292;
      }

      .st150 {
        fill: #f1729e;
      }

      .st151 {
        fill: #d3d2d1;
      }

      .st152 {
        fill: #6f2b44;
      }

      .st153 {
        fill: #7d5562;
      }

      .st154 {
        fill: #cbcbcb;
      }

      .st155 {
        fill: #72354a;
      }

      .st156 {
        fill: #b1aeaf;
      }

      .st157 {
        fill: #6f585f;
      }

      .st158 {
        fill: #dc5585;
      }

      .st159 {
        fill: #af5d78;
      }

      .st160 {
        fill: #c76085;
      }

      .st161 {
        fill: #1b1b1b;
      }

      .st162 {
        fill: #c4c5c4;
      }

      .st163 {
        fill: #727374;
      }

      .st164 {
        fill: #6d3c4c;
      }

      .st165 {
        fill: #cac8c8;
      }

      .st166 {
        fill: #6b394a;
      }

      .st167 {
        fill: #893a58;
      }

      .st168 {
        fill: #2f292b;
      }

      .st169 {
        fill: #242526;
      }

      .st170 {
        fill: #8c7a81;
      }

      .st171 {
        fill: #f4729e;
      }

      .st172 {
        fill: #7a3855;
      }

      .st173 {
        fill: #6b2a40;
      }

      .st174 {
        fill: #c9c7c6;
      }

      .st175 {
        fill: #3b252c;
      }

      .st176 {
        fill: #de739b;
      }

      .st177 {
        fill: #722d46;
      }

      .st178 {
        fill: #dd5686;
      }

      .st179 {
        fill: #714a58;
      }

      .st180 {
        fill: #c6547a;
      }

      .st181 {
        fill: #de7299;
      }

      .st182 {
        fill: #f4719e;
      }

      .st183 {
        fill: #d1cdcb;
      }

      .st184 {
        fill: #593545;
      }

      .st185 {
        fill: #d36e91;
      }

      .st186 {
        fill: #b4b1b0;
      }

      .st187 {
        fill: #702f48;
      }
    </style>
  </defs>
  <path class="st64" d="M452.62,141.98c-.89-.61-1.89-.94-3-1,1.5-7,3-14,4.5-21,.82-6.85.65-13.51-.5-20-1.2-2.48-2.7-2.48-4.5,0-3.52,10.23-6.85,20.56-10,31-.38.56-.88.89-1.5,1h-1c3.42-10.58,6.42-21.25,9-32v-8c-1.64-.21-3.14.12-4.5,1-2.8,4.6-5.3,9.27-7.5,14-.09-2.29-.76-4.29-2-6,.82-3.26,1.16-6.6,1-10-1.89-.2-3.39.46-4.5,2-8.44,12.48-13.6,26.15-15.5,41-.84-.34-1.17-1.01-1-2,.22-1.68-.45-2.68-2-3,3.73-12.66,8.89-24.66,15.5-36,1.91-3.51,4.74-4.68,8.5-3.5.79,3.08,1.29,6.24,1.5,9.5,1.75-3.42,3.91-6.59,6.5-9.5,1.33-.67,2.67-.67,4,0,1.74,2.19,2.9,4.69,3.5,7.5,2.38-1.37,4.55-1.03,6.5,1,1.16,7.98,1.33,15.98.5,24-1.75,6.58-2.92,13.24-3.5,20Z"/>
  <path class="st5" d="M428.96,100.98c1.24,1.71,1.91,3.71,2,6-.96,1.8-1.62,3.8-2,6-.9-.71-1.24-1.71-1-3,.8-2.93,1.13-5.93,1-9Z"/>
  <path class="st154" d="M428.96,100.98c.13,3.07-.2,6.07-1,9-2.4,7.04-4.06,14.38-5,22-3.63,5.6-7.97,6.26-13,2,1.9-14.85,7.06-28.52,15.5-41,1.11-1.54,2.61-2.2,4.5-2,.16,3.4-.18,6.74-1,10Z"/>
  <path class="st78" d="M442.96,99.98c-.84,1.14-1.51,2.47-2,4-.82.89-1.82,1.22-3,1-.29,5.48-1.95,10.48-5,15-1.59-1.61-2.59-3.61-3-6,.87-2.25,1.21-4.58,1-7,2.2-4.73,4.7-9.4,7.5-14,1.36-.88,2.86-1.21,4.5-1v8Z"/>
  <path class="st10" d="M453.62,99.98c.32,3.73-.01,7.39-1,11-2.61,6.78-4.44,13.78-5.5,21-1.68,2.79-3.18,5.62-4.5,8.5,1.41.37,2.41,1.2,3,2.5-1.96,1.02-3.96,1.02-6,0-1.82-3.35-2.49-7.01-2-11,.62-.11,1.12-.44,1.5-1,3.15-10.44,6.48-20.77,10-31,1.8-2.48,3.3-2.48,4.5,0Z"/>
  <path class="st102" d="M427.96,109.98c-.24,1.29.1,2.29,1,3-1.51,6.29-2.85,12.63-4,19h-2c.94-7.62,2.6-14.96,5-22Z"/>
  <path class="st42" d="M227.96,117.98v3h-21c7.09-.41,14.09-1.41,21-3Z"/>
  <path class="st60" d="M227.96,117.98c9.62,1.23,19.28,2.06,29,2.5.92.28,1.58.78,2,1.5-7.67.17-15.34,0-23-.5-2.3-3.35-4.3-3.18-6,.5h-26c-1.53-.07-2.53.59-3,2-1.27-.69-1.27-1.52,0-2.5,1.97-.5,3.97-.66,6-.5h21v-3Z"/>
  <path class="st59" d="M442.96,99.98c-2.58,10.75-5.58,21.42-9,32-1.78,1.84-4.11,2.51-7,2-1-.33-1.67-1-2-2,1.15-6.37,2.49-12.71,4-19,.38-2.2,1.04-4.2,2-6,.21,2.42-.13,4.75-1,7,.41,2.39,1.41,4.39,3,6,3.05-4.52,4.71-9.52,5-15,1.18.22,2.18-.11,3-1,.49-1.53,1.16-2.86,2-4Z"/>
  <path class="st56" d="M453.62,99.98c1.15,6.49,1.32,13.15.5,20-1.5,7-3,14-4.5,21-1,1.67-2.33,3-4,4-2.51.45-4.51-.22-6-2,2.04,1.02,4.04,1.02,6,0-.59-1.3-1.59-2.13-3-2.5,1.32-2.88,2.82-5.71,4.5-8.5,1.06-7.22,2.89-14.22,5.5-21,.99-3.61,1.32-7.27,1-11Z"/>
  <path class="st114" d="M258.96,121.98c3.21-.31,6.21.02,9,1h-5c-.07,1.46.27,2.79,1,4h-3v-4c-8.67.17-17.34,0-26-.5-1.46-1.63-3.13-1.79-5-.5,1.7-3.68,3.7-3.85,6-.5,7.66.5,15.33.67,23,.5Z"/>
  <path class="st155" d="M203.96,121.98h26c-8.16.83-16.49,1.33-25,1.5,2.63,2.6,1.96,4.1-2,4.5.45-.96,1.12-1.79,2-2.5-.84-1.01-1.17-2.18-1-3.5Z"/>
  <path class="st48" d="M200.96,123.98c.9.71,1.24,1.71,1,3h-4c1.4-.6,2.4-1.6,3-3Z"/>
  <path class="st183" d="M267.96,122.98c.9.71,1.24,1.71,1,3,2.03-.16,4.03,0,6,.5-1.1.77-1.1,1.6,0,2.5-2.25-.96-4.58-1.62-7-2v-4Z"/>
  <path class="st44" d="M203.96,121.98c-.17,1.32.16,2.49,1,3.5-.88.71-1.55,1.54-2,2.5-2,.33-4,.67-6,1,.33-.67.67-1.33,1-2h4c.24-1.29-.1-2.29-1-3,.47-1.41,1.47-2.07,3-2Z"/>
  <path class="st135" d="M263.96,126.98c6.78,3.04,13.78,5.71,21,8,3.46,3.24,7.46,5.74,12,7.5-1,.83-2,1.67-3,2.5,3.35,3.02,6.69,6.02,10,9,3.19,4.92,6.19,9.92,9,15,.5,2.51,1.16,5.01,2,7.5-.25,1.72-.91,3.22-2,4.5,2.63,2.1,2.63,4.1,0,6-.67-1.67-1.33-3.33-2-5-.61.12-.94.46-1,1-4.56-6.11-8.9-12.45-13-19v-5c-1.32-.17-2.49.16-3.5,1-1.05-2.31-2.89-3.64-5.5-4-.33-.33-.67-.67-1-1,1.24-.78,2.24-1.78,3-3-2.57-1.35-4.9-1.02-7,1-10.58-4.36-21.24-5.03-32-2-5.45,3.04-11.12,5.71-17,8-6.99-2.49-13.99-4.99-21-7.5-6.67-.67-13.33-.67-20,0-15.26,5.76-26.6,15.93-34,30.5-2.27-.41-2.6-1.58-1-3.5-.11-1.28-.78-2.11-2-2.5-.72,2.19-1.39,4.35-2,6.5-1.61.66-2.78.16-3.5-1.5-1.11,1.21-1.61.88-1.5-1,4.88-13.49,12.88-24.49,24-33,.6-.24.93-.74,1-1.5-.93-1.08-1.6-2.24-2-3.5,8.53-4.1,16.86-8.43,25-13,2-.33,4-.67,6-1,3.96-.4,4.63-1.9,2-4.5,8.51-.17,16.84-.67,25-1.5,1.87-1.29,3.54-1.13,5,.5,8.66.5,17.33.67,26,.5v4h3Z"/>
  <path class="st80" d="M267.96,122.98v4c2.42.38,4.75,1.04,7,2,3.71,1.51,7.04,3.51,10,6-7.22-2.29-14.22-4.96-21-8-.73-1.21-1.07-2.54-1-4h5Z"/>
  <path class="st71" d="M433.96,131.98h1c-.49,3.99.18,7.65,2,11,1.49,1.78,3.49,2.45,6,2-1.07.93-2.4,1.27-4,1-3.12-.79-4.79-2.79-5-6v-5c-2.56.3-4.89-.03-7-1,2.89.51,5.22-.16,7-2Z"/>
  <path class="st164" d="M407.96,131.98h1c-.17.99.16,1.66,1,2,5.03,4.26,9.37,3.6,13-2h2c.33,1,1,1.67,2,2,2.11.97,4.44,1.3,7,1v5c-.93-1.07-1.27-2.4-1-4-2.9.18-5.73-.15-8.5-1-5.39,5.26-10.72,5.26-16,0-.48-.95-.65-1.95-.5-3Z"/>
  <path class="st67" d="M171.96,141.98c.4,1.26,1.07,2.42,2,3.5-.07.76-.4,1.26-1,1.5-.73-1.54-2.06-2.38-4-2.5.87-1.04,1.87-1.88,3-2.5Z"/>
  <path class="st96" d="M284.96,134.98c6.26,2.08,11.92,5.25,17,9.5-.52.95-1.19,1.78-2,2.5,2.43,2.42,4.43,5.09,6,8-.67-.33-1.33-.67-2-1-3.31-2.98-6.65-5.98-10-9,1-.83,2-1.67,3-2.5-4.54-1.76-8.54-4.26-12-7.5Z"/>
  <path class="st136" d="M197.96,126.98c-.33.67-.67,1.33-1,2-8.14,4.57-16.47,8.9-25,13-1.13.62-2.13,1.46-3,2.5,1.94.12,3.27.96,4,2.5-11.12,8.51-19.12,19.51-24,33-1.56,1.99-2.56,4.32-3,7,1.12.71,2.12,1.88,3,3.5-.4,2.21-1.4,4.05-3,5.5-.12-3.36-.45-6.69-1-10v-2c4.61-13.21,11.77-24.87,21.5-35-.33-1.67-.67-3.33-1-5,8.5-5.25,17.16-10.25,26-15,2.15-.77,4.32-1.44,6.5-2Z"/>
  <path class="st92" d="M296.96,163.98c4.1,6.55,8.44,12.89,13,19,.89,3.93,2.22,7.6,4,11,.65,1.93.98,3.93,1,6,.66,3.97.99,7.97,1,12-.67,0-1-.33-1-1-1.02-7.07-2.52-14.07-4.5-21-5.93-15.26-16.1-26.76-30.5-34.5-10.25-2.76-20.59-3.09-31-1-5.25,2.79-10.58,5.29-16,7.5-5.25-2.59-10.58-5.09-16-7.5-14.45-3.97-27.45-1.47-39,7.5-14.97,12.72-22.97,29.05-24,49-.67,0-1,.33-1,1-.99,5.14-1.32,10.47-1,16h-1c-.27-7.72.07-15.39,1-23,1.95-7.07,4.29-14.07,7-21v-2c7.4-14.57,18.74-24.74,34-30.5,6.67-.67,13.33-.67,20,0,7.01,2.51,14.01,5.01,21,7.5,5.88-2.29,11.55-4.96,17-8,8.82-1.71,17.49-1.21,26,1.5,7.18,3.08,13.85,6.92,20,11.5Z"/>
  <path class="st185" d="M454.62,179.98c.27,1.6-.07,2.93-1,4,.17-9.34,0-18.67-.5-28-1.69-2.26-2.86-4.76-3.5-7.5.33-.33.67-.67,1-1-3.12.67-6.12.51-9-.5,3.03.16,5.86-.51,8.5-2,1.65.32,2.65,1.32,3,3,1.37,10.61,1.87,21.28,1.5,32Z"/>
  <path class="st104" d="M296.96,163.98c-6.15-4.58-12.82-8.42-20-11.5-8.51-2.71-17.18-3.21-26-1.5,10.76-3.03,21.42-2.36,32,2,2.1-2.02,4.43-2.35,7-1-.76,1.22-1.76,2.22-3,3,.33.33.67.67,1,1,2.61.36,4.45,1.69,5.5,4,1.01-.84,2.18-1.17,3.5-1v5Z"/>
  <path class="st166" d="M449.62,140.98c1.11.06,2.11.39,3,1,1.13,3.05,2.13,6.05,3,9v8c.32,7.19-.01,14.19-1,21,.37-10.72-.13-21.39-1.5-32-.35-1.68-1.35-2.68-3-3-2.64,1.49-5.47,2.16-8.5,2v-1c1.6.27,2.93-.07,4-1,1.67-1,3-2.33,4-4Z"/>
  <path class="st55" d="M314.96,210.98c-.74.13-1.41-.04-2-.5-5.69-8.68-13.02-15.68-22-21-2.02-.51-4.02-1.01-6-1.5-1.63-.66-3.47-.99-5.5-1-3.15-.14-5.98.53-8.5,2-3.29,1.62-5.96,3.96-8,7-1.41.47-2.07,1.47-2,3-.81,2.13-1.31,4.46-1.5,7-.87-.61-1.37-1.44-1.5-2.5.99-2.45,1.16-4.95.5-7.5-.93,2.27-2.27,4.27-4,6-.69-2.39-1.69-2.39-3,0-1.18-1.23-2.35-1.23-3.5,0,.21.59.54,1.09,1,1.5-1.29.49-2.63.66-4,.5-.42-.72-1.08-1.22-2-1.5-6.18-.82-12.18-.65-18,.5-1.79-.13-3.46.2-5,1-1.36-.51-2.36-1.51-3-3-3.47,1.67-5.3.67-5.5-3,.97,1.76,2.13,2.09,3.5,1-1.72-1.43-3.72-2.27-6-2.5,2.7-2.2,3.53-5.04,2.5-8.5-.41.46-.91.79-1.5,1-.81-1.89-2.14-3.22-4-4-1.03,1.54-2.36,2.04-4,1.5-1.17-1.76-2.84-2.76-5-3,2.76-1.54,2.6-2.71-.5-3.5-.33.67-.67,1.33-1,2-1.83-1.57-3.99-2.41-6.5-2.5-.95-2.91-2.95-4.08-6-3.5.28,3.54-1.38,5.37-5,5.5.95.48,1.95.65,3,.5.15,1.05-.02,2.05-.5,3-1.01-.84-2.18-1.17-3.5-1v-4c-2.1.3-4.1-.03-6-1,1.49-1.8,2.49-3.8,3-6-1.73.32-3.39.48-5,.5,1.18-2.26,2.85-4.1,5-5.5,1.21.77,1.21,1.61,0,2.5,1.63.22,2.63-.61,3-2.5-.53-.69-1.19-1.19-2-1.5,1.88-.92,2.88-2.42,3-4.5,11.55-8.97,24.55-11.47,39-7.5,5.42,2.41,10.75,4.91,16,7.5,5.42-2.21,10.75-4.71,16-7.5,10.41-2.09,20.75-1.76,31,1,14.4,7.74,24.57,19.24,30.5,34.5,1.98,6.93,3.48,13.93,4.5,21Z"/>
  <path class="st98" d="M455.62,150.98c1.53,5.42,2.2,11.08,2,17,0,4.18-.33,8.18-1,12,.32-7.19-.01-14.19-1-21v-8Z"/>
  <path class="st31" d="M406.96,128.98c1.55.32,2.22,1.32,2,3h-1c-1.05-.15-2.05.02-3,.5-3.54,3.2-6.7,6.7-9.5,10.5-7.42,14.83-14.25,29.83-20.5,45-.32-1.55-1.32-2.21-3-2v3c-1-.09-1.83.25-2.5,1-4.06,14.17-10.06,27.5-18,40-6.03,7.68-12.36,15.02-19,22-3.1,3.28-6.6,5.94-10.5,8,2.67-3,5.33-6,8-9,3.07-5.16,7.24-9.16,12.5-12,11.69-16.34,20.69-34.01,27-53,1.08-1.89,2.41-2.23,4-1,.83-1.16,1.66-2.33,2.5-3.5,5.05-12.95,10.55-25.78,16.5-38.5,4.04-5.54,8.88-10.21,14.5-14Z"/>
  <path class="st154" d="M177.96,161.98c-.12,2.08-1.12,3.58-3,4.5.81.31,1.47.81,2,1.5-.37,1.89-1.37,2.72-3,2.5,1.21-.89,1.21-1.73,0-2.5-2.15,1.4-3.82,3.24-5,5.5,1.61-.02,3.27-.18,5-.5-.51,2.2-1.51,4.2-3,6,1.9.97,3.9,1.3,6,1v4c1.32-.17,2.49.16,3.5,1,.48-.95.65-1.95.5-3-1.05.15-2.05-.02-3-.5,3.62-.13,5.28-1.96,5-5.5,3.05-.58,5.05.59,6,3.5,2.51.09,4.67.93,6.5,2.5.33-.67.67-1.33,1-2,3.1.79,3.26,1.96.5,3.5,2.16.24,3.83,1.24,5,3,1.64.54,2.97.04,4-1.5,1.86.78,3.19,2.11,4,4,.59-.21,1.09-.54,1.5-1,1.03,3.46.2,6.3-2.5,8.5,2.28.23,4.28,1.07,6,2.5-1.37,1.09-2.53.76-3.5-1,.2,3.67,2.03,4.67,5.5,3,.64,1.49,1.64,2.49,3,3-.33.67-.67,1.33-1,2-8.5,3.83-14.16,10.16-17,19-1.22,3.53-1.22,7.2,0,11-.62-.11-1.12-.44-1.5-1-.65-4.7-.48-9.37.5-14-2.72.46-5.39,1.13-8,2,5.64-3.48,10.14-8.14,13.5-14,2.55-10.39-1.28-17.22-11.5-20.5-7.77-2.45-15.11-1.45-22,3-7.23,5.73-13.57,12.23-19,19.5,1.03-19.95,9.03-36.28,24-49Z"/>
  <path class="st182" d="M446.96,207.98c-.34,2.35-.84,4.69-1.5,7-1.95,2.83-3.45,5.83-4.5,9-2.44,7.09-5.78,13.76-10,20-.21-1.64.12-3.14,1-4.5-1.52-1.9-2.18-4.06-2-6.5-2.41-.26-4.08.74-5,3-.98-2.59-1.31-5.25-1-8h-4c.76,2.64.93,5.31.5,8-1.29-2.79-3.13-5.12-5.5-7,2.33-2.07,1.66-3.07-2-3,.16-1.37-.01-2.71-.5-4-6.61,4.19-6.45,6.19.5,6v4h-8v3c2.75-.31,5.41.02,8,1-2.24-.08-4.57.25-7,1-.93,1.19-1.26,2.52-1,4h-8c.32,6.35.49,12.68.5,19-1.07.69-2.23,1.19-3.5,1.5-2.99,5.88-4.65,5.72-5-.5,4-.33,4-.67,0-1-.34-3.65,1.33-5.32,5-5v-3h-5v-8c-2.89-.46-5.39.21-7.5,2-2.3-5.71-3.13-11.71-2.5-18h10v-16h-4c.3-4.27-.04-8.43-1-12.5,1.47-3.1,2.8-6.27,4-9.5-1.16-3.07-2.66-3.4-4.5-1-.3-3.01-.14-6.01.5-9h3c1.58,5.12,2.25,10.46,2,16h16v16h16c-.31-2.42.03-4.76,1-7,.97,3.97,1.81,7.97,2.5,12,.33.33.67.67,1,1,.69-.86,1.52-1.52,2.5-2,.99,3.27,1.32,6.6,1,10,2.95.28,5.78-.06,8.5-1,3.61-9.3,5.44-18.97,5.5-29,.82,3.29,1.32,6.62,1.5,10,.33-.67.67-1.33,1-2,1.19,1.06,1.69,2.4,1.5,4Z"/>
  <path class="st40" d="M158.96,181.98v2c-1.35.98-2.35,2.32-3,4-.59-.21-1.09-.54-1.5-1-.53,6.07-1.36,12.07-2.5,18-.93,7.61-1.27,15.28-1,23-.83-4.48-1.33-9.15-1.5-14-.33,4.67-.67,9.33-1,14-.29-1.54-.96-2.88-2-4-.5,6.66-.67,13.32-.5,20-.99-8.48-1.33-17.15-1-26-1.2-5.31-1.2-10.64,0-16,.33-2,.67-4,1-6,1.6-1.45,2.6-3.29,3-5.5-.88-1.62-1.88-2.79-3-3.5.44-2.68,1.44-5.01,3-7-.11,1.88.39,2.21,1.5,1,.72,1.66,1.89,2.16,3.5,1.5.61-2.15,1.28-4.31,2-6.5,1.22.39,1.89,1.22,2,2.5-1.6,1.92-1.27,3.09,1,3.5Z"/>
  <path class="st181" d="M312.96,168.98c4.71,5.43,7.71,11.76,9,19-1.17-.22-2.17.11-3,1,3.62,5.85,5.62,12.18,6,19-.85-2.21-2.18-4.21-4-6-.45-5.46-1.95-10.46-4.5-15-2.14,1.82-2.97,4.15-2.5,7-1.78-3.4-3.11-7.07-4-11,.06-.54.39-.88,1-1,.67,1.67,1.33,3.33,2,5,2.63-1.9,2.63-3.9,0-6,1.09-1.28,1.75-2.78,2-4.5-.84-2.49-1.5-4.99-2-7.5Z"/>
  <path class="st150" d="M407.99,131.98c-.15,1.05.02,2.05.5,3,5.28,5.26,10.61,5.26,16,0,2.77.85,5.6,1.18,8.5,1-.27,1.6.07,2.93,1,4,.21,3.21,1.88,5.21,5,6v1c2.88,1.01,5.88,1.17,9,.5-.33.33-.67.67-1,1,.64,2.74,1.81,5.24,3.5,7.5.5,9.33.67,18.66.5,28-.35,8.09-1.35,16.09-3,24h-1c.19-1.6-.31-2.94-1.5-4-.33.67-.67,1.33-1,2-.18-3.38-.68-6.71-1.5-10-.06,10.03-1.89,19.7-5.5,29-2.72.94-5.55,1.28-8.5,1,.32-3.4-.01-6.73-1-10-.98.48-1.81,1.14-2.5,2-.33-.33-.67-.67-1-1-.69-4.03-1.53-8.03-2.5-12-.97,2.24-1.31,4.58-1,7h-16v-16h-16c.25-5.54-.42-10.88-2-16h-3c-.64,2.99-.8,5.99-.5,9,1.84-2.4,3.34-2.07,4.5,1-1.2,3.23-2.53,6.4-4,9.5.96,4.07,1.3,8.23,1,12.5h4v16h-10c-.63,6.29.2,12.29,2.5,18,2.11-1.79,4.61-2.46,7.5-2v8h5v3c-3.67-.32-5.34,1.35-5,5,4,.33,4,.67,0,1,.35,6.22,2.01,6.38,5,.5,1.27-.31,2.43-.81,3.5-1.5-.01-6.32-.18-12.65-.5-19h8c-.26-1.48.07-2.81,1-4,2.43-.75,4.76-1.08,7-1-2.59-.98-5.25-1.31-8-1v-3h8v-4c-6.95.19-7.11-1.81-.5-6,.49,1.29.66,2.63.5,4,3.66-.07,4.33.93,2,3,2.37,1.88,4.21,4.21,5.5,7,.43-2.69.26-5.36-.5-8h4c-.31,2.75.02,5.41,1,8,.92-2.26,2.59-3.26,5-3-.18,2.44.48,4.6,2,6.5-.88,1.36-1.21,2.86-1,4.5-1.49,3.68-3.65,7.01-6.5,10-1.13,1.85-1.63,3.85-1.5,6-1.05-.15-2.05.02-3,.5-15.02,18.35-32.02,34.69-51,49-6.57,6.08-13.24,11.91-20,17.5-5.73,6.1-10.73,12.76-15,20-1.89,3.43-2.89,7.1-3,11,1.57,15.31,2.4,30.64,2.5,46-1.78,10.01-4.78,19.68-9,29-.49,1.63-.66,3.3-.5,5,5.98-.91,11.64-2.57,17-5h8c6.06,1.19,12.06,2.69,18,4.5,7.62,4.63,14.95,9.46,22,14.5,2.19,5.39,4.69,10.73,7.5,16,.56,2.06.06,3.89-1.5,5.5.07.77.4,1.27,1,1.5.62,8.32.96,16.65,1,25h-1c-.7,3.24-2.37,5.9-5,8-1.26,2.52-1.93,5.19-2,8-1.95,3.94-4.28,7.61-7,11-1.98.12-3.65-.55-5-2-.95,1.55-1.28,3.21-1,5-3.62.15-3.96,1.32-1,3.5-.83,1.5-2,2.67-3.5,3.5-.95-.4-1.61-1.07-2-2-.49,1.63-.66,3.3-.5,5-2.8-1.9-5.8-3.57-9-5v3c1.37-.16,2.71.01,4,.5-1.17,1.41-.84,2.57,1,3.5-2.8.5-5.3,1.5-7.5,3-.22-1.44-.72-2.77-1.5-4-1.98,1.48-3.82,3.15-5.5,5-.46,1.24.04,2.08,1.5,2.5-2.24.98-4.57,1.48-7,1.5.17,1.32-.16,2.49-1,3.5,1.67.33,3.33.67,5,1-.75.67-1.09,1.5-1,2.5-2.42,1.74-5.09,3.08-8,4,.12-10.12-4.88-14.45-15-13-1.44-.83-2.44-2.17-3-4-1.25.54-2.41,1.21-3.5,2-.33-1.67-.67-3.33-1-5-3.1-4.11-6.27-8.11-9.5-12-4.36-.8-8.53-2.13-12.5-4l-2,2c-.49-1.97-.66-3.97-.5-6v-5c8.52-19.86,20.18-37.7,35-53.5-.33-.5-.67-1-1-1.5-1.35,1.02-2.68,2.02-4,3-8.35,2.84-16.68,5.84-25,9,3.04-8.39,7.88-15.73,14.5-22,.69-.83.52-1.5-.5-2-2.98,1.81-5.48,4.14-7.5,7-3.76,5.86-7.26,11.86-10.5,18-6.19,1.76-11.85,4.59-17,8.5-26.02,10.71-52.68,12.04-80,4-7.69-3.2-15.03-7.04-22-11.5-.67-2.47-1.34-4.8-2-7-2.1-4.97-4.93-9.64-8.5-14-1.24-1.92-2.74-2.25-4.5-1,2.49,2.33,4.49,5,6,8,.67,3.12,1.51,6.12,2.5,9-7.94-3.73-15.77-7.39-23.5-11-.37-1.2-1.2-1.86-2.5-2-1.26.35-1.59,1.02-1,2,6.49,6.33,11.49,13.66,15,22,.92.55,1.76,1.21,2.5,2,3.94,7.2,7.27,14.53,10,22,.13,1.72.46,3.38,1,5,.06,2.99-.6,5.82-2,8.5.12,1.63.62,3.13,1.5,4.5l1-1c1.03,4.88-.3,5.88-4,3-.24-2.79-.91-5.46-2-8,.22,2.09.05,4.09-.5,6-2.8-1.28-5.47-1.28-8,0-.33.67-.67,1.33-1,2h-1c-1.75,1.16-2.75,2.83-3,5-.81,1.5-1.47,3.16-2,5-.83.33-1.67.67-2.5,1-2.09-.92-4.25-1.58-6.5-2-.17,1.32.16,2.49,1,3.5-3.01-.13-6.01-.63-9-1.5-1.54.01-2.88.34-4,1-2.59,1.16-4.26,3.16-5,6-.97,2.11-1.3,4.44-1,7-4.19-.84-8.19-2.34-12-4.5-4.88-3.27-9.54-6.77-14-10.5-4.97-5.14-9.8-10.47-14.5-16-2.33-5-4.67-10-7-15-1.36-.88-2.86-1.21-4.5-1,.24-1.29-.1-2.29-1-3-.33-2-.67-4-1-6-.32-5.86.01-11.52,1-17,.65-.3,1.32-.64,2-1,.99-3.61,1.32-7.27,1-11h5c.17-1.99-.49-3.66-2-5,1.21-1.37,2.21-2.87,3-4.5-.34-1.03-1-1.53-2-1.5-.8-.92-.97-1.92-.5-3,8.93-8.72,19.43-14.72,31.5-18,8.58-1.61,17.25-2.61,26-3-.11-.62-.44-1.12-1-1.5-1.97-.49-3.97-.66-6-.5v-1c.34-6.39,1.01-12.72,2-19,.52-4.45,1.85-8.62,4-12.5-1.56-1.61-2.06-3.44-1.5-5.5,6.29-15.78,12.29-31.78,18-48,1.75-8.98,3.25-17.98,4.5-27h-3c.31,3.21-.02,6.21-1,9-4.84,10.97-10.17,21.8-16,32.5-5.38,7.16-10.22,14.66-14.5,22.5-1.01.84-2.18,1.17-3.5,1-2.1,5.29-5.26,9.95-9.5,14-8.18,14.68-19.02,27.02-32.5,37-1.75,1.75-3.09,3.75-4,6-10.77,9.43-20.1,20.1-28,32-1.64.21-3.14-.12-4.5-1-.5-5.32-.67-10.66-.5-16,4.47-16.3,10.14-32.3,17-48h1c1.91-.96,2.91-2.63,3-5-.72-2.28-1.06-4.62-1-7,5.46-9.93,12.13-18.93,20-27,3.34.66,5.34-.68,6-4,2.4,1.02,3.4.02,3-3,2.41.26,4.08-.74,5-3,1.7,1.18,3.36,1.18,5,0-.83-.89-1.83-1.22-3-1,.26-2.41-.74-4.08-3-5,1.78-1.76,3.11-3.76,4-6,3.79-4.29,7.79-8.46,12-12.5-.41-.95-1.07-1.61-2-2,16.48-13.48,31.32-28.65,44.5-45.5,1.41-2.15,2.24-4.48,2.5-7h3c-.38,2.9.12,5.56,1.5,8,.63-8.28-.2-16.28-2.5-24-.09-4.36-.42-8.69-1-13h-4c.24-1.29-.1-2.29-1-3-.17-6.68,0-13.34.5-20,1.04,1.12,1.71,2.46,2,4,.33-4.67.67-9.33,1-14,.17,4.85.67,9.52,1.5,14h1c1.25,4.21,2.08,8.55,2.5,13,1.95,3.71,3.78,7.37,5.5,11,3.71,7.88,9.38,14.05,17,18.5,8.83,4.71,18.16,7.87,28,9.5,2.46,1.24,5.13,2.24,8,3,12.49,2.45,24.83,2.45,37,0,8.43-.85,16.76-2.35,25-4.5,1.26-.42,1.92-1.25,2-2.5,1.7.16,3.37,0,5-.5,7.01-3.19,13.35-7.35,19-12.5-1.92,4.04-4.25,7.71-7,11-1.88-.27-3.21.4-4,2-2.27,2.77-4.77,5.44-7.5,8-.49,1.97-.66,3.97-.5,6,4.24.55,7.91-.45,11-3,1.42-.21,2.76-.71,4-1.5-1.29-1.29-1.29-2.46,0-3.5.23.6.73.93,1.5,1,7.7-6.87,15.2-13.87,22.5-21,.84-.34,1.17-1.01,1-2,3.9-2.06,7.4-4.72,10.5-8,6.64-6.98,12.97-14.32,19-22,7.94-12.5,13.94-25.83,18-40,.67-.75,1.5-1.09,2.5-1,.15,4.92,1.15,4.92,3,0v-1c6.25-15.17,13.08-30.17,20.5-45,2.8-3.8,5.96-7.3,9.5-10.5.95-.48,1.95-.65,3-.5Z"/>
  <path class="st141" d="M158.96,183.98c-2.71,6.93-5.05,13.93-7,21,1.14-5.93,1.97-11.93,2.5-18,.41.46.91.79,1.5,1,.65-1.68,1.65-3.02,3-4Z"/>
  <path class="st108" d="M374.96,187.98v1c-1,1.33-2,1.33-3,0v-3c1.68-.21,2.68.45,3,2Z"/>
  <path class="st37" d="M192.96,222.98c-13.31,2.48-24.31,8.82-33,19,0-.67-.33-1-1-1,2.29-4.62,5.62-8.29,10-11,10.29-3.9,20.29-8.4,30-13.5,4.74-5.27,6.24-11.44,4.5-18.5-5.65-7.57-13.15-10.07-22.5-7.5-4.3,1.82-8.3,4.15-12,7-4.16,5.16-8.66,9.99-13.5,14.5-1.34,3.53-1.84,7.19-1.5,11-.98-3.46-1.32-7.13-1-11,0-.67.33-1,1-1,5.43-7.27,11.77-13.77,19-19.5,6.89-4.45,14.23-5.45,22-3,10.22,3.28,14.05,10.11,11.5,20.5-3.36,5.86-7.86,10.52-13.5,14Z"/>
  <path class="st139" d="M371.96,188.98c1,1.33,2,1.33,3,0-1.85,4.92-2.85,4.92-3,0Z"/>
  <path class="st123" d="M144.96,183.98v2c-2.39,2.78-2.39,5.62,0,8.5-.07.76-.4,1.26-1,1.5-2.72-4.3-2.39-8.3,1-12Z"/>
  <path class="st62" d="M303.96,153.98c.67.33,1.33.67,2,1,1.63,1.12,3.13,2.46,4.5,4,4.34,8.01,8.68,16.01,13,24,1.68,3.78,1.85,7.61.5,11.5.69,3.62,1.69,7.12,3,10.5.42,6.55-.25,12.88-2,19h-1c.12-3.75.78-7.42,2-11-.09-1.76-.42-3.42-1-5-.38-6.82-2.38-13.15-6-19,.83-.89,1.83-1.22,3-1-1.29-7.24-4.29-13.57-9-19-2.81-5.08-5.81-10.08-9-15Z"/>
  <path class="st146" d="M456.62,187.98c.3,4.29-.36,8.29-2,12-.3-4.29.36-8.29,2-12Z"/>
  <path class="st57" d="M224.96,202.98c5.82-1.15,11.82-1.32,18-.5.92.28,1.58.78,2,1.5-6.62-.88-13.29-1.21-20-1Z"/>
  <path class="st88" d="M262.96,195.98c-.87,4.27-1.21,8.6-1,13-.98-3.12-1.31-6.46-1-10-.07-1.53.59-2.53,2-3Z"/>
  <path class="st134" d="M284.96,187.98c1.98.49,3.98.99,6,1.5,8.98,5.32,16.31,12.32,22,21,.59.46,1.26.63,2,.5,0,.67.33,1,1,1,.32,6.19-.01,12.19-1,18,.17-5.01,0-10.01-.5-15-5.79-8.13-12.63-15.29-20.5-21.5-3.12-1.15-6.12-2.48-9-4-13.32-.83-13.32-1.33,0-1.5Z"/>
  <path class="st117" d="M224.96,202.98c-1.96.99-3.96,1.99-6,3,.33-.67.67-1.33,1-2,1.54-.8,3.21-1.13,5-1Z"/>
  <path class="st75" d="M314.96,199.98c2.36,3.39,4.36,7.05,6,11-.35,1.2-.85,1.2-1.5,0-.89,5.8-1.72,11.47-2.5,17,.32-5.53-.01-10.86-1-16,0-4.03-.34-8.03-1-12Z"/>
  <path class="st161" d="M224.96,202.98c6.71-.21,13.38.12,20,1,1.01,1.17,2.35,1.84,4,2,.33.67.67,1.33,1,2,1.44,7.42-1.56,12.42-9,15-10.18,3.53-18.02.86-23.5-8-.49-1.97-.66-3.97-.5-6,.67-1,1.33-2,2-3,2.04-1.01,4.04-2.01,6-3Z"/>
  <path class="st97" d="M284.96,187.98c-13.32.17-13.32.67,0,1.5,2.88,1.52,5.88,2.85,9,4,7.87,6.21,14.71,13.37,20.5,21.5.5,4.99.67,9.99.5,15-.85,4.39-1.85,8.73-3,13-3.96-3.96-7.96-7.96-12-12-8.88-4.13-17.88-7.96-27-11.5-8.73-5.94-11.23-13.77-7.5-23.5,2.38-2.77,5.22-4.94,8.5-6.5-.95-.48-1.95-.65-3-.5,2.52-1.47,5.35-2.14,8.5-2,2.03,0,3.87.34,5.5,1Z"/>
  <path class="st66" d="M274.96,198.98c6.12-.77,11.79.4,17,3.5,2.02,2.64,2.36,5.47,1,8.5-2.49-2.08-5.16-3.91-8-5.5-5.42-.48-10.75.02-16,1.5.84-3.51,2.84-6.18,6-8Z"/>
  <path class="st72" d="M218.96,205.98c-.67,1-1.33,2-2,3-.91,3.95-2.58,7.61-5,11,.85.79,1.69.46,2.5-1,.31,1.27.81,2.43,1.5,3.5,2.31,2.14,4.97,3.64,8,4.5-2.27.09-4.6.92-7,2.5,1.33.33,2.67.67,4,1-4.42.35-8.75-.15-13-1.5-2.01-1.42-4.01-2.76-6-4,2.84-8.84,8.5-15.17,17-19Z"/>
  <path class="st84" d="M270.96,188.98c1.05-.15,2.05.02,3,.5-3.28,1.56-6.12,3.73-8.5,6.5-3.73,9.73-1.23,17.56,7.5,23.5,9.12,3.54,18.12,7.37,27,11.5,4.04,4.04,8.04,8.04,12,12-1.74,2.3-2.74,4.97-3,8v1h-2c2.15-3.26,2.32-6.6.5-10-2.53-3.86-5.69-7.03-9.5-9.5-2.67-1.29-5.34-2.46-8-3.5-6.83-3.31-13.83-6.48-21-9.5-3.7-2.63-6.03-6.13-7-10.5-.21-4.4.13-8.73,1-13,2.04-3.04,4.71-5.38,8-7Z"/>
  <path class="st122" d="M144.96,201.98c-1.2,5.36-1.2,10.69,0,16h-3c.34-4.68.84-9.34,1.5-14,.28-.92.78-1.58,1.5-2Z"/>
  <path class="st36" d="M455.62,158.98c.99,6.81,1.32,13.81,1,21v8c-1.64,3.71-2.3,7.71-2,12-1.09,3.89-1.76,7.89-2,12-1.42,2.01-2.09,4.35-2,7-1.56,2.96-1.23,5.63,1,8-.49,2.31-.83,4.64-1,7,.17.99-.16,1.66-1,2,.88-5.69-.28-6.69-3.5-3-.17-.83-.33-1.67-.5-2.5,1.53-7.54,3.19-15.04,5-22.5,1.65-7.91,2.65-15.91,3-24,.93-1.07,1.27-2.4,1-4,.99-6.81,1.32-13.81,1-21Z"/>
  <path class="st89" d="M141.96,203.98c-1.51,6.23-2.17,12.56-2,19-1.67-6.56-1.01-12.89,2-19Z"/>
  <path class="st18" d="M452.62,211.98c.09,2.65-.58,4.99-2,7-.09-2.65.58-4.99,2-7Z"/>
  <path class="st32" d="M144.96,185.98c.55,3.31.88,6.64,1,10-.33,2-.67,4-1,6-.72.42-1.22,1.08-1.5,2-.66,4.66-1.16,9.32-1.5,14,1.94,9.74,2.6,19.74,2,30-.97-2.45-1.31-5.12-1-8v-17h-3c-.17-6.44.49-12.77,2-19,.46-2.72,1.13-5.39,2-8,.6-.24.93-.74,1-1.5-2.39-2.88-2.39-5.72,0-8.5Z"/>
  <path class="st163" d="M158.96,240.98c.13.88-.2,1.54-1,2-3.04-6.26-4.38-12.92-4-20-.34-3.81.16-7.47,1.5-11,4.84-4.51,9.34-9.34,13.5-14.5,3.7-2.85,7.7-5.18,12-7,9.35-2.57,16.85-.07,22.5,7.5,1.74,7.06.24,13.23-4.5,18.5-9.71,5.1-19.71,9.6-30,13.5-4.38,2.71-7.71,6.38-10,11Z"/>
  <path class="st17" d="M181.96,195.98c13.04.25,16.38,6.09,10,17.5-11.35,4.66-16.52.82-15.5-11.5,1.36-2.52,3.19-4.52,5.5-6Z"/>
  <path class="st126" d="M180.96,203.98c1.62.54,3.28.87,5,1-1.96,1.43-3.62,1.1-5-1Z"/>
  <path class="st20" d="M185.96,198.98c1.33,2,1.33,4,0,6-1.72-.13-3.38-.46-5-1v-4c1.62-.54,3.28-.87,5-1Z"/>
  <path class="st124" d="M185.96,198.98c-1.72.13-3.38.46-5,1,1.38-2.1,3.04-2.43,5-1Z"/>
  <path class="st154" d="M260.96,198.98c-.31,3.54.02,6.88,1,10,.97,4.37,3.3,7.87,7,10.5,7.17,3.02,14.17,6.19,21,9.5-1.64.21-3.14-.12-4.5-1-2.79,2.15-5.96,3.31-9.5,3.5-1.24,1.88-2.58,3.71-4,5.5,1.24.78,2.24,1.78,3,3-2.34,1.23-4.18.56-5.5-2-.5,1.17-1.33,2-2.5,2.5,1.07,1.82.4,2.99-2,3.5-1.81-1.36-3.31-1.02-4.5,1-1.63-.35-3.46-.35-5.5,0,3.93-2.76,7.77-5.76,11.5-9,1.33-3.93,1.66-7.93,1-12-5.39-6.9-11.56-12.9-18.5-18-1.65-.16-2.99-.83-4-2,1.37.16,2.71,0,4-.5-.46-.41-.79-.91-1-1.5,1.15-1.23,2.32-1.23,3.5,0,1.31-2.39,2.31-2.39,3,0,1.73-1.73,3.07-3.73,4-6,.66,2.55.49,5.05-.5,7.5.13,1.06.63,1.89,1.5,2.5.19-2.54.69-4.87,1.5-7Z"/>
  <path class="st9" d="M326.96,204.98c1.12,3.79,1.78,7.79,2,12-.18,2.29-.84,4.29-2,6-.67,6-1.33,12-2,18v-17c1.75-6.12,2.42-12.45,2-19Z"/>
  <path class="st76" d="M446.96,207.98h1c-1.81,7.46-3.47,14.96-5,22.5.17.83.33,1.67.5,2.5,3.22-3.69,4.38-2.69,3.5,3-.67.33-1.33.67-2,1,.53-1.35.69-2.68.5-4-1.01.84-2.18,1.17-3.5,1-.12-3.36-.45-6.69-1-10,1.05-3.17,2.55-6.17,4.5-9,.66-2.31,1.16-4.65,1.5-7Z"/>
  <path class="st1" d="M152.96,211.98c-.32,3.87.02,7.54,1,11-.38,7.08.96,13.74,4,20,.8-.46,1.13-1.12,1-2,.67,0,1,.33,1,1-1.19,2.37-1.19,4.71,0,7v3c-1.72-3.63-3.55-7.29-5.5-11-.42-4.45-1.25-8.79-2.5-13-.32-5.53.01-10.86,1-16Z"/>
  <path class="st107" d="M249.96,207.98c.62.11,1.12.44,1.5,1,.17,1.5.33,3,.5,4.5-.13,1.98-.8,3.65-2,5,.61.87,1.44,1.37,2.5,1.5,5.59-1.53,5.92-.53,1,3-.33-.33-.67-.67-1-1,.03,3.74-.97,4.41-3,2-2.16,2.27-4.32,3.77-6.5,4.5,1.8.32,2.13.98,1,2,3.99.5,7.99.67,12,.5-4.13.99-8.47,1.32-13,1-.42-.72-1.08-1.22-2-1.5-4.67-.67-9.33-.67-14,0-.56.38-.89.88-1,1.5-5.01.17-10.01,0-15-.5-1.44-.38-2.44-1.21-3-2.5,4.25,1.35,8.58,1.85,13,1.5-1.33-.33-2.67-.67-4-1,2.4-1.58,4.73-2.41,7-2.5-3.03-.86-5.69-2.36-8-4.5-.69-1.07-1.19-2.23-1.5-3.5-.81,1.46-1.65,1.79-2.5,1,2.42-3.39,4.09-7.05,5-11-.16,2.03,0,4.03.5,6,5.48,8.86,13.32,11.53,23.5,8,7.44-2.58,10.44-7.58,9-15Z"/>
  <path class="st87" d="M451.62,226.98c1.15,2.45.81,4.79-1,7,.17-2.36.51-4.69,1-7Z"/>
  <path class="st146" d="M139.96,222.98h3v17c-.43-5.77-1.43-11.44-3-17Z"/>
  <path class="st137" d="M248.96,205.98c6.94,5.1,13.11,11.1,18.5,18,.66,4.07.33,8.07-1,12-3.73,3.24-7.57,6.24-11.5,9-13.24,3.58-26.58,3.92-40,1-5.5-1.84-9.84-5.17-13-10-1.22-3.8-1.22-7.47,0-11,1.69,4.02,4.69,6.68,9,8,1.96,1.52,4.29,2.18,7,2,1.87,0,3.54-.34,5-1,3.65-.66,7.32-1.33,11-2,10.08,3.3,19.74,2.46,29-2.5,1.92-1.24,2.25-2.74,1-4.5-2.27,2.62-4.94,4.62-8,6-4.01.17-8.01,0-12-.5,1.13-1.02.8-1.68-1-2,2.18-.73,4.34-2.23,6.5-4.5,2.03,2.41,3.03,1.74,3-2,.33.33.67.67,1,1,4.92-3.53,4.59-4.53-1-3-1.06-.13-1.89-.63-2.5-1.5,1.2-1.35,1.87-3.02,2-5-.17-1.5-.33-3-.5-4.5-.38-.56-.88-.89-1.5-1-.33-.67-.67-1.33-1-2Z"/>
  <path class="st169" d="M201.96,224.98c1.99,1.24,3.99,2.58,6,4,.56,1.29,1.56,2.12,3,2.5,4.99.5,9.99.67,15,.5,5.66-1.27,11.33-1.27,17,0,4.53.32,8.87-.01,13-1,3.06-1.38,5.73-3.38,8-6,1.25,1.76.92,3.26-1,4.5-9.26,4.96-18.92,5.8-29,2.5-3.68.67-7.35,1.34-11,2-4.02-.15-8.02-.48-12-1-4.31-1.32-7.31-3.98-9-8Z"/>
  <path class="st144" d="M324.96,207.98c.58,1.58.91,3.24,1,5-1.22,3.58-1.88,7.25-2,11,.16,7.13-.51,14.13-2,21-1.93-.65-3.93-.98-6-1v-6c.12-3.36.45-6.69,1-10,.78-5.53,1.61-11.2,2.5-17,.65,1.2,1.15,1.2,1.5,0-1.64-3.95-3.64-7.61-6-11-.02-2.07-.35-4.07-1-6-.47-2.85.36-5.18,2.5-7,2.55,4.54,4.05,9.54,4.5,15,1.82,1.79,3.15,3.79,4,6Z"/>
  <path class="st156" d="M326.96,222.98c.17,8.7-.16,17.36-1,26h-1v-8c.67-6,1.33-12,2-18Z"/>
  <path class="st54" d="M315.96,211.98c.99,5.14,1.32,10.47,1,16-.55,3.31-.88,6.64-1,10-1.54,4.74-3.87,9.07-7,13,.26-3.03,1.26-5.7,3-8,1.15-4.27,2.15-8.61,3-13,.99-5.81,1.32-11.81,1-18Z"/>
  <path class="st73" d="M323.96,223.98h1v14c-.98,3.46-1.32,7.13-1,11-1.62.14-2.79-.53-3.5-2-.19,2.54-.69,4.87-1.5,7h-1c.08-2.71.41-5.37,1-8,1.29.24,2.29-.1,3-1,1.49-6.87,2.16-13.87,2-21Z"/>
  <path class="st55" d="M201.96,235.98c3.16,4.83,7.5,8.16,13,10,4.74,3.19,10.08,4.52,16,4,7.07-.26,14.07-1.09,21-2.5,1.62-.24,2.62-1.07,3-2.5,2.04-.35,3.87-.35,5.5,0,1.19-2.02,2.69-2.36,4.5-1,2.4-.51,3.07-1.68,2-3.5,1.17-.5,2-1.33,2.5-2.5,1.32,2.56,3.16,3.23,5.5,2-.76-1.22-1.76-2.22-3-3,1.42-1.79,2.76-3.62,4-5.5,3.54-.19,6.71-1.35,9.5-3.5,1.36.88,2.86,1.21,4.5,1,2.66,1.04,5.33,2.21,8,3.5,3.81,2.47,6.97,5.64,9.5,9.5,1.82,3.4,1.65,6.74-.5,10-6.71,9.37-15.38,16.37-26,21-2.47.26-4.47,1.26-6,3-17.59,5.27-35.59,7.27-54,6-5.27-1.1-10.61-1.77-16-2-.11-.62-.44-1.12-1-1.5-15.74-2.62-28.91-9.78-39.5-21.5-1.27-2.89-2.77-5.56-4.5-8-1.19-2.29-1.19-4.63,0-7,8.69-10.18,19.69-16.52,33-19,2.61-.87,5.28-1.54,8-2-.98,4.63-1.15,9.3-.5,14,.38.56.88.89,1.5,1Z"/>
  <path class="st41" d="M210.96,232.98c3.98.52,7.98.85,12,1-1.46.66-3.13.99-5,1-2.71.18-5.04-.48-7-2Z"/>
  <path class="st93" d="M242.96,231.98c-5.67-1.27-11.34-1.27-17,0,.11-.62.44-1.12,1-1.5,4.67-.67,9.33-.67,14,0,.92.28,1.58.78,2,1.5Z"/>
  <path class="st133" d="M254.96,244.98c-.38,1.43-1.38,2.26-3,2.5-6.93,1.41-13.93,2.24-21,2.5-5.92.52-11.26-.81-16-4,13.42,2.92,26.76,2.58,40-1Z"/>
  <path class="st148" d="M324.96,237.98v11c-.54,1.62-.87,3.28-1,5-3.64.88-4.81,3.22-3.5,7,.38-.56.88-.89,1.5-1,.17.99-.16,1.66-1,2-1.87-2.13-2.54-4.8-2-8,.81-2.13,1.31-4.46,1.5-7,.71,1.47,1.88,2.14,3.5,2-.32-3.87.02-7.54,1-11Z"/>
  <path class="st109" d="M444.96,243.98c.16,2.36,0,4.69-.5,7-2.82,1.88-4.65,4.55-5.5,8-.46.8-1.12,1.13-2,1,2.31-5.6,4.97-10.94,8-16Z"/>
  <path class="st115" d="M145.96,243.98c.9.71,1.24,1.71,1,3h4c.58,4.31.91,8.64,1,13-1.33-3.76-2.16-7.76-2.5-12-.71,1.47-1.88,2.14-3.5,2v-6Z"/>
  <path class="st74" d="M141.96,217.98h3c-.33,8.85,0,17.52,1,26v6c1.62.14,2.79-.53,3.5-2,.34,4.24,1.17,8.24,2.5,12,2.3,7.72,3.13,15.72,2.5,24-1.38-2.44-1.88-5.1-1.5-8-.43-3.84-1.1-7.5-2-11-.67-3.67-1.33-7.33-2-11-3.98.06-5.65-1.94-5-6,.6-10.26-.06-20.26-2-30Z"/>
  <path class="st12" d="M324.96,248.98h1c.79,1.6,2.12,2.27,4,2-2.67,3-5.33,6-8,9-.62.11-1.12.44-1.5,1-1.31-3.78-.14-6.12,3.5-7,.13-1.72.46-3.38,1-5Z"/>
  <path class="st2" d="M306.96,251.98h2c-1.9,4.23-4.57,7.9-8,11-5.65,5.15-11.99,9.31-19,12.5-1.63.49-3.3.66-5,.5,1.58-.64,2.91-1.64,4-3,10.62-4.63,19.29-11.63,26-21Z"/>
  <path class="st119" d="M315.96,237.98v6c2.07.02,4.07.35,6,1-.71.9-1.71,1.24-3,1-.59,2.63-.92,5.29-1,8,.04,3.41-.46,6.74-1.5,10-6.7,5.87-13.2,11.87-19.5,18-1.29,1.04-1.29,2.21,0,3.5-1.24.79-2.58,1.29-4,1.5.4-1.26,1.07-2.42,2-3.5-1.61-2.21-2.28-4.71-2-7.5h-3c.79-1.6,2.12-2.27,4-2,2.75-3.29,5.08-6.96,7-11,3.43-3.1,6.1-6.77,8-11v-1c3.13-3.93,5.46-8.26,7-13Z"/>
  <path class="st63" d="M317.96,253.98h1c-.54,3.2.13,5.87,2,8-7.3,7.13-14.8,14.13-22.5,21-.77-.07-1.27-.4-1.5-1,6.3-6.13,12.8-12.13,19.5-18,1.04-3.26,1.54-6.59,1.5-10Z"/>
  <path class="st68" d="M159.96,248.98c1.73,2.44,3.23,5.11,4.5,8,10.59,11.72,23.76,18.88,39.5,21.5.56.38.89.88,1,1.5-9.84-1.63-19.17-4.79-28-9.5-7.62-4.45-13.29-10.62-17-18.5v-3Z"/>
  <path class="st11" d="M428.96,267.98c-1.04,2.9-2.7,5.4-5,7.5.23.4.56.57,1,.5-.06.54-.39.88-1,1-1.08-.87-1.25-1.87-.5-3,1.63-2.34,3.47-4.34,5.5-6Z"/>
  <path class="st43" d="M428.96,271.98c2.65,2.05,2.65,4.05,0,6,.77-2.3.77-4.3,0-6Z"/>
  <path class="st49" d="M280.96,272.98c-1.09,1.36-2.42,2.36-4,3h-2c1.53-1.74,3.53-2.74,6-3Z"/>
  <path class="st22" d="M274.96,275.98h2c-.08,1.25-.74,2.08-2,2.5-8.24,2.15-16.57,3.65-25,4.5-9.85.33-19.51,0-29-1,18.41,1.27,36.41-.73,54-6Z"/>
  <path class="st70" d="M289.96,275.98h3c-.28,2.79.39,5.29,2,7.5-.93,1.08-1.6,2.24-2,3.5-3.09,2.55-6.76,3.55-11,3-.16-2.03,0-4.03.5-6,2.73-2.56,5.23-5.23,7.5-8Z"/>
  <path class="st91" d="M428.96,277.98c-.58,2.25-1.91,3.91-4,5,.58-2.25,1.91-3.91,4-5Z"/>
  <path class="st138" d="M204.96,279.98c5.39.23,10.73.9,16,2,9.49.99,19.15,1.33,29,1-12.17,2.45-24.51,2.45-37,0-2.87-.76-5.54-1.76-8-3Z"/>
  <path class="st29" d="M446.96,235.98c-.46,2.72-1.13,5.39-2,8-3.03,5.06-5.69,10.4-8,16-3.16,3.65-5.83,7.65-8,12,.77,1.7.77,3.7,0,6-2.09,1.09-3.42,2.75-4,5-11.76,10.93-23.26,21.93-34.5,33-.2,1.76-.7,3.42-1.5,5-4.03,2.68-8.03,5.34-12,8,.71-1.53,1.71-2.86,3-4,1.46-1.76,3.29-3.09,5.5-4,.2-1.76.7-3.42,1.5-5,14.1-12.36,27.44-25.52,40-39.5-.59-.46-1.26-.63-2-.5-.44.07-.77-.1-1-.5,2.3-2.1,3.96-4.6,5-7.5,7.21-9.41,12.54-19.75,16-31,.67-.33,1.33-.67,2-1Z"/>
  <path class="st106" d="M379.96,324.98c-1.29,1.14-2.29,2.47-3,4-2.87,1.49-5.53,3.16-8,5-1.62.54-3.28.87-5,1,4.73-4.25,10.07-7.58,16-10Z"/>
  <path class="st35" d="M127.96,407.98c-.38-3.89-.71-7.89-1-12,4.54-16.79,10.37-33.12,17.5-49,1.83-7.63,3.33-15.3,4.5-23,.98-2.79,1.31-5.79,1-9h3c-1.25,9.02-2.75,18.02-4.5,27-5.71,16.22-11.71,32.22-18,48-.56,2.06-.06,3.89,1.5,5.5-2.15,3.88-3.48,8.05-4,12.5Z"/>
  <path class="st171" d="M238.96,332.98h22v7h38v3h10v-3h13c.43,3.76-.24,7.26-2,10.5-.95.48-1.95.65-3,.5.22-1.17-.11-2.17-1-3-.98,2.59-1.31,5.25-1,8h-4c.31-2.75-.02-5.41-1-8-1,7.97-1.33,15.97-1,24-2.7.03-5.2-.63-7.5-2-2.46,1.82-5.29,2.49-8.5,2v16h-16v-6h-16v-10h-10v-16h-20c-.67-4-1.33-4-2,0h-16v-16c3.68-.17,7.35,0,11,.5,1.5,3.08,3.16,3.25,5,.5,2.93-.98,5.93-1.32,9-1v-3c3.96-.55,3.96-1.39,0-2.5.56-.38.89-.88,1-1.5Z"/>
  <path class="st83" d="M440.96,223.98c.55,3.31.88,6.64,1,10,1.32.17,2.49-.16,3.5-1,.19,1.32.03,2.65-.5,4-3.46,11.25-8.79,21.59-16,31-2.03,1.66-3.87,3.66-5.5,6-.75,1.13-.58,2.13.5,3,.61-.12.94-.46,1-1,.74-.13,1.41.04,2,.5-12.56,13.98-25.9,27.14-40,39.5-.8,1.58-1.3,3.24-1.5,5-2.21.91-4.04,2.24-5.5,4-5.93,2.42-11.27,5.75-16,10-3.11,2.71-6.78,4.05-11,4,.03,1.7.69,3.03,2,4-7.14,5.22-13.81,10.89-20,17-.5,5.88-.83,11.88-1,18,.44,1.01,1.1,1.01,2,0,2.19,3.12,2.53,6.45,1,10h4v2c.93,2.61,1.1,5.28.5,8-.77,1.35-1.94,2.18-3.5,2.5,1.79,2.56,2.96,5.39,3.5,8.5.33-1,.67-2,1-3,1.03,3.16,2.19,6.16,3.5,9,.54,1.62.87,3.28,1,5,.22,3.68.56,7.35,1,11-2.89-.51-5.22.16-7,2-5.36,2.43-11.02,4.09-17,5-.16-1.7,0-3.37.5-5,4.22-9.32,7.22-18.99,9-29-.1-15.36-.93-30.69-2.5-46,.11-3.9,1.11-7.57,3-11,4.27-7.24,9.27-13.9,15-20,6.76-5.59,13.43-11.42,20-17.5,18.98-14.31,35.98-30.65,51-49,.95-.48,1.95-.65,3-.5-.13-2.15.37-4.15,1.5-6,2.85-2.99,5.01-6.32,6.5-10,4.22-6.24,7.56-12.91,10-20Z"/>
  <path class="st170" d="M368.96,333.98c-1.53,1.74-3.53,2.74-6,3,.33-.67.67-1.33,1-2,1.72-.13,3.38-.46,5-1Z"/>
  <path class="st167" d="M363.96,334.98c-.33.67-.67,1.33-1,2-1.19.77-2.19,1.77-3,3h-1c-1.53.71-2.86,1.71-4,3-1.31-.97-1.97-2.3-2-4,4.22.05,7.89-1.29,11-4Z"/>
  <path class="st16" d="M358.96,339.98h1c.32,3.05-1.02,4.71-4,5,1.78-1.17,2.78-2.84,3-5Z"/>
  <path class="st179" d="M150.96,264.98c.9,3.5,1.57,7.16,2,11h-3c-.26,2.52-1.09,4.85-2.5,7-13.18,16.85-28.02,32.02-44.5,45.5.93.39,1.59,1.05,2,2-4.21,4.04-8.21,8.21-12,12.5-4.24,3.61-8.24,7.45-12,11.5,1.66.73,2.16,1.89,1.5,3.5-3.05,1.55-5.22,3.88-6.5,7-7.87,8.07-14.54,17.07-20,27-.77,1.19-1.77,2.19-3,3,1.38-5.77,4.05-10.77,8-15,2.38-2.38,4.38-5.05,6-8,3.25-4.11,6.75-8.11,10.5-12-.48-1.82-.31-3.49.5-5,.24,2.79,1.24,3.29,3,1.5-.58-1.42-1.58-2.25-3-2.5,6.65-6.31,13.31-12.64,20-19,.55-1.91.72-3.91.5-6,8.93-6.09,17.09-13.09,24.5-21,.78-1.23,1.28-2.56,1.5-4,11.77-8.75,20.44-19.75,26-33,.49-1.97.66-3.97.5-6Z"/>
  <path class="st79" d="M92.96,342.98c-.89,2.24-2.22,4.24-4,6,2.26.92,3.26,2.59,3,5,1.17-.22,2.17.11,3,1-1.64,1.18-3.3,1.18-5,0-.92,2.26-2.59,3.26-5,3,.4,3.02-.6,4.02-3,3-.66,3.32-2.66,4.66-6,4,1.28-3.12,3.45-5.45,6.5-7,.66-1.61.16-2.77-1.5-3.5,3.76-4.05,7.76-7.89,12-11.5Z"/>
  <path class="st168" d="M77.96,353.98c1.42.25,2.42,1.08,3,2.5-1.76,1.79-2.76,1.29-3-1.5v-1Z"/>
  <path class="st19" d="M358.96,339.98c-.22,2.16-1.22,3.83-3,5-6.91,4.41-13.08,9.74-18.5,16-.48,4.76.02,9.43,1.5,14-.07,1.53.59,2.53,2,3,.33,1.33.67,2.67,1,4,.43,2.51,1.09,4.84,2,7,1.62,4.04,2.96,8.21,4,12.5-.8,1.09-1.46,2.26-2,3.5.93,3.63,1.59,7.3,2,11v4h-1c-.13-1.72-.46-3.38-1-5-.02-5.23-1.35-10.07-4-14.5,2.59-3.84,2.26-7.34-1-10.5v-2c-1.36-6.43-3.19-12.77-5.5-19-.5-2.98-.66-5.98-.5-9,6.19-6.11,12.86-11.78,20-17,1.14-1.29,2.47-2.29,4-3Z"/>
  <path class="st30" d="M66.96,371.98c-1.62,2.95-3.62,5.62-6,8,.53-3.79,2.53-6.46,6-8Z"/>
  <path class="st149" d="M338.96,374.98c1.41.47,2.07,1.47,2,3-1.41-.47-2.07-1.47-2-3Z"/>
  <path class="st77" d="M334.96,359.98c-.16,3.02,0,6.02.5,9,2.31,6.23,4.14,12.57,5.5,19h-4c1.53-3.55,1.19-6.88-1-10-.9,1.01-1.56,1.01-2,0,.17-6.12.5-12.12,1-18Z"/>
  <path class="st158" d="M148.96,323.98c-1.17,7.7-2.67,15.37-4.5,23-7.13,15.88-12.96,32.21-17.5,49-.96,5.16-1.62,10.49-2,16-1.31,5.24-1.98,10.58-2,16h-11c-2.72.18-5.38.68-8,1.5-5.38,4.06-11.21,7.22-17.5,9.5-3.59,2.55-7.09,5.21-10.5,8-5.73-.76-8.07-4.09-7-10,.91-2.25,2.25-4.25,4-6,13.48-9.98,24.32-22.32,32.5-37,4.24-4.05,7.4-8.71,9.5-14,1.32.17,2.49-.16,3.5-1,4.28-7.84,9.12-15.34,14.5-22.5,5.83-10.7,11.16-21.53,16-32.5Z"/>
  <path class="st47" d="M341.96,381.98c.62.11,1.12.44,1.5,1,.49,1.97.66,3.97.5,6-.91-2.16-1.57-4.49-2-7Z"/>
  <path class="st110" d="M55.96,391.98c-.06,2.38.28,4.72,1,7-.09,2.37-1.09,4.04-3,5,.24-1.29-.1-2.29-1-3v-6c1.23-.81,2.23-1.81,3-3Z"/>
  <path class="st3" d="M52.96,394.98v6h-4c.44-2.73,1.77-4.73,4-6Z"/>
  <path class="st45" d="M340.96,389.98c3.26,3.16,3.59,6.66,1,10.5,2.65,4.43,3.98,9.27,4,14.5-1.31-2.84-2.47-5.84-3.5-9-.33,1-.67,2-1,3-.54-3.11-1.71-5.94-3.5-8.5,1.56-.32,2.73-1.15,3.5-2.5.6-2.72.43-5.39-.5-8Z"/>
  <path class="st175" d="M48.96,400.98h4c.9.71,1.24,1.71,1,3h-6c.06-1.11.39-2.11,1-3Z"/>
  <path class="st94" d="M126.96,395.98c.29,4.11.62,8.11,1,12-.99,6.28-1.66,12.61-2,19-.55-5.01-.88-10.01-1-15,.38-5.51,1.04-10.84,2-16Z"/>
  <path class="st24" d="M347.96,415.98c1.58,3.38,2.25,7.04,2,11v3h-1c-.12-3.36-.45-6.69-1-10v-4Z"/>
  <path class="st50" d="M346.96,419.98h1c.55,3.31.88,6.64,1,10v3h-8c1.78-1.84,4.11-2.51,7-2-.44-3.65-.78-7.32-1-11Z"/>
  <path class="st21" d="M47.96,403.98h5c-6.86,15.7-12.53,31.7-17,48-.96,1.77-1.29,3.77-1,6-.67,4.67-1.33,9.33-2,14,.61-22.39,6.11-43.39,16.5-63,.64-2.04.14-3.71-1.5-5Z"/>
  <path class="st23" d="M124.96,411.98c.12,4.99.45,9.99,1,15v1c-4.67,1.33-9.33,1.33-14,0h11c.02-5.42.69-10.76,2-16Z"/>
  <path class="st160" d="M132.96,429.98c-8.75.39-17.42,1.39-26,3v-3h26Z"/>
  <path class="st38" d="M228.96,422.98c6.8.61,8.46,3.77,5,9.5-2.2.83-4.03.33-5.5-1.5-.43-2.69-.26-5.36.5-8Z"/>
  <path class="st127" d="M229.96,425.98c3-.33,4.33,1,4,4-3.94.73-5.27-.6-4-4Z"/>
  <path class="st52" d="M349.96,426.98c.77.76,1.27,1.76,1.5,3,1.3.58,2.47,1.25,3.5,2-2.2.38-3.86-.29-5-2v-3Z"/>
  <path class="st101" d="M348.96,429.98h1c1.14,1.71,2.8,2.38,5,2,13.81,2.57,25.14,9.23,34,20-7.05-5.04-14.38-9.87-22-14.5-5.94-1.81-11.94-3.31-18-4.5v-3Z"/>
  <path class="st53" d="M68.96,436.98c-1.07,5.91,1.27,9.24,7,10-1.29,1.8-2.79,3.46-4.5,5-.64,1.77-.47,3.43.5,5-3.41,4.49-5.41,9.49-6,15v1c-.98,3.46-1.32,7.13-1,11h-9c-1.82-2.91-4.48-4.24-8-4-.39-4.8-2.72-8.14-7-10v-1c7.9-11.9,17.23-22.57,28-32Z"/>
  <path class="st187" d="M111.96,427.98c4.67,1.33,9.33,1.33,14,0,2.03-.16,4.03,0,6,.5.56.38.89.88,1,1.5h-26v3c-12.07,3.28-22.57,9.28-31.5,18-.47,1.08-.3,2.08.5,3,.24,1.29-.1,2.29-1,3h-3c-.97-1.57-1.14-3.23-.5-5,1.71-1.54,3.21-3.2,4.5-5,3.41-2.79,6.91-5.45,10.5-8,6.29-2.28,12.12-5.44,17.5-9.5,2.62-.82,5.28-1.32,8-1.5Z"/>
  <path class="st152" d="M297.96,472.98c-.9.71-1.24,1.71-1,3-1.68.21-2.68-.45-3-2,3.24-6.14,6.74-12.14,10.5-18,2.02-2.86,4.52-5.19,7.5-7,1.02.5,1.19,1.17.5,2-6.62,6.27-11.46,13.61-14.5,22Z"/>
  <path class="st95" d="M75.96,453.98c1-.03,1.66.47,2,1.5-.79,1.63-1.79,3.13-3,4.5,1.51,1.34,2.17,3.01,2,5h-5c.32,3.73-.01,7.39-1,11-.68.36-1.35.7-2,1v-4c-.05-6.03,1.95-11.36,6-16,.9-.71,1.24-1.71,1-3Z"/>
  <path class="st153" d="M388.96,451.98c5.34,5.69,9.01,12.36,11,20-.65.59-1.32,1.26-2,2-1.44-1.48-2.11-1.15-2,1-.6-.23-.93-.73-1-1.5,1.56-1.61,2.06-3.44,1.5-5.5-2.81-5.27-5.31-10.61-7.5-16Z"/>
  <path class="st173" d="M172.96,467.98c.26,1.48-.07,2.81-1,4-1.25-4.17-3.25-7.84-6-11-1.51-3-3.51-5.67-6-8,1.76-1.25,3.26-.92,4.5,1,3.57,4.36,6.4,9.03,8.5,14Z"/>
  <path class="st159" d="M35.96,451.98c-.17,5.34,0,10.68.5,16,1.36.88,2.86,1.21,4.5,1v1h-6v-12c-.29-2.23.04-4.23,1-6Z"/>
  <path class="st99" d="M71.96,456.98h3c-4.05,4.64-6.05,9.97-6,16-.19-7.39-1.19-7.72-3-1,.59-5.51,2.59-10.51,6-15Z"/>
  <path class="st113" d="M34.96,457.98v12h6c4.28,1.86,6.61,5.2,7,10,3.52-.24,6.18,1.09,8,4h-2c-2.13-1.46-4.46-2.46-7-3-.67-1.33-1.33-2.67-2-4,.23-2.43-.77-4.1-3-5-2.78-.22-5.45.11-8,1-.67,0-1-.33-1-1,.67-4.67,1.33-9.33,2-14Z"/>
  <path class="st178" d="M144.96,458.98c7.73,3.61,15.56,7.27,23.5,11-.99-2.88-1.83-5.88-2.5-9,2.75,3.16,4.75,6.83,6,11,.93-1.19,1.26-2.52,1-4,.66,2.2,1.33,4.53,2,7,6.97,4.46,14.31,8.3,22,11.5,27.32,8.04,53.98,6.71,80-4,5.15-3.91,10.81-6.74,17-8.5.32,1.55,1.32,2.21,3,2-.24-1.29.1-2.29,1-3,8.32-3.16,16.65-6.16,25-9-12.86,14.2-22.86,30.2-30,48h-6c-1.42-.95-3.09-1.28-5-1-3.09-1.29-6.42-1.95-10-2-2.8-.82-5.8-1.32-9-1.5-22.17-.83-44.17-.66-66,.5-5.92-.28-11.58.38-17,2-5.61,2.18-8.61.18-9-6-6.3-16.26-14.97-31.26-26-45Z"/>
  <path class="st130" d="M41.96,471.98c1.13,1.82,1.8,3.82,2,6-1.37-.16-2.71.01-4,.5-3.18,2.68-6.52,5.01-10,7-1.17,1.83-2.67,3.33-4.5,4.5.35,1.46.19,2.79-.5,4-3.48,1.91-7.15,3.57-11,5h-7c-.08-1.43.25-2.76,1-4,1.86-1.03,3.2-2.53,4-4.5,7.81-5.32,15.14-11.15,22-17.5,2.55-.89,5.22-1.22,8-1Z"/>
  <path class="st58" d="M68.96,472.98v4c-.99,5.48-1.32,11.14-1,17h-1c-.17-6.01,0-12.01.5-18,.23-1.24.73-2.24,1.5-3Z"/>
  <path class="st172" d="M65.96,472.98v12h-10v-1h9c-.32-3.87.02-7.54,1-11Z"/>
  <path class="st111" d="M41.96,471.98c2.23.9,3.23,2.57,3,5-.12,3.65-1.79,6.48-5,8.5-4.73,3.36-9.73,6.2-15,8.5.69-1.21.85-2.54.5-4,1.83-1.17,3.33-2.67,4.5-4.5,3.48-1.99,6.82-4.32,10-7,1.29-.49,2.63-.66,4-.5-.2-2.18-.87-4.18-2-6Z"/>
  <path class="st118" d="M68.96,472.98c-.77.76-1.27,1.76-1.5,3-.5,5.99-.67,11.99-.5,18v1c-.67-2.33-1.33-4.67-2-7-2.49-1.27-5.16-1.94-8-2-.67,0-1-.33-1-1h10v-13c1.81-6.72,2.81-6.39,3,1Z"/>
  <path class="st0" d="M144.96,458.98c11.03,13.74,19.7,28.74,26,45-.99-.17-1.66.16-2,1-2.73-7.47-6.06-14.8-10-22-.74-.79-1.58-1.45-2.5-2-3.51-8.34-8.51-15.67-15-22-.59-.98-.26-1.65,1-2,1.3.14,2.13.8,2.5,2Z"/>
  <path class="st15" d="M395.96,474.98c.8,1.45,1.3,3.12,1.5,5,.5,6.66.67,13.33.5,20h-1c-.04-8.35-.38-16.68-1-25Z"/>
  <path class="st121" d="M399.96,471.98c.84.34,1.17,1.01,1,2-.29,1.78-.95,3.44-2,5,.91,5.62,1.24,11.29,1,17-.96,1.77-1.29,3.77-1,6-.84-.34-1.17-1.01-1-2,.17-6.67,0-13.34-.5-20-.2-1.88-.7-3.55-1.5-5-.11-2.15.56-2.48,2-1,.68-.74,1.35-1.41,2-2Z"/>
  <path class="st112" d="M400.96,473.98c1.32,1.79.98,3.45-1,5,1.31,5.8,1.31,11.46,0,17,.24-5.71-.09-11.38-1-17,1.05-1.56,1.71-3.22,2-5Z"/>
  <path class="st131" d="M44.96,476.98c.67,1.33,1.33,2.67,2,4-2.16,2.66-4.49,5.16-7,7.5-6.87,3.94-13.87,7.6-21,11-2.03,1.4-2.36,3.06-1,5,2,.67,4,.67,6,0,10.18-3.42,19.52-8.42,28-15,2.08-1.6,2.75-3.43,2-5.5h2v1c0,.67.33,1,1,1-3.36,4.03-7.03,7.69-11,11-5.52,1.92-10.52,4.59-15,8-.67.33-1.33.67-2,1-3.98.83-7.98,1-12,.5-1.54-1.11-2.2-2.61-2-4.5-.06-1.11-.39-2.11-1-3,3.85-1.43,7.52-3.09,11-5,5.27-2.3,10.27-5.14,15-8.5,3.21-2.02,4.88-4.85,5-8.5Z"/>
  <path class="st128" d="M64.96,487.98c.67,2.33,1.33,4.67,2,7v2c-9.16,4.74-18.49,9.24-28,13.5-3.05.82-6.05.65-9-.5-.75-1.24-1.08-2.57-1-4,.67-.33,1.33-.67,2-1v3c6.12.29,11.79-1.05,17-4,5.99-2.42,11.49-5.75,16.5-10,.49-1.97.66-3.97.5-6Z"/>
  <path class="st14" d="M46.96,480.98c2.54.54,4.87,1.54,7,3,.75,2.07.08,3.9-2,5.5-8.48,6.58-17.82,11.58-28,15-2,.67-4,.67-6,0-1.36-1.94-1.03-3.6,1-5,7.13-3.4,14.13-7.06,21-11,2.51-2.34,4.84-4.84,7-7.5Z"/>
  <path class="st129" d="M32.96,471.98c0,.67.33,1,1,1-6.86,6.35-14.19,12.18-22,17.5-.8,1.97-2.14,3.47-4,4.5-.75,1.24-1.08,2.57-1,4h7c.61.89.94,1.89,1,3-3.07.32-6.07-.02-9-1-1.02-1.93-1.19-3.93-.5-6,8.43-8.6,17.6-16.27,27.5-23Z"/>
  <path class="st186" d="M56.96,485.98c2.84.06,5.51.73,8,2,.16,2.03,0,4.03-.5,6-5.01,4.25-10.51,7.58-16.5,10-2.54-2.48-2.2-4.81,1-7-.73-.59-1.73-.59-3,0,3.97-3.31,7.64-6.97,11-11Z"/>
  <path class="st82" d="M47.96,503.98c-5.21,2.95-10.88,4.29-17,4v-3c4.48-3.41,9.48-6.08,15-8,1.27-.59,2.27-.59,3,0-3.2,2.19-3.54,4.52-1,7Z"/>
  <path class="st125" d="M66.96,493.98h1c.33,2,.67,4,1,6v4c3.45-.74,5.12.59,5,4h-1c-1.08,1.06-2.08,1.06-3,0-1.78-3.46-2.78-7.12-3-11v-3Z"/>
  <path class="st81" d="M395.96,499.98c.16,2.69,0,5.35-.5,8-1.01.84-2.18,1.17-3.5,1-.59,2.56-1.59,4.9-3,7,.07-2.81.74-5.48,2-8,2.63-2.1,4.3-4.76,5-8Z"/>
  <path class="st177" d="M292.96,515.98c.22-1.68-.45-2.68-2-3h-4v-1h6c7.14-17.8,17.14-33.8,30-48,1.32-.98,2.65-1.98,4-3,.33.5.67,1,1,1.5-14.82,15.8-26.48,33.64-35,53.5Z"/>
  <path class="st180" d="M196.96,507.98c21.83-1.16,43.83-1.33,66-.5,3.2.18,6.2.68,9,1.5h-11c-21.16-1-42.49-1.33-64-1Z"/>
  <path class="st33" d="M196.96,507.98c21.51-.33,42.84,0,64,1-24.17-.33-48.17,0-72,1h-9c5.42-1.62,11.08-2.28,17-2Z"/>
  <path class="st157" d="M188.96,509.98c23.83-1,47.83-1.33,72-1,6.81,1.15,13.81,1.82,21,2,1.91-.28,3.58.05,5,1v1c-7.31-.85-14.65-1.51-22-2h-12c-21.16-1-42.49-1.33-64-1Z"/>
  <path class="st69" d="M260.96,508.98h11c3.58.05,6.91.71,10,2-7.19-.18-14.19-.85-21-2Z"/>
  <path class="st26" d="M188.96,509.98c21.51-.33,42.84,0,64,1-23.35-.25-46.68.09-70,1,2-.67,4-1.33,6-2Z"/>
  <path class="st116" d="M170.96,503.98c.39,6.18,3.39,8.18,9,6h9c-2,.67-4,1.33-6,2-2.67.33-5.33.67-8,1v7c.54,5.8-.46,11.3-3,16.5.65,1.44.98,2.94,1,4.5h-1c-2.85-3.05-4.68-6.72-5.5-11-2.28-3.39-5.45-5.06-9.5-5,1.42-.95,3.09-1.28,5-1,3.51,1.35,5.84,3.85,7,7.5.95.48,1.95.65,3,.5,1.82-7.71,1.15-15.04-2-22-.54-1.62-.87-3.28-1-5,.34-.84,1.01-1.17,2-1Z"/>
  <path class="st6" d="M264.96,510.98c7.35.49,14.69,1.15,22,2h4c1.12,1.15,1.12,2.15,0,3-7.73-1.99-15.73-3.16-24-3.5-.92-.28-1.58-.78-2-1.5Z"/>
  <path class="st90" d="M72.96,507.98h1c.86,1.92,1.53,3.92,2,6-1.74-1.53-2.74-3.53-3-6Z"/>
  <path class="st176" d="M169.96,509.98c3.15,6.96,3.82,14.29,2,22-1.05.15-2.05-.02-3-.5-1.16-3.65-3.49-6.15-7-7.5-1.77-.96-3.77-1.3-6-1,2.53-1.28,5.2-1.28,8,0,.55-1.91.72-3.91.5-6,1.09,2.54,1.76,5.21,2,8,3.7,2.88,5.03,1.88,4-3l-1,1c-.88-1.37-1.38-2.87-1.5-4.5,1.4-2.68,2.06-5.51,2-8.5Z"/>
  <path class="st7" d="M155.96,522.98c2.23-.3,4.23.04,6,1-1.91-.28-3.58.05-5,1h-2c.33-.67.67-1.33,1-2Z"/>
  <path class="st86" d="M292.96,520.98c-.16,2.03,0,4.03.5,6l2-2c3.97,1.87,8.14,3.2,12.5,4,3.23,3.89,6.4,7.89,9.5,12,.33,1.67.67,3.33,1,5,1.09-.79,2.25-1.46,3.5-2,.56,1.83,1.56,3.17,3,4v1c-1.03.85-2.2,1.52-3.5,2-2.57-2.04-5.4-3.7-8.5-5,.92-10.58-3.75-15.08-14-13.5-2.72,1.6-4.89,3.76-6.5,6.5-.72-.54-1.22-1.21-1.5-2-.17-4.35,0-8.68.5-13,.23-1.24.73-2.24,1.5-3Z"/>
  <path class="st25" d="M290.96,512.98c1.55.32,2.22,1.32,2,3v5c-.77.76-1.27,1.76-1.5,3-.5,4.32-.67,8.65-.5,13-.67-3.67-1.33-7.33-2-11v-1c.51-3.04,1.18-6.04,2-9,1.12-.85,1.12-1.85,0-3Z"/>
  <path class="st103" d="M68.96,499.98c.9.71,1.24,1.71,1,3,1.64-.21,3.14.12,4.5,1,2.33,5,4.67,10,7,15,4.7,5.53,9.53,10.86,14.5,16h-2c-6.72-6.39-12.72-13.39-18-21-.47-2.08-1.14-4.08-2-6,.12-3.41-1.55-4.74-5-4v-4Z"/>
  <path class="st61" d="M288.96,524.98v1c-.22,4.73.12,9.4,1,14-.62-.11-1.12-.44-1.5-1-.5-3.65-.66-7.32-.5-11-.24-1.29.1-2.29,1-3Z"/>
  <path class="st8" d="M150.96,529.98v7c-4.27.3-7.94,1.97-11,5-1.82-1.32-3.48-2.82-5-4.5-2.31-.5-4.64-.66-7-.5,1.12-.66,2.46-.99,4-1,2.99.87,5.99,1.37,9,1.5-.84-1.01-1.17-2.18-1-3.5,2.25.42,4.41,1.08,6.5,2,.83-.33,1.67-.67,2.5-1,.53-1.84,1.19-3.5,2-5Z"/>
  <path class="st174" d="M174.96,519.98c.68,7.27.68,14.61,0,22-.67-.33-1.33-.67-2-1-.02-1.56-.35-3.06-1-4.5,2.54-5.2,3.54-10.7,3-16.5Z"/>
  <path class="st145" d="M153.96,524.98c-1.56,4.17-2.23,8.51-2,13-1.29-.24-2.29.1-3,1-2.8.46-5.14,1.8-7,4-1.33,1.33-2.67,1.33-4,0-1.5-2.31-3.66-3.65-6.5-4-2.01-.19-3.51.47-4.5,2-3.2,2.3-3.86,5.3-2,9-.93,1.07-1.27,2.4-1,4-1.67-.67-3.33-1.33-5-2,1.07-.93,2.4-1.27,4-1v-8c.74-2.84,2.41-4.84,5-6,2.36-.16,4.69,0,7,.5,1.52,1.68,3.18,3.18,5,4.5,3.06-3.03,6.73-4.7,11-5v-7c.25-2.17,1.25-3.84,3-5Z"/>
  <path class="st13" d="M93.96,534.98h2c4.46,3.73,9.12,7.23,14,10.5,3.81,2.16,7.81,3.66,12,4.5-.3-2.56.03-4.89,1-7v8c-1.6-.27-2.93.07-4,1-9.71-3.72-18.04-9.39-25-17Z"/>
  <path class="st184" d="M288.96,525.98c.67,3.67,1.33,7.33,2,11,.28.79.78,1.46,1.5,2,1.61-2.74,3.78-4.9,6.5-6.5,10.25-1.58,14.92,2.92,14,13.5,3.1,1.3,5.93,2.96,8.5,5,1.3-.48,2.47-1.15,3.5-2v2c-.67,1.33-1.67,2.33-3,3-.67-.33-1.33-.67-2-1-2.29-2.15-4.96-3.82-8-5-.76-.77-1.76-1.27-3-1.5,1.12-3.07,1.28-6.24.5-9.5-.38-.56-.88-.89-1.5-1-3.33-4-6.67-4-10,0-1.91,2.16-3.58,4.49-5,7-1.28-.28-2.28-.95-3-2v-1c-.88-4.6-1.22-9.27-1-14Z"/>
  <path class="st46" d="M381.96,526.98c-5.48,8.98-12.81,16.14-22,21.5-.76,1.51-1.76,2.85-3,4-3.31.99-6.31,2.49-9,4.5-.09-1,.25-1.83,1-2.5-1.67-.33-3.33-.67-5-1,.84-1.01,1.17-2.18,1-3.5,2.43-.02,4.76-.52,7-1.5-1.46-.42-1.96-1.26-1.5-2.5,1.68-1.85,3.52-3.52,5.5-5,.78,1.23,1.28,2.56,1.5,4,2.2-1.5,4.7-2.5,7.5-3-1.84-.93-2.17-2.09-1-3.5-1.29-.49-2.63-.66-4-.5v-3c3.2,1.43,6.2,3.1,9,5-.16-1.7,0-3.37.5-5,.39.93,1.05,1.6,2,2,1.5-.83,2.67-2,3.5-3.5-2.96-2.18-2.62-3.35,1-3.5-.28-1.79.05-3.45,1-5,1.35,1.45,3.02,2.12,5,2Z"/>
  <path class="st143" d="M287.96,527.98c-.16,3.68,0,7.35.5,11,.38.56.88.89,1.5,1v1c.16,1.7,0,3.37-.5,5-5.08,8.2-8.91,16.87-11.5,26,.35-3.39,1.01-6.72,2-10-.39-1.77-1.05-3.44-2-5h3c-1.02-1.35-2.35-2.35-4-3,1.06-.41,2.39-.41,4,0-.07-2.99,1.1-5.32,3.5-7,.33.67.67,1.33,1,2,1.03-1.2,1.86-2.53,2.5-4-1.04-5.6-1.04-11.27,0-17Z"/>
  <path class="st85" d="M307.96,535.98c.62.11,1.12.44,1.5,1,.78,3.26.62,6.43-.5,9.5,1.24.23,2.24.73,3,1.5-1.56.23-2.9.9-4,2,0-.67-.33-1-1-1,1.98-4.23,2.32-8.56,1-13Z"/>
  <path class="st140" d="M148.96,538.98c1.32-.17,2.49.16,3.5,1,4.38,6.77,8.21,13.77,11.5,21,.61,3.22,1.78,6.22,3.5,9,1.11,3.59,1.61,7.25,1.5,11-1.37.16-2.71-.01-4-.5-7.6-7.37-13.6-15.87-18-25.5-1.7-4.06-3.37-8.06-5-12,1.86-2.2,4.2-3.54,7-4Z"/>
  <path class="st151" d="M297.96,535.98c2.89,1.12,5.89,2.12,9,3-2.82,3.58-4.98,7.58-6.5,12-2.5,3.22-5.5,5.89-9,8-.28-3.24-1.12-3.58-2.5-1-.33-.5-.67-1-1-1.5,1.5-1.92,2.17-4.09,2-6.5.73-2.45,1.73-4.79,3-7,1.42-2.51,3.09-4.84,5-7Z"/>
  <path class="st165" d="M156.96,524.98c4.05-.06,7.22,1.61,9.5,5,.82,4.28,2.65,7.95,5.5,11,2.59,6.61,5.09,13.28,7.5,20,.5,3.65.66,7.32.5,11-1.05.15-2.05-.02-3-.5-2.86-3.69-5.86-7.19-9-10.5-4.28-7.45-8.78-14.78-13.5-22-2.34-5.28-1.51-9.95,2.5-14Z"/>
  <path class="st51" d="M395.96,499.98h2c-.17.99.16,1.66,1,2-.83,3.32-1.66,6.65-2.5,10-1.36.88-2.86,1.21-4.5,1-4.42,11.27-11.09,21.11-20,29.5-10.36,9.85-22.36,17.01-36,21.5-.67,0-1-.33-1-1,.8-2.11,1.47-4.27,2-6.5-.11-2.4-1.11-4.23-3-5.5-2.9-1.28-5.9-1.28-9,0v-3c10.12-1.45,15.12,2.88,15,13,2.91-.92,5.58-2.26,8-4,2.69-2.01,5.69-3.51,9-4.5,1.24-1.15,2.24-2.49,3-4,9.19-5.36,16.52-12.52,22-21.5,2.72-3.39,5.05-7.06,7-11,1.41-2.1,2.41-4.44,3-7,1.32.17,2.49-.16,3.5-1,.5-2.65.66-5.31.5-8Z"/>
  <path class="st27" d="M137.96,542.98c6.19,10.38,11.86,21.05,17,32-.55,3.96-1.39,3.96-2.5,0-1,.67-2,1.33-3,2-3.03-3.52-5.86-7.19-8.5-11-.83-.89-1.83-1.22-3-1-1.51-5.36-3.85-10.36-7-15-1.34-1.51-3.01-2.17-5-2-.05-2.4.28-4.74,1-7,.99-1.53,2.49-2.19,4.5-2,2.84.35,5,1.69,6.5,4Z"/>
  <path class="st105" d="M126.96,540.98c-.72,2.26-1.05,4.6-1,7,1.99-.17,3.66.49,5,2,3.15,4.64,5.49,9.64,7,15,1.17-.22,2.17.11,3,1,2.64,3.81,5.47,7.48,8.5,11,1-.67,2-1.33,3-2,1.11,3.96,1.95,3.96,2.5,0,1.27,2.41,1.93,5.07,2,8-2.33.25-4.33-.41-6-2-10.33-9.03-19-19.36-26-31-1.86-3.7-1.2-6.7,2-9Z"/>
  <path class="st100" d="M153.96,524.98h3c-4.01,4.05-4.84,8.72-2.5,14,4.72,7.22,9.22,14.55,13.5,22-1.03.43-2.36.43-4,0-3.29-7.23-7.12-14.23-11.5-21-1.01-.84-2.18-1.17-3.5-1,.71-.9,1.71-1.24,3-1-.23-4.49.44-8.83,2-13Z"/>
  <path class="st28" d="M307.96,535.98c1.32,4.44.98,8.77-1,13-7.43,9.85-15.09,19.52-23,29-1.19,1.18-2.35,1.18-3.5,0-.67-2-.67-4,0-6,2.74-7.59,5.9-14.92,9.5-22,.17,2.41-.5,4.58-2,6.5.33.5.67,1,1,1.5,1.38-2.58,2.22-2.24,2.5,1,3.5-2.11,6.5-4.78,9-8,1.52-4.42,3.68-8.42,6.5-12-3.11-.88-6.11-1.88-9-3,3.33-4,6.67-4,10,0Z"/>
  <path class="st65" d="M333.96,550.98c-.09,1,.25,1.83,1,2.5-.95.48-1.95.65-3,.5.27,1.95-.39,3.45-2,4.5.93.39,1.59,1.05,2,2-3.4,4.84-7.4,9.01-12,12.5-.6,1.29-1.1,2.63-1.5,4-1.68-.21-3.18.63-4.5,2.5l1,1c-2.88.79-4.38-.37-4.5-3.5-.33.67-.67,1.33-1,2-.38-1.7-.22-3.36.5-5,4.01-6.69,8.01-13.36,12-20,1.33-.67,2.33-1.67,3-3,3.1-1.28,6.1-1.28,9,0Z"/>
  <path class="st142" d="M171.96,540.98h1c.67.33,1.33.67,2,1,1.52,5.11,3.19,10.11,5,15,1.4,4.86,2.07,9.86,2,15-1.63,1.74-3.63,2.24-6,1.5-1.9-1.73-3.57-3.56-5-5.5-1.16-1.64-2.32-3.3-3.5-5-.29,2.74.54,5.08,2.5,7,1.24,4.2,1.24,8.37,0,12.5-2,.67-4,.67-6,0l-4.5-4.5c-.19,2.4-.69,4.73-1.5,7-1.27.93-2.6,1.09-4,.5-11.96-8.86-21.96-19.36-30-31.5-.27-1.6.07-2.93,1-4,7,11.64,15.67,21.97,26,31,1.67,1.59,3.67,2.25,6,2-.07-2.93-.73-5.59-2-8-5.14-10.95-10.81-21.62-17-32,1.33,1.33,2.67,1.33,4,0,1.63,3.94,3.3,7.94,5,12,4.4,9.63,10.4,18.13,18,25.5,1.29.49,2.63.66,4,.5.11-3.75-.39-7.41-1.5-11-1.72-2.78-2.89-5.78-3.5-9,1.64.43,2.97.43,4,0,3.14,3.31,6.14,6.81,9,10.5.95.48,1.95.65,3,.5.16-3.68,0-7.35-.5-11-2.41-6.72-4.91-13.39-7.5-20Z"/>
  <path class="st14" d="M170.96,567.98c-.84.34-1.17,1.01-1,2-1.96-1.92-2.79-4.26-2.5-7,1.18,1.7,2.34,3.36,3.5,5Z"/>
  <path class="st120" d="M306.96,548.98c.67,0,1,.33,1,1-3.23,5.45-6.73,10.78-10.5,16-1.77,3.87-3.27,7.87-4.5,12-.9-.71-1.24-1.71-1-3,.53-1.22,1.2-2.39,2-3.5-.67-.67-1.33-.67-2,0-1.55,3.28-3.88,5.78-7,7.5-.67,0-1-.33-1-1,7.91-9.48,15.57-19.15,23-29Z"/>
  <path class="st154" d="M311.96,547.98c3.04,1.18,5.71,2.85,8,5-5.49,9.65-11.49,18.98-18,28-2.17,1.34-3.84,3.17-5,5.5-1.72,1.56-3.72,2.39-6,2.5-.39-3.91.28-7.58,2-11,1.23-4.13,2.73-8.13,4.5-12,3.77-5.22,7.27-10.55,10.5-16,1.1-1.1,2.44-1.77,4-2Z"/>
  <path class="st39" d="M179.96,556.98c1.54.73,2.38,2.06,2.5,4,.81,3.86.64,7.52-.5,11,.07-5.14-.6-10.14-2-15Z"/>
  <path class="st4" d="M289.96,540.98c.72,1.05,1.72,1.72,3,2-1.27,2.21-2.27,4.55-3,7-3.6,7.08-6.76,14.41-9.5,22-.67,2-.67,4,0,6,1.15,1.18,2.31,1.18,3.5,0,0,.67.33,1,1,1v1c-2.32,1.44-4.48,1.11-6.5-1-.5-2.31-.66-4.64-.5-7,2.59-9.13,6.42-17.8,11.5-26,.49-1.63.66-3.3.5-5Z"/>
  <path class="st154" d="M291.96,574.98c-2.52,4.57-3.52,9.57-3,15-1.15-.29-1.82-1.12-2-2.5.78-3.21,1.28-6.38,1.5-9.5-.82,1.32-1.98,1.99-3.5,2v-1c3.12-1.72,5.45-4.22,7-7.5.67-.67,1.33-.67,2,0-.8,1.11-1.47,2.28-2,3.5Z"/>
  <path class="st34" d="M319.96,552.98c.67.33,1.33.67,2,1-3.99,6.64-7.99,13.31-12,20-2.7,3.74-5.03,7.74-7,12-2.04-1.36-2.37-3.02-1-5,6.51-9.02,12.51-18.35,18-28Z"/>
  <path class="st162" d="M333.96,550.98c1.89,1.27,2.89,3.1,3,5.5-.53,2.23-1.2,4.39-2,6.5-8.16,10.33-17.5,19.5-28,27.5-1.53,1.01-3.19,1.51-5,1.5-.17-2.12.16-4.12,1-6,1.97-4.26,4.3-8.26,7-12-.72,1.64-.88,3.3-.5,5,.33-.67.67-1.33,1-2,.12,3.13,1.62,4.29,4.5,3.5l-1-1c1.32-1.87,2.82-2.71,4.5-2.5.4-1.37.9-2.71,1.5-4,4.6-3.49,8.6-7.66,12-12.5-.41-.95-1.07-1.61-2-2,1.61-1.05,2.27-2.55,2-4.5,1.05.15,2.05-.02,3-.5-.75-.67-1.09-1.5-1-2.5Z"/>
  <path class="st147" d="M299.96,592.98c-.67-1.67-1.33-3.33-2-5,.28-.79.78-1.46,1.5-2,.5,2.31.66,4.64.5,7Z"/>
  <path class="st132" d="M334.96,562.98c0,.67.33,1,1,1-7.55,12.28-17.55,22.12-30,29.5-2.21.79-4.21.62-6-.5.16-2.36,0-4.69-.5-7-.72.54-1.22,1.21-1.5,2-2.44,2.96-5.44,3.62-9,2-.52-5.43.48-10.43,3-15-.24,1.29.1,2.29,1,3-1.72,3.42-2.39,7.09-2,11,2.28-.11,4.28-.94,6-2.5,1.16-2.33,2.83-4.16,5-5.5-1.37,1.98-1.04,3.64,1,5-.84,1.88-1.17,3.88-1,6,1.81,0,3.47-.49,5-1.5,10.5-8,19.84-17.17,28-27.5Z"/>
</svg>