<?xml version="1.0" encoding="UTF-8"?>
<svg id="Layer_1" xmlns="http://www.w3.org/2000/svg" version="1.1" viewBox="0 0 518.76 728.93">
  <!-- Generator: Adobe Illustrator 29.6.1, SVG Export Plug-In . SVG Version: 2.1.1 Build 9)  -->
  <defs>
    <style>
      .st0 {
        fill: #a36379;
      }

      .st0, .st1, .st2, .st3, .st4, .st5, .st6, .st7, .st8, .st9, .st10, .st11, .st12, .st13, .st14, .st15, .st16, .st17, .st18, .st19, .st20, .st21, .st22, .st23, .st24, .st25, .st26, .st27, .st28, .st29, .st30, .st31, .st32, .st33, .st34, .st35, .st36, .st37, .st38, .st39, .st40, .st41, .st42, .st43, .st44, .st45, .st46, .st47, .st48, .st49, .st50, .st51, .st52, .st53, .st54, .st55, .st56, .st57, .st58, .st59, .st60, .st61, .st62, .st63, .st64, .st65, .st66, .st67, .st68, .st69, .st70, .st71, .st72, .st73, .st74, .st75, .st76, .st77, .st78, .st79, .st80, .st81, .st82, .st83, .st84, .st85, .st86, .st87, .st88, .st89, .st90, .st91, .st92, .st93, .st94, .st95, .st96, .st97, .st98, .st99, .st100, .st101, .st102, .st103, .st104, .st105, .st106, .st107, .st108, .st109, .st110, .st111, .st112, .st113, .st114, .st115, .st116, .st117, .st118, .st119, .st120, .st121, .st122, .st123, .st124, .st125, .st126, .st127, .st128, .st129, .st130, .st131, .st132, .st133, .st134, .st135, .st136, .st137, .st138, .st139, .st140, .st141, .st142, .st143, .st144, .st145, .st146, .st147, .st148, .st149, .st150, .st151, .st152, .st153, .st154, .st155, .st156, .st157, .st158, .st159, .st160, .st161, .st162, .st163, .st164, .st165, .st166, .st167, .st168, .st169, .st170, .st171, .st172, .st173, .st174, .st175, .st176, .st177, .st178, .st179, .st180, .st181, .st182, .st183, .st184, .st185, .st186, .st187, .st188, .st189, .st190, .st191, .st192, .st193, .st194, .st195, .st196, .st197, .st198, .st199, .st200, .st201, .st202, .st203, .st204, .st205, .st206, .st207, .st208, .st209, .st210, .st211, .st212, .st213, .st214, .st215, .st216, .st217, .st218, .st219, .st220, .st221 {
        fill-rule: evenodd;
      }

      .st1 {
        fill: #979999;
      }

      .st2 {
        fill: #7d2e49;
      }

      .st3 {
        fill: #b5b5b4;
      }

      .st4 {
        fill: #3e3e3e;
      }

      .st5 {
        fill: #d8507e;
      }

      .st6 {
        fill: #2b2d31;
      }

      .st7 {
        fill: #d45a84;
      }

      .st8 {
        fill: #7d7d7f;
      }

      .st9 {
        fill: #d65685;
      }

      .st10 {
        fill: #4f323d;
      }

      .st11 {
        fill: #cd5380;
      }

      .st12 {
        fill: #b9b5b7;
      }

      .st13 {
        fill: #6d6d6f;
      }

      .st14 {
        fill: #404041;
      }

      .st15 {
        fill: #5b5b5a;
      }

      .st16 {
        fill: #938f91;
      }

      .st17 {
        fill: #a19699;
      }

      .st18 {
        fill: #321921;
      }

      .st19 {
        fill: #d0d1d1;
      }

      .st20 {
        fill: #993f5e;
      }

      .st21 {
        fill: #0b0b0c;
      }

      .st22 {
        fill: #bc6485;
      }

      .st23 {
        fill: #e96c99;
      }

      .st24 {
        fill: #311c23;
      }

      .st25 {
        fill: #9d9a9c;
      }

      .st26 {
        fill: #7c787a;
      }

      .st27 {
        fill: #aea9ab;
      }

      .st28 {
        fill: #d8cfd2;
      }

      .st29 {
        fill: #302d2e;
      }

      .st30 {
        fill: #615559;
      }

      .st31 {
        fill: #d95483;
      }

      .st32 {
        fill: #ec6595;
      }

      .st33 {
        fill: #6c5d61;
      }

      .st34 {
        fill: #3c282c;
      }

      .st35 {
        fill: #63404b;
      }

      .st36 {
        fill: #4d3640;
      }

      .st37 {
        fill: #7b4154;
      }

      .st38 {
        fill: #dfdedf;
      }

      .st39 {
        fill: #6e4153;
      }

      .st40 {
        fill: #afafaf;
      }

      .st41 {
        fill: #b6b7b7;
      }

      .st42 {
        fill: #d55c88;
      }

      .st43 {
        fill: #1c1c1c;
      }

      .st44 {
        fill: #bbb2b5;
      }

      .st45 {
        fill: #69424f;
      }

      .st46 {
        fill: #77364b;
      }

      .st47 {
        fill: #958c90;
      }

      .st48 {
        fill: #a5969b;
      }

      .st49 {
        fill: #ce547f;
      }

      .st50 {
        fill: #cdc4c7;
      }

      .st51 {
        fill: #5f3a45;
      }

      .st52 {
        fill: #401823;
      }

      .st53 {
        fill: #6a4551;
      }

      .st54 {
        fill: #686967;
      }

      .st55 {
        fill: #52323d;
      }

      .st56 {
        fill: #ae6c86;
      }

      .st57 {
        fill: #f4729f;
      }

      .st58 {
        fill: #7c7d7e;
      }

      .st59 {
        fill: #533942;
      }

      .st60 {
        fill: #302029;
      }

      .st61 {
        fill: #414041;
      }

      .st62 {
        fill: #b0496b;
      }

      .st63 {
        fill: #959190;
      }

      .st64 {
        fill: #7f3651;
      }

      .st65 {
        fill: #683c4a;
      }

      .st66 {
        fill: #61414c;
      }

      .st67 {
        fill: #8a9292;
      }

      .st68 {
        fill: #a2a6a9;
      }

      .st69 {
        fill: #cbd1d1;
      }

      .st70 {
        fill: #69525f;
      }

      .st71 {
        fill: #9ba09e;
      }

      .st72 {
        fill: #5e404b;
      }

      .st73 {
        fill: #cdcccc;
      }

      .st74 {
        fill: #6c5059;
      }

      .st75 {
        fill: #232425;
      }

      .st76 {
        fill: #632b40;
      }

      .st77 {
        fill: #df668f;
      }

      .st78 {
        fill: #bcbeba;
      }

      .st79 {
        fill: #79676c;
      }

      .st80 {
        fill: #63424e;
      }

      .st81 {
        fill: #622a3d;
      }

      .st82 {
        fill: #9b516b;
      }

      .st83 {
        fill: #f2719d;
      }

      .st84 {
        fill: #767677;
      }

      .st85 {
        fill: #834b60;
      }

      .st86 {
        fill: #6f2a42;
      }

      .st87 {
        fill: #7d364f;
      }

      .st88 {
        fill: #a8aaa9;
      }

      .st89 {
        fill: #b5456f;
      }

      .st90 {
        fill: #a39b9d;
      }

      .st91 {
        fill: #8a8383;
      }

      .st92 {
        fill: #c8c7c8;
      }

      .st93 {
        fill: #c7c9c8;
      }

      .st94 {
        fill: #a4a2a2;
      }

      .st95 {
        fill: #703249;
      }

      .st96 {
        fill: #683d4a;
      }

      .st97 {
        fill: #cd6788;
      }

      .st98 {
        fill: #6b4551;
      }

      .st99 {
        fill: #e2729d;
      }

      .st100 {
        fill: #6e2740;
      }

      .st101 {
        fill: #4b2c34;
      }

      .st102 {
        fill: #7d3f54;
      }

      .st103 {
        fill: #d5d5d5;
      }

      .st104 {
        fill: #adabab;
      }

      .st105 {
        fill: #4d1c2e;
      }

      .st106 {
        fill: #c9c1c3;
      }

      .st107 {
        fill: #a87082;
      }

      .st108 {
        fill: #0e0e0e;
      }

      .st109 {
        fill: #d45382;
      }

      .st110 {
        fill: #7f314b;
      }

      .st111 {
        fill: #cfcfce;
      }

      .st112 {
        fill: #aba9a9;
      }

      .st113 {
        fill: #e36395;
      }

      .st114 {
        fill: #cd7393;
      }

      .st115 {
        fill: #94868b;
      }

      .st116 {
        fill: #cdcdcc;
      }

      .st117 {
        fill: #6e4551;
      }

      .st118 {
        fill: #d6d9da;
      }

      .st119 {
        fill: #f1729d;
      }

      .st120 {
        fill: #6b6c67;
      }

      .st121 {
        fill: #ee719e;
      }

      .st122 {
        fill: #6c2540;
      }

      .st123 {
        fill: #693446;
      }

      .st124 {
        fill: #464646;
      }

      .st125 {
        fill: #515252;
      }

      .st126 {
        fill: #d3ced0;
      }

      .st127 {
        fill: #984162;
      }

      .st128 {
        fill: #434343;
      }

      .st129 {
        fill: #ce517f;
      }

      .st130 {
        fill: #77797a;
      }

      .st131 {
        fill: #959796;
      }

      .st132 {
        fill: #a34c6a;
      }

      .st133 {
        fill: #9f5b73;
      }

      .st134 {
        fill: #6a3d49;
      }

      .st135 {
        fill: #89787d;
      }

      .st136 {
        fill: #b65e79;
      }

      .st137 {
        fill: #af5a74;
      }

      .st138 {
        fill: #d0d0d0;
      }

      .st139 {
        fill: #565656;
      }

      .st140 {
        fill: #c7c6c4;
      }

      .st141 {
        fill: #440f23;
      }

      .st142 {
        fill: #e5729b;
      }

      .st143 {
        fill: #75676c;
      }

      .st144 {
        fill: #50313b;
      }

      .st145 {
        fill: #712d43;
      }

      .st146 {
        fill: #e56a97;
      }

      .st147 {
        fill: #f074a1;
      }

      .st148 {
        fill: #52333f;
      }

      .st149 {
        fill: #4e2d39;
      }

      .st150 {
        fill: #1b1b1c;
      }

      .st151 {
        fill: #7d7d7d;
      }

      .st152 {
        fill: #767676;
      }

      .st153 {
        fill: #e05888;
      }

      .st154 {
        fill: #444545;
      }

      .st155 {
        fill: #756369;
      }

      .st156 {
        fill: #e9739d;
      }

      .st157 {
        fill: #a45e78;
      }

      .st158 {
        fill: #643046;
      }

      .st159 {
        fill: #e97499;
      }

      .st160 {
        fill: #d57093;
      }

      .st161 {
        fill: #da5282;
      }

      .st162 {
        fill: #d3d4d3;
      }

      .st163 {
        fill: #833a53;
      }

      .st164 {
        fill: #dd5685;
      }

      .st165 {
        fill: #f06d9b;
      }

      .st166 {
        fill: #cccccb;
      }

      .st167 {
        fill: #624b51;
      }

      .st168 {
        fill: #5d5f5e;
      }

      .st169 {
        fill: #483239;
      }

      .st170 {
        fill: #674651;
      }

      .st171 {
        fill: #d3d4d4;
      }

      .st172 {
        fill: #75686c;
      }

      .st173 {
        fill: #585858;
      }

      .st174 {
        fill: #d6d6d5;
      }

      .st175 {
        fill: #797a7a;
      }

      .st176 {
        fill: #f1739e;
      }

      .st177 {
        fill: #804459;
      }

      .st178 {
        fill: #787878;
      }

      .st179 {
        fill: #674351;
      }

      .st180 {
        fill: #95445f;
      }

      .st181 {
        fill: #999295;
      }

      .st182 {
        fill: #672940;
      }

      .st183 {
        fill: #3e1825;
      }

      .st184 {
        fill: #d56c8d;
      }

      .st185 {
        fill: #da5684;
      }

      .st186 {
        fill: #7f7c7e;
      }

      .st187 {
        fill: #433539;
      }

      .st188 {
        fill: #5a5a5c;
      }

      .st189 {
        fill: #9e516b;
      }

      .st190 {
        fill: #873953;
      }

      .st191 {
        fill: #a44e6a;
      }

      .st192 {
        fill: #727374;
      }

      .st193 {
        fill: #a5959c;
      }

      .st194 {
        fill: #898989;
      }

      .st195 {
        fill: #db5685;
      }

      .st196 {
        fill: #6b3a4b;
      }

      .st197 {
        fill: #e9719b;
      }

      .st198 {
        fill: #cd708e;
      }

      .st199 {
        fill: #633144;
      }

      .st200 {
        fill: #54313e;
      }

      .st201 {
        fill: #353636;
      }

      .st202 {
        fill: #5e4d51;
      }

      .st203 {
        fill: #f4729e;
      }

      .st204 {
        fill: #833e55;
      }

      .st205 {
        fill: #52343a;
      }

      .st206 {
        fill: #858485;
      }

      .st207 {
        fill: #d55888;
      }

      .st208 {
        fill: #472e38;
      }

      .st209 {
        fill: #724554;
      }

      .st210 {
        fill: #ccc;
      }

      .st211 {
        fill: #eb739e;
      }

      .st212 {
        fill: #c55880;
      }

      .st213 {
        fill: #d0547f;
      }

      .st214 {
        fill: #d1cfce;
      }

      .st215 {
        fill: #ee719d;
      }

      .st216 {
        fill: #a79ea0;
      }

      .st217 {
        fill: #733247;
      }

      .st218 {
        fill: #e8759e;
      }

      .st219 {
        fill: #83314f;
      }

      .st220 {
        fill: #9d9d9d;
      }

      .st221 {
        fill: #474545;
      }
    </style>
  </defs>
  <path class="st140" d="M262.47,151.79c-.11.62-.44,1.12-1,1.5-6.66.5-13.33.67-20,.5,6.87-.73,13.87-1.4,21-2Z"/>
  <path class="st216" d="M271.47,151.79c7.43.64,14.77,1.3,22,2-7.74.63-15.08-.04-22-2Z"/>
  <path class="st167" d="M271.47,151.79c6.92,1.96,14.26,2.63,22,2,1.92-.28,3.58.05,5,1h-29c.03-1-.47-1.66-1.5-2-1.73.4-3.23,1.07-4.5,2-9.37-.22-18.7.11-28,1,1-.67,2-1.33,3-2h3c6.67.17,13.34,0,20-.5.56-.38.89-.88,1-1.5,3-1.33,6-1.33,9,0Z"/>
  <path class="st107" d="M269.47,154.79h-6c1.27-.93,2.77-1.6,4.5-2,1.03.34,1.53,1,1.5,2Z"/>
  <path class="st47" d="M238.47,153.79c-1,.67-2,1.33-3,2h-4c2.02-1.42,4.35-2.09,7-2Z"/>
  <path class="st37" d="M269.47,154.79h29c2.23-.29,4.23.04,6,1-1.63.71-2.97,1.87-4,3.5,1.44.38,2.44,1.21,3,2.5-1.93-.65-3.93-.98-6-1-.14-1.62.53-2.79,2-3.5-1.33-.33-2.67-.67-4-1-8.84-.17-17.51-.67-26-1.5Z"/>
  <path class="st204" d="M263.47,154.79c-6.67.67-13.33,1.33-20,2-2.03-.16-4.03,0-6,.5,1.51,3.67.18,5.17-4,4.5,1.58-1.61,2.24-3.61,2-6,9.3-.89,18.63-1.22,28-1Z"/>
  <path class="st63" d="M304.47,155.79c1.65,1.93,3.32,3.93,5,6h-2c-.71-.9-1.71-1.24-3-1,.57-1.86.57-3.53,0-5Z"/>
  <path class="st169" d="M231.47,155.79h4c.24,2.39-.42,4.39-2,6h-4c.67-.77,1.51-1.43,2.5-2,.69-.94.52-1.6-.5-2v-2Z"/>
  <path class="st57" d="M243.47,156.79c7.21-.58,14.21.09,21,2,1.2-.35,1.2-.85,0-1.5,9.99-.5,19.99-.67,30-.5v5h-3c.19,2.97-.81,5.47-3,7.5l3,1.5c1.43-5.54,3.93-6.21,7.5-2,3.45-2.25,7.29-3.25,11.5-3v3c-2.78.31-5.28,1.31-7.5,3-1.45-.45-2.78-1.11-4-2-.5.33-1,.67-1.5,1,1.86,2.02,3.53,4.19,5,6.5,1,.33,2,.67,3,1-1.37.4-2.71.9-4,1.5-3.33-1.5-6.33-1-9,1.5,15.68,1.52,15.34,2.85-1,4-1.44.38-2.44,1.21-3,2.5h-2c-6.36-.49-11.7,1.67-16,6.5-2.72.6-5.39.43-8-.5-.04-1.08-.37-2.08-1-3-2.18-1.16-4.18-2.49-6-4,3.64-1.24,6.97-.57,10,2,1.45-.78,2.95-1.45,4.5-2,3.79,1.97,4.79,1.3,3-2-.8-1.3-1.97-1.97-3.5-2-3.3,1-6.63,1.16-10,.5-7.18-2.62-14.52-4.62-22-6,1.33-.33,2.67-.67,4-1-4.21-4.64-9.21-8.14-15-10.5,2.97-1.01,5.97-1.01,9,0v-3c-1.29.24-2.29-.1-3-1h1c4.18.67,5.51-.83,4-4.5,1.97-.49,3.97-.66,6-.5Z"/>
  <path class="st34" d="M304.47,155.79c.57,1.47.57,3.14,0,5,1.29-.24,2.29.1,3,1h-4c-.56-1.29-1.56-2.12-3-2.5,1.03-1.63,2.37-2.79,4-3.5Z"/>
  <path class="st33" d="M231.47,157.79c1.02.4,1.19,1.06.5,2-.99.57-1.83,1.23-2.5,2-2.59-.04-4.59.96-6,3-1.07.93-2.4,1.27-4,1h-3c5-2.67,10-5.33,15-8Z"/>
  <path class="st117" d="M307.47,161.79h2c3.56,1.61,7.22,2.95,11,4,3.22,2.44,6.89,4.11,11,5l4,4h-2c-3.49-2.74-7.49-4.41-12-5-2.88-3.16-6.54-4.99-11-5.5-1.44-.38-2.44-1.21-3-2.5Z"/>
  <path class="st177" d="M229.47,161.79h1c-2.01,1.57-4.34,2.57-7,3,1.41-2.04,3.41-3.04,6-3Z"/>
  <path class="st28" d="M320.47,165.79c3.21.67,6.38,1.67,9.5,3,1.03.34,1.53,1,1.5,2-4.11-.89-7.78-2.56-11-5Z"/>
  <path class="st1" d="M211.47,167.79c-.47,1.41-1.47,2.07-3,2,.47-1.41,1.47-2.07,3-2Z"/>
  <path class="st211" d="M263.47,154.79h6c8.49.83,17.16,1.33,26,1.5,1.33.33,2.67.67,4,1-1.47.71-2.14,1.88-2,3.5,2.07.02,4.07.35,6,1h4c.56,1.29,1.56,2.12,3,2.5,4.46.51,8.12,2.34,11,5.5-3.84.5-3.84,1.5,0,3-.67.33-1.33.67-2,1-4.21-1.94-8.54-1.94-13,0,3.87,1.66,7.87,3.33,12,5-3.35.79-6.68,1.62-10,2.5-.46.41-.79.91-1,1.5,4.12,2.4,8.46,4.23,13,5.5.75.67,1.09,1.5,1,2.5-10.71-3.87-21.71-4.87-33-3,.56-1.29,1.56-2.12,3-2.5,16.34-1.15,16.68-2.48,1-4,2.67-2.5,5.67-3,9-1.5,1.29-.6,2.63-1.1,4-1.5-1-.33-2-.67-3-1-1.47-2.31-3.14-4.48-5-6.5.5-.33,1-.67,1.5-1,1.22.89,2.55,1.55,4,2,2.22-1.69,4.72-2.69,7.5-3v-3c-4.21-.25-8.05.75-11.5,3-3.57-4.21-6.07-3.54-7.5,2l-3-1.5c2.19-2.03,3.19-4.53,3-7.5h3v-5c-10.01-.17-20.01,0-30,.5,1.2.65,1.2,1.15,0,1.5-6.79-1.91-13.79-2.58-21-2,6.67-.67,13.33-1.33,20-2Z"/>
  <path class="st147" d="M230.47,161.79h2c.71.9,1.71,1.24,3,1v3c-3.03-1.01-6.03-1.01-9,0,5.79,2.36,10.79,5.86,15,10.5-1.33.33-2.67.67-4,1,7.48,1.38,14.82,3.38,22,6,3.37.66,6.7.5,10-.5,1.53.03,2.7.7,3.5,2,1.79,3.3.79,3.97-3,2-1.55.55-3.05,1.22-4.5,2-3.03-2.57-6.36-3.24-10-2,1.82,1.51,3.82,2.84,6,4,.63.92.96,1.92,1,3-3.95-1.09-7.62-2.76-11-5-1.09-1.62-2.76-2.45-5-2.5-6.18-.82-12.18-.65-18,.5-7.29,1.57-14.29,3.9-21,7-2.85.47-5.18-.36-7-2.5,1.58-1.14,3.24-1.64,5-1.5-1.94-1.98-4.27-3.31-7-4,.94-1.47,2.27-2.47,4-3,.89.83,1.22,1.83,1,3,1.7.16,3.37,0,5-.5-1.01-2.17-2.68-3.34-5-3.5v-6c1.68.22,2.68-.45,3-2,4.17-2.92,8.5-5.58,13-8,1.6.27,2.93-.07,4-1,2.66-.43,4.99-1.43,7-3Z"/>
  <path class="st186" d="M197.47,175.79c-.76,1.76-2.1,2.76-4,3,.76-1.76,2.1-2.76,4-3Z"/>
  <path class="st133" d="M333.47,174.79h2c1.06,2.03,2.73,3.37,5,4-1.9.73-3.9.73-6,0-.44.07-.77-.1-1-.5.67-.33,1.33-.67,2-1-.88-.71-1.55-1.54-2-2.5Z"/>
  <path class="st200" d="M335.47,174.79c2.18.2,4.18.87,6,2,.64.98,1.31,1.98,2,3-.83.89-1.83,1.22-3,1-.9.71-1.24,1.71-1,3-2.69-.69-4.36-2.36-5-5,2.1.73,4.1.73,6,0-2.27-.63-3.94-1.97-5-4Z"/>
  <path class="st165" d="M321.47,169.79c4.51.59,8.51,2.26,12,5,.45.96,1.12,1.79,2,2.5-.67.33-1.33.67-2,1,.23.4.56.57,1,.5.64,2.64,2.31,4.31,5,5,.33.67.67,1.33,1,2,.04,1.08.37,2.08,1,3-3.09,3.11-6.43,5.78-10,8-3.6-1.61-6.93-3.61-10-6,.09-1-.25-1.83-1-2.5-4.54-1.27-8.88-3.1-13-5.5.21-.59.54-1.09,1-1.5,3.32-.88,6.65-1.71,10-2.5-4.13-1.67-8.13-3.34-12-5,4.46-1.94,8.79-1.94,13,0,.67-.33,1.33-.67,2-1-3.84-1.5-3.84-2.5,0-3Z"/>
  <path class="st174" d="M341.47,176.79c4.02.9,4.69,2.73,2,5.5,1.96,1.75,2.96,3.91,3,6.5-2.38-2.38-4.38-5.04-6-8,1.17.22,2.17-.11,3-1-.69-1.02-1.36-2.02-2-3Z"/>
  <path class="st66" d="M216.47,165.79h3c-4.5,2.42-8.83,5.08-13,8-3.45,1.61-6.78,3.44-10,5.5,2,.33,4,.67,6,1-5.19,4.19-10.02,8.69-14.5,13.5-1.78,2.56-3.28,5.23-4.5,8-3.67,4.01-6.34,8.67-8,14-1.84,2.35-3.17,5.02-4,8-.84-.34-1.17-1.01-1-2,5.04-15.08,13.38-28.08,25-39-.83-.89-1.83-1.22-3-1-.24-1.29.1-2.29,1-3,1.9-.24,3.24-1.24,4-3,3.23-2.75,6.9-4.75,11-6,1.53.07,2.53-.59,3-2,1.78-.39,3.45-1.06,5-2Z"/>
  <path class="st114" d="M228.47,186.79c5.82-1.15,11.82-1.32,18-.5,2.24.05,3.91.88,5,2.5-7.58-1.48-15.25-2.15-23-2Z"/>
  <path class="st51" d="M228.47,186.79c7.75-.15,15.42.52,23,2,3.38,2.24,7.05,3.91,11,5,1.14,1.74,2.81,2.74,5,3,6.35-3.21,12.68-6.21,19-9h2c11.29-1.87,22.29-.87,33,3,3.07,2.39,6.4,4.39,10,6,7.12,6.45,13.12,13.78,18,22,3.62,9.15,6.62,18.49,9,28,1.25,7.81,1.25,15.47,0,23,.17-4.68,0-9.34-.5-14-.67-.75-1.5-1.09-2.5-1v-2c.74-6.98-.1-13.98-2.5-21-2.56-6.22-5.56-12.22-9-18-.71-.88-1.54-1.55-2.5-2-1.37-3.21-3.37-6.05-6-8.5-5.59-4.62-11.59-8.45-18-11.5-1.78-1.1-3.78-1.93-6-2.5-6.85-.82-13.51-.65-20,.5-1.7-.16-3.37,0-5,.5-6.34,2.84-12.67,5.67-19,8.5-6.25-2.96-12.58-5.63-19-8-4.58-1.49-9.41-2.16-14.5-2-3.17.17-6.33.33-9.5.5-1.24.23-2.24.73-3,1.5-13.16,4.66-23.32,13-30.5,25-2.61,5.68-5.11,11.35-7.5,17-1.78,3.01-2.78,6.34-3,10-.72,2.26-1.05,4.6-1,7-1.32,3.1-1.99,6.6-2,10.5,0,3.68.33,7.18,1,10.5.86,5.77,2.19,11.43,4,17,.3,1.9.96,3.57,2,5,6.87,13.37,17.2,23.2,31,29.5,9.38,3.01,18.72,5.51,28,7.5,21.78,3.53,43.44,2.36,65-3.5,1.99-.37,3.66-1.21,5-2.5,12.69-4.1,23.53-11.1,32.5-21,2.09-3.24,3.92-6.57,5.5-10,1.68-.68,2.34-2.02,2-4,.33-1.33.67-2.67,1-4,1.19-1.57,2.19-3.24,3-5-.62,4.16-1.62,8.16-3,12-.39,1.68-.89,3.35-1.5,5-3.47,3.63-6.31,7.63-8.5,12-14.97,12.1-31.97,19.77-51,23h-1c-10.93,1.56-21.93,2.23-33,2-17.08-1.14-33.41-5.14-49-12h-1c-4.3-2.96-8.64-5.96-13-9-3.32-4.65-6.99-8.98-11-13-5.01-10.04-8.01-20.71-9-32-.17-7.01,0-14.01.5-21,2.44-5.76,3.94-11.76,4.5-18,2.37-3.41,4.37-7.08,6-11,4.7-8.54,11.03-15.7,19-21.5.75-.67,1.09-1.5,1-2.5,6.71-3.1,13.71-5.43,21-7Z"/>
  <path class="st171" d="M248.47,190.79c6.42,2.37,12.75,5.04,19,8,6.33-2.83,12.66-5.66,19-8.5,1.63-.49,3.3-.66,5-.5,8.46-.45,16.79.22,25,2-2.55,2.93-4.55,6.26-6,10-.98-.48-1.81-1.14-2.5-2-.06,3.28-.89,6.28-2.5,9,1.46,1.72,2.29,3.72,2.5,6,1.02-1.39,1.85-2.89,2.5-4.5,1.63-.49,3.3-.66,5-.5-.72,2.57-1.72,5.07-3,7.5l1,1c-4.84-.87-9.17.29-13,3.5-.89-.83-1.22-1.83-1-3,4-.33,4-.67,0-1,.3-2.1-.03-4.1-1-6-2.73,1.87-5.73,2.87-9,3-.53,3.79-1.53,7.46-3,11-2.9,2.28-5.57,4.78-8,7.5,2.07.69,4.07.52,6-.5,1.08.86,1.25,1.86.5,3-3.47,1.3-6.97,2.63-10.5,4-2.94-1.08-5.94-1.24-9-.5,1.05,1.54,2.38,1.71,4,.5l6,1.5c-5.33.67-10.67.67-16,0,1-.33,2-.67,3-1-1.43-.47-2.6-1.3-3.5-2.5-1.63,2.57-3.13,2.4-4.5-.5,2.29-2.05,2.45-4.22.5-6.5-2.26-2.55-5.09-4.22-8.5-5-1.08-1.16-1.92-2.5-2.5-4-.33.67-.67,1.33-1,2-3.99-.91-7.83-2.25-11.5-4-1.33.17-2.67.33-4,.5-1.05,1.62-2.05,3.28-3,5,.67.33,1.33.67,2,1-1.29.49-2.63.66-4,.5-4.73-.22-9.4.12-14,1-2.47.26-4.47,1.26-6,3-8.96,5.79-16.46,13.12-22.5,22-.48-.95-.65-1.95-.5-3-.05-2.4.28-4.74,1-7,1.78-3.01,2.78-6.34,3-10,2.39-5.65,4.89-11.32,7.5-17,7.18-12,17.34-20.34,30.5-25,8.99-1.16,17.99-1.16,27,0Z"/>
  <path class="st90" d="M291.47,189.79c6.49-1.15,13.15-1.32,20-.5,2.22.57,4.22,1.4,6,2.5h-1c-8.21-1.78-16.54-2.45-25-2Z"/>
  <path class="st181" d="M248.47,190.79c-9.01-1.16-18.01-1.16-27,0,.76-.77,1.76-1.27,3-1.5,3.17-.17,6.33-.33,9.5-.5,5.09-.16,9.92.51,14.5,2Z"/>
  <path class="st160" d="M286.47,187.79c-6.32,2.79-12.65,5.79-19,9-2.19-.26-3.86-1.26-5-3,2.61.93,5.28,1.1,8,.5,4.3-4.83,9.64-6.99,16-6.5Z"/>
  <path class="st218" d="M206.47,173.79c-.32,1.55-1.32,2.22-3,2v6c2.32.16,3.99,1.33,5,3.5-1.63.49-3.3.66-5,.5.22-1.17-.11-2.17-1-3-1.73.53-3.06,1.53-4,3,2.73.69,5.06,2.02,7,4-1.76-.14-3.42.36-5,1.5,1.82,2.14,4.15,2.97,7,2.5.09,1-.25,1.83-1,2.5-7.97,5.8-14.3,12.96-19,21.5-.07-3.64,1.26-6.47,4-8.5-3.24-1.39-5.9-3.89-8-7.5,1.22-2.77,2.72-5.44,4.5-8,4.48-4.81,9.31-9.31,14.5-13.5-2-.33-4-.67-6-1,3.22-2.06,6.55-3.89,10-5.5Z"/>
  <path class="st156" d="M340.47,185.79c11.92,11.84,20.25,25.84,25,42h-3c2.76,7.93,5.09,15.93,7,24,.16,3.02,0,6.02-.5,9-.41-.46-.91-.79-1.5-1-.95,1.54-1.28,3.21-1,5-1.64.02-2.98-.65-4-2-.67,1.45-1.34,2.78-2,4,.17-6.01,0-12.01-.5-18-.28-.92-.78-1.58-1.5-2-2.38-9.51-5.38-18.85-9-28-4.88-8.22-10.88-15.55-18-22,3.57-2.22,6.91-4.89,10-8-.63-.92-.96-1.92-1-3Z"/>
  <path class="st19" d="M316.47,191.79h1c6.41,3.05,12.41,6.88,18,11.5,2.63,2.45,4.63,5.29,6,8.5,1.07,3.3,2.41,6.47,4,9.5-1,2.76-3,4.09-6,4-1.53,2.81-3.53,2.98-6,.5-1.67,1.59-3.67,2.25-6,2-7.14-1.58-14.14-1.08-21,1.5-2.87,2.54-5.37,5.37-7.5,8.5-.5,3.99-.67,7.99-.5,12,.16,1.65.83,2.99,2,4,1.74,3.25,4.08,6.08,7,8.5,4.03,2.27,8.03,4.44,12,6.5-1.37-.16-2.71.01-4,.5,2.11.36,4.11,1.03,6,2-1.8.32-2.13.98-1,2-.95.62-1.78.45-2.5-.5-.64,1.47-1.47,2.8-2.5,4-2.88,1.57-5.54,3.24-8,5,1.71,4.23,1.04,8.06-2,11.5-2.53,1.42-5.2,1.76-8,1,1.46-.42,1.96-1.26,1.5-2.5-1.05,1.02-2.22,1.18-3.5.5,1.49-1.16,1.33-1.99-.5-2.5-1.77.73-3.6,1.07-5.5,1,8.83-3.31,14.17-9.65,16-19-.17-1.67-.33-3.33-.5-5-6.46-6.16-12.63-12.66-18.5-19.5-1.65-.61-3.32-1.11-5-1.5-.99.17-1.66-.16-2-1-3.53-1.55-7.37-2.21-11.5-2-3.02,0-5.85.34-8.5,1-2.95.76-5.62,2.09-8,4-2.28.11-4.28.94-6,2.5-5.2,4.86-10.03,10.03-14.5,15.5-.5,3.32-.67,6.65-.5,10-2.98,1.33-5.98,1.33-9,0-1.17.42-2.17,1.09-3,2-3.17-5.58-7.84-7.24-14-5,6.03-3.01,12.36-5.51,19-7.5,14.47-8.06,17.47-19.06,9-33-3.56-1.61-6.89-3.44-10-5.5,1.37.16,2.71-.01,4-.5-.67-.33-1.33-.67-2-1,.95-1.72,1.95-3.38,3-5,1.33-.17,2.67-.33,4-.5,3.67,1.75,7.51,3.09,11.5,4,.33-.67.67-1.33,1-2,.58,1.5,1.42,2.84,2.5,4,3.41.78,6.24,2.45,8.5,5,1.95,2.28,1.79,4.45-.5,6.5,1.37,2.9,2.87,3.07,4.5.5.9,1.2,2.07,2.03,3.5,2.5-1,.33-2,.67-3,1,5.33.67,10.67.67,16,0l-6-1.5c-1.62,1.21-2.95,1.04-4-.5,3.06-.74,6.06-.58,9,.5,3.53-1.37,7.03-2.7,10.5-4,.75-1.14.58-2.14-.5-3-1.93,1.02-3.93,1.19-6,.5,2.43-2.72,5.1-5.22,8-7.5,1.47-3.54,2.47-7.21,3-11,3.27-.13,6.27-1.13,9-3,.97,1.9,1.3,3.9,1,6,4,.33,4,.67,0,1-.22,1.17.11,2.17,1,3,3.83-3.21,8.16-4.37,13-3.5l-1-1c1.28-2.43,2.28-4.93,3-7.5-1.7-.16-3.37,0-5,.5-.65,1.61-1.48,3.11-2.5,4.5-.21-2.28-1.04-4.28-2.5-6,1.61-2.72,2.44-5.72,2.5-9,.69.86,1.52,1.52,2.5,2,1.45-3.74,3.45-7.07,6-10Z"/>
  <path class="st23" d="M183.47,201.79c2.1,3.61,4.76,6.11,8,7.5-2.74,2.03-4.07,4.86-4,8.5-1.63,3.92-3.63,7.59-6,11-1.14-2.95-2.81-5.61-5-8-.95-1.54-1.29-3.21-1-5,1.66-5.33,4.33-9.99,8-14Z"/>
  <path class="st80" d="M340.47,180.79c1.62,2.96,3.62,5.62,6,8,9.43,11.53,16.76,24.2,22,38,.09,3.21-.24,6.38-1,9.5.3,2.4.97,4.57,2,6.5v9c-1.91-8.07-4.24-16.07-7-24h3c-4.75-16.16-13.08-30.16-25-42-.33-.67-.67-1.33-1-2-.24-1.29.1-2.29,1-3Z"/>
  <path class="st92" d="M341.47,211.79c.96.45,1.79,1.12,2.5,2,3.44,5.78,6.44,11.78,9,18,2.4,7.02,3.24,14.02,2.5,21-6.91-11.25-16.24-19.58-28-25,2.33.25,4.33-.41,6-2,2.47,2.48,4.47,2.31,6-.5,3,.09,5-1.24,6-4-1.59-3.03-2.93-6.2-4-9.5Z"/>
  <path class="st154" d="M327.47,227.79c11.76,5.42,21.09,13.75,28,25v2c-5.06-6.57-10.73-12.74-17-18.5-9.88-7.04-20.54-8.37-32-4-5.29,4.98-7.46,11.15-6.5,18.5-.38-.56-.88-.89-1.5-1-.17-4.01,0-8.01.5-12,2.13-3.13,4.63-5.96,7.5-8.5,6.86-2.58,13.86-3.08,21-1.5Z"/>
  <path class="st158" d="M172.47,231.79c.17-.99-.16-1.66-1-2,.32-1.55,1.32-2.22,3-2,.27,1.88-.4,3.21-2,4Z"/>
  <path class="st13" d="M208.47,227.79c-1.53,1.74-3.53,2.74-6,3,1.53-1.74,3.53-2.74,6-3Z"/>
  <path class="st99" d="M175.47,215.79c-.29,1.79.05,3.46,1,5,2.19,2.39,3.86,5.05,5,8-.56,6.24-2.06,12.24-4.5,18-.5,6.99-.67,13.99-.5,21-.77-4.54-1.6-9.21-2.5-14-.49,1.29-.66,2.63-.5,4h-3c.31-2.75-.02-5.41-1-8-1.39,3.15-1.23,6.15.5,9,.5,10.33.67,20.66.5,31-.67-9.17-1.33-18.51-2-28-.59.21-1.09.54-1.5,1-.17-10.67,1.66-21,5.5-31,1.6-.79,2.27-2.12,2-4-1.68-.22-2.68.45-3,2-1.07-1.85-1.07-3.85,0-6,.83-2.98,2.16-5.65,4-8Z"/>
  <path class="st172" d="M170.47,221.79c-.17.99.16,1.66,1,2-1.07,2.15-1.07,4.15,0,6-1.22.66-2.55,1.33-4,2,3.54,1.9,3.87,4.24,1,7-2.72-6.06-2.05-11.73,2-17Z"/>
  <path class="st16" d="M183.47,232.79c-.22,3.66-1.22,6.99-3,10,.22-3.66,1.22-6.99,3-10Z"/>
  <path class="st69" d="M368.47,226.79c.37,5.22.7,10.55,1,16-1.03-1.93-1.7-4.1-2-6.5.76-3.12,1.09-6.29,1-9.5Z"/>
  <path class="st59" d="M171.47,229.79c.84.34,1.17,1.01,1,2-3.84,10-5.67,20.33-5.5,31,.41-.46.91-.79,1.5-1,.67,9.49,1.33,18.83,2,28-.3,2.1.03,4.1,1,6,.8-.46,1.13-1.12,1-2,.71-.9,1.71-1.24,3-1-.18,3.73.16,7.4,1,11v4c-.66-1.54-1.33-3.21-2-5-1.02-1.35-2.36-2.02-4-2-.53-2.74-1.36-5.4-2.5-8-.5-8.33-.67-16.66-.5-25-.71-.9-1.71-1.24-3-1-.05-7.08.61-14.08,2-21,.43-2.51,1.09-4.84,2-7,2.87-2.76,2.54-5.1-1-7,1.45-.67,2.78-1.34,4-2Z"/>
  <path class="st194" d="M259.47,243.79c2.65-.66,5.48-1,8.5-1,4.13-.21,7.97.45,11.5,2-6.63-.83-13.3-1.16-20-1Z"/>
  <path class="st152" d="M355.47,254.79c1.5,2.93,2.17,6.1,2,9.5-1.14,6.8-2.14,13.64-3,20.5-.33,1.33-.67,2.67-1,4-4.86-7.35-11.19-13.19-19-17.5-8.43-2.96-16.77-6.29-25-10-3.2-2.87-6.04-6.03-8.5-9.5-.46.59-.63,1.26-.5,2-1.17-1.01-1.84-2.35-2-4,.62.11,1.12.44,1.5,1-.96-7.35,1.21-13.52,6.5-18.5,11.46-4.37,22.12-3.04,32,4,6.27,5.76,11.94,11.93,17,18.5Z"/>
  <path class="st108" d="M308.47,251.79c.11-2.45,1.11-4.45,3-6,4.16-2.86,8.83-3.69,14-2.5,3.13,1.64,6.13,3.47,9,5.5.95,1.54,1.28,3.21,1,5-5-1.26-9.84-2.92-14.5-5-4.29.61-8.46,1.61-12.5,3Z"/>
  <path class="st150" d="M259.47,243.79c6.7-.16,13.37.17,20,1,.34.84,1.01,1.17,2,1,5.39,4.02,6.39,9.02,3,15-7.7,6.76-16.37,8.43-26,5-8.56-3.76-10.89-9.76-7-18,2.38-1.91,5.05-3.24,8-4Z"/>
  <path class="st84" d="M182.47,287.79c-1.81-5.57-3.14-11.23-4-17-.17-4.35,0-8.68.5-13,6.79-9.79,14.96-18.29,24.5-25.5,7.18-2.94,14.52-3.27,22-1,8.03,3.55,11.2,9.72,9.5,18.5-2.14,6.33-6.31,10.83-12.5,13.5-10.58,3.52-20.58,8.19-30,14-2.91,4.08-6.25,7.58-10,10.5Z"/>
  <path class="st4" d="M311.47,245.79c-1.89,1.55-2.89,3.55-3,6-1.69-3.16-.69-5.16,3-6Z"/>
  <path class="st155" d="M369.47,243.79c1.71,4.38,2.38,9.05,2,14-.67-2-1.33-4-2-6v-8Z"/>
  <path class="st71" d="M166.47,245.79c-1.39,6.92-2.05,13.92-2,21,1.29-.24,2.29.1,3,1h-4c-.17-4.68,0-9.34.5-14,.28-2.96,1.11-5.62,2.5-8Z"/>
  <path class="st14" d="M222.47,226.79c3.11,2.06,6.44,3.89,10,5.5,8.47,13.94,5.47,24.94-9,33-6.64,1.99-12.97,4.49-19,7.5-4.45,1.73-8.45,4.23-12,7.5-4.08,3.34-6.74,7.5-8,12.5-1.04-1.43-1.7-3.1-2-5,3.75-2.92,7.09-6.42,10-10.5,9.42-5.81,19.42-10.48,30-14,6.19-2.67,10.36-7.17,12.5-13.5,1.7-8.78-1.47-14.95-9.5-18.5-7.48-2.27-14.82-1.94-22,1-9.54,7.21-17.71,15.71-24.5,25.5-.5,4.32-.67,8.65-.5,13-.67-3.32-1-6.82-1-10.5.01-3.9.68-7.4,2-10.5-.15,1.05.02,2.05.5,3,6.04-8.88,13.54-16.21,22.5-22,2.47-.26,4.47-1.26,6-3,4.6-.88,9.27-1.22,14-1Z"/>
  <path class="st188" d="M227.47,251.79c-.6.64-1.43.97-2.5,1-5.08-1.96-10.24-2.29-15.5-1-.48.98-1.14,1.81-2,2.5-2.54.8-4.87.63-7-.5,4.64-1.65,9.31-3.32,14-5,4.4.85,8.74,1.85,13,3Z"/>
  <path class="st21" d="M227.47,251.79c-4.26-1.15-8.6-2.15-13-3-4.69,1.68-9.36,3.35-14,5-.25-3.01.75-5.51,3-7.5,6.53-2.88,13.19-3.21,20-1,2.42,1.57,3.76,3.74,4,6.5Z"/>
  <path class="st128" d="M353.47,288.79c.34,1.98-.32,3.32-2,4-6.3-13.61-16.96-21.61-32-24-3.97-2.06-7.97-4.23-12-6.5-2.92-2.42-5.26-5.25-7-8.5-.13-.74.04-1.41.5-2,2.46,3.47,5.3,6.63,8.5,9.5,8.23,3.71,16.57,7.04,25,10,7.81,4.31,14.14,10.15,19,17.5Z"/>
  <path class="st22" d="M358.47,246.79c.72.42,1.22,1.08,1.5,2,.5,5.99.67,11.99.5,18,.25,3.96-.42,7.62-2,11v-8c1.25-7.53,1.25-15.19,0-23Z"/>
  <path class="st162" d="M319.47,268.79c15.04,2.39,25.7,10.39,32,24-1.58,3.43-3.41,6.76-5.5,10-8.97,9.9-19.81,16.9-32.5,21-12.31,2-24.65,4.17-37,6.5-10.99,0-21.99-.17-33-.5-9.28-1.99-18.62-4.49-28-7.5-13.8-6.3-24.13-16.13-31-29.5,1.26-5,3.92-9.16,8-12.5,3.55-3.27,7.55-5.77,12-7.5,6.16-2.24,10.83-.58,14,5,.83-.91,1.83-1.58,3-2,3.02,1.33,6.02,1.33,9,0,4.01,10.31,11.67,16.31,23,18,.76.77,1.76,1.27,3,1.5,3.83.17,7.67.33,11.5.5,5.43.22,10.6-.45,15.5-2,1.53-1.85,3.53-2.85,6-3,1.9.07,3.73-.27,5.5-1,1.83.51,1.99,1.34.5,2.5,1.28.68,2.45.52,3.5-.5.46,1.24-.04,2.08-1.5,2.5,2.8.76,5.47.42,8-1,3.04-3.44,3.71-7.27,2-11.5,2.46-1.76,5.12-3.43,8-5,1.03-1.2,1.86-2.53,2.5-4,.72.95,1.55,1.12,2.5.5-1.13-1.02-.8-1.68,1-2-1.89-.97-3.89-1.64-6-2,1.29-.49,2.63-.66,4-.5Z"/>
  <path class="st60" d="M371.47,265.79h-3v19c-.67,0-1-.33-1-1v-22c1.32.17,2.49-.16,3.5-1,.49,1.63.66,3.3.5,5Z"/>
  <path class="st67" d="M371.47,265.79c-1.56,5.23-2.56,10.56-3,16v-16h3Z"/>
  <path class="st187" d="M355.47,254.79c1-.09,1.83.25,2.5,1,.5,4.66.67,9.32.5,14v8c-.84.34-1.17,1.01-1,2-.81,1.76-1.81,3.43-3,5,.86-6.86,1.86-13.7,3-20.5.17-3.4-.5-6.57-2-9.5Z"/>
  <path class="st113" d="M366.47,264.79v25c-.6,3.12-1.77,3.46-3.5,1-.38.56-.88.89-1.5,1-1.3-1.43-2.8-2.76-4.5-4-.2,1.82-1.03,3.15-2.5,4,1.38-3.84,2.38-7.84,3-12-.17-.99.16-1.66,1-2,1.58-3.38,2.25-7.04,2-11,.66-1.22,1.33-2.55,2-4,1.02,1.35,2.36,2.02,4,2Z"/>
  <path class="st58" d="M281.47,245.79c1.68.39,3.35.89,5,1.5,5.87,6.84,12.04,13.34,18.5,19.5.17,1.67.33,3.33.5,5-1.83,9.35-7.17,15.69-16,19-2.47.15-4.47,1.15-6,3-10.01,1.19-20.01,1.19-30,0-11.33-1.69-18.99-7.69-23-18-.17-3.35,0-6.68.5-10,4.47-5.47,9.3-10.64,14.5-15.5,1.72-1.56,3.72-2.39,6-2.5-3.89,8.24-1.56,14.24,7,18-.02,2.68-1.36,4.01-4,4v3c-4.65.5-9.32.83-14,1-2.3-1.3-4.3-2.96-6-5-1.33,1-1.33,2,0,3,5.98,6.49,13.31,8.66,22,6.5,3.55-.7,7.05-1.53,10.5-2.5,7.99,2.43,16.15,3.26,24.5,2.5,4.43-1.88,8.1-4.71,11-8.5-.5-.33-1-.67-1.5-1-1.78,1.47-3.61,2.8-5.5,4-2.71.95-5.37.95-8,0,.48-.98,1.14-1.81,2-2.5-2.33-1.66-4.33-3.66-6-6,.49-1.14.82-2.3,1-3.5,3.39-5.98,2.39-10.98-3-15Z"/>
  <path class="st75" d="M240.47,273.79c3.7,1.55,7.7,2.22,12,2,5.28.09,10.45-.58,15.5-2,7.74,1.85,15.58,2.35,23.5,1.5,1.82-.2,3.15-1.03,4-2.5,1.89-1.2,3.72-2.53,5.5-4,.5.33,1,.67,1.5,1-2.9,3.79-6.57,6.62-11,8.5-8.35.76-16.51-.07-24.5-2.5-3.45.97-6.95,1.8-10.5,2.5-8.69,2.16-16.02-.01-22-6.5-1.33-1-1.33-2,0-3,1.7,2.04,3.7,3.7,6,5Z"/>
  <path class="st192" d="M284.47,260.79c-.18,1.2-.51,2.36-1,3.5,1.67,2.34,3.67,4.34,6,6-.86.69-1.52,1.52-2,2.5,2.63.95,5.29.95,8,0-.85,1.47-2.18,2.3-4,2.5-7.92.85-15.76.35-23.5-1.5-5.05,1.42-10.22,2.09-15.5,2-4.3.22-8.3-.45-12-2,4.68-.17,9.35-.5,14-1v-3c2.64.01,3.98-1.32,4-4,9.63,3.43,18.3,1.76,26-5Z"/>
  <path class="st118" d="M371.47,265.79h1c-1.98,9.8-3.15,19.8-3.5,30-.33,1-.67,2-1,3-2.23,1.34-4.07,3.01-5.5,5v-4c1.53-.57,3.03-1.23,4.5-2,.58-4.33,1.08-8.66,1.5-13v-3c.44-5.44,1.44-10.77,3-16Z"/>
  <path class="st85" d="M369.47,251.79c.67,2,1.33,4,2,6,.97,2.45,1.31,5.11,1,8h-1c.16-1.7,0-3.37-.5-5-1.01.84-2.18,1.17-3.5,1v22h-1v-19c-.28-1.79.05-3.46,1-5,.59.21,1.09.54,1.5,1,.5-2.98.66-5.98.5-9Z"/>
  <path class="st0" d="M170.47,289.79c.67,1.33,1.33,2.67,2,4,.13.88-.2,1.54-1,2-.97-1.9-1.3-3.9-1-6Z"/>
  <path class="st88" d="M253.47,293.79c9.99,1.19,19.99,1.19,30,0-4.9,1.55-10.07,2.22-15.5,2-3.83-.17-7.67-.33-11.5-.5-1.24-.23-2.24-.73-3-1.5Z"/>
  <path class="st36" d="M366.47,283.79h1c0,.67.33,1,1,1-.42,4.34-.92,8.67-1.5,13-1.47.77-2.97,1.43-4.5,2-.16-2.36,0-4.69.5-7,.71,1.47,1.88,2.14,3.5,2v-11Z"/>
  <path class="st146" d="M176.47,267.79c.99,11.29,3.99,21.96,9,32,1.77,6.07,5.43,10.41,11,13,4.36,3.04,8.7,6.04,13,9-2.33-.16-4.49-.83-6.5-2-2.62,2.27-5.12,2.27-7.5,0,1.45-1.35,2.12-3.02,2-5-2.39.86-4.73.86-7,0,1.3-4.44.13-5.11-3.5-2,.75-5.28-1.25-8.95-6-11-.13-2.5-1.13-4.5-3-6-.36,4.01-.19,8.01.5,12-.67-1.33-1.33-2.67-2-4-.84-3.6-1.18-7.27-1-11-1.29-.24-2.29.1-3,1-.67-1.33-1.33-2.67-2-4,.17-10.34,0-20.67-.5-31-1.73-2.85-1.89-5.85-.5-9,.98,2.59,1.31,5.25,1,8h3c-.16-1.37.01-2.71.5-4,.9,4.79,1.73,9.46,2.5,14Z"/>
  <path class="st199" d="M366.47,289.79v5c-1.62.14-2.79-.53-3.5-2-.5,2.31-.66,4.64-.5,7v4c-1.44,1.45-2.11,3.28-2,5.5.01,1.39.35,2.55,1,3.5v4c-1.32-.17-2.49.16-3.5,1-.49-1.29-.66-2.63-.5-4,1.81-6.91,3.15-13.91,4-21v-1c.62-.11,1.12-.44,1.5-1,1.73,2.46,2.9,2.12,3.5-1Z"/>
  <path class="st38" d="M163.47,267.79h4c-.17,8.34,0,16.67.5,25,1.14,2.6,1.97,5.26,2.5,8,1.64-.02,2.98.65,4,2,.67,1.79,1.34,3.46,2,5v2c.27,1.6-.07,2.93-1,4,.04-4.6-1.96-7.93-6-10,.67-.33,1.33-.67,2-1-2.45-4.05-4.78-8.22-7-12.5,1.94-6.89,2.61-14.05,2-21.5-1.29.24-2.29-.1-3-1Z"/>
  <path class="st198" d="M185.47,299.79c4.01,4.02,7.68,8.35,11,13-5.57-2.59-9.23-6.93-11-13Z"/>
  <path class="st11" d="M361.47,292.79c-.85,7.09-2.19,14.09-4,21-1.25,2.59-2.25,5.25-3,8v-16h3c1.14-2.5,1.81-5.17,2-8h-3c-.34-2.66.33-4.99,2-7,.77,1.11,1.77,1.78,3,2Z"/>
  <path class="st68" d="M362.47,303.79c-.46,2.98-.8,5.98-1,9-.65-.95-.99-2.11-1-3.5-.11-2.22.56-4.05,2-5.5Z"/>
  <path class="st219" d="M357.47,313.79c-.16,1.37.01,2.71.5,4,1.01-.84,2.18-1.17,3.5-1v5c-.66-.9-1.32-1.9-2-3-.58,2.88-1.58,5.54-3,8-1.72-1.17-2.38-2.84-2-5,.75-2.75,1.75-5.41,3-8Z"/>
  <path class="st70" d="M361.47,314.79c1.42,2.02,2.09,4.35,2,7h-2v-7Z"/>
  <path class="st163" d="M176.47,303.79c.67,1.33,1.33,2.67,2,4,.79,4.73,1.79,9.4,3,14v5h-3c.42-2.28-.24-3.95-2-5-.27-3.34.39-5.68,2-7,.06-2.06-.6-3.72-2-5v-6Z"/>
  <path class="st8" d="M174.47,319.79c.24,2.4-.43,4.4-2,6-.24-2.4.43-4.4,2-6Z"/>
  <path class="st32" d="M209.47,321.79h1c-.13.74.04,1.41.5,2,1.59.88,3.09,1.88,4.5,3-1.33.33-2.67.67-4,1-2.83-.77-5.5-1.77-8-3v4c1.05-.15,2.05.02,3,.5l-1,1c.81.31,1.48.81,2,1.5-2.59,1.12-4.92,2.45-7,4,.16-2.69,0-5.35-.5-8-1.97-1.73-3.81-3.56-5.5-5.5-2.27-1.12-4.6-1.95-7-2.5.31-5.67-1.19-6.67-4.5-3-.2,1.88-.7,3.55-1.5,5-1.21-4.6-2.21-9.27-3-14-.69-3.99-.86-7.99-.5-12,1.87,1.5,2.87,3.5,3,6,4.75,2.05,6.75,5.72,6,11,3.63-3.11,4.8-2.44,3.5,2,2.27.86,4.61.86,7,0,.12,1.98-.55,3.65-2,5,2.38,2.27,4.88,2.27,7.5,0,2.01,1.17,4.17,1.84,6.5,2Z"/>
  <path class="st153" d="M200.47,335.79c-8.79.93-17.12,3.27-25,7-.68,1.1-1.34,2.1-2,3v-3h-3c.75-2.08.75-4.08,0-6,2.12-2.24,3.12-4.91,3-8,1.16-2.32,2.16-4.66,3-7,1.76,1.05,2.42,2.72,2,5h3v-5c.8-1.45,1.3-3.12,1.5-5,3.31-3.67,4.81-2.67,4.5,3,2.4.55,4.73,1.38,7,2.5,1.69,1.94,3.53,3.77,5.5,5.5.5,2.65.66,5.31.5,8Z"/>
  <path class="st197" d="M344.47,308.79c-1.79,2.3-3.79,4.46-6,6.5,1.89,1.08,2.23,2.41,1,4-6.85-.39-12.51,1.95-17,7,2.88,1.3,5.88,2.14,9,2.5v4c-3.59-1.26-7.25-1.76-11-1.5,3.56,2.07,7.23,3.9,11,5.5-1,.33-2,.67-3,1-4.6-.84-8.77-2.51-12.5-5-2.59.96-5.26,1.63-8,2-1.96-.14-3.46-.97-4.5-2.5-3.32-.5-6.65-.66-10-.5,19.03-3.23,36.03-10.9,51-23Z"/>
  <path class="st78" d="M313.47,323.79c-1.34,1.29-3.01,2.13-5,2.5-21.56,5.86-43.22,7.03-65,3.5,11.01.33,22.01.49,33,.5,12.35-2.33,24.69-4.5,37-6.5Z"/>
  <path class="st119" d="M210.47,321.79c15.59,6.86,31.92,10.86,49,12,7.82.99,15.82,1.33,24,1-2.13.81-4.46,1.31-7,1.5,2.18,1.2,4.51,1.7,7,1.5v16h-16v9h-16v7h22v16h10v7h16v-7c5.71-.33,11.37,0,17,1,1.36,2.03,3.03,3.69,5,5,1.53-.03,2.7-.7,3.5-2,.17-2.66,0-5.32-.5-8h-3v4h-3c-.05-4.93,1.45-9.27,4.5-13,.51,2.38,1.18,4.71,2,7,1.12-1.45,1.78-3.12,2-5,.76,1.82,1.59,3.48,2.5,5,1.05,3.23,1.71,6.56,2,10,.78,11.98,1.11,23.98,1,36-1.54,15.22-5.04,29.89-10.5,44-4.7,9.5-9.53,18.83-14.5,28-4.62,12.17-9.29,24.5-14,37,.17.99-.16,1.66-1,2-17.57,5.09-35.24,5.25-53,.5-4.29-1.82-8.62-3.32-13-4.5v-3h-7c1.43,7.93,2.43,15.93,3,24,.18,6.28-.99,12.28-3.5,18-.38-.56-.88-.89-1.5-1-3.6-7.12-8.93-8.79-16-5-1.62-.95-2.95-2.28-4-4l-1,1c1.11,1.11,1.78,2.45,2,4-.72,2.28-1.06,4.62-1,7-8.64,1.04-17.31,1.21-26,.5-6.11-3.61-11.77-7.78-17-12.5-12.09-10.81-20.43-23.97-25-39.5-.87-1.36-1.87-2.53-3-3.5-.5-4.99-1-9.99-1.5-15-.38-.56-.88-.89-1.5-1-.67-.77-1.51-1.43-2.5-2-.5-9.66-.67-19.33-.5-29,1.21-4.6,2.21-9.27,3-14v-4c1.2-.37,1.86-1.2,2-2.5-1.76-2.27-2.26-4.77-1.5-7.5,12.4-33.8,28.23-65.8,47.5-96l2-2c.66-.9,1.32-1.9,2-3,7.88-3.73,16.21-6.07,25-7,2.08-1.55,4.41-2.88,7-4-.52-.69-1.19-1.19-2-1.5l1-1c-.95-.48-1.95-.65-3-.5v-4c2.5,1.23,5.17,2.23,8,3,1.33-.33,2.67-.67,4-1-1.41-1.12-2.91-2.12-4.5-3-.46-.59-.63-1.26-.5-2Z"/>
  <path class="st137" d="M292.47,331.79c-.11.62-.44,1.12-1,1.5-2.86.18-5.53.68-8,1.5-8.18.33-16.18,0-24-1,11.07.23,22.07-.44,33-2Z"/>
  <path class="st115" d="M368.47,332.79c1.41.47,2.07,1.47,2,3-1.41-.47-2.07-1.47-2-3Z"/>
  <path class="st83" d="M366.47,357.79c-.16,3.74-.99,3.74-2.5,0-3.91,2.78-6.41,6.62-7.5,11.5-2.89.46-5.56.12-8-1l1,1c-1.64,2.13-2.47,4.63-2.5,7.5-1.35-2.09-1.85-4.43-1.5-7-1.62-.14-2.79.53-3.5,2-.52,4.94-1.69,9.61-3.5,14h3c-.16,4.21.51,8.21,2,12-1.94,16.71-1.94,33.38,0,50h3c-.17-4.68,0-9.34.5-14,.5,5.32.67,10.66.5,16h32c-.33-6.37,0-12.7,1-19,.98.48,1.81,1.14,2.5,2,.5,8.33.67,16.66.5,25-3.63-.06-3.8.94-.5,3,.49,1.63.66,3.3.5,5-2.74-.13-4.74,1.04-6,3.5.93.39,1.59,1.05,2,2-.25,3.33-.25,6.83,0,10.5h-16v16c-4.26-.5-8.26.17-12,2-1.02-1.35-2.36-2.02-4-2v16c-10.97-.54-21.64-.54-32,0,.17-4.68,0-9.34-.5-14-.23-1.24-.73-2.24-1.5-3-.72-1.64-.88-3.3-.5-5,8.37-14.08,14.54-29.08,18.5-45,2.71-3.81,4.04-8.15,4-13h3c-1.48-13.41-2.48-26.75-3-40-2.14-7.13-3.98-14.46-5.5-22-.74-2.15-1.58-2.31-2.5-.5,1.19,2.72,1.85,5.56,2,8.5-.91-1.52-1.74-3.18-2.5-5-.22,1.88-.88,3.55-2,5-.82-2.29-1.49-4.62-2-7-3.05,3.73-4.55,8.07-4.5,13h3v-4h3c.51,2.68.67,5.34.5,8-.8,1.3-1.97,1.97-3.5,2-1.97-1.31-3.64-2.97-5-5-5.63-.99-11.29-1.33-17-1v7h-16v-7h-10v-16h-22v-7h16v-9h16v-16c-2.49.2-4.82-.3-7-1.5,2.54-.19,4.87-.69,7-1.5,2.47-.82,5.14-1.32,8-1.5.56-.38.89-.88,1-1.5h1c3.35-.16,6.68,0,10,.5,1.04,1.53,2.54,2.36,4.5,2.5,2.74-.37,5.41-1.04,8-2,3.73,2.49,7.9,4.16,12.5,5,1-.33,2-.67,3-1-3.77-1.6-7.44-3.43-11-5.5,3.75-.26,7.41.24,11,1.5v-4c-3.12-.36-6.12-1.2-9-2.5,4.49-5.05,10.15-7.39,17-7,1.23-1.59.89-2.92-1-4,2.21-2.04,4.21-4.2,6-6.5,2.07-1.33,3.4-.66,4,2-.21,3.25-1.71,5.59-4.5,7-1.29,4.49-3.45,8.49-6.5,12-1.14,1.92-1.31,3.92-.5,6,12.23,4.05,22.06,11.38,29.5,22Z"/>
  <path class="st170" d="M363.47,321.79c2.61,3.13,4.28,6.8,5,11-.07,1.53.59,2.53,2,3,5.74,11.13,12.74,21.46,21,31h-2c-1.33-1-2.67-2-4-3-5.4-7.06-10.4-14.4-15-22-2.94-6.53-5.27-13.19-7-20Z"/>
  <path class="st5" d="M361.47,291.79v1c-1.23-.22-2.23-.89-3-2-1.67,2.01-2.34,4.34-2,7h3c-.19,2.83-.86,5.5-2,8h-3v16c-.38,2.16.28,3.83,2,5,1.42-2.46,2.42-5.12,3-8,.68,1.1,1.34,2.1,2,3h2c1.73,6.81,4.06,13.47,7,20,.26,1.48-.07,2.81-1,4-1.45-2.06-3.45-3.06-6-3-.24,1.29.1,2.29,1,3,.74,2.11,1.4,4.28,2,6.5,3.05,2.54,5.05,5.71,6,9.5-1.05.15-2.05-.02-3-.5-.66-1.52-1.66-2.68-3-3.5-7.44-10.62-17.27-17.95-29.5-22-.81-2.08-.64-4.08.5-6,3.05-3.51,5.21-7.51,6.5-12,2.79-1.41,4.29-3.75,4.5-7-.6-2.66-1.93-3.33-4-2,2.19-4.37,5.03-8.37,8.5-12,.61-1.65,1.11-3.32,1.5-5,1.47-.85,2.3-2.18,2.5-4,1.7,1.24,3.2,2.57,4.5,4Z"/>
  <path class="st91" d="M166.47,337.79c.07,1.53-.59,2.53-2,3-.07-1.53.59-2.53,2-3Z"/>
  <path class="st49" d="M370.47,341.79c4.6,7.6,9.6,14.94,15,22,1.07,3.74.23,7.07-2.5,10-.5-2.04-1.66-3.38-3.5-4-3.91-8.31-8.24-16.47-13-24.5-.94-.69-1.6-.53-2,.5-.9-.71-1.24-1.71-1-3,2.55-.06,4.55.94,6,3,.93-1.19,1.26-2.52,1-4Z"/>
  <path class="st176" d="M366.47,357.79c1.34.82,2.34,1.98,3,3.5.95.48,1.95.65,3,.5.84.34,1.17,1.01,1,2-.06,6.33,1.77,12,5.5,17,.67-2.67,1.33-2.67,2,0,.78,1.93.28,3.43-1.5,4.5,2.07,4.68,4.07,9.51,6,14.5,1.47-.88,2.3-2.21,2.5-4,.61,1.57,1.44,2.9,2.5,4,3.56,5.5,6.22,11.5,8,18,2.5,13.4,4.84,26.73,7,40v2c2.08,23.56-3.08,45.22-15.5,65-.94,2.65-1.77,5.32-2.5,8-5.97,8.48-12.97,16.32-21,23.5-6.48,6.48-13.82,11.81-22,16-1.75.47-3.41,1.14-5,2-8.33.67-16.67.67-25,0-.6-1.62-1.27-3.12-2-4.5-3-4.84-7.33-6.67-13-5.5-2.18,2.35-4.52,4.52-7,6.5-1-6.63-1.33-13.3-1-20,1.32-4.24,2.32-8.58,3-13,5.06-12.45,10.39-24.78,16-37,.06-1.11.39-2.11,1-3,.99.17,1.66-.16,2-1,.77.76,1.27,1.76,1.5,3,.5,4.66.67,9.32.5,14,10.36-.54,21.03-.54,32,0v-16c1.64-.02,2.98.65,4,2,3.74-1.83,7.74-2.5,12-2v-16h16c-.25-3.67-.25-7.17,0-10.5-.41-.95-1.07-1.61-2-2,1.26-2.46,3.26-3.63,6-3.5.16-1.7,0-3.37-.5-5-3.3-2.06-3.13-3.06.5-3,.17-8.34,0-16.67-.5-25-.69-.86-1.52-1.52-2.5-2-1,6.3-1.33,12.63-1,19h-32c.17-5.34,0-10.68-.5-16-.5,4.66-.67,9.32-.5,14h-3c-1.94-16.62-1.94-33.29,0-50-1.49-3.79-2.16-7.79-2-12h-3c1.81-4.39,2.98-9.06,3.5-14,.71-1.47,1.88-2.14,3.5-2-.35,2.57.15,4.91,1.5,7,.03-2.87.86-5.37,2.5-7.5l-1-1c2.44,1.12,5.11,1.46,8,1,1.09-4.88,3.59-8.72,7.5-11.5,1.51,3.74,2.34,3.74,2.5,0Z"/>
  <path class="st98" d="M176.47,309.79c1.4,1.28,2.06,2.94,2,5-1.61,1.32-2.27,3.66-2,7-.84,2.34-1.84,4.68-3,7-9.86,18.03-21.03,35.37-33.5,52-.49,1.63-.66,3.3-.5,5-1.17-.22-2.17.11-3,1-5.85,10.37-12.18,20.37-19,30-1.04,1.63-1.04,3.29,0,5-1.48,2.1-2.65,2.1-3.5,0-.38.56-.88.89-1.5,1,7.65-11.96,14.82-24.29,21.5-37,10.42-14.9,20.59-29.9,30.5-45,1.41-.47,2.07-1.47,2-3,2.08-4.05,4.08-8.05,6-12,1.57-1.6,2.24-3.6,2-6,.65-1.93.98-3.93,1-6,.93-1.07,1.27-2.4,1-4Z"/>
  <path class="st54" d="M391.47,366.79c1.47.91,2.47,2.24,3,4-.46.8-1.12,1.13-2,1-.13-1.72-.46-3.38-1-5Z"/>
  <path class="st18" d="M389.47,366.79h2c.54,1.62.87,3.28,1,5l-2,2c-.73-1.21-1.73-2.21-3-3,1.35-1.02,2.02-2.36,2-4Z"/>
  <path class="st89" d="M385.47,363.79c1.33,1,2.67,2,4,3,.02,1.64-.65,2.98-2,4,1.27.79,2.27,1.79,3,3v1c-1.22-.53-2.39-1.2-3.5-2-.98,1.31-2.15,2.31-3.5,3-1.82-1.62-3.15-3.62-4-6,1.84.62,3,1.96,3.5,4,2.73-2.93,3.57-6.26,2.5-10Z"/>
  <path class="st77" d="M373.47,363.79c5.76,10.38,11.26,21.04,16.5,32,.49,1.29.66,2.63.5,4-1.06-1.1-1.89-2.43-2.5-4-.2,1.79-1.03,3.12-2.5,4-1.93-4.99-3.93-9.82-6-14.5,1.78-1.07,2.28-2.57,1.5-4.5-.67-2.67-1.33-2.67-2,0-3.73-5-5.56-10.67-5.5-17Z"/>
  <path class="st100" d="M379.47,369.79c.85,2.38,2.18,4.38,4,6,9.1,18.82,16.94,38.15,23.5,58,2.06,7.06,3.56,14.22,4.5,21.5-.83,9.15-1.17,18.32-1,27.5-.06.54-.39.88-1,1-.67-7.16-1.33-14.16-2-21,.22-1.68-.45-2.68-2-3v-2c.07-2.64,1.07-4.81,3-6.5-2.29-8.45-4.46-16.95-6.5-25.5-.94-2.87-2.11-5.54-3.5-8-1.78-6.5-4.44-12.5-8-18,.16-1.37-.01-2.71-.5-4-5.24-10.96-10.74-21.62-16.5-32,.17-.99-.16-1.66-1-2-.95-3.79-2.95-6.96-6-9.5-.6-2.22-1.26-4.39-2-6.5.4-1.03,1.06-1.19,2-.5,4.76,8.03,9.09,16.19,13,24.5Z"/>
  <path class="st53" d="M392.47,371.79c3.39,6.42,7.56,12.42,12.5,18,2.83,3.66,4.99,7.66,6.5,12-7.33-8.67-14.33-17.67-21-27v-1l2-2Z"/>
  <path class="st203" d="M235.47,401.79h16v32h32v-7h16v23h16c.46,1.87,1.12,3.7,2,5.5-.3,1.89-.8,3.72-1.5,5.5-.25-1.12-.75-2.12-1.5-3-.98,2.59-1.31,5.25-1,8h-4v-8h-3v8h-3c-.67-10.67-1.33-10.67-2,0-1.05-.15-2.05.02-3,.5,1.26,1.81,1.26,3.65,0,5.5-.89-.83-1.22-1.83-1-3h-4c-.33,2.5-1.66,4.34-4,5.5,1.06,1.19,2.4,1.69,4,1.5.27,1.95-.39,3.45-2,4.5l1,1c-.95.48-1.95.65-3,.5.38-2.16-.28-3.83-2-5-1.34,1.91-2.67,3.91-4,6-5.51.48-10.85,1.65-16,3.5,2.33,1.17,4.67,2.33,7,3.5,2.71-1.76,5.71-2.43,9-2v10h-3v8h3v8c-6.04.09-11.88.09-17.5,0,.96,2.43,1.46,5.1,1.5,8h-8c.1,5.83-1.57,5.99-5,.5-.95-.48-1.95-.65-3-.5-.36-10.59-1.36-10.59-3,0-1.33-10.67-2.67-10.67-4,0-1.74-2.7-3.74-5.2-6-7.5-.95-.48-1.95-.65-3-.5.26-1.48-.07-2.81-1-4-1.24.75-2.57,1.08-4,1v3h-11c-.11-3.6-.77-7.1-2-10.5,2.96-1.99,2.63-4.49-1-7.5-.81-2.27-1.31-4.6-1.5-7-1.6,2.8-2.77,5.8-3.5,9-2.47-4.84-3.13-9.84-2-15-.69-1.94-1.19-3.94-1.5-6-4.21-2.46-6.04-6.12-5.5-11h3c-.16,1.37.01,2.71.5,4l1-1c3.54,3.72,5.37,2.72,5.5-3h23v16h16v-32h-16v-16h-7v-16h7v-16Z"/>
  <path class="st136" d="M331.47,389.79c1.48,7.11,2.14,14.44,2,22,0,4.85-.33,9.51-1,14,.11-12.02-.22-24.02-1-36Z"/>
  <path class="st145" d="M171.47,347.79c-19.27,30.2-35.1,62.2-47.5,96-.76,2.73-.26,5.23,1.5,7.5-.14,1.3-.8,2.13-2,2.5-.24-1.9-1.24-3.24-3-4,12.02-37.37,28.85-72.37,50.5-105,.48.95.65,1.95.5,3Z"/>
  <path class="st109" d="M173.47,328.79c.12,3.09-.88,5.76-3,8,.75,1.92.75,3.92,0,6h3v3l-2,2c.15-1.05-.02-2.05-.5-3-21.65,32.63-38.48,67.63-50.5,105-.65.77-.98,1.77-1,3,.57,1.87,1.23,3.7,2,5.5-1.63,3.25-2.3,6.75-2,10.5-1.62,2.67-2.29,5.67-2,9,.09,1-.25,1.83-1,2.5-7.81,1.66-15.48,3.83-23,6.5-.79-1.2-.79-2.53,0-4,.33-.67.67-1.33,1-2,2.12-1.49,3.62-3.49,4.5-6-.82-3.67-.65-7.34.5-11,.33-1.33.67-2.67,1-4,1.24-2.11,2.74-4.11,4.5-6,3.2-7.72,6.37-15.39,9.5-23,2.44-1.62,3.77-3.95,4-7,.17-.99-.16-1.66-1-2-1.04-1.71-1.04-3.37,0-5,6.82-9.63,13.15-19.63,19-30,.83-.89,1.83-1.22,3-1-.16-1.7,0-3.37.5-5,12.47-16.63,23.64-33.97,33.5-52Z"/>
  <path class="st30" d="M420.47,415.79c3.64,2.02,4.31,4.52,2,7.5.56.38.89.88,1,1.5v1c-2.22-1.57-2.55-3.57-1-6-1.13-1.12-1.8-2.46-2-4Z"/>
  <path class="st24" d="M117.47,421.79c.84.34,1.17,1.01,1,2-2.44,1.62-3.77,3.95-4,7h-1v-3c.54-.06.88-.39,1-1-1.13-1.12-1.8-2.46-2-4,.62-.11,1.12-.44,1.5-1,.85,2.1,2.02,2.1,3.5,0Z"/>
  <path class="st26" d="M112.47,422.79c.2,1.54.87,2.88,2,4-.12.61-.46.94-1,1-1.93-1.48-2.27-3.14-1-5Z"/>
  <path class="st214" d="M423.47,425.79v-1c1.23.22,2.23.89,3,2,1.18,2.89,1.84,5.89,2,9-1.67-3.33-3.33-6.67-5-10Z"/>
  <path class="st184" d="M335.47,393.79c.52,13.25,1.52,26.59,3,40h-3c.04,4.85-1.29,9.19-4,13,3.48-17.48,4.82-35.15,4-53Z"/>
  <path class="st110" d="M118.47,423.79c-.23,3.05-1.56,5.38-4,7,.23-3.05,1.56-5.38,4-7Z"/>
  <path class="st79" d="M113.47,427.79v3c-.53,1.73-1.53,3.06-3,4,.43-2.66,1.43-4.99,3-7Z"/>
  <path class="st97" d="M201.47,401.79c-1.67,15.95-2.33,31.95-2,48-.72-.42-1.22-1.08-1.5-2-1.27-15.66-.1-30.99,3.5-46Z"/>
  <path class="st213" d="M420.47,425.79c1.39,1.07,2.55,2.41,3.5,4,6,13.32,12,26.66,18,40,.39,1.7-.11,3.2-1.5,4.5.31,1.46.97,2.63,2,3.5.84.34,1.17,1.01,1,2-1.17.22-2.17-.11-3-1-.73-2.61-1.23-5.28-1.5-8-.75-.63-1.58-1.13-2.5-1.5,2.29-1.43,2.62-3.26,1-5.5-1.57-.19-3.07-.19-4.5,0-.87-2.4-.37-3.06,1.5-2,1.11-1.22,1.28-2.56.5-4-2.33-1.33-4.67-2.67-7-4-.33-3.67-.67-7.33-1-11-.33,2-.67,4-1,6-1.36.88-2.86,1.21-4.5,1,.21-4.25.88-8.42,2-12.5-1.01-3.85-2.01-7.68-3-11.5Z"/>
  <path class="st129" d="M398.47,417.79c1.39,2.46,2.56,5.13,3.5,8,2.04,8.55,4.21,17.05,6.5,25.5-1.93,1.69-2.93,3.86-3,6.5-2.16-13.27-4.5-26.6-7-40Z"/>
  <path class="st161" d="M390.47,374.79c6.67,9.33,13.67,18.33,21,27,2.06,5.13,4.4,10.13,7,15-.49.95-.82,1.95-1,3,1.46,1.79,2.46,3.79,3,6,.99,3.82,1.99,7.65,3,11.5-1.12,4.08-1.79,8.25-2,12.5,1.64.21,3.14-.12,4.5-1,.33-2,.67-4,1-6,.33,3.67.67,7.33,1,11,2.33,1.33,4.67,2.67,7,4,.78,1.44.61,2.78-.5,4-1.87-1.06-2.37-.4-1.5,2,1.43-.19,2.93-.19,4.5,0,1.62,2.24,1.29,4.07-1,5.5.92.37,1.75.87,2.5,1.5.27,2.72.77,5.39,1.5,8,.83.89,1.83,1.22,3,1v4c-8.33,3.92-16.66,3.92-25,0-2.45-.97-5.11-1.31-8-1-.17-9.18.17-18.35,1-27.5-.94-7.28-2.44-14.44-4.5-21.5-6.56-19.85-14.4-39.18-23.5-58,1.35-.69,2.52-1.69,3.5-3,1.11.8,2.28,1.47,3.5,2Z"/>
  <path class="st196" d="M113.47,430.79h1c-3.13,7.61-6.3,15.28-9.5,23-1.76,1.89-3.26,3.89-4.5,6,.13-1.72.46-3.38,1-5,2.7-6.75,5.7-13.42,9-20,1.47-.94,2.47-2.27,3-4Z"/>
  <path class="st131" d="M434.47,449.79c1.41.47,2.07,1.47,2,3-1.41-.47-2.07-1.47-2-3Z"/>
  <path class="st183" d="M120.47,449.79c1.76.76,2.76,2.1,3,4v4c-2.02-2.21-3.02-4.87-3-8Z"/>
  <path class="st96" d="M411.47,401.79c.96.45,1.79,1.12,2.5,2,2.43,3.91,4.6,7.91,6.5,12,.2,1.54.87,2.88,2,4-1.55,2.43-1.22,4.43,1,6,1.67,3.33,3.33,6.67,5,10,2.44,4.46,4.44,9.12,6,14-.07,1.53.59,2.53,2,3,2.39,4.43,4.39,9.09,6,14,1.23,3.65,1.23,7.32,0,11-1.03-.87-1.69-2.04-2-3.5,1.39-1.3,1.89-2.8,1.5-4.5-6-13.34-12-26.68-18-40-.95-1.59-2.11-2.93-3.5-4-.54-2.21-1.54-4.21-3-6,.18-1.05.51-2.05,1-3-2.6-4.87-4.94-9.87-7-15Z"/>
  <path class="st141" d="M409.47,452.79c1.41,2.68,1.24,5.34-.5,8-1.91-2.78-1.74-5.44.5-8Z"/>
  <path class="st135" d="M101.47,454.79c-.54,1.62-.87,3.28-1,5-.67.33-1.33.67-2,1,.26-2.47,1.26-4.47,3-6Z"/>
  <path class="st87" d="M120.47,449.79c-.02,3.13.98,5.79,3,8-.79,4.73-1.79,9.4-3,14-.9-.71-1.24-1.71-1-3-.3-3.75.37-7.25,2-10.5-.77-1.8-1.43-3.63-2-5.5.02-1.23.35-2.23,1-3Z"/>
  <path class="st205" d="M100.47,459.79c-.33,1.33-.67,2.67-1,4-2.41,3.76-4.41,7.76-6,12,1.17-.22,2.17.11,3,1-1.13,1.12-1.8,2.46-2,4-.33.67-.67,1.33-1,2-.67.33-1.33.67-2,1,.54-1.62.87-3.28,1-5-.61-.89-.94-1.89-1-3,1.94-5.24,4.27-10.24,7-15,.67-.33,1.33-.67,2-1Z"/>
  <path class="st202" d="M442.47,466.79c2.29,2.26,3.63,5.1,4,8.5-1.27,2.22-1.27,4.38,0,6.5h-3v-2c.17-.99-.16-1.66-1-2,1.23-3.68,1.23-7.35,0-11Z"/>
  <path class="st62" d="M99.47,463.79c-1.15,3.66-1.32,7.33-.5,11-.88,2.51-2.38,4.51-4.5,6,.2-1.54.87-2.88,2-4-.83-.89-1.83-1.22-3-1,1.59-4.24,3.59-8.24,6-12Z"/>
  <path class="st217" d="M335.47,393.79c.82,17.85-.52,35.52-4,53-3.96,15.92-10.13,30.92-18.5,45-.38,1.7-.22,3.36.5,5-.34.84-1.01,1.17-2,1-1.03-.43-2.36-.43-4,0,4.97-9.17,9.8-18.5,14.5-28,5.46-14.11,8.96-28.78,10.5-44,.67-4.49,1-9.15,1-14,.14-7.56-.52-14.89-2-22-.29-3.44-.95-6.77-2-10-.15-2.94-.81-5.78-2-8.5.92-1.81,1.76-1.65,2.5.5,1.52,7.54,3.36,14.87,5.5,22Z"/>
  <path class="st120" d="M91.47,475.79c.06,1.11.39,2.11,1,3-2.05-.55-2.39-1.55-1-3Z"/>
  <path class="st209" d="M89.47,486.79c-.33.67-.67,1.33-1,2-1.79.13-3.46-.2-5-1-11.03-4.66-21.7-3.83-32,2.5-.88.71-1.55,1.54-2,2.5-1.8,1.99-3.8,3.66-6,5,6.93-12.63,17.6-17.46,32-14.5,4.71,1.07,9.37,2.24,14,3.5Z"/>
  <path class="st134" d="M443.47,481.79h3c7.68.53,15.35,1.86,23,4,2.11,2.23,4.44,4.23,7,6,1.75,1.75,3.09,3.75,4,6h-1c-1.77-.87-3.11-2.2-4-4-9-8.34-19.67-11.01-32-8-.74.13-1.41-.04-2-.5.92-.28,1.58-.78,2-1.5v-2Z"/>
  <path class="st20" d="M407.47,462.79c.67,6.84,1.33,13.84,2,21,.61-.12.94-.46,1-1,2.89-.31,5.55.03,8,1-2.36-.16-4.69,0-7,.5,1.56.21,2.89.71,4,1.5-1.79-.28-3.46.05-5,1-.6,3.8-1.27,7.47-2,11,.31-3.21-.02-6.21-1-9v-26Z"/>
  <path class="st122" d="M418.47,483.79c8.34,3.92,16.67,3.92,25,0-.42.72-1.08,1.22-2,1.5.59.46,1.26.63,2,.5-1.87,1.3-3.87,2.3-6,3-5.1,1.43-9.77,3.76-14,7-.6-2.74.73-4.08,4-4v-3c-4.17-.38-8.17-1.38-12-3-1.11-.79-2.44-1.29-4-1.5,2.31-.5,4.64-.66,7-.5Z"/>
  <path class="st126" d="M469.47,485.79c4.17-.07,6.5,1.93,7,6-2.56-1.77-4.89-3.77-7-6Z"/>
  <path class="st101" d="M91.47,483.79c-.14,2.05.53,3.72,2,5v1c-.34.84-1.01,1.17-2,1-1.53.07-2.53-.59-3-2,.33-.67.67-1.33,1-2,.43-1.21,1.1-2.21,2-3Z"/>
  <path class="st142" d="M83.47,487.79c-5.25-.13-6.59,1.87-4,6-1.54,1.95-3.54,2.45-6,1.5,1.47-.71,2.14-1.88,2-3.5-2.87-.25-5.2.75-7,3,2.44.84,3.77,2.5,4,5-4.33-2.41-8.83-4.41-13.5-6-3.99.27-7.49,1.6-10.5,4-.54-.06-.88-.39-1-1,1.13-1.12,1.8-2.46,2-4,.45-.96,1.12-1.79,2-2.5,10.3-6.33,20.97-7.16,32-2.5Z"/>
  <path class="st191" d="M119.47,468.79c-.24,1.29.1,2.29,1,3-.17,9.67,0,19.34.5,29,.99.57,1.83,1.23,2.5,2-1.21.73-2.54,1.07-4,1,.17-10.34,0-20.67-.5-31-.2,1.88-.7,3.55-1.5,5-.29-3.33.38-6.33,2-9Z"/>
  <path class="st159" d="M475.47,493.79v3h-3c-.11-.62-.44-1.12-1-1.5-5.02-1.92-10.02-1.92-15,0-.88.71-1.55,1.54-2,2.5-5.27,3.43-9.77,7.77-13.5,13-4.21,7.17-7.04,14.83-8.5,23-2.05,2.51-3.05,5.51-3,9,.24,1.29-.1,2.29-1,3,.92-6.36.92-12.7,0-19h3c.43-4.32.76-8.66,1-13,3.1.53,5.44-.47,7-3-.67-.33-1.33-.67-2-1-.29-3.95.04-7.95,1-12,1.81,0,3.47-.49,5-1.5-6.31-1.11-6.31-2.95,0-5.5-1.52-1.78-3.52-2.45-6-2,2.13-.7,4.13-1.7,6-3,12.33-3.01,23-.34,32,8Z"/>
  <path class="st102" d="M472.47,496.79c-4.95-1.06-9.95-1.23-15-.5-.56.38-.89.88-1,1.5h-2c.45-.96,1.12-1.79,2-2.5,4.98-1.92,9.98-1.92,15,0,.56.38.89.88,1,1.5Z"/>
  <path class="st55" d="M72.47,499.79c12.07,12.81,19.07,28.14,21,46,.33,7.19,0,14.19-1,21,1.35-21.43-3.82-41.1-15.5-59l-8.5-8.5c-9.9-4.36-17.9-2.19-24,6.5.07-.44-.1-.77-.5-1-1.07,1.91-2.57,3.24-4.5,4,.72-3.34,1.56-6.68,2.5-10,.38-.56.88-.89,1.5-1-.16,1.7,0,3.37.5,5,1.71-1.54,3.21-3.2,4.5-5,3.01-2.4,6.51-3.73,10.5-4,4.67,1.59,9.17,3.59,13.5,6Z"/>
  <path class="st56" d="M49.47,492.79c-.2,1.54-.87,2.88-2,4,.12.61.46.94,1,1-1.29,1.8-2.79,3.46-4.5,5-.49-1.63-.66-3.3-.5-5,2.2-1.34,4.2-3.01,6-5Z"/>
  <path class="st130" d="M92.47,566.79c-1.67,13.68-9.34,20.68-23,21-9.67-4.6-16.67-11.94-21-22-7.01-18.46-8.68-37.46-5-57,.61-.89.94-1.89,1-3,6.1-8.69,14.1-10.86,24-6.5l8.5,8.5c11.68,17.9,16.85,37.57,15.5,59Z"/>
  <path class="st178" d="M479.47,506.79c.92,2.27,1.76,4.6,2.5,7,1.74,19.45-1.09,38.11-8.5,56-2.97,4.93-6.63,9.26-11,13-5.89,4.93-12.56,6.09-20,3.5-3.53-2.03-6.19-4.86-8-8.5-3.85-10.3-5.02-20.97-3.5-32,1.33-5.33,2.67-10.66,4-16,4.22-12.71,11.39-23.37,21.5-32,10.12-3.2,17.79-.2,23,9Z"/>
  <path class="st215" d="M119.47,509.79c1.66,3.69,2.49,7.69,2.5,12,.67,8,.67,16,0,24-1.23,2.8-2.73,5.46-4.5,8-3.8,1.97-7.46,4.13-11,6.5-3.71.32-7.38.82-11,1.5.32-5.53-.01-10.86-1-16h-1c-1.93-17.86-8.93-33.19-21-46-.23-2.5-1.56-4.16-4-5,1.8-2.25,4.13-3.25,7-3,.14,1.62-.53,2.79-2,3.5,2.46.95,4.46.45,6-1.5-2.59-4.13-1.25-6.13,4-6,1.54.8,3.21,1.13,5,1,.47,1.41,1.47,2.07,3,2,2.4,2.63,5.4,3.8,9,3.5-2.22-1.72-4.55-3.22-7-4.5v-1c7.89-2.27,15.89-4.27,24-6-.33,9.13.34,18.13,2,27Z"/>
  <path class="st46" d="M93.47,489.79c2.45,1.28,4.78,2.78,7,4.5-3.6.3-6.6-.87-9-3.5.99.17,1.66-.16,2-1Z"/>
  <path class="st121" d="M415.47,485.79c3.83,1.62,7.83,2.62,12,3v3c-3.27-.08-4.6,1.26-4,4,4.23-3.24,8.9-5.57,14-7,2.48-.45,4.48.22,6,2-6.31,2.55-6.31,4.39,0,5.5-1.53,1.01-3.19,1.51-5,1.5-.96,4.05-1.29,8.05-1,12,.67.33,1.33.67,2,1-1.56,2.53-3.9,3.53-7,3-.24,4.34-.57,8.68-1,13h-3c.92,6.3.92,12.64,0,19v6c-.98,3.46-1.32,7.13-1,11-3.4.16-6.74-.18-10-1-12.51-2.15-18.85-9.65-19-22.5.52-5.16.85-10.33,1-15.5,1.03-.75,2.2-1.41,3.5-2,2.16-8.07,4-16.07,5.5-24,.73-3.53,1.4-7.2,2-11,1.54-.95,3.21-1.28,5-1Z"/>
  <path class="st52" d="M311.47,497.79c-.61.89-.94,1.89-1,3-1.1,1.3-2.43,1.8-4,1.5.88-1.36,1.21-2.86,1-4.5,1.64-.43,2.97-.43,4,0Z"/>
  <path class="st157" d="M475.47,493.79c.89,1.8,2.23,3.13,4,4,.85,2.66,1.35,5.33,1.5,8-2.4-3.56-5.23-6.56-8.5-9h3v-3Z"/>
  <path class="st10" d="M472.47,496.79c3.27,2.44,6.1,5.44,8.5,9-.15-2.67-.65-5.34-1.5-8h1c.84.34,1.17,1.01,1,2,.87,2.61,1.54,5.28,2,8,.07.44-.1.77-.5,1-.71-1.47-1.88-2.14-3.5-2-5.21-9.2-12.88-12.2-23-9,.11-.62.44-1.12,1-1.5,5.05-.73,10.05-.56,15,.5Z"/>
  <path class="st27" d="M481.47,499.79c2.16,2.12,3.16,4.78,3,8h-1c-.46-2.72-1.13-5.39-2-8Z"/>
  <path class="st46" d="M201.47,401.79c-3.6,15.01-4.77,30.34-3.5,46,.28.92.78,1.58,1.5,2,.22,7.4,1.06,14.73,2.5,22,4.72,17.28,10.39,34.28,17,51,.5,2.31.66,4.64.5,7-1.25-1.88-2.42-3.88-3.5-6-2.41-8.91-5.41-17.58-9-26-2.37-10.78-5.37-21.45-9-32-5.55-33.04-2.38-65.04,9.5-96,.33.5.67,1,1,1.5-3.2,9.99-5.54,20.15-7,30.5Z"/>
  <path class="st144" d="M454.47,497.79h2c-10.11,8.63-17.28,19.29-21.5,32-1.33,5.34-2.67,10.67-4,16-1.52,11.03-.35,21.7,3.5,32,1.81,3.64,4.47,6.47,8,8.5,7.44,2.59,14.11,1.43,20-3.5h3v3c-3.86,4.77-8.86,7.77-15,9-.99.17-1.66-.16-2-1h1c3.1-1.05,6.1-2.38,9-4,1.02-.5,1.19-1.17.5-2-5.02,1.5-10.19,2.17-15.5,2-12.36-9.37-17.36-22.04-15-38v-6c.9-.71,1.24-1.71,1-3,1.45-2.75,2.45-5.75,3-9,1.46-8.17,4.29-15.83,8.5-23,3.73-5.23,8.23-9.57,13.5-13Z"/>
  <path class="st43" d="M44.47,505.79c-.06,1.11-.39,2.11-1,3-1.1,1.78-1.93,3.78-2.5,6-.33,6.67-.67,13.33-1,20-.5-8.66-.67-17.33-.5-26,1.93-.76,3.43-2.09,4.5-4,.4.23.57.56.5,1Z"/>
  <path class="st86" d="M123.47,502.79c.62.11,1.12.44,1.5,1,.5,5.01,1,10.01,1.5,15,2.79,18.59,9.79,35.25,21,50,2.03,3.02,4.03,6.02,6,9h-5c-2-6.04-5.33-11.37-10-16-3.92-9.27-7.76-18.6-11.5-28-1.81-7.59-3.15-15.25-4-23-1.01-.84-2.18-1.17-3.5-1-1.66-8.87-2.33-17.87-2-27-8.11,1.73-16.11,3.73-24,6-1.47-1.28-2.14-2.95-2-5,.67-.33,1.33-.67,2-1-.79,1.47-.79,2.8,0,4,7.52-2.67,15.19-4.84,23-6.5.75-.67,1.09-1.5,1-2.5.8-1.45,1.3-3.12,1.5-5,.5,10.33.67,20.66.5,31,1.46.07,2.79-.27,4-1Z"/>
  <path class="st190" d="M307.47,497.79c.21,1.64-.12,3.14-1,4.5,1.57.3,2.9-.2,4-1.5-5.61,12.22-10.94,24.55-16,37,.24-1.29-.1-2.29-1-3,4.71-12.5,9.38-24.83,14-37Z"/>
  <path class="st7" d="M405.47,459.79c1.55.32,2.22,1.32,2,3v26c-1.11,8.88-3.11,17.54-6,26-1.49.74-2.99,1.41-4.5,2-1.46,10.57-4.96,20.24-10.5,29-.61-1.3-1.28-2.63-2-4,.81-3.09,1.81-6.09,3-9,.73-2.68,1.56-5.35,2.5-8,12.42-19.78,17.58-41.44,15.5-65Z"/>
  <path class="st95" d="M219.47,529.79h2c1.15,5.43,2.15,10.76,3,16v19h8c-1.67.67-3.33,1.33-5,2-1.6-.27-2.93.07-4,1-1.24,1.47-2.24,3.13-3,5-1.68.22-2.68-.45-3-2,.62.11,1.12.44,1.5,1,2.51-5.72,3.68-11.72,3.5-18-.57-8.07-1.57-16.07-3-24Z"/>
  <path class="st103" d="M38.47,509.79c-.64,13.48.36,26.82,3,40-2.31-3.55-3.48-7.55-3.5-12-.82-9.51-.66-18.84.5-28Z"/>
  <path class="st189" d="M432.47,533.79c-.55,3.25-1.55,6.25-3,9-.05-3.49.95-6.49,3-9Z"/>
  <path class="st164" d="M221.47,529.79h5v3c4.38,1.18,8.71,2.68,13,4.5,17.76,4.75,35.43,4.59,53-.5-2.05,5.47-3.05,11.14-3,17-.97,2.45-1.31,5.11-1,8-21.05-.44-42.05.23-63,2,.32-6.19-.01-12.19-1-18-.85-5.24-1.85-10.57-3-16Z"/>
  <path class="st2" d="M407.47,488.79c.98,2.79,1.31,5.79,1,9-1.5,7.93-3.34,15.93-5.5,24-1.3.59-2.47,1.25-3.5,2h-1c-2.78,6.84-5.28,13.84-7.5,21-1.76,1.89-3.26,3.89-4.5,6,.17-.99-.16-1.66-1-2,.61-.89.94-1.89,1-3,5.54-8.76,9.04-18.43,10.5-29,1.51-.59,3.01-1.26,4.5-2,2.89-8.46,4.89-17.12,6-26Z"/>
  <path class="st105" d="M398.47,523.79c-.65-.77-.98-1.77-1-3,.65-4.82,2.32-5.15,5-1-2.27.51-3.6,1.84-4,4Z"/>
  <path class="st81" d="M293.47,534.79c.9.71,1.24,1.71,1,3-.68,4.42-1.68,8.76-3,13-.98,4.13-1.32,8.47-1,13-13.18-.33-26.18,0-39,1h-16c2.47-.82,5.14-1.32,8-1.5,15.33-.5,30.66-.67,46-.5v-9c-.05-5.86.95-11.53,3-17,.84-.34,1.17-1.01,1-2Z"/>
  <path class="st151" d="M484.47,534.79c-.22,4.21-.88,8.21-2,12-.3-4.29.36-8.29,2-12Z"/>
  <path class="st125" d="M39.47,508.79c-.17,8.67,0,17.34.5,26,.33-6.67.67-13.33,1-20,.57-2.22,1.4-4.22,2.5-6-3.68,19.54-2.01,38.54,5,57-.84.34-1.17,1.01-1,2-1.45-2.07-2.45-4.4-3-7-.24-3.98-1.24-7.65-3-11-2.64-13.18-3.64-26.52-3-40,0-.67.33-1,1-1Z"/>
  <path class="st195" d="M119.47,509.79c1.32-.17,2.49.16,3.5,1,.85,7.75,2.19,15.41,4,23,3.74,9.4,7.58,18.73,11.5,28,4.67,4.63,8,9.96,10,16-16.89,7.74-34.56,13.07-53,16-3.02.16-6.02,0-9-.5,2.97-2.18,2.64-3.34-1-3.5-.17-1.32.16-2.49,1-3.5,1.88-.22,3.55-.88,5-2-.83-2.08-.83-4.25,0-6.5.39-1.78,1.06-3.45,2-5,1.72-3.34,2.38-7.01,2-11,3.62-.68,7.29-1.18,11-1.5,3.54-2.37,7.2-4.53,11-6.5,1.77-2.54,3.27-5.2,4.5-8,.67-8,.67-16,0-24,0-4.31-.84-8.31-2.5-12Z"/>
  <path class="st61" d="M479.47,506.79c1.62-.14,2.79.53,3.5,2,.4-.23.57-.56.5-1h1v27c-1.64,3.71-2.3,7.71-2,12-1.49,8.79-4.15,17.13-8,25,.17-.99-.16-1.66-1-2,7.41-17.89,10.24-36.55,8.5-56-.74-2.4-1.58-4.73-2.5-7Z"/>
  <path class="st185" d="M398.47,523.79h1c-.15,5.17-.48,10.34-1,15.5.15,12.85,6.49,20.35,19,22.5-.14,1.62.53,2.79,2,3.5-.84,1.01-1.17,2.18-1,3.5,3.3-.17,3.63.49,1,2,.87,2.25,1.21,4.58,1,7,2.42-.31,4.76.03,7,1-12.93.77-12.93,2.43,0,5,1.84,4.64,1.01,5.64-2.5,3-.83.33-1.67.67-2.5,1,1.32,1.43,2.99,2.43,5,3l-1,1c-4.87-1.54-9.87-2.21-15-2-9.27-2.12-18.27-5.12-27-9-4.34-1.51-8.34-3.51-12-6-.91-1.24-1.08-2.57-.5-4,6.07-5.81,10.9-12.48,14.5-20,1.24-2.11,2.74-4.11,4.5-6,2.22-7.16,4.72-14.16,7.5-21Z"/>
  <path class="st40" d="M41.47,549.79c1.76,3.35,2.76,7.02,3,11-.62-.11-1.12-.44-1.5-1-.61-3.33-1.11-6.66-1.5-10Z"/>
  <path class="st31" d="M126.47,518.79c1.13.97,2.13,2.14,3,3.5,4.57,15.53,12.91,28.69,25,39.5,1.17,3.33,1.17,6.66,0,10-1.3-1.83-2.3-3.83-3-6-1.14,1.33-2.48,2.33-4,3-11.21-14.75-18.21-31.41-21-50Z"/>
  <path class="st132" d="M224.47,545.79c.99,5.81,1.32,11.81,1,18,20.95-1.77,41.95-2.44,63-2-.31-2.89.03-5.55,1-8v9c-15.34-.17-30.67,0-46,.5-2.86.18-5.53.68-8,1.5h-11v-19Z"/>
  <path class="st180" d="M94.47,545.79c.99,5.14,1.32,10.47,1,16,.38,3.99-.28,7.66-2,11,.85-8.97,1.18-17.97,1-27Z"/>
  <path class="st143" d="M251.47,564.79c12.82-.99,25.82-1.33,39-1-.16,3.4.18,6.74,1,10,.27,1.88-.4,3.21-2,4,.5-3.91.5-7.91,0-12-12.49-.99-25.16-1.33-38-1Z"/>
  <path class="st72" d="M217.47,570.79c.32,1.55,1.32,2.22,3,2,.17.99-.16,1.66-1,2-.67,0-1,.33-1,1-1.6-4.01-4.27-7.17-8-9.5-3.49-.87-6.49-.04-9,2.5v-3c7.07-3.79,12.4-2.12,16,5Z"/>
  <path class="st39" d="M291.47,550.79c-.33,6.7,0,13.37,1,20,2.48-1.98,4.82-4.15,7-6.5,5.67-1.17,10,.66,13,5.5v8c-.67-2.67-1.33-5.33-2-8-1.33-1-2.67-2-4-3-6.74-.61-11.07,2.39-13,9l-2-2c-.82-3.26-1.16-6.6-1-10-.32-4.53.02-8.87,1-13Z"/>
  <path class="st94" d="M232.47,564.79h19c12.84-.33,25.51,0,38,1-20.68-.22-41.35.11-62,1,1.67-.67,3.33-1.33,5-2Z"/>
  <path class="st207" d="M154.47,561.79c5.23,4.72,10.89,8.89,17,12.5,8.69.71,17.36.54,26-.5-.06-2.38.28-4.72,1-7-.22-1.55-.89-2.89-2-4l1-1c1.05,1.72,2.38,3.05,4,4v1c-.62.11-1.12.44-1.5,1-.33,2.67-.67,5.33-1,8-2.27.79-4.6,1.46-7,2-1.35,1.52-2.85,2.85-4.5,4-1-1.67-2.33-3-4-4-1.28-1.4-2.94-2.06-5-2-1.86-.16-3.19.51-4,2-1.83.62-3,1.96-3.5,4-.5,2.65-.66,5.31-.5,8h-3c-4.96-3.62-9.62-7.62-14-12-1.97-2.98-3.97-5.98-6-9,1.52-.67,2.86-1.67,4-3,.7,2.17,1.7,4.17,3,6,1.17-3.34,1.17-6.67,0-10Z"/>
  <path class="st3" d="M306.47,566.79c1.33,1,2.67,2,4,3,.1,2.74-.23,5.4-1,8-3.42,5.18-7.09,10.18-11,15,.09-1-.25-1.83-1-2.5.95-.48,1.95-.65,3-.5.97-6.9,3.3-13.24,7-19-.35-1.35-.68-2.68-1-4Z"/>
  <path class="st182" d="M385.47,548.79c.84.34,1.17,1.01,1,2-3.6,7.52-8.43,14.19-14.5,20-.58,1.43-.41,2.76.5,4-1.68-1.52-3.35-2.19-5-2,6.83-7.48,12.83-15.48,18-24Z"/>
  <path class="st9" d="M387.47,532.79c-1.19,2.91-2.19,5.91-3,9,.72,1.37,1.39,2.7,2,4-.06,1.11-.39,2.11-1,3-5.17,8.52-11.17,16.52-18,24-2.09,1.09-3.42,2.75-4,5-5.73,4.39-11.73,8.39-18,12-1.54.2-2.88.87-4,2-.67-2.81-1.33-5.47-2-8-3.13-4.62-7.47-6.12-13-4.5-.96,1.46-2.29,2.3-4,2.5-3.1-1.89-6.44-3.22-10-4v-8c.73,1.38,1.4,2.88,2,4.5,8.33.67,16.67.67,25,0,1.59-.86,3.25-1.53,5-2,8.18-4.19,15.52-9.52,22-16,8.03-7.18,15.03-15.02,21-23.5Z"/>
  <path class="st76" d="M201.47,566.79v2c-.98,2.79-1.31,5.79-1,9-2.03-.16-4.03,0-6,.5-.56.38-.89.88-1,1.5-1.73.53-3.06,1.53-4,3-.99.17-1.66-.16-2-1,1.65-1.15,3.15-2.48,4.5-4,2.4-.54,4.73-1.21,7-2,.33-2.67.67-5.33,1-8,.38-.56.88-.89,1.5-1Z"/>
  <path class="st45" d="M367.47,572.79c1.65-.19,3.32.48,5,2,3.66,2.49,7.66,4.49,12,6,.6,1.4,1.6,2.4,3,3-6.73-1.97-13.23-4.64-19.5-8-1.41.91-2.91,1.58-4.5,2,.58-2.25,1.91-3.91,4-5Z"/>
  <path class="st12" d="M223.47,567.79c-.22,2.93-.88,5.77-2,8.5.27,1.53.61,3.03,1,4.5-1.74-1.53-2.74-3.53-3-6,.84-.34,1.17-1.01,1-2,.76-1.87,1.76-3.53,3-5Z"/>
  <path class="st25" d="M49.47,573.79c1.41.47,2.07,1.47,2,3-1.41-.47-2.07-1.47-2-3Z"/>
  <path class="st127" d="M183.47,577.79h-9c.81-1.49,2.14-2.16,4-2,2.06-.06,3.72.6,5,2Z"/>
  <path class="st111" d="M306.47,566.79c.32,1.32.65,2.65,1,4-3.7,5.76-6.03,12.1-7,19-1.05-.15-2.05.02-3,.5.75.67,1.09,1.5,1,2.5-1.58,3.58-3.58,6.91-6,10-3.14,3.31-6.14,6.81-9,10.5-2.98.86-4.31-.31-4-3.5,2.92-12.09,7.58-23.42,14-34,1.93-6.61,6.26-9.61,13-9Z"/>
  <path class="st148" d="M310.47,569.79c.67,2.67,1.33,5.33,2,8,3.56.78,6.9,2.11,10,4,1.71-.2,3.04-1.04,4-2.5,5.53-1.62,9.87-.12,13,4.5v9c-.67-2.33-1.33-4.67-2-7-1.9-4.35-5.24-5.85-10-4.5-.88.71-1.55,1.54-2,2.5-1,.33-1.67,1-2,2-1.33-1-2.67-2-4-3-2.46-2.37-5.46-3.37-9-3-.84-.34-1.17-1.01-1-2,.77-2.6,1.1-5.26,1-8Z"/>
  <path class="st206" d="M51.47,576.79c1.41.47,2.07,1.47,2,3-1.41-.47-2.07-1.47-2-3Z"/>
  <path class="st42" d="M428.47,551.79c-2.36,15.96,2.64,28.63,15,38,2.8.82,5.8,1.32,9,1.5-1.44.38-2.44,1.21-3,2.5h-1c-1.91-.28-3.58.05-5,1-9.52.49-18.85-.51-28-3-1.33-.67-2.67-1.33-4-2,5.13-.21,10.13.46,15,2l1-1c-2.01-.57-3.68-1.57-5-3,.83-.33,1.67-.67,2.5-1,3.51,2.64,4.34,1.64,2.5-3-12.93-2.57-12.93-4.23,0-5-2.24-.97-4.58-1.31-7-1,.21-2.42-.13-4.75-1-7,2.63-1.51,2.3-2.17-1-2-.17-1.32.16-2.49,1-3.5-1.47-.71-2.14-1.88-2-3.5,3.26.82,6.6,1.16,10,1-.32-3.87.02-7.54,1-11Z"/>
  <path class="st15" d="M219.47,574.79c.26,2.47,1.26,4.47,3,6,4.17,9.51,7.17,19.34,9,29.5.41,5.26-1.92,7.26-7,6-1.87-1.7-3.54-3.54-5-5.5-.62-2.25-1.96-3.92-4-5,.61-.89.94-1.89,1-3,1.99,4.51,4.99,8.34,9,11.5.95.48,1.95.65,3,.5.16-5.07-.34-10.07-1.5-15-2.54-8.08-5.37-16.08-8.5-24,0-.67.33-1,1-1Z"/>
  <path class="st29" d="M48.47,565.79c4.33,10.06,11.33,17.4,21,22-3.34-1.35-6.67-1.68-10-1-1-.67-2-1.33-3-2,.07-1.53-.59-2.53-2-3-.33-.67-.67-1.33-1-2,.07-1.53-.59-2.53-2-3,.07-1.53-.59-2.53-2-3-.47-2.08-1.14-4.08-2-6-.17-.99.16-1.66,1-2Z"/>
  <path class="st221" d="M201.47,568.79c-.17,3.02,0,6.02.5,9,5.12,8.22,9.95,16.56,14.5,25-.06,1.11-.39,2.11-1,3,.92,2.51.92,4.84,0,7-1.24-5.83-3.08-11.5-5.5-17-3.39-5.07-6.39-10.41-9-16-2.46-1.15-4.96-1.15-7.5,0,.11-.62.44-1.12,1-1.5,1.97-.49,3.97-.66,6-.5-.31-3.21.02-6.21,1-9Z"/>
  <path class="st6" d="M473.47,569.79c.84.34,1.17,1.01,1,2-2.22,5.21-5.22,9.87-9,14v-3h-3c4.37-3.74,8.03-8.07,11-13Z"/>
  <path class="st220" d="M54.47,581.79c1.41.47,2.07,1.47,2,3-1.41-.47-2.07-1.47-2-3Z"/>
  <path class="st208" d="M174.47,577.79h9c1.67,1,3,2.33,4,4,.34.84,1.01,1.17,2,1v2c.17.99-.16,1.66-1,2-1.36-3.35-3.69-5.69-7-7-1.86-1.29-3.86-1.29-6,0-1.79.78-2.79,2.12-3,4-.97,2.45-1.31,5.11-1,8h-3c-.33-.67-.67-1.33-1-2h3c-.16-2.69,0-5.35.5-8,.5-2.04,1.67-3.38,3.5-4Z"/>
  <path class="st149" d="M93.47,545.79h1c.18,9.03-.15,18.03-1,27-.94,1.55-1.61,3.22-2,5-5.95,9.71-14.62,13.55-26,11.5,3.27,2.13,6.6,3.96,10,5.5h-4c-5.1-1.21-9.1-3.87-12-8,3.33-.68,6.66-.35,10,1,13.66-.32,21.33-7.32,23-21,.99-6.81,1.33-13.81,1-21Z"/>
  <path class="st116" d="M215.47,612.79c.84,3.6,1.18,7.27,1,11-1.17,1.21-2.51,1.21-4,0-1.36-2.02-3.02-3.69-5-5-5.53-11.72-11.53-23.06-18-34v-2c.94-1.47,2.27-2.47,4-3,2.54-1.15,5.04-1.15,7.5,0,2.61,5.59,5.61,10.93,9,16,2.42,5.5,4.26,11.17,5.5,17Z"/>
  <path class="st65" d="M148.47,577.79h5c4.38,4.38,9.04,8.38,14,12,.33.67.67,1.33,1,2-5.82-3.42-11.15-7.59-16-12.5-2.34-.75-4.34-.25-6,1.5-3.45.58-6.45,1.92-9,4-4.98,1.07-9.65,2.73-14,5-3.31-.19-5.98.81-8,3h-1c-7.18,1.03-14.18,2.36-21,4h-16l-2-2c6.85.32,13.52,0,20-1,18.44-2.93,36.11-8.26,53-16Z"/>
  <path class="st104" d="M146.47,580.79c-1.4,1.43-3.07,2.6-5,3.5-1.29.49-2.63.66-4,.5,2.55-2.08,5.55-3.42,9-4Z"/>
  <path class="st179" d="M363.47,577.79c-.7,2.22-2.04,4.05-4,5.5-5.06,4.53-10.73,8.03-17,10.5,1-1.33,2-2.67,3-4,6.27-3.61,12.27-7.61,18-12Z"/>
  <path class="st123" d="M384.47,580.79c8.73,3.88,17.73,6.88,27,9,1.33.67,2.67,1.33,4,2h-8c-3.16-1.5-6.49-2.5-10-3-1.53-1.74-3.53-2.74-6-3-1.65-.16-2.99-.83-4-2-1.4-.6-2.4-1.6-3-3Z"/>
  <path class="st193" d="M391.47,585.79c2.47.26,4.47,1.26,6,3-2.47-.26-4.47-1.26-6-3Z"/>
  <path class="st210" d="M310.47,579.79c3.54-.37,6.54.63,9,3,1.28,2.04,1.11,4.04-.5,6-5.42,9.17-11.08,18.17-17,27l-7.5,7.5c-1.29.49-2.63.66-4,.5.09-5.84,1.09-11.51,3-17,5.4-9.13,11.07-18.13,17-27Z"/>
  <path class="st82" d="M449.47,593.79c.56-1.29,1.56-2.12,3-2.5-3.2-.18-6.2-.68-9-1.5,5.31.17,10.48-.5,15.5-2,.69.83.52,1.5-.5,2-2.9,1.62-5.9,2.95-9,4Z"/>
  <path class="st212" d="M91.47,577.79c-.83,2.25-.83,4.42,0,6.5-1.45,1.12-3.12,1.78-5,2-.84,1.01-1.17,2.18-1,3.5,3.64.16,3.97,1.32,1,3.5,2.98.5,5.98.66,9,.5-6.48.99-13.15,1.32-20,1-3.4-1.54-6.73-3.37-10-5.5,11.38,2.05,20.05-1.79,26-11.5Z"/>
  <path class="st44" d="M123.47,589.79c-2.15,1.84-4.82,2.84-8,3,2.02-2.19,4.69-3.19,8-3Z"/>
  <path class="st73" d="M181.47,579.79c3.31,1.31,5.64,3.65,7,7,6.18,11.36,11.51,23.02,16,35v4c-1.81,0-3.48-.49-5-1.5-3.46-2.39-6.46-5.22-9-8.5-2.08-8.12-6.08-15.12-12-21-1.27-2.87-2.11-5.87-2.5-9-3.07-2.05-2.57-3.55,1.5-4.5l-1-1c1.63-.49,3.3-.66,5-.5Z"/>
  <path class="st64" d="M339.47,583.79c.67,2.53,1.33,5.19,2,8,1.12-1.13,2.46-1.8,4-2-1,1.33-2,2.67-3,4h-1c-.99.17-1.66-.16-2-1v-9Z"/>
  <path class="st35" d="M407.47,591.79h8c9.15,2.49,18.48,3.49,28,3-5.14.99-10.47,1.32-16,1-1.93-.65-3.93-.98-6-1-4.85-.72-9.52-1.72-14-3Z"/>
  <path class="st138" d="M305.47,615.79c5.49-10.3,11.49-20.3,18-30,.33-1,1-1.67,2-2,7.92-3.05,9.76-.72,5.5,7-5.37,6.9-9.54,14.07-12.5,21.5-4.79,2.48-9.29,5.31-13.5,8.5-.38-1.7-.22-3.36.5-5Z"/>
  <path class="st74" d="M448.47,593.79c.34.84,1.01,1.17,2,1v1c-6.63.83-13.3,1.16-20,1h-3v-1c5.53.32,10.86-.01,16-1,1.42-.95,3.09-1.28,5-1Z"/>
  <path class="st106" d="M114.47,592.79c-.11.62-.44,1.12-1,1.5-6.61,1.38-13.27,2.21-20,2.5,6.82-1.64,13.82-2.97,21-4Z"/>
  <path class="st41" d="M337.47,585.79c.25,2.82-.25,5.49-1.5,8-7.34,11.68-16.51,21.85-27.5,30.5-2.18,1.2-4.51,1.7-7,1.5.14-3.93,1.47-7.26,4-10-.72,1.64-.88,3.3-.5,5,4.21-3.19,8.71-6.02,13.5-8.5,2.96-7.43,7.13-14.6,12.5-21.5,4.26-7.72,2.42-10.05-5.5-7,.45-.96,1.12-1.79,2-2.5,4.76-1.35,8.1.15,10,4.5Z"/>
  <path class="st17" d="M71.47,594.79h4l2,2c-2.4.24-4.4-.43-6-2Z"/>
  <path class="st48" d="M421.47,594.79c2.07.02,4.07.35,6,1v1c-2.4.24-4.4-.43-6-2Z"/>
  <path class="st50" d="M450.47,595.79c-3.53,1.55-7.37,2.21-11.5,2-3.02,0-5.85-.34-8.5-1,6.7.16,13.37-.17,20-1Z"/>
  <path class="st166" d="M218.47,575.79c3.13,7.92,5.96,15.92,8.5,24,1.16,4.93,1.66,9.93,1.5,15-1.05.15-2.05-.02-3-.5-4.01-3.16-7.01-6.99-9-11.5-4.55-8.44-9.38-16.78-14.5-25-.5-2.98-.67-5.98-.5-9,2.51-2.54,5.51-3.37,9-2.5,3.73,2.33,6.4,5.49,8,9.5Z"/>
  <path class="st201" d="M309.47,577.79c-.17.99.16,1.66,1,2-5.93,8.87-11.6,17.87-17,27,.07-1.46-.27-2.79-1-4,2.42-3.09,4.42-6.42,6-10,3.91-4.82,7.58-9.82,11-15Z"/>
  <path class="st112" d="M181.47,579.79c-1.7-.16-3.37,0-5,.5l1,1c-4.07.95-4.57,2.45-1.5,4.5.39,3.13,1.23,6.13,2.5,9,5.92,5.88,9.92,12.88,12,21-5.3-5.91-10.13-12.24-14.5-19-1.95-4.13-3.12-8.46-3.5-13,.21-1.88,1.21-3.22,3-4,2.14-1.29,4.14-1.29,6,0Z"/>
  <path class="st124" d="M189.47,584.79c6.47,10.94,12.47,22.28,18,34-.33.67-.67,1.33-1,2v6c-.67-1.67-1.33-3.33-2-5-4.49-11.98-9.82-23.64-16-35,.84-.34,1.17-1.01,1-2Z"/>
  <path class="st173" d="M172.47,583.79c.38,4.54,1.55,8.87,3.5,13,4.37,6.76,9.2,13.09,14.5,19,2.54,3.28,5.54,6.11,9,8.5,1.52,1.01,3.19,1.51,5,1.5v-4c.67,1.67,1.33,3.33,2,5-1.16,1.88-2.83,2.38-5,1.5-11.98-8.98-21.48-20.15-28.5-33.5-1.41-1.28-2.91-2.28-4.5-3h3c-.31-2.89.03-5.55,1-8Z"/>
  <path class="st175" d="M215.47,605.79c2.04,1.08,3.38,2.75,4,5-.74-.13-1.41.04-2,.5.91,1.7,1.24,3.53,1,5.5-.67,2.33-1.33,4.67-2,7,.18-3.73-.16-7.4-1-11,.92-2.16.92-4.49,0-7Z"/>
  <path class="st168" d="M218.47,616.79c1.42,3.22,1.09,6.39-1,9.5-1.67.67-3.33.67-5,0-1.87-2.04-3.87-3.87-6-5.5.33-.67.67-1.33,1-2,1.98,1.31,3.64,2.98,5,5,1.49,1.21,2.83,1.21,4,0,.67-2.33,1.33-4.67,2-7Z"/>
  <path class="st139" d="M291.47,573.79l2,2c-6.42,10.58-11.08,21.91-14,34-.31,3.19,1.02,4.36,4,3.5,2.86-3.69,5.86-7.19,9-10.5.73,1.21,1.07,2.54,1,4-1.91,5.49-2.91,11.16-3,17,1.37.16,2.71-.01,4-.5l7.5-7.5c5.92-8.83,11.58-17.83,17-27,1.61-1.96,1.78-3.96.5-6,1.33,1,2.67,2,4,3-6.51,9.7-12.51,19.7-18,30-2.53,2.74-3.86,6.07-4,10,2.49.2,4.82-.3,7-1.5,10.99-8.65,20.16-18.82,27.5-30.5,1.25-2.51,1.75-5.18,1.5-8,.67,2.33,1.33,4.67,2,7,.34.84,1.01,1.17,2,1-1.38.73-2.88,1.4-4.5,2-8.39,13.89-19.55,24.89-33.5,33-3.05-.78-4.71-2.78-5-6-1.02.35-1.69,1.02-2,2-2.54,1.15-5.04,1.15-7.5,0-.4-5.12-.07-10.12,1-15-1.97,1.28-3.47,2.95-4.5,5-5.97,2.67-8.63.84-8-5.5,2.51-11.17,6.51-21.67,12-31.5,1.6-.79,2.27-2.12,2-4Z"/>
  <path class="st93" d="M296.47,624.79c-.11.62-.44,1.12-1,1.5-2.33.67-4.67.67-7,0-.33-4.21-1.33-8.05-3-11.5,1.03-2.05,2.53-3.72,4.5-5-1.07,4.88-1.4,9.88-1,15,2.46,1.15,4.96,1.15,7.5,0Z"/>
</svg>