<?xml version="1.0" encoding="UTF-8"?>
<svg id="Layer_1" xmlns="http://www.w3.org/2000/svg" version="1.1" viewBox="0 0 460.24 736.91">
  <!-- Generator: Adobe Illustrator 29.6.1, SVG Export Plug-In . SVG Version: 2.1.1 Build 9)  -->
  <defs>
    <style>
      .st0 {
        fill: #cbcacb;
      }

      .st0, .st1, .st2, .st3, .st4, .st5, .st6, .st7, .st8, .st9, .st10, .st11, .st12, .st13, .st14, .st15, .st16, .st17, .st18, .st19, .st20, .st21, .st22, .st23, .st24, .st25, .st26, .st27, .st28, .st29, .st30, .st31, .st32, .st33, .st34, .st35, .st36, .st37, .st38, .st39, .st40, .st41, .st42, .st43, .st44, .st45, .st46, .st47, .st48, .st49, .st50, .st51, .st52, .st53, .st54, .st55, .st56, .st57, .st58, .st59, .st60, .st61, .st62, .st63, .st64, .st65, .st66, .st67, .st68, .st69, .st70, .st71, .st72, .st73, .st74, .st75, .st76, .st77, .st78, .st79, .st80, .st81, .st82, .st83, .st84, .st85, .st86, .st87, .st88, .st89, .st90, .st91, .st92, .st93, .st94, .st95, .st96, .st97, .st98, .st99, .st100, .st101, .st102, .st103, .st104, .st105, .st106, .st107, .st108, .st109, .st110, .st111, .st112, .st113, .st114, .st115, .st116, .st117, .st118, .st119, .st120, .st121, .st122, .st123, .st124, .st125, .st126, .st127, .st128, .st129, .st130, .st131, .st132, .st133, .st134, .st135, .st136, .st137, .st138, .st139, .st140, .st141, .st142, .st143, .st144, .st145, .st146, .st147, .st148, .st149, .st150, .st151, .st152, .st153, .st154, .st155, .st156, .st157, .st158, .st159, .st160, .st161, .st162, .st163, .st164, .st165, .st166, .st167, .st168, .st169, .st170, .st171, .st172, .st173, .st174, .st175, .st176, .st177, .st178, .st179, .st180, .st181, .st182, .st183, .st184, .st185, .st186, .st187, .st188, .st189, .st190, .st191, .st192, .st193, .st194, .st195, .st196, .st197, .st198, .st199, .st200, .st201, .st202, .st203, .st204, .st205, .st206, .st207, .st208, .st209, .st210, .st211, .st212, .st213, .st214, .st215 {
        fill-rule: evenodd;
      }

      .st1 {
        fill: #603c47;
      }

      .st2 {
        fill: #684450;
      }

      .st3 {
        fill: #5c444d;
      }

      .st4 {
        fill: #c16886;
      }

      .st5 {
        fill: #80777a;
      }

      .st6 {
        fill: #6f4754;
      }

      .st7 {
        fill: #dadad9;
      }

      .st8 {
        fill: #6b6b6b;
      }

      .st9 {
        fill: #484747;
      }

      .st10 {
        fill: #523d46;
      }

      .st11 {
        fill: #6e515c;
      }

      .st12 {
        fill: #999695;
      }

      .st13 {
        fill: #b8acb1;
      }

      .st14 {
        fill: #cabec2;
      }

      .st15 {
        fill: #5b5a5a;
      }

      .st16 {
        fill: #d4769a;
      }

      .st17 {
        fill: #594f53;
      }

      .st18 {
        fill: #814c63;
      }

      .st19 {
        fill: #686867;
      }

      .st20 {
        fill: #bbb;
      }

      .st21 {
        fill: #202020;
      }

      .st22 {
        fill: #7e3c55;
      }

      .st23 {
        fill: #402430;
      }

      .st24 {
        fill: #d16a8f;
      }

      .st25 {
        fill: #685059;
      }

      .st26 {
        fill: #f172a0;
      }

      .st27 {
        fill: #c4547a;
      }

      .st28 {
        fill: #663c49;
      }

      .st29 {
        fill: #afafaf;
      }

      .st30 {
        fill: #6e3e4e;
      }

      .st31 {
        fill: #6b3a4d;
      }

      .st32 {
        fill: #a85371;
      }

      .st33 {
        fill: #6c3d4a;
      }

      .st34 {
        fill: #3f3e3e;
      }

      .st35 {
        fill: #727271;
      }

      .st36 {
        fill: #c0bbbd;
      }

      .st37 {
        fill: #7d7d7c;
      }

      .st38 {
        fill: #121212;
      }

      .st39 {
        fill: #bb587f;
      }

      .st40 {
        fill: #b2aeae;
      }

      .st41 {
        fill: #626262;
      }

      .st42 {
        fill: #171717;
      }

      .st43 {
        fill: #776a73;
      }

      .st44 {
        fill: #d97296;
      }

      .st45 {
        fill: #74696d;
      }

      .st46 {
        fill: #84787c;
      }

      .st47 {
        fill: #b0b1b1;
      }

      .st48 {
        fill: #cdccce;
      }

      .st49 {
        fill: #cdcbca;
      }

      .st50 {
        fill: #76505d;
      }

      .st51 {
        fill: #afadae;
      }

      .st52 {
        fill: #6c6c6c;
      }

      .st53 {
        fill: #6b4c56;
      }

      .st54 {
        fill: #353535;
      }

      .st55 {
        fill: #c5c5c3;
      }

      .st56 {
        fill: #3f3236;
      }

      .st57 {
        fill: #979593;
      }

      .st58 {
        fill: #a6a0a3;
      }

      .st59 {
        fill: #cd678d;
      }

      .st60 {
        fill: #c0c0bf;
      }

      .st61 {
        fill: #a7496a;
      }

      .st62 {
        fill: #da5484;
      }

      .st63 {
        fill: #dedddb;
      }

      .st64 {
        fill: #9d989a;
      }

      .st65 {
        fill: #a4a1a0;
      }

      .st66 {
        fill: #9e9d9e;
      }

      .st67 {
        fill: #4e4c4d;
      }

      .st68 {
        fill: #a7a7a7;
      }

      .st69 {
        fill: #564e51;
      }

      .st70 {
        fill: #74515c;
      }

      .st71 {
        fill: #7f7e81;
      }

      .st72 {
        fill: #897a81;
      }

      .st73 {
        fill: #5d3543;
      }

      .st74 {
        fill: #b3adaf;
      }

      .st75 {
        fill: #cfcfcf;
      }

      .st76 {
        fill: #db7396;
      }

      .st77 {
        fill: #552a38;
      }

      .st78 {
        fill: #e36e9b;
      }

      .st79 {
        fill: #745d66;
      }

      .st80 {
        fill: #562e3d;
      }

      .st81 {
        fill: #644c56;
      }

      .st82 {
        fill: #854c60;
      }

      .st83 {
        fill: #a29c9f;
      }

      .st84 {
        fill: #7f6c72;
      }

      .st85 {
        fill: #c06084;
      }

      .st86 {
        fill: #908f92;
      }

      .st87 {
        fill: #b25073;
      }

      .st88 {
        fill: #79304a;
      }

      .st89 {
        fill: #5e5d5d;
      }

      .st90 {
        fill: #979797;
      }

      .st91 {
        fill: #d1d1d0;
      }

      .st92 {
        fill: #d6d8d8;
      }

      .st93 {
        fill: #943557;
      }

      .st94 {
        fill: #b1b3b0;
      }

      .st95 {
        fill: #a75974;
      }

      .st96 {
        fill: #9d9698;
      }

      .st97 {
        fill: #cec8ca;
      }

      .st98 {
        fill: #666;
      }

      .st99 {
        fill: #ada9aa;
      }

      .st100 {
        fill: #d7dcda;
      }

      .st101 {
        fill: #3e3a3c;
      }

      .st102 {
        fill: #8f8288;
      }

      .st103 {
        fill: #464644;
      }

      .st104 {
        fill: #919090;
      }

      .st105 {
        fill: #603747;
      }

      .st106 {
        fill: #ab496c;
      }

      .st107 {
        fill: #797978;
      }

      .st108 {
        fill: #d9729a;
      }

      .st109 {
        fill: #c5c5c5;
      }

      .st110 {
        fill: #bdb6b8;
      }

      .st111 {
        fill: #535353;
      }

      .st112 {
        fill: #d85786;
      }

      .st113 {
        fill: #712e48;
      }

      .st114 {
        fill: #e76d9b;
      }

      .st115 {
        fill: #da5886;
      }

      .st116 {
        fill: #bcbabd;
      }

      .st117 {
        fill: #aaabab;
      }

      .st118 {
        fill: #c8c6c7;
      }

      .st119 {
        fill: #e97aa3;
      }

      .st120 {
        fill: #36262a;
      }

      .st121 {
        fill: #e5e6e6;
      }

      .st122 {
        fill: #5b5d5c;
      }

      .st123 {
        fill: #5b5756;
      }

      .st124 {
        fill: #88445f;
      }

      .st125 {
        fill: #7f7b7c;
      }

      .st126 {
        fill: #646362;
      }

      .st127 {
        fill: #888;
      }

      .st128 {
        fill: #c26888;
      }

      .st129 {
        fill: #e5759c;
      }

      .st130 {
        fill: #68273c;
      }

      .st131 {
        fill: #52333f;
      }

      .st132 {
        fill: #442932;
      }

      .st133 {
        fill: #848182;
      }

      .st134 {
        fill: #b4afb3;
      }

      .st135 {
        fill: #d8d8d7;
      }

      .st136 {
        fill: #818387;
      }

      .st137 {
        fill: #7d7d7d;
      }

      .st138 {
        fill: #ada4a7;
      }

      .st139 {
        fill: #959595;
      }

      .st140 {
        fill: #cbcbca;
      }

      .st141 {
        fill: #6d6e6e;
      }

      .st142 {
        fill: #9e4565;
      }

      .st143 {
        fill: #dee0db;
      }

      .st144 {
        fill: #bb577d;
      }

      .st145 {
        fill: #9d576f;
      }

      .st146 {
        fill: #5c5c5c;
      }

      .st147 {
        fill: #656464;
      }

      .st148 {
        fill: #c9c9c9;
      }

      .st149 {
        fill: #c1bec0;
      }

      .st150 {
        fill: #af4d6a;
      }

      .st151 {
        fill: #8a5066;
      }

      .st152 {
        fill: #a39e9e;
      }

      .st153 {
        fill: #817278;
      }

      .st154 {
        fill: #aca6a8;
      }

      .st155 {
        fill: #3d3e3e;
      }

      .st156 {
        fill: #674651;
      }

      .st157 {
        fill: #522f3e;
      }

      .st158 {
        fill: #a25674;
      }

      .st159 {
        fill: #cacaca;
      }

      .st160 {
        fill: #ac5371;
      }

      .st161 {
        fill: #6a4450;
      }

      .st162 {
        fill: #424141;
      }

      .st163 {
        fill: #68394a;
      }

      .st164 {
        fill: #5e404d;
      }

      .st165 {
        fill: #aaabad;
      }

      .st166 {
        fill: #6d4452;
      }

      .st167 {
        fill: #9a526e;
      }

      .st168 {
        fill: #633d4b;
      }

      .st169 {
        fill: #cbcbcb;
      }

      .st170 {
        fill: #6b4e5b;
      }

      .st171 {
        fill: #493f43;
      }

      .st172 {
        fill: #776c71;
      }

      .st173 {
        fill: #827677;
      }

      .st174 {
        fill: #702e47;
      }

      .st175 {
        fill: #c4c4c4;
      }

      .st176 {
        fill: #ada8a7;
      }

      .st177 {
        fill: #643d4b;
      }

      .st178 {
        fill: #aea9aa;
      }

      .st179 {
        fill: #f1729f;
      }

      .st180 {
        fill: #da5684;
      }

      .st181 {
        fill: #2c2c2c;
      }

      .st182 {
        fill: #b8b5b6;
      }

      .st183 {
        fill: #684a53;
      }

      .st184 {
        fill: #ab5a77;
      }

      .st185 {
        fill: #cd6088;
      }

      .st186 {
        fill: #343434;
      }

      .st187 {
        fill: #74334b;
      }

      .st188 {
        fill: #646464;
      }

      .st189 {
        fill: #dcd7db;
      }

      .st190 {
        fill: #878888;
      }

      .st191 {
        fill: #ad496e;
      }

      .st192 {
        fill: #3f393b;
      }

      .st193 {
        fill: #de5688;
      }

      .st194 {
        fill: #888689;
      }

      .st195 {
        fill: #afa6a9;
      }

      .st196 {
        fill: #ac4567;
      }

      .st197 {
        fill: #747474;
      }

      .st198 {
        fill: #674350;
      }

      .st199 {
        fill: #a35874;
      }

      .st200 {
        fill: #53303e;
      }

      .st201 {
        fill: #8d8989;
      }

      .st202 {
        fill: #72384d;
      }

      .st203 {
        fill: #8c8387;
      }

      .st204 {
        fill: #c2c3c1;
      }

      .st205 {
        fill: #cdcdce;
      }

      .st206 {
        fill: #918c8e;
      }

      .st207 {
        fill: #ccc;
      }

      .st208 {
        fill: #bfbfc0;
      }

      .st209 {
        fill: #cacdcc;
      }

      .st210 {
        fill: #653d4b;
      }

      .st211 {
        fill: #d3d2d2;
      }

      .st212 {
        fill: #c3c2c1;
      }

      .st213 {
        fill: #4b484a;
      }

      .st214 {
        fill: #db5384;
      }

      .st215 {
        fill: #727272;
      }
    </style>
  </defs>
  <path class="st127" d="M304.94,85.16c-.99-.17-1.66.16-2,1h-4c-.71-.9-1.71-1.24-3-1,1.28-1.4,2.94-2.06,5-2,1.86-.16,3.19.51,4,2Z"/>
  <path class="st140" d="M312.94,105.16c-.66,2.82-2.33,4.82-5,6-1.67-.37-2.67-1.37-3-3-.84-3.6-1.18-7.27-1-11,0-5,2.01-9.17,6-12.5,3.67-1.3,6.34-.3,8,3-2.41,5.64-4.08,11.48-5,17.5Z"/>
  <path class="st89" d="M190.94,94.16c-1.33,3.67-1.33,7.33,0,11-.6,2.25-1.6,4.25-3,6h-10v-1c8.66.61,8.99-1.06,1-5,.58-3.58.58-7.25,0-11,1.18,4,2.68,8,4.5,12,1.11,1.54,2.61,2.2,4.5,2,1.76-7.57,1.09-14.9-2-22-1.76-2.52-4.09-3.35-7-2.5-1.02,2.77-1.02,5.61,0,8.5-.67,0-1,.33-1,1-.51-2.25-1.51-4.25-3-6-1.38-4.58-4.38-6.08-9-4.5-.93,1.19-1.6,2.53-2,4,.77,2.15,1.44,4.32,2,6.5-.84.34-1.17,1.01-1,2-1.1-3.51-2.77-6.84-5-10-7.68-2.06-10.52.94-8.5,9,3,4.49,6.16,8.83,9.5,13-2.11,1.24-4.11,1.24-6,0,1.05.15,2.05-.02,3-.5-2.53-3.03-4.86-6.19-7-9.5-18.54-2.77-36.87-6.44-55-11-2.82-.04-5.15-1.04-7-3,.5-.33,1-.67,1.5-1,8.17,3.2,16.67,5.2,25.5,6,4.06,1.64,8.4,2.64,13,3,1.93.65,3.93.98,6,1,4.27,1.76,8.61,2.09,13,1,.44-9.81,5.11-13.15,14-10,4.81-3.82,9.48-3.82,14,0,2.84-2.46,5.84-2.63,9-.5,4.11,2.73,6.11,6.56,6,11.5Z"/>
  <path class="st75" d="M115.94,88.16c4.8.06,9.13,1.06,13,3-4.6-.36-8.94-1.36-13-3Z"/>
  <path class="st169" d="M174.94,87.16c.87,4.27,1.21,8.6,1,13-1.32.17-2.49-.16-3.5-1-.49,1.05-.33,2.05.5,3-.31.81-.81,1.47-1.5,2-.24-1.62-1.07-2.62-2.5-3-1.47-2.48-2.47-5.15-3-8-.56-2.18-1.23-4.35-2-6.5.4-1.47,1.07-2.81,2-4,4.62-1.58,7.62-.08,9,4.5Z"/>
  <path class="st55" d="M178.94,94.16v-2c-1.02-2.89-1.02-5.73,0-8.5,2.91-.85,5.24-.02,7,2.5,3.09,7.1,3.76,14.43,2,22-1.89.2-3.39-.46-4.5-2-1.82-4-3.32-8-4.5-12Z"/>
  <path class="st29" d="M134.94,92.16c4.36.09,8.69.42,13,1-4.39,1.09-8.73.76-13-1Z"/>
  <path class="st98" d="M396.94,85.16c-16.98,3.8-33.98,7.46-51,11h-3c-.34-.84-1.01-1.17-2-1,9.33-2.89,19-4.72,29-5.5,10.8-3.71,21.8-6.38,33-8-2.12,1.08-4.12,2.25-6,3.5Z"/>
  <path class="st139" d="M88.94,92.16c2.58.48,4.91,1.48,7,3-2.48-1.12-4.81-1.12-7,0-5.14-1.44-5.14-2.44,0-3Z"/>
  <path class="st148" d="M164.94,95.16c.16,3.35,0,6.68-.5,10-.42,1.26-1.25,1.92-2.5,2h-1c-3.34-4.17-6.5-8.51-9.5-13-2.02-8.06.82-11.06,8.5-9,2.23,3.16,3.9,6.49,5,10Z"/>
  <path class="st175" d="M298.94,86.16h4c.87,2.83.87,5.83,0,9-.33,5.99-2.33,11.32-6,16-3.32-2.15-4.65-5.32-4-9.5.21-4.29,1.04-8.45,2.5-12.5,1.04-1.21,2.21-2.21,3.5-3Z"/>
  <path class="st7" d="M396.94,85.16c-.93.81-1.93,1.65-3,2.5.33,1,.67,2,1,3-5.29.82-5.29,1.32,0,1.5v4c-4.04.46-8.04,1.12-12,2,3.43-1.7,7.09-3.03,11-4-.83-.33-1.67-.67-2.5-1-19.83,4.66-39.66,9-59.5,13-1.79.29-3.45-.05-5-1,1.09-2.52,2.43-4.86,4-7,5.21-.11,10.21-.78,15-2,17.02-3.54,34.02-7.2,51-11Z"/>
  <path class="st49" d="M321.94,109.16c-1.83.99-3.5.99-5,0-.38-6.83.46-13.49,2.5-20,3.17-4.91,6.84-5.25,11-1,.67,2.33.67,4.67,0,7-3.11,4.56-5.94,9.22-8.5,14Z"/>
  <path class="st139" d="M92.94,96.16c2.65-.09,4.99.58,7,2-2.65.09-4.99-.58-7-2Z"/>
  <path class="st12" d="M342.94,96.16h3c-4.79,1.22-9.79,1.89-15,2,3.77-1.29,7.77-1.96,12-2Z"/>
  <path class="st211" d="M95.94,86.16c18.13,4.56,36.46,8.23,55,11,2.14,3.31,4.47,6.47,7,9.5-.95.48-1.95.65-3,.5-3.02-.2-6.02-.54-9-1-16.49-3.9-33.16-7.57-50-11-2.09-1.52-4.42-2.52-7-3,2.93-1.26,5.27-3.26,7-6Z"/>
  <path class="st60" d="M190.94,95.16c.9.71,1.24,1.71,1,3,5.21.11,10.21.78,15,2h-2c-4.68-.17-9.35-.5-14-1v-4Z"/>
  <path class="st182" d="M174.94,87.16c1.49,1.75,2.49,3.75,3,6,0,5.03-.34,10.03-1,15-4.5-.16-7.17-2.5-8-7,1.43.38,2.26,1.38,2.5,3,.69-.53,1.19-1.19,1.5-2-.83-.95-.99-1.95-.5-3,1.01.84,2.18,1.17,3.5,1,.21-4.4-.13-8.73-1-13Z"/>
  <path class="st103" d="M190.94,94.16v5c4.65.5,9.32.83,14,1-4.47.99-9.14,1.32-14,1v4c-1.33-3.67-1.33-7.33,0-11Z"/>
  <path class="st37" d="M204.94,100.16h8v1c-2.03-.16-4.03,0-6,.5,1.56.21,2.89.71,4,1.5-6.33-.4-12.66-.73-19-1,.24,1.29-.1,2.29-1,3v-4c4.86.32,9.53-.01,14-1Z"/>
  <path class="st109" d="M212.94,101.16v-1c21.33.67,42.66,1.01,64,1-21.17,1.12-42.5,1.12-64,0Z"/>
  <path class="st192" d="M302.94,95.16c.84.34,1.17,1.01,1,2-.18,3.73.16,7.4,1,11h-1c-2.9-.09-4.57,1.24-5,4h-2v-1c3.67-4.68,5.67-10.01,6-16Z"/>
  <path class="st126" d="M382.94,98.16c-9.55,1.11-18.88,3.11-28,6-4.35.56-8.69,1.23-13,2,.13,1.72.46,3.38,1,5h-2v-5h-9c19.84-4,39.67-8.34,59.5-13,.83.33,1.67.67,2.5,1-3.91.97-7.57,2.3-11,4Z"/>
  <path class="st146" d="M88.94,95.16c2.19-1.12,4.52-1.12,7,0,16.84,3.43,33.51,7.1,50,11-.67,1-1.33,2-2,3-.47-1.19-1.47-1.86-3-2-13.81-2.69-27.47-5.69-41-9-2.01-1.42-4.35-2.09-7-2-1.33-.33-2.67-.67-4-1Z"/>
  <path class="st135" d="M210.94,103.16c8,.33,16,.67,24,1,16.9.35,33.73,1.35,50.5,3,2.81-4.32,4.64-3.99,5.5,1,1.17,1.01,1.84,2.35,2,4h-3c-21.66.8-43.32,1.13-65,1-12.02-.4-24.02-1.07-36-2h-1c1.4-1.75,2.4-3.75,3-6,.9-.71,1.24-1.71,1-3,6.34.27,12.67.6,19,1Z"/>
  <path class="st20" d="M290.94,108.16c-.86-4.99-2.69-5.32-5.5-1-16.77-1.65-33.6-2.65-50.5-3,18.68.17,37.35-.16,56-1v5Z"/>
  <path class="st73" d="M312.94,105.16h3c-.27,1.6.07,2.93,1,4,1.5.99,3.17.99,5,0h3c-2.84,2.29-6.18,3.29-10,3-.28-5.08-1.28-5.25-3-.5-2.18,1.2-4.51,1.7-7,1.5-.8-1.54-1.13-3.21-1-5h1c.33,1.63,1.33,2.63,3,3,2.67-1.18,4.34-3.18,5-6Z"/>
  <path class="st123" d="M340.94,95.16c.99-.17,1.66.16,2,1-4.23.04-8.23.71-12,2-1.57,2.14-2.91,4.48-4,7,1.55.95,3.21,1.29,5,1-2.28,1.15-4.61,2.15-7,3h-3c2.56-4.78,5.39-9.44,8.5-14,.67-2.33.67-4.67,0-7-4.16-4.25-7.83-3.91-11,1-2.04,6.51-2.88,13.17-2.5,20-.93-1.07-1.27-2.4-1-4h-3c.92-6.02,2.59-11.86,5-17.5-1.66-3.3-4.33-4.3-8-3-3.99,3.33-5.99,7.5-6,12.5.17-.99-.16-1.66-1-2,.87-3.17.87-6.17,0-9,.34-.84,1.01-1.17,2-1,4.77-3.55,9.77-3.89,15-1,2.15-1.57,4.49-2.07,7-1.5,4.68,2.52,7.68,6.35,9,11.5,1.55.95,3.21,1.29,5,1Z"/>
  <path class="st77" d="M331.94,106.16h9v3c-5.25-.69-10.58-.69-16,0,2.39-.85,4.72-1.85,7-3Z"/>
  <path class="st13" d="M169.94,109.16c-1.91.28-3.58-.05-5-1,2.06-5.18,3.72-4.84,5,1Z"/>
  <path class="st101" d="M178.94,92.16v2c.58,3.75.58,7.42,0,11-.54,1.62-.87,3.28-1,5v1c-2.99.21-5.66-.46-8-2-1.28-5.84-2.94-6.18-5-1-1.29.24-2.29-.1-3-1,1.25-.08,2.08-.74,2.5-2,.5-3.32.66-6.65.5-10-.17-.99.16-1.66,1-2,.53,2.85,1.53,5.52,3,8,.83,4.5,3.5,6.84,8,7,.66-4.97,1-9.97,1-15,0-.67.33-1,1-1Z"/>
  <path class="st63" d="M354.94,104.16c-1.98,1.51-4.31,2.34-7,2.5-3.27,2.57-3.93,5.74-2,9.5-1.19-1.57-2.19-3.24-3-5-.54-1.62-.87-3.28-1-5,4.31-.77,8.65-1.44,13-2Z"/>
  <path class="st51" d="M178.94,105.16c7.99,3.94,7.66,5.61-1,5,.13-1.72.46-3.38,1-5Z"/>
  <path class="st122" d="M295.94,85.16c1.29-.24,2.29.1,3,1-1.29.79-2.46,1.79-3.5,3-1.46,4.05-2.29,8.21-2.5,12.5-.65,4.18.68,7.35,4,9.5v1h-4c-.16-1.65-.83-2.99-2-4v-5c-18.65.84-37.32,1.17-56,1-8-.33-16-.67-24-1-1.11-.79-2.44-1.29-4-1.5,1.97-.5,3.97-.66,6-.5,21.5,1.12,42.83,1.12,64,0,4.35.17,8.68,0,13-.5.56-5.78,2.56-10.95,6-15.5Z"/>
  <path class="st199" d="M303.94,108.16c-.13,1.79.2,3.46,1,5-4.97.08-9.63,1.08-14,3-.09-1,.25-1.83,1-2.5,2.54-.19,4.87-.69,7-1.5.43-2.76,2.1-4.09,5-4Z"/>
  <path class="st111" d="M188.94,111.16c11.98.93,23.98,1.6,36,2-3.8.98-7.8,1.32-12,1-5.98-.57-11.98-.91-18-1-2-.67-4-1.33-6-2Z"/>
  <path class="st157" d="M289.94,112.16h9c-2.13.81-4.46,1.31-7,1.5-.75.67-1.09,1.5-1,2.5-.52,1.81-1.19,3.47-2,5v-5c.93-1.07,1.27-2.4,1-4Z"/>
  <path class="st90" d="M194.94,113.16c6.02.09,12.02.43,18,1v1c-4.53.1-9.03-.24-13.5-1-1.68.11-2.85.77-3.5,2-.9-.71-1.24-1.71-1-3Z"/>
  <path class="st52" d="M289.94,112.16c.27,1.6-.07,2.93-1,4-2.42-1.31-5.25-1.98-8.5-2-3.02,0-5.85.34-8.5,1-19.67,1.33-39.33,1.33-59,0v-1c4.2.32,8.2-.02,12-1,21.68.13,43.34-.2,65-1Z"/>
  <path class="st80" d="M145.94,106.16c2.98.46,5.98.8,9,1,1.89,1.24,3.89,1.24,6,0h1c.71.9,1.71,1.24,3,1,1.42.95,3.09,1.28,5,1,2.34,1.54,5.01,2.21,8,2h11c2,.67,4,1.33,6,2-.24,1.29.1,2.29,1,3v2c.46,2.98.8,5.98,1,9-1.39-4.39-2.72-8.89-4-13.5-7.65-.78-15.32-1.28-23-1.5-3.09-1.28-6.42-1.95-10-2-4.1-1.56-8.43-2.06-13-1.5-2.2,2.42-3.53,5.25-4,8.5v1c-.9,1.01-1.56,1.01-2,0,.85-3.05,1.85-6.05,3-9,.67-1,1.33-2,2-3Z"/>
  <path class="st39" d="M159.94,110.16c-4.35-.17-8.68,0-13,.5-.91,2.22-1.91,4.39-3,6.5h-1c.47-3.25,1.8-6.08,4-8.5,4.57-.56,8.9-.06,13,1.5Z"/>
  <path class="st117" d="M271.94,115.16c2.65-.66,5.48-1,8.5-1,3.25.02,6.08.69,8.5,2v1h-1c-4.9-1.95-10.23-2.61-16-2Z"/>
  <path class="st114" d="M324.94,109.16c5.42-.69,10.75-.69,16,0v2c1.79,3.13,3.13,6.47,4,10-2.61-1.55-3.95-3.89-4-7-4.2-.07-8.36.26-12.5,1-1.81-.33-3.48-.99-5-2-4.51,2.67-6.67,6.67-6.5,12-4.96-.25-9.8.42-14.5,2-.95-.4-1.61-1.07-2-2-2.42,2.49-4.76,2.49-7,0-1,9.33-2,9.33-3,0-.17,14.84-.67,29.51-1.5,44v-48c.81-1.53,1.48-3.19,2-5,4.37-1.92,9.03-2.92,14-3,2.49.2,4.82-.3,7-1.5,1.72-4.75,2.72-4.58,3,.5,3.82.29,7.16-.71,10-3Z"/>
  <path class="st179" d="M344.94,121.16c4.47,10.11,7.14,20.77,8,32,.46,8.33.96,16.66,1.5,25,.71,1.47,1.88,2.14,3.5,2-.14,6.13-.47,12.3-1,18.5.17.83.33,1.67.5,2.5,1.05-1.02,2.22-1.18,3.5-.5-.5,5.12-2,9.96-4.5,14.5-.69,7.36-1.53,14.69-2.5,22-7.86,20.77-14.36,42.1-19.5,64-4.23,12.46-9.56,24.46-16,36-3.82,4.31-7.16,8.98-10,14-7.62,5.28-14.95,10.95-22,17-1.14,1.75-1.64,3.58-1.5,5.5.66,1.52,1.66,2.68,3,3.5,1.68,5.37,3.35,10.7,5,16,2.22,6.46,3.88,13.13,5,20,.99,3.28,1.16,6.61.5,10-2.17,1.01-3.34,2.68-3.5,5,2.14-.35,3.47.48,4,2.5-1.93,1.69-2.93,3.86-3,6.5,1.89.2,3.39-.46,4.5-2,.71.88,1.54,1.55,2.5,2,1.55,7.02,3.55,13.69,6,20v8c.32,3.4-.01,6.73-1,10-1.52,1.03-2.19,2.53-2,4.5.74,4.02,1.74,7.86,3,11.5.3,2.23-.04,4.23-1,6-.71-.9-1.71-1.24-3-1-.78,11.98-1.11,23.98-1,36-3.71.54-6.05,2.71-7,6.5.82,2.43,1.16,4.93,1,7.5-2.75,12.66-8.08,24.16-16,34.5-1.99.61-3.66.11-5-1.5-1.01-1.27-2.51-1.93-4.5-2-3.76,1.25-7.59,2.25-11.5,3-3.27-1.6-6.27-3.6-9-6-3.1-5.78-5.77-11.78-8-18-.54-22.49-1.2-44.83-2-67-1.26-23.81-6.76-46.48-16.5-68-.33.67-.67,1.33-1,2-1.03-1.85-2.2-3.51-3.5-5-1.76-1.46-3.09-3.3-4-5.5-2.18-.87-4.35-1.7-6.5-2.5-6.52,1.87-13.02,3.7-19.5,5.5-2.27,1.9-4.6,3.73-7,5.5-.92-.63-1.92-.96-3-1v-1c4.27-1.65,8.27-3.65,12-6-.21-2.95.45-5.62,2-8,2.2-3.74,3.87-7.74,5-12,.72-.42,1.22-1.08,1.5-2,1.28-7.3,1.62-14.63,1-22-.38-.56-.88-.89-1.5-1v-1c-1.6-8.86-5.1-16.86-10.5-24-4.7-4.54-9.2-9.2-13.5-14-.73-1.21-1.07-2.54-1-4-3.45.74-5.12-.59-5-4-6.98-2.4-14.31-4.07-22-5-5.53-.32-10.86.01-16,1-2,.33-4,.67-6,1-2.89.45-5.56,1.45-8,3-.94-.11-1.77-.44-2.5-1-3.01,4.02-6.84,6.85-11.5,8.5,1.33.67,1.33,1.33,0,2-6.56.37-12.39-1.46-17.5-5.5-6.69,1.63-13.19,1.29-19.5-1-.95,1.55-1.29,3.21-1,5-2.83.6-5.67,1.27-8.5,2-3.34-.45-3.84-1.45-1.5-3-.82-.89-1.82-1.22-3-1,.49-2.31.83-4.64,1-7,1.47-4.65,4.31-8.32,8.5-11v-4c5.26-4.38,11.09-7.88,17.5-10.5,1.21-1.11,1.21-2.28,0-3.5,7.53-2.51,15.19-4.51,23-6,4.34-.69,8.68-1.53,13-2.5-.56-.38-.89-.88-1-1.5h1c15.42-.54,30.76.29,46,2.5,1.27.9,2.27,2.07,3,3.5,5.5,2.6,11.17,4.77,17,6.5,1.65,4,4.65,6.33,9,7,5.18,3.42,10.18,7.09,15,11,3.22,1.78,6.55,3.28,10,4.5.67-.33,1.33-.67,2-1-10.3-5.15-19.96-11.32-29-18.5.84-1.01,1.17-2.18,1-3.5-6.49-2.58-13.16-4.58-20-6v-5c-10.95-.4-21.62-1.9-32-4.5,21.13-24.39,47.13-40.89,78-49.5h6c9.97-.9,19.97-1.23,30-1,5.33.33,10.67.67,16,1-.18,3.29-1.18,6.29-3,9,.23,1.43.9,1.93,2,1.5,2.05-4.34,3.71-8.84,5-13.5.68-1.95,1.85-3.62,3.5-5,1.88-6.39,3.71-12.72,5.5-19,.99-3.9,1.99-7.9,3-12-.27-1.6.07-2.93,1-4,.96-5.16,1.62-10.49,2-16h1c.83-14.49,1.33-29.16,1.5-44,1,9.33,2,9.33,3,0,2.24,2.49,4.58,2.49,7,0,.39.93,1.05,1.6,2,2,4.7-1.58,9.54-2.25,14.5-2-.17-5.33,1.99-9.33,6.5-12,1.52,1.01,3.19,1.67,5,2,4.14-.74,8.3-1.07,12.5-1,.05,3.11,1.39,5.45,4,7Z"/>
  <path class="st50" d="M140.94,118.16c.44,1.01,1.1,1.01,2,0-3.07,6.61-4.74,13.61-5,21-1.55.32-2.21,1.32-2,3-1.09-.12-1.75-.79-2-2,2.35-7.44,4.69-14.77,7-22Z"/>
  <path class="st179" d="M159.94,110.16c3.58.05,6.91.72,10,2,5.11,3.06,10.11,6.4,15,10,2.51,4.01,4.34,8.35,5.5,13,1.6,20.63,1.93,41.3,1,62-.99,3.94-1.66,7.94-2,12-1.38,3.36-2.72,6.69-4,10-4.09,5.85-8.42,11.51-13,17-11.75,9.82-22.92,20.15-33.5,31-.98,2.59-1.31,5.25-1,8v1c-.67-7-1.33-14-2-21-1-5.96-2-11.96-3-18-.43-2.2-.43-4.2,0-6v-6c-.99-15.55-.99-31.21,0-47,1.29-.56,2.12-1.56,2.5-3,1.16-7.31,1.99-14.64,2.5-22h3c.11,4.64,1.11,4.97,3,1-.67-.67-1.33-1.33-2-2,1.11-7.6,2.44-14.93,4-22-.33-1-.67-2-1-3-.82,1.79-1.82,3.45-3,5-.33-.83-.67-1.67-1-2.5,1.69-3.95,2.69-8.11,3-12.5,1.09-2.11,2.09-4.28,3-6.5,4.32-.5,8.65-.67,13-.5Z"/>
  <path class="st183" d="M340.94,111.16h2c.81,1.76,1.81,3.43,3,5,6.68,18.05,10.68,36.72,12,56,.95,1.48,2.28,2.48,4,3h-5c-.52-5.84-1.19-11.68-2-17.5-.07-1.99-.73-3.49-2-4.5-.86-11.23-3.53-21.89-8-32-.87-3.53-2.21-6.87-4-10Z"/>
  <path class="st46" d="M195.94,118.16c2.43,5.98,3.77,12.31,4,19v16h-1c.17-6.68,0-13.34-.5-20-.23-1.24-.73-2.24-1.5-3v-3c-.2-3.02-.54-6.02-1-9Z"/>
  <path class="st92" d="M199.94,137.16c.38,10.08,1.38,20.08,3,30h-3v-30Z"/>
  <path class="st163" d="M137.94,139.16c.6.24.93.74,1,1.5-1.2,3.56-2.53,7.06-4,10.5.93,1.74,1.59,3.57,2,5.5-1.19,5.99-2.52,11.82-4,17.5v-5c.07-2.71.41-5.37,1-8,.62-.42.96-1.08,1-2-1.39-2.15-2.06-4.48-2-7,1.01-3.34,2.01-6.68,3-10-.21-1.68.45-2.68,2-3Z"/>
  <path class="st151" d="M287.94,117.16h1v52h-1c.33-14.84,0-29.51-1-44,.33-2.67.67-5.33,1-8Z"/>
  <path class="st48" d="M286.94,126.16c.24,16.35-.09,32.69-1,49-.67,1.67-1.33,3.33-2,5,.25-18.35,1.25-36.35,3-54Z"/>
  <path class="st129" d="M142.94,117.16h1c-.31,4.39-1.31,8.55-3,12.5.33.83.67,1.67,1,2.5,1.18-1.55,2.18-3.21,3-5,.33,1,.67,2,1,3-1.56,7.07-2.89,14.4-4,22,.67.67,1.33,1.33,2,2-1.89,3.97-2.89,3.64-3-1h-3c-.51,7.36-1.34,14.69-2.5,22-.38,1.44-1.21,2.44-2.5,3v-4c1.48-5.68,2.81-11.51,4-17.5-.41-1.93-1.07-3.76-2-5.5,1.47-3.44,2.8-6.94,4-10.5-.07-.76-.4-1.26-1-1.5.26-7.39,1.93-14.39,5-21v-1Z"/>
  <path class="st172" d="M132.94,152.16c-.06,2.52.61,4.85,2,7-.04.92-.38,1.58-1,2v-3h-3c-.45-2.51.22-4.51,2-6Z"/>
  <path class="st10" d="M198.94,153.16h1v14c.71.9,1.71,1.24,3,1v14c-.82-3.48-1.32-7.14-1.5-11-2.3-5.71-3.13-11.71-2.5-18Z"/>
  <path class="st131" d="M286.94,125.16c1,14.49,1.33,29.16,1,44-.38,5.51-1.04,10.84-2,16v-10c.91-16.31,1.24-32.65,1-49v-1Z"/>
  <path class="st191" d="M196.94,153.16c.52,10.84,1.86,21.51,4,32-.98-3.8-1.32-7.8-1-12h-3v-20Z"/>
  <path class="st202" d="M196.94,130.16c.77.76,1.27,1.76,1.5,3,.5,6.66.67,13.32.5,20-.63,6.29.2,12.29,2.5,18,.18,3.86.68,7.52,1.5,11v3h-2c-2.14-10.49-3.48-21.16-4-32v-23Z"/>
  <path class="st133" d="M199.94,167.16h3c1.33,2.33,1.33,4.67,0,7v-6c-1.29.24-2.29-.1-3-1Z"/>
  <path class="st23" d="M356.94,175.16h5v13h-1v-10h-4v-3Z"/>
  <path class="st25" d="M132.94,169.16v9c-.72.42-1.22,1.08-1.5,2-.5,9.66-.67,19.33-.5,29h-1c-.17-10.01,0-20.01.5-30,.31-3.59,1.14-6.92,2.5-10Z"/>
  <path class="st86" d="M357.94,172.16c1.54.8,3.21,1.13,5,1,.32,4.2-.02,8.2-1,12v-10c-1.72-.52-3.05-1.52-4-3Z"/>
  <path class="st45" d="M284.66,154.3c0,3.33,1.29,27.53,1.29,30.86-.93,1.07-1.27,2.4-1,4h-2c.46-2.98.8-5.98,1-9,.67-1.67.05-24.2.71-25.86Z"/>
  <path class="st56" d="M202.94,182.16c1.29-.24,2.29.1,3,1,.16,2.03,0,4.03-.5,6-.21-1.56-.71-2.89-1.5-4h-1v-3Z"/>
  <path class="st136" d="M360.94,188.16h1c-.32,2.71.35,5.04,2,7h-3v-7Z"/>
  <path class="st1" d="M282.94,189.16h2c-1.01,4.1-2.01,8.1-3,12v-4c.33-2.67.67-5.33,1-8Z"/>
  <path class="st124" d="M359.94,188.16v10h3c.24,1.29-.1,2.29-1,3-.32-1.55-1.32-2.21-3-2-.32-3.87.02-7.54,1-11Z"/>
  <path class="st53" d="M205.94,183.16c.17,11.83,2.84,23.17,8,34-.07,1.53.59,2.53,2,3,.61.89.94,1.89,1,3-.67-.33-1.33-.67-2-1-2.06-3.11-3.89-6.44-5.5-10-.71-3.84-1.87-7.5-3.5-11-.97-5.3-1.63-10.63-2-16,.79,1.11,1.29,2.44,1.5,4,.49-1.97.66-3.97.5-6Z"/>
  <path class="st125" d="M281.94,197.16v4c-.67.67-1.33,1.33-2,2-.24-2.4.43-4.4,2-6Z"/>
  <path class="st70" d="M281.94,201.16c-1.79,6.28-3.62,12.61-5.5,19-1.65,1.38-2.82,3.05-3.5,5-1.48,1.93-3.14,2.26-5,1h3c3.55-7.52,6.55-15.18,9-23,.67-.67,1.33-1.33,2-2Z"/>
  <path class="st72" d="M363.94,205.16c-.33,2.67-.67,5.33-1,8-1.25-2.79-.91-5.46,1-8Z"/>
  <path class="st104" d="M129.94,209.16h1v7h-2c.87-2.22,1.2-4.55,1-7Z"/>
  <path class="st171" d="M128.94,216.16h2c.54.06.88.39,1,1-1.51,1.34-2.17,3.01-2,5h-1c-1.24-2.11-1.24-4.11,0-6Z"/>
  <path class="st82" d="M132.94,178.16c-.99,15.79-.99,31.45,0,47-1.11-.06-2.11-.39-3-1v-2c-.17-1.99.49-3.66,2-5-.12-.61-.46-.94-1-1v-7c-.17-9.67,0-19.34.5-29,.28-.92.78-1.58,1.5-2Z"/>
  <path class="st58" d="M213.94,217.16c1.41.47,2.07,1.47,2,3-1.41-.47-2.07-1.47-2-3Z"/>
  <path class="st40" d="M228.94,224.16c8.82-1.16,17.82-1.32,27-.5,3.35.06,6.35.89,9,2.5h-4c-1.79-.81-3.79-1.31-6-1.5-8.66-.5-17.33-.67-26-.5Z"/>
  <path class="st212" d="M216.94,223.16c3.26.82,6.6,1.16,10,1-3.78,2.88-7.12,2.54-10-1Z"/>
  <path class="st28" d="M214.94,222.16c.67.33,1.33.67,2,1,2.88,3.54,6.22,3.88,10,1h2c8.67-.17,17.34,0,26,.5,2.21.19,4.21.69,6,1.5h-8c-9.34-.17-18.67,0-28,.5-.92.28-1.58.78-2,1.5h-6c-.74.13-1.41-.04-2-.5,1.29-1.29,1.29-2.46,0-3.5v-2Z"/>
  <path class="st4" d="M252.94,226.16v1c-10.03-.23-20.03.1-30,1,.42-.72,1.08-1.22,2-1.5,9.33-.5,18.66-.67,28-.5Z"/>
  <path class="st134" d="M363.94,220.16c.33,2.73-.34,5.06-2,7-.09-2.65.58-4.99,2-7Z"/>
  <path class="st185" d="M352.94,153.16c1.27,1.01,1.93,2.51,2,4.5.81,5.82,1.48,11.66,2,17.5v3h4v10h-1c-.98,3.46-1.32,7.13-1,11,1.68-.21,2.68.45,3,2-.41,3.7-1.07,7.37-2,11,.78,1.45,1.45,2.95,2,4.5-2.24,10.19-3.9,20.35-5,30.5.17-4.68,0-9.35-.5-14-.61,1.57-1.44,2.9-2.5,4,.97-7.31,1.81-14.64,2.5-22,2.5-4.54,4-9.38,4.5-14.5-1.28-.68-2.45-.52-3.5.5-.17-.83-.33-1.67-.5-2.5.53-6.2.86-12.37,1-18.5-1.62.14-2.79-.53-3.5-2-.54-8.34-1.04-16.67-1.5-25Z"/>
  <path class="st22" d="M272.94,225.16c-1.29,4.66-2.95,9.16-5,13.5-1.1.43-1.77-.07-2-1.5,1.82-2.71,2.82-5.71,3-9-5.33-.33-10.67-.67-16-1v-1h15c1.86,1.26,3.52.93,5-1Z"/>
  <path class="st115" d="M169.94,112.16c7.68.22,15.35.72,23,1.5,1.28,4.61,2.61,9.11,4,13.5v46h3c-.32,4.2.02,8.2,1,12h3c.37,5.37,1.03,10.7,2,16,1.63,3.5,2.79,7.16,3.5,11,1.61,3.56,3.44,6.89,5.5,10v2c.09,1-.25,1.83-1,2.5-21.37,5.58-40.37,15.58-57,30-6.53,6.03-12.87,12.2-19,18.5-.31-2.75.02-5.41,1-8,10.58-10.85,21.75-21.18,33.5-31,4.58-5.49,8.91-11.15,13-17,1.28-3.31,2.62-6.64,4-10,.34-4.06,1.01-8.06,2-12,.93-20.7.6-41.37-1-62-1.16-4.65-2.99-8.99-5.5-13-4.89-3.6-9.89-6.94-15-10Z"/>
  <path class="st156" d="M129.94,224.16c.89.61,1.89.94,3,1v6c-2.42,1.79-2.42,3.79,0,6,1,6.04,2,12.04,3,18-.63,7.74.04,15.08,2,22-1.07.93-2.4,1.27-4,1,.31-10.08-.03-20.08-1-30,.33-2.73-.34-5.06-2-7-.42-3.53-1.09-7.03-2-10.5.58-2.14.91-4.3,1-6.5Z"/>
  <path class="st145" d="M132.94,231.16c-.43,1.8-.43,3.8,0,6-2.42-2.21-2.42-4.21,0-6Z"/>
  <path class="st177" d="M359.94,188.16h1v7h3c1.2,3.2,1.2,6.53,0,10-1.91,2.54-2.25,5.21-1,8,.97,2.11,1.3,4.44,1,7-1.42,2.01-2.09,4.35-2,7-1.32,5.88-1.98,11.88-2,18-1.27,2.4-1.93,5.07-2,8-.67,4-1.33,8-2,12-1.04,1.43-1.7,3.1-2,5-.67.33-1.33.67-2,1,1.68-8.03,3.35-16.03,5-24,1.1-10.15,2.76-20.31,5-30.5-.55-1.55-1.22-3.05-2-4.5.93-3.63,1.59-7.3,2-11,.9-.71,1.24-1.71,1-3h-3v-10Z"/>
  <path class="st121" d="M128.94,222.16h1v2c-.09,2.2-.42,4.36-1,6.5.91,3.47,1.58,6.97,2,10.5-.09,2.65.58,4.99,2,7,.97,9.92,1.31,19.92,1,30h-17c5.14-.99,10.47-1.32,16-1,.24-8.03-.1-16.03-1-24-.33-1-.67-2-1-3-1.5-.58-2.84-1.42-4-2.5,3.84-1.85,4-4.01.5-6.5-.17-2.33-.33-4.67-.5-7,.48-4.06,1.15-8.06,2-12Z"/>
  <path class="st66" d="M130.94,241.16c1.66,1.94,2.33,4.27,2,7-1.42-2.01-2.09-4.35-2-7Z"/>
  <path class="st153" d="M359.94,245.16c.39,3.05-.28,5.72-2,8,.07-2.93.73-5.6,2-8Z"/>
  <path class="st152" d="M355.94,265.16c.09,2.65-.58,4.99-2,7v-2c.3-1.9.96-3.57,2-5Z"/>
  <path class="st95" d="M135.94,255.16c.67,7,1.33,14,2,21v1c-1.96-6.92-2.63-14.26-2-22Z"/>
  <path class="st17" d="M353.94,270.16v2c-.89,3.91-2.22,7.58-4,11,.67-3.67,1.33-7.33,2-11v-1c.67-.33,1.33-.67,2-1Z"/>
  <path class="st96" d="M116.94,278.16v1c-3.01-.39-5.68.27-8,2-.09-1,.25-1.83,1-2.5,2.31-.5,4.64-.66,7-.5Z"/>
  <path class="st187" d="M214.94,224.16c1.29,1.04,1.29,2.21,0,3.5.59.46,1.26.63,2,.5-30.87,8.61-56.87,25.11-78,49.5,10.38,2.6,21.05,4.1,32,4.5v5c6.84,1.42,13.51,3.42,20,6,.17,1.32-.16,2.49-1,3.5,9.04,7.18,18.7,13.35,29,18.5-.67.33-1.33.67-2,1-3.45-1.22-6.78-2.72-10-4.5-4.82-3.91-9.82-7.58-15-11-4.35-.67-7.35-3-9-7-5.83-1.73-11.5-3.9-17-6.5-.73-1.43-1.73-2.6-3-3.5-15.24-2.21-30.58-3.04-46-2.5v-3h17c1.6.27,2.93-.07,4-1v-2c6.13-6.3,12.47-12.47,19-18.5,16.63-14.42,35.63-24.42,57-30,.75-.67,1.09-1.5,1-2.5Z"/>
  <path class="st94" d="M108.94,281.16c-1.33.67-2.67,1.33-4,2h-2c1.42-1.81,3.42-2.48,6-2Z"/>
  <path class="st120" d="M116.94,279.16v2h-1c-3.6.96-7.27,1.63-11,2,1.33-.67,2.67-1.33,4-2,2.32-1.73,4.99-2.39,8-2Z"/>
  <path class="st160" d="M115.94,281.16c.11.62.44,1.12,1,1.5-4.32.97-8.66,1.81-13,2.5.33-.67.67-1.33,1-2,3.73-.37,7.4-1.04,11-2Z"/>
  <path class="st5" d="M100.94,283.16c-1.6,1.57-3.6,2.24-6,2,1.6-1.57,3.6-2.24,6-2Z"/>
  <path class="st6" d="M100.94,283.16h4c-.33.67-.67,1.33-1,2-7.81,1.49-15.47,3.49-23,6,1.21,1.22,1.21,2.39,0,3.5-6.41,2.62-12.24,6.12-17.5,10.5v4c-4.19,2.68-7.03,6.35-8.5,11-1.57,1.6-2.24,3.6-2,6h-3c-.67,2.33-1.33,4.67-2,7-.67.67-1.33,1.33-2,2-1.13-3.47-.63-6.8,1.5-10,5.66-5.96,9.99-12.62,13-20,4.48-3.48,8.98-6.81,13.5-10,3.63-.27,4.63-1.94,3-5,.11-.62.44-1.12,1-1.5,5.69-1.17,11.35-2.34,17-3.5,2.4.24,4.4-.43,6-2Z"/>
  <path class="st138" d="M76.94,290.16c1.63,3.06.63,4.73-3,5,1.19-1.61,2.19-3.28,3-5Z"/>
  <path class="st64" d="M347.94,299.16c-.07,2.93-.73,5.6-2,8-.21-2.99.46-5.66,2-8Z"/>
  <path class="st200" d="M148.94,316.16c3,1.33,6,2.67,9,4h-4c-1.45-.8-3.12-1.3-5-1.5-5.32-.5-10.66-.67-16-.5v-1c5.14-.99,10.47-1.32,16-1Z"/>
  <path class="st178" d="M132.94,318.16c5.34-.17,10.68,0,16,.5,1.88.2,3.55.7,5,1.5-8.72-.27-17.39.06-26,1,1.41-1.43,3.08-2.43,5-3Z"/>
  <path class="st76" d="M148.94,316.16c7.69.93,15.02,2.6,22,5-.12,3.41,1.55,4.74,5,4-.07,1.46.27,2.79,1,4-3.17-1.08-5.83-2.92-8-5.5-3.68-1.17-7.34-2.34-11-3.5-3-1.33-6-2.67-9-4Z"/>
  <path class="st100" d="M345.94,307.16c.17,6.01,0,12.01-.5,18-.38-1.44-1.21-2.44-2.5-3,.64-5.2,1.64-10.2,3-15Z"/>
  <path class="st44" d="M126.94,318.16c-3.54,2.81-7.54,4.98-12,6.5-3.59,3.77-7.59,6.94-12,9.5-7.73-3.13-15.73-5.46-24-7-4.12.03-8.12.7-12,2-.29-1.79.05-3.45,1-5,6.31,2.29,12.81,2.63,19.5,1,5.11,4.04,10.94,5.87,17.5,5.5,1.33-.67,1.33-1.33,0-2,4.66-1.65,8.49-4.48,11.5-8.5.73.56,1.56.89,2.5,1,2.44-1.55,5.11-2.55,8-3Z"/>
  <path class="st61" d="M339.94,323.16c-.58,3.64-1.08,7.31-1.5,11-.38.56-.88.89-1.5,1,.45-3.66.95-7.33,1.5-11,.38-.56.88-.89,1.5-1Z"/>
  <path class="st78" d="M54.94,320.16c-.17,2.36-.51,4.69-1,7,1.18-.22,2.18.11,3,1-2.34,1.55-1.84,2.55,1.5,3,2.83-.73,5.67-1.4,8.5-2-4.9,2.89-9.24,6.56-13,11-.95,1.55-1.29,3.21-1,5-1.76,1.64-3.26,3.64-4.5,6-.53,3.54-1.37,6.87-2.5,10-1.29-1.37-1.95-3.2-2-5.5.32-7.72,1.65-15.22,4-22.5.67-2.33,1.33-4.67,2-7h3c-.24-2.4.43-4.4,2-6Z"/>
  <path class="st198" d="M132.94,317.16v1c-1.92.57-3.59,1.57-5,3-8.43,3.06-15.76,7.89-22,14.5-.83.17-1.67.33-2.5.5-6.79-2.32-13.63-4.48-20.5-6.5-8.14-.84-15.47,1.16-22,6-3.28,2.77-5.95,5.94-8,9.5-.29-1.79.05-3.45,1-5,3.76-4.44,8.1-8.11,13-11,3.88-1.3,7.88-1.97,12-2,8.27,1.54,16.27,3.87,24,7,4.41-2.56,8.41-5.73,12-9.5,4.46-1.52,8.46-3.69,12-6.5,2-.33,4-.67,6-1Z"/>
  <path class="st18" d="M47.94,333.16c-2.35,7.28-3.68,14.78-4,22.5.05,2.3.71,4.13,2,5.5.32,4.05,0,8.05-1,12-1.7-7.56-2.37-15.23-2-23v-5c1.16-3.26,2.16-6.59,3-10,.67-.67,1.33-1.33,2-2Z"/>
  <path class="st161" d="M153.94,320.16h4c3.66,1.16,7.32,2.33,11,3.5,2.17,2.58,4.83,4.42,8,5.5,4.3,4.8,8.8,9.46,13.5,14,5.4,7.14,8.9,15.14,10.5,24-.67-.33-1.33-.67-2-1,.1-2.05-.57-3.72-2-5-7.7-20.67-22.03-34.34-43-41Z"/>
  <path class="st9" d="M199.94,381.16c-.15,4.02-.48,8.02-1,12-.9.71-1.24,1.71-1,3-1.29-.24-2.29.1-3,1-3.17-3-6.5-5.83-10-8.5-4.6-1.48-9.27-2.65-14-3.5-8.29-.49-16.63-1.65-25-3.5-4.33-2.49-7.33-5.99-9-10.5-1.73-8.35,1.27-14.68,9-19,2.61-.93,5.28-1.1,8-.5-11.87,1.91-16.7,8.75-14.5,20.5,2.74,5.08,6.91,8.25,12.5,9.5,8.68.72,17.35,1.56,26,2.5,5.87,2.44,11.54,5.11,17,8-.22,1.17.11,2.17,1,3,1.67-4.7,3-9.36,4-14Z"/>
  <path class="st215" d="M164.94,351.16c-1.37-.16-2.71.01-4,.5,13.88,3.43,26.55,9.26,38,17.5.93,3.9,1.26,7.9,1,12-1,4.64-2.33,9.3-4,14-.89-.83-1.22-1.83-1-3-5.46-2.89-11.13-5.56-17-8-8.65-.94-17.32-1.78-26-2.5-5.59-1.25-9.76-4.42-12.5-9.5-2.2-11.75,2.63-18.59,14.5-20.5-2.72-.6-5.39-.43-8,.5.11-.62.44-1.12,1-1.5,6.22-2.14,12.22-1.98,18,.5Z"/>
  <path class="st162" d="M164.94,351.16c3.4.52,6.73,1.35,10,2.5,7.33,3,14.33,6.5,21,10.5.47,1.41,1.47,2.07,3,2v3c-11.45-8.24-24.12-14.07-38-17.5,1.29-.49,2.63-.66,4-.5Z"/>
  <path class="st180" d="M356.94,247.16c-1.65,7.97-3.32,15.97-5,24v1c-1.43,2.78-2.6,5.78-3.5,9-1.84,11.69-3.84,23.36-6,35-.7,2.5-1.53,4.84-2.5,7-.62.11-1.12.44-1.5,1-.55,3.67-1.05,7.34-1.5,11-6,18.64-15.5,35.3-28.5,50-2.05,2.05-4.39,3.72-7,5-.48.95-.65,1.95-.5,3-2.01-.11-3.68.56-5,2-2.22-5.86-3.88-11.86-5-18h-3c-1.34-.82-2.34-1.98-3-3.5-.14-1.92.36-3.75,1.5-5.5,7.05-6.05,14.38-11.72,22-17,2.84-5.02,6.18-9.69,10-14,6.44-11.54,11.77-23.54,16-36,5.14-21.9,11.64-43.23,19.5-64,1.06-1.1,1.89-2.43,2.5-4,.5,4.65.67,9.32.5,14Z"/>
  <path class="st189" d="M333.94,351.16c-.8,2.11-1.47,4.27-2,6.5.08,1.11.42,2.11,1,3-3.02.65-5.35,2.15-7,4.5,2.19-5.07,4.86-9.73,8-14Z"/>
  <path class="st143" d="M42.94,345.16v5c-1.07,8.84-1.07,17.84,0,27-.72-.42-1.22-1.08-1.5-2-.92-5.46-1.42-10.96-1.5-16.5.44-4.15.44-8.15,0-12,.74-1.04,1.74-1.54,3-1.5Z"/>
  <path class="st42" d="M154.94,362.16c5.39-.42,10.39.74,15,3.5,1.54,1.11,2.2,2.61,2,4.5-3.97-.98-7.97-1.98-12-3-2.98.64-5.98,1.14-9,1.5-1.01,2.17-2.68,3.34-5,3.5.92-5.25,3.92-8.58,9-10Z"/>
  <path class="st173" d="M196.94,361.16c1.43,1.28,2.1,2.95,2,5-1.53.07-2.53-.59-3-2,.9-.71,1.24-1.71,1-3Z"/>
  <path class="st176" d="M49.94,356.16c-1.03,7.97-1.2,15.97-.5,24,.38-.56.88-.89,1.5-1-.06,1.11-.39,2.11-1,3-1.15-.29-1.82-1.12-2-2.5-1.69-8.17-1.03-16,2-23.5Z"/>
  <path class="st164" d="M52.94,345.16c-1.46,3.52-2.46,7.19-3,11-3.03,7.5-3.69,15.33-2,23.5.18,1.38.85,2.21,2,2.5-1.07.93-2.4,1.27-4,1h-2c.29-2.23-.04-4.23-1-6-1.07-9.16-1.07-18.16,0-27-.37,7.77.3,15.44,2,23,.99-3.95,1.32-7.95,1-12,1.13-3.13,1.97-6.46,2.5-10,1.24-2.36,2.74-4.36,4.5-6Z"/>
  <path class="st47" d="M136.94,371.16c1.67,4.51,4.67,8.01,9,10.5,8.37,1.85,16.71,3.01,25,3.5-6.55.27-13.05-.06-19.5-1-1.03.34-1.53,1-1.5,2-1.83-.75-3.5-1.75-5-3-4.97-3.16-10.31-5.16-16-6h8v-6Z"/>
  <path class="st132" d="M198.94,366.16c.67.33,1.33.67,2,1v1c.24,8.38-.09,16.71-1,25h-1c.52-3.98.85-7.98,1-12,.26-4.1-.07-8.1-1-12v-3Z"/>
  <path class="st21" d="M125.94,377.16c2.64,2.02,3.48,4.68,2.5,8-5.27,10.22-13.44,13.72-24.5,10.5-2.85-2.08-5.18-4.58-7-7.5-.95-1.42-1.28-3.08-1-5,1.77-2.78,4.1-4.78,7-6h4c6.35-1.23,12.69-1.23,19,0Z"/>
  <path class="st97" d="M43.94,383.16h2c.49,2.31.83,4.64,1,7-2.59-1.54-3.59-3.87-3-7Z"/>
  <path class="st91" d="M153.94,320.16c20.97,6.66,35.3,20.33,43,41,.24,1.29-.1,2.29-1,3-6.67-4-13.67-7.5-21-10.5-3.27-1.15-6.6-1.98-10-2.5-5.78-2.48-11.78-2.64-18-.5-.56.38-.89.88-1,1.5-7.73,4.32-10.73,10.65-9,19v6h-8c-1.1-1.1-2.44-1.77-4-2h-15c-2.65-.09-4.99.58-7,2-2.9,1.22-5.23,3.22-7,6-14.34,14.93-11.34,25.09,9,30.5,8.46.99,16.79.49,25-1.5,4.56-2.77,8.9-5.77,13-9,1.95-2.21,4.11-4.21,6.5-6,1.49-3.78,1.65-7.45.5-11-.03-1,.47-1.66,1.5-2,6.45.94,12.95,1.27,19.5,1,4.73.85,9.4,2.02,14,3.5,3.5,2.67,6.83,5.5,10,8.5-1.29,6.56-4.62,11.9-10,16-6.44,4.55-13.11,8.55-20,12-7.35,2-14.68,4-22,6-10.93,1.62-21.93,2.28-33,2h-9v-1c-8.3-1.74-16.3-4.41-24-8-6.07-2.54-11.24-6.54-15.5-12-.48-.95-.65-1.95-.5-3,1.2-1.89,2.54-3.73,4-5.5,5.54-3.27,11.21-6.27,17-9,6.52-5,8.69-11.5,6.5-19.5-4.81-8.39-11.98-11.55-21.5-9.5-7.02,2.52-12.35,7.02-16,13.5-.62.11-1.12.44-1.5,1-.7-8.03-.53-16.03.5-24,.54-3.81,1.54-7.48,3-11,2.05-3.56,4.72-6.73,8-9.5,6.53-4.84,13.86-6.84,22-6,6.87,2.02,13.71,4.18,20.5,6.5.83-.17,1.67-.33,2.5-.5,6.24-6.61,13.57-11.44,22-14.5,8.61-.94,17.28-1.27,26-1Z"/>
  <path class="st197" d="M109.94,375.16c-1,.67-2,1.33-3,2h-4c2.01-1.42,4.35-2.09,7-2Z"/>
  <path class="st54" d="M109.94,375.16h15c.33.67.67,1.33,1,2-6.31-1.23-12.65-1.23-19,0,1-.67,2-1.33,3-2Z"/>
  <path class="st210" d="M351.94,272.16c-.67,3.67-1.33,7.33-2,11-1.06,5.28-1.72,10.61-2,16-1.54,2.34-2.21,5.01-2,8-1.36,4.8-2.36,9.8-3,15-2.41,9.89-5.41,19.56-9,29-3.14,4.27-5.81,8.93-8,14-5.18,7.7-10.85,15.03-17,22-2,1.33-3.67,3-5,5-2.87,2.04-5.21,4.54-7,7.5,1.15,3.14,2.15,6.3,3,9.5.26,2.47,1.26,4.47,3,6,1.19,6.47,3.19,12.63,6,18.5-.45,1.45-1.11,2.78-2,4,1.07,3.09,1.73,6.26,2,9.5.25,3.54.92,6.87,2,10v2c.53,8.2-.14,16.2-2,24,.8-5.92.8-11.92,0-18v-8c-.52-7.93-2.19-15.6-5-23,.36-.68.7-1.35,1-2,.54-.06.88-.39,1-1-1.13-2.57-1.97-5.24-2.5-8-1.61-3.56-3.44-6.89-5.5-10-1.12-6.87-2.78-13.54-5-20,.72,1.05,1.72,1.72,3,2,1.32-1.44,2.99-2.11,5-2-.15-1.05.02-2.05.5-3,2.61-1.28,4.95-2.95,7-5,13-14.7,22.5-31.36,28.5-50,.62-.11,1.12-.44,1.5-1,.42-3.69.92-7.36,1.5-11,.97-2.16,1.8-4.5,2.5-7,2.16-11.64,4.16-23.31,6-35,.9-3.22,2.07-6.22,3.5-9Z"/>
  <path class="st149" d="M308.94,387.16c-.67,2.67-2.33,4.33-5,5,1.33-2,3-3.67,5-5Z"/>
  <path class="st32" d="M200.94,368.16c.62.11,1.12.44,1.5,1,.62,7.37.28,14.7-1,22-.28.92-.78,1.58-1.5,2,.91-8.29,1.24-16.62,1-25Z"/>
  <path class="st141" d="M124.94,375.16c1.56.23,2.9.9,4,2,5.69.84,11.03,2.84,16,6,.66,1.98,1.32,3.98,2,6-.04.92-.38,1.58-1,2,.13-.88-.2-1.54-1-2-3.68,4.5-8.35,7.67-14,9.5-5.29,1.16-10.62,1.99-16,2.5-.3-.65-.64-1.32-1-2-2.66-.76-5.32-1.43-8-2-1.77.54-2.1,1.37-1,2.5-1,.67-2,.67-3,0-1.07-2.41-2.4-4.57-4-6.5-.95-1.55-1.29-3.21-1-5,1.82,2.92,4.15,5.42,7,7.5,11.06,3.22,19.23-.28,24.5-10.5.98-3.32.14-5.98-2.5-8-.33-.67-.67-1.33-1-2Z"/>
  <path class="st88" d="M287.94,377.16h3c1.12,6.14,2.78,12.14,5,18-1.28-.28-2.28-.95-3-2-1.65-5.3-3.32-10.63-5-16Z"/>
  <path class="st190" d="M144.94,383.16c1.5,1.25,3.17,2.25,5,3,1.15,3.55.99,7.22-.5,11-2.39,1.79-4.55,3.79-6.5,6-.65-4.06,1.01-6.06,5-6,.11-2.01-.56-3.68-2-5v-1c.62-.42.96-1.08,1-2-.68-2.02-1.34-4.02-2-6Z"/>
  <path class="st166" d="M198.94,393.16h1c-1.13,4.26-2.8,8.26-5,12-2.64,2.81-5.14,5.81-7.5,9-2.33,1.57-4.49,3.23-6.5,5-4.99,3-10.33,5-16,6,6.89-3.45,13.56-7.45,20-12,5.38-4.1,8.71-9.44,10-16,.71-.9,1.71-1.24,3-1-.24-1.29.1-2.29,1-3Z"/>
  <path class="st118" d="M48.94,394.16c1.7,2.76,3.04,5.76,4,9-2.97-2.12-4.3-5.12-4-9Z"/>
  <path class="st181" d="M145.94,391.16v1c-5.73,5.86-12.73,9.36-21,10.5-9.25,1.99-18.58,2.65-28,2-2.69-.34-4.69-1.68-6-4,.5-.17,1-.33,1.5-.5,7.34,3.39,14.84,3.72,22.5,1,5.38-.51,10.71-1.34,16-2.5,5.65-1.83,10.32-5,14-9.5.8.46,1.13,1.12,1,2Z"/>
  <path class="st34" d="M60.94,409.16c-.67.67-1.33,1.33-2,2-2-2.67-4-5.33-6-8-.96-3.24-2.3-6.24-4-9-.67-1.33-1.33-2.67-2-4-.17-2.36-.51-4.69-1-7,1.6.27,2.93-.07,4-1,.61-.89.94-1.89,1-3,3.65-6.48,8.98-10.98,16-13.5,9.52-2.05,16.69,1.11,21.5,9.5,2.19,8,.02,14.5-6.5,19.5-5.79,2.73-11.46,5.73-17,9-1.46,1.77-2.8,3.61-4,5.5Z"/>
  <path class="st35" d="M68.94,367.16c13.85,0,19.35,6.67,16.5,20-5.04,5.77-11.2,9.94-18.5,12.5-3.15,1.98-5.81,4.48-8,7.5-5.91-6.15-8.74-13.48-8.5-22,.47-1.75,1.14-3.41,2-5,2.52-3.52,5.35-6.68,8.5-9.5,2.66-1.48,5.32-2.64,8-3.5Z"/>
  <path class="st38" d="M66.94,378.16c3.35-.17,6.68,0,10,.5,1.8.64,3.14,1.8,4,3.5-4.63.83-9.3,1.33-14,1.5-1.91,1.2-3.24,2.87-4,5-1.29.49-2.63.66-4,.5.4-5.39,3.06-9.05,8-11Z"/>
  <path class="st107" d="M95.94,383.16c-.28,1.92.05,3.58,1,5-.29,1.79.05,3.45,1,5,1.6,1.93,2.93,4.09,4,6.5,1,.67,2,.67,3,0-1.1-1.13-.77-1.96,1-2.5,2.68.57,5.34,1.24,8,2,.36.68.7,1.35,1,2-7.66,2.72-15.16,2.39-22.5-1-.5.17-1,.33-1.5.5,1.31,2.32,3.31,3.66,6,4,9.42.65,18.75-.01,28-2,8.27-1.14,15.27-4.64,21-10.5,1.44,1.32,2.11,2.99,2,5-3.99-.06-5.65,1.94-5,6-4.1,3.23-8.44,6.23-13,9-8.21,1.99-16.54,2.49-25,1.5-20.34-5.41-23.34-15.57-9-30.5Z"/>
  <path class="st24" d="M194.94,405.16c-1.55,2.38-2.21,5.05-2,8-3.73,2.35-7.73,4.35-12,6,2.01-1.77,4.17-3.43,6.5-5,2.36-3.19,4.86-6.19,7.5-9Z"/>
  <path class="st110" d="M299.94,409.16c1.88,1.39,2.88,3.39,3,6-1.74-1.53-2.74-3.53-3-6Z"/>
  <path class="st15" d="M60.94,409.16c-.15,1.05.02,2.05.5,3,4.26,5.46,9.43,9.46,15.5,12-1.83-.99-3.5-.99-5,0-5.33-3.33-9.67-7.67-13-13,.67-.67,1.33-1.33,2-2Z"/>
  <path class="st119" d="M297.94,413.16c2.06,3.11,3.89,6.44,5.5,10,.53,2.76,1.37,5.43,2.5,8-.12.61-.46.94-1,1-1.76,1.05-2.42,2.72-2,5-.96-.45-1.79-1.12-2.5-2-1.11,1.54-2.61,2.2-4.5,2,.07-2.64,1.07-4.81,3-6.5-.53-2.02-1.86-2.85-4-2.5.16-2.32,1.33-3.99,3.5-5,.66-3.39.49-6.72-.5-10Z"/>
  <path class="st214" d="M220.94,418.16c.16,2.03,0,4.03-.5,6-1.77-2.15-3.27-4.48-4.5-7-1.73-1.59-2.73-1.26-3,1,2.82,5.33,4.82,10.99,6,17-2.24-.3-4.24.04-6,1-13.91,2.92-27.91,4.92-42,6h-12c-12.03.25-24.03-.08-36-1-8.27-.4-16.27-2.07-24-5-1.16-1.7-.49-2.37,2-2,10.82,1.19,21.49,1.19,32,0h10c4.38-.79,8.71-.79,13,0,1.77-.54,2.1-1.37,1-2.5,3.56-1.41,7.22-2.41,11-3,.67-.67,1.33-1.33,2-2,2.7-.25,5.37-.25,8,0,.67-.33,1.33-.67,2-1-1.76-.2-3.42-.7-5-1.5,2.52-.8,4.52-2.14,6-4,1.08.04,2.08.37,3,1,2.4-1.77,4.73-3.6,7-5.5,6.48-1.8,12.98-3.63,19.5-5.5,2.15.8,4.32,1.63,6.5,2.5.91,2.2,2.24,4.04,4,5.5Z"/>
  <path class="st27" d="M180.94,419.16v1c-1.48,1.86-3.48,3.2-6,4,1.58.8,3.24,1.3,5,1.5-.67.33-1.33.67-2,1-2.63-.25-5.3-.25-8,0-.67.67-1.33,1.33-2,2-3.78.59-7.44,1.59-11,3,1.1,1.13.77,1.96-1,2.5-4.29-.79-8.62-.79-13,0,.11-.62.44-1.12,1-1.5l15-3c2.16-1.49,4.16-2.99,6-4.5,5.67-1,11.01-3,16-6Z"/>
  <path class="st113" d="M212.94,418.16h3c2.72,6.5,5.06,13.17,7,20h-1c-.67,0-1-.33-1-1-2.45-.97-5.12-1.31-8-1,1.76-.96,3.76-1.3,6-1-1.18-6.01-3.18-11.67-6-17Z"/>
  <path class="st3" d="M76.94,424.16c7.7,3.59,15.7,6.26,24,8-4.47.23-8.81-.43-13-2-.67.17-1.33.33-2,.5,1.36.93,2.69,1.77,4,2.5v2c-6.67-2.66-12.67-6.33-18-11,1.5-.99,3.17-.99,5,0Z"/>
  <path class="st33" d="M164.94,425.16c-1.84,1.51-3.84,3.01-6,4.5l-15,3c-.56.38-.89.88-1,1.5h-10c3.43-.64,6.76-1.64,10-3,7.32-2,14.65-4,22-6Z"/>
  <path class="st158" d="M100.94,432.16v2c-2.49-.37-3.16.3-2,2-2.91-1.29-5.91-2.29-9-3-1.31-.73-2.64-1.57-4-2.5.67-.17,1.33-.33,2-.5,4.19,1.57,8.53,2.23,13,2Z"/>
  <path class="st11" d="M142.94,431.16c-3.24,1.36-6.57,2.36-10,3-7.85.33-15.52,0-23-1,11.07.28,22.07-.38,33-2Z"/>
  <path class="st174" d="M100.94,434.16v-1h9c7.48.99,15.15,1.33,23,1-10.51,1.19-21.18,1.19-32,0Z"/>
  <path class="st79" d="M212.94,436.16c2.88-.31,5.55.03,8,1-4.22-.16-8.22.51-12,2,1.33-1,2.67-2,4-3Z"/>
  <path class="st106" d="M95.94,438.16c-1.84,1.78-2.51,4.11-2,7v12c-.67-5.33-1.33-10.67-2-16v-5c1.88-.27,3.21.4,4,2Z"/>
  <path class="st150" d="M122.94,441.16c11.97.92,23.97,1.25,36,1-11.16,1.16-22.49,1.33-34,.5-.92-.28-1.58-.78-2-1.5Z"/>
  <path class="st74" d="M200.94,440.16c-.42.72-1.08,1.22-2,1.5-4.95,1.05-9.95,1.55-15,1.5,5.48-1.3,11.15-2.3,17-3Z"/>
  <path class="st130" d="M89.94,433.16c3.09.71,6.09,1.71,9,3,7.73,2.93,15.73,4.6,24,5,.42.72,1.08,1.22,2,1.5,11.51.83,22.84.66,34-.5h12c-.59,3.11-1.26,6.11-2,9v-6h-36c-12.56-.83-24.89-3.16-37-7-.79-1.6-2.12-2.27-4-2v5h-1c-.33-2-.67-4-1-6v-2Z"/>
  <path class="st30" d="M221.94,438.16h1c6.15,16.39,9.48,33.39,10,51v8h-1c-.45-5.38-1.12-10.71-2-16,0-4.03-.34-8.03-1-12,.21-2.99-.46-5.66-2-8-.25-3.54-.92-6.87-2-10,.24-2.4-.43-4.4-2-6-.17-2.36-.51-4.69-1-7Z"/>
  <path class="st196" d="M132.94,445.16h36v6c.29,2.23-.04,4.23-1,6v-11c-11.85.33-23.51,0-35-1Z"/>
  <path class="st128" d="M304.94,432.16c-.3.65-.64,1.32-1,2,2.81,7.4,4.48,15.07,5,23-2.45-6.31-4.45-12.98-6-20-.42-2.28.24-3.95,2-5Z"/>
  <path class="st62" d="M95.94,438.16c12.11,3.84,24.44,6.17,37,7,11.49.99,23.15,1.33,35,1v11c-1.51,7.11-2.35,14.44-2.5,22-.83,14.17-.66,28.17.5,42,.17,9.01,0,18.01-.5,27-.8,4.9-2.3,9.57-4.5,14-2.86-2.48-6.19-3.48-10-3,1.86-5.14,3.03-10.47,3.5-16,2.2-18.64.03-36.64-6.5-54-3.88-5.94-7.88-11.78-12-17.5-4.62-2.95-8.95-6.28-13-10-6.26-2.86-12.6-5.53-19-8-3.68-2.64-7.01-5.47-10-8.5-.51-2.89.16-5.22,2-7Z"/>
  <path class="st206" d="M172.94,444.16c-.26,4.62-1.26,8.96-3,13,.05-4.69,1.05-9.02,3-13Z"/>
  <path class="st36" d="M222.94,445.16c1.57,1.6,2.24,3.6,2,6-1.57-1.6-2.24-3.6-2-6Z"/>
  <path class="st102" d="M90.94,441.16h1v21h3c.32,4.86-.01,9.53-1,14v-13h-3v-22Z"/>
  <path class="st154" d="M308.94,447.16c.62.11,1.12.44,1.5,1,.5,2.98.67,5.98.5,9-1.08-3.13-1.75-6.46-2-10Z"/>
  <path class="st26" d="M93.94,445.16c2.99,3.03,6.32,5.86,10,8.5,6.4,2.47,12.74,5.14,19,8,4.05,3.72,8.38,7.05,13,10,4.12,5.72,8.12,11.56,12,17.5,6.53,17.36,8.7,35.36,6.5,54-.47,5.53-1.64,10.86-3.5,16-2.87,1.71-4.87,4.21-6,7.5-1.97.49-3.97.66-6,.5-3,.33-4.33-1-4-4-3.7-.31-7.2.36-10.5,2-2.18-2.96-3.35-2.62-3.5,1h-4c-2.82-4.47-5.82-8.81-9-13-.13-1.72-.46-3.38-1-5,.05-3.49-.95-6.49-3-9-.84-6.05-1.84-12.05-3-18-.19-10.67-.52-21.34-1-32h-3v-32h-3v-12Z"/>
  <path class="st201" d="M226.94,461.16c1.54,2.34,2.21,5.01,2,8h-1c-.59-2.63-.93-5.29-1-8Z"/>
  <path class="st209" d="M227.94,469.16h1c.66,3.97.99,7.97,1,12-1.64-3.71-2.3-7.71-2-12Z"/>
  <path class="st84" d="M310.94,459.16c.67,3.65,1,7.48,1,11.5-.24,5.27-.9,10.43-2,15.5h-1v-3c1.86-7.8,2.53-15.8,2-24Z"/>
  <path class="st167" d="M308.94,465.16c.8,6.08.8,12.08,0,18v8c-1.26-3.64-2.26-7.48-3-11.5-.19-1.97.48-3.47,2-4.5.99-3.27,1.32-6.6,1-10Z"/>
  <path class="st85" d="M93.94,457.16h3v32h3c.48,10.66.81,21.33,1,32-1.28-9.82-2.28-19.82-3-30-.67.33-1.33.67-2,1-.33-1.83-.67-3.67-1-5.5.51-5.66.84-11.32,1-17-.07-4.42-.74-8.59-2-12.5Z"/>
  <path class="st87" d="M167.94,457.16c-1.6,21.3-2.27,42.63-2,64-1.16-13.83-1.33-27.83-.5-42,.15-7.56.99-14.89,2.5-22Z"/>
  <path class="st43" d="M94.94,497.16c.71-.9,1.71-1.24,3-1v13c-.37-4.27-1.37-8.27-3-12Z"/>
  <path class="st81" d="M308.94,486.16h1c1.74,4.76,2.41,9.76,2,15h-4v16c-.67,1.33-1.33,2.67-2,4-.63-8.4.03-16.4,2-24,.96-1.77,1.3-3.77,1-6v-5Z"/>
  <path class="st105" d="M91.94,441.16c.67,5.33,1.33,10.67,2,16,1.26,3.91,1.93,8.08,2,12.5-.16,5.68-.49,11.34-1,17,.33,1.83.67,3.67,1,5.5.67-.33,1.33-.67,2-1,.72,10.18,1.72,20.18,3,30,1.16,5.95,2.16,11.95,3,18,.55,3.25,1.55,6.25,3,9,.54,1.62.87,3.28,1,5-1-1.33-2-2.67-3-4-.1-2.29-.76-4.29-2-6-.45-3.66-.95-7.33-1.5-11-.38-.56-.88-.89-1.5-1v-1c-.35-4.18-1.02-8.18-2-12v-22c-1.29-.24-2.29.1-3,1-.99-6.14-1.32-12.48-1-19v-2c.99-4.47,1.32-9.14,1-14h-3v-21Z"/>
  <path class="st142" d="M232.94,489.16c.81,1.79,1.31,3.79,1.5,6,.83,14.17.66,28.17-.5,42,.33-13.51,0-26.84-1-40v-8Z"/>
  <path class="st116" d="M93.94,478.16c-.32,6.52.01,12.86,1,19,1.63,3.73,2.63,7.73,3,12v8c-.79-1.11-1.29-2.44-1.5-4-.5-4.99-.67-9.99-.5-15h-3c-.32-6.85,0-13.52,1-20Z"/>
  <path class="st16" d="M307.94,497.16c-1.97,7.6-2.63,15.6-2,24-.67,3.67-1.33,7.33-2,11-.11-12.02.22-24.02,1-36,1.29-.24,2.29.1,3,1Z"/>
  <path class="st14" d="M97.94,518.16c.98,3.82,1.65,7.82,2,12-.72-.42-1.22-1.08-1.5-2-.5-3.32-.67-6.65-.5-10Z"/>
  <path class="st193" d="M241.94,489.16c.8,22.17,1.46,44.51,2,67-.83,4.34-1.83,8.67-3,13-1.39-3.88-2.55-3.88-3.5,0-1.01-2.03-1.51-4.2-1.5-6.5.23-3.28.9-6.45,2-9.5h-3c1.47-9.33,2.47-18.83,3-28.5-1.62-13.41-.78-26.58,2.5-39.5.21,1.56.71,2.89,1.5,4Z"/>
  <path class="st2" d="M212.94,436.16c-1.33,1-2.67,2-4,3-2.67.33-5.33.67-8,1-5.85.7-11.52,1.7-17,3-3.87-.32-7.54.02-11,1-1.95,3.98-2.95,8.31-3,13-.73,29.33-1.23,58.66-1.5,88-.4,2.71-.9,5.37-1.5,8-1.42,2.02-2.09,4.35-2,7-.61.89-.94,1.89-1,3-1.41.47-2.07,1.47-2,3-.67,1-1.33,2-2,3-.3-1.9-.96-3.57-2-5-1.55-2.75-3.89-3.59-7-2.5-1.56.76-2.56,1.93-3,3.5-.9.71-1.24,1.71-1,3-2.78-.22-5.45.11-8,1v-2c2.03.16,4.03,0,6-.5,1.13-3.29,3.13-5.79,6-7.5,3.81-.48,7.14.52,10,3,2.2-4.43,3.7-9.1,4.5-14,.5-8.99.67-17.99.5-27-.27-21.37.4-42.7,2-64,.96-1.77,1.29-3.77,1-6,.74-2.89,1.41-5.89,2-9,14.09-1.08,28.09-3.08,42-6Z"/>
  <path class="st71" d="M307.94,517.16c.14,4.91-.53,9.58-2,14v-10c.67-1.33,1.33-2.67,2-4Z"/>
  <path class="st59" d="M303.94,532.16c.38,2.44-.29,3.11-2,2-1.35,4.11-2.68,8.11-4,12,.16-2.57-.18-5.07-1-7.5.95-3.79,3.29-5.96,7-6.5Z"/>
  <path class="st112" d="M220.94,418.16c1.3,1.49,2.47,3.15,3.5,5,.33-.67.67-1.33,1-2,9.74,21.52,15.24,44.19,16.5,68-.79-1.11-1.29-2.44-1.5-4-3.28,12.92-4.12,26.09-2.5,39.5-.53,9.67-1.53,19.17-3,28.5h3c-1.1,3.05-1.77,6.22-2,9.5,0,2.3.49,4.47,1.5,6.5.95-3.88,2.11-3.88,3.5,0,1.17-4.33,2.17-8.66,3-13,2.23,6.22,4.9,12.22,8,18-4.3-1.76-8.14-1.09-11.5,2-4.31-3.64-6.15-8.3-5.5-14-.87-8.3-1.2-16.63-1-25,1.16-13.83,1.33-27.83.5-42-.19-2.21-.69-4.21-1.5-6-.52-17.61-3.85-34.61-10-51-1.94-6.83-4.28-13.5-7-20h-3c.27-2.26,1.27-2.59,3-1,1.23,2.52,2.73,4.85,4.5,7,.49-1.97.66-3.97.5-6Z"/>
  <path class="st194" d="M305.94,534.16v6h-4c.71-.9,1.71-1.24,3-1-.28-1.92.05-3.58,1-5Z"/>
  <path class="st184" d="M103.94,539.16c2.05,2.51,3.05,5.51,3,9-1.45-2.75-2.45-5.75-3-9Z"/>
  <path class="st83" d="M99.94,531.16c.62.11,1.12.44,1.5,1,.55,3.67,1.05,7.34,1.5,11-1.84-3.66-2.84-7.66-3-12Z"/>
  <path class="st203" d="M231.94,497.16h1c-.12,19.67-.46,39.34-1,59-.7-19.5-.7-39.16,0-59Z"/>
  <path class="st93" d="M233.94,537.16c-.2,8.37.13,16.7,1,25-.77-.76-1.27-1.76-1.5-3-.82-7.51-.65-14.84.5-22Z"/>
  <path class="st165" d="M104.94,549.16c1,1.33,2,2.67,3,4v2c-2.47-1.11-3.47-3.11-3-6Z"/>
  <path class="st65" d="M166.94,553.16c.09,2.65-.58,4.98-2,7-.09-2.65.58-4.98,2-7Z"/>
  <path class="st195" d="M298.94,553.16c.33,2.99-.67,5.32-3,7,.43-2.66,1.43-4.99,3-7Z"/>
  <path class="st108" d="M138.94,567.16v2h-3c-1.37-2.46-3.54-3.46-6.5-3-1.5.17-3,.33-4.5.5-2.78,3.15-5.45,2.98-8-.5h4c.15-3.62,1.32-3.96,3.5-1,3.3-1.64,6.8-2.31,10.5-2-.33,3,1,4.33,4,4Z"/>
  <path class="st67" d="M147.94,565.16c2.15,11.61,5.98,22.61,11.5,33,.82,1.32,1.98,1.99,3.5,2,1.15-4.15,1.31-8.48.5-13-1.12-6.03-2.29-12.03-3.5-18,.67-1,1.33-2,2-3-.38,3.99.28,7.66,2,11v2c1.23,8.05,1.23,16.05,0,24-3.3-.23-5.64-1.9-7-5-.61-.89-.94-1.89-1-3-1.16-1.24-2.16-2.57-3-4-2.32-6.93-4.48-13.93-6.5-21-2.77-1.02-5.61-1.02-8.5,0,.46,2.98.8,5.98,1,9,1.12,2.48,1.12,4.81,0,7-.72-5.49-2.05-10.83-4-16,0-.67.33-1,1-1h3c2.55-.89,5.22-1.22,8-1-.24-1.29.1-2.29,1-3Z"/>
  <path class="st168" d="M305.94,521.16v13c-.95,1.42-1.28,3.08-1,5-1.29-.24-2.29.1-3,1-1.31,4.15-2.31,8.48-3,13-1.57,2.01-2.57,4.34-3,7-3,8.67-7.66,16.33-14,23h-1c-1.11-.06-2.11-.39-3-1-.81-1.23-1.81-2.23-3-3h2c1.34,1.61,3.01,2.11,5,1.5,7.92-10.34,13.25-21.84,16-34.5,1.32-3.89,2.65-7.89,4-12,1.71,1.11,2.38.44,2-2,.67-3.67,1.33-7.33,2-11Z"/>
  <path class="st170" d="M107.94,553.16c3.18,4.19,6.18,8.53,9,13,2.55,3.48,5.22,3.65,8,.5,1.5-.17,3-.33,4.5-.5,2.96-.46,5.13.54,6.5,3-.67,0-1,.33-1,1-2.81-2.03-5.81-2.36-9-1-.8.46-1.13,1.12-1,2-.72.42-1.22,1.08-1.5,2-.67-.75-1.5-1.09-2.5-1-6.03-4.4-10.36-10.07-13-17v-2Z"/>
  <path class="st68" d="M157.94,564.16c1.04,1.43,1.7,3.1,2,5,1.21,5.97,2.38,11.97,3.5,18,.81,4.52.65,8.85-.5,13-.36-8.56-1.86-16.89-4.5-25-.5-3.65-.66-7.32-.5-11Z"/>
  <path class="st57" d="M163.94,563.16c-1.17,4.64-1.17,9.31,0,14-1.72-3.34-2.38-7.01-2-11-.07-1.53.59-2.53,2-3Z"/>
  <path class="st144" d="M251.94,574.16c2.73,2.4,5.73,4.4,9,6-1.7.16-3.37,0-5-.5-1.17-1.99-2.5-3.83-4-5.5Z"/>
  <path class="st31" d="M232.94,497.16c1,13.16,1.33,26.49,1,40-1.15,7.16-1.32,14.49-.5,22,.23,1.24.73,2.24,1.5,3-.65,5.7,1.19,10.36,5.5,14,3.36-3.09,7.2-3.76,11.5-2,1.5,1.67,2.83,3.51,4,5.5,1.63.49,3.3.66,5,.5,3.91-.75,7.74-1.75,11.5-3,1.99.07,3.49.73,4.5,2h-2c-2.92-.22-5.59.45-8,2-4.98.52-9.65-.15-14-2-2.52-4.37-5.86-5.04-10-2-1.21.73-2.54,1.07-4,1-5.09-6.34-7.42-13.67-7-22,.54-19.66.88-39.33,1-59Z"/>
  <path class="st147" d="M124.94,571.16c1.82,12.29,6.66,23.29,14.5,33,1.01.84,2.18,1.17,3.5,1v-6c.95,1.42,1.28,3.09,1,5,1.29-.24,2.29.1,3,1-3.45,3.68-6.78,3.35-10-1-6.95-9.9-12.29-20.57-16-32,1-.09,1.83.25,2.5,1,.28-.92.78-1.58,1.5-2Z"/>
  <path class="st99" d="M274.94,579.16c1.19.77,2.19,1.77,3,3,.3,2.23-.04,4.23-1,6,1.08-6.57-1.59-8.73-8-6.5-1.47,3.82-2.8,7.65-4,11.5.39-4.08,1.06-8.08,2-12,2.41-1.55,5.08-2.22,8-2Z"/>
  <path class="st213" d="M252.94,579.16c4.35,1.85,9.02,2.52,14,2-.94,3.92-1.61,7.92-2,12-.54,1.62-.87,3.28-1,5-1-3.51-1-7.17,0-11,.21-1.64-.12-3.14-1-4.5-2.33-.67-4.67-.67-7,0-1.9,5.34-3.24,10.84-4,16.5-.83,6.15-1.33,12.49-1.5,19-.1-3.2-.77-6.2-2-9-.46.59-.63,1.26-.5,2-.37,5.12-3.03,7.46-8,7,.07-1.46-.27-2.79-1-4v-25c.67,7.33,1.33,14.67,2,22,1.31,6.47,3.15,6.47,5.5,0,2.49-10.62,4.65-21.28,6.5-32Z"/>
  <path class="st207" d="M276.94,588.16c-2.62,10.54-6.62,20.54-12,30-.83.89-1.83,1.22-3,1v-13c1.03-2.46,1.7-5.13,2-8,.13-1.72.46-3.38,1-5,1.2-3.85,2.53-7.68,4-11.5,6.41-2.23,9.08-.07,8,6.5Z"/>
  <path class="st169" d="M157.94,564.16c-.16,3.68,0,7.35.5,11,2.64,8.11,4.14,16.44,4.5,25-1.52-.01-2.68-.68-3.5-2-5.52-10.39-9.35-21.39-11.5-33,.44-1.57,1.44-2.74,3-3.5,3.11-1.09,5.45-.25,7,2.5Z"/>
  <path class="st69" d="M242.94,577.16c-.77,2.6-1.1,5.26-1,8-.77.76-1.27,1.76-1.5,3-.49-1.29-.66-2.63-.5-4,.17-2.12-.16-4.12-1-6,1.46.07,2.79-.27,4-1Z"/>
  <path class="st0" d="M152.94,591.16v15c-1.46.07-2.79-.27-4-1-2.95-3.93-4.95-8.27-6-13-1.14-3.92-1.97-7.92-2.5-12-.38-.56-.88-.89-1.5-1-.2-3.02-.54-6.02-1-9,2.89-1.02,5.73-1.02,8.5,0,2.02,7.07,4.18,14.07,6.5,21Z"/>
  <path class="st159" d="M134.94,570.16c1.95,5.17,3.28,10.51,4,16,.43,3.28,1.43,6.28,3,9,.73,1.21,1.07,2.54,1,4v6c-1.32.17-2.49-.16-3.5-1-7.84-9.71-12.68-20.71-14.5-33-.13-.88.2-1.54,1-2,3.19-1.36,6.19-1.03,9,1Z"/>
  <path class="st19" d="M138.94,579.16c.62.11,1.12.44,1.5,1,.53,4.08,1.36,8.08,2.5,12-.9.71-1.24,1.71-1,3-1.57-2.72-2.57-5.72-3-9,1.12-2.19,1.12-4.52,0-7Z"/>
  <path class="st208" d="M252.94,579.16c-1.85,10.72-4.01,21.38-6.5,32-2.35,6.47-4.19,6.47-5.5,0-.21-8.7.12-17.37,1-26-.1-2.74.23-5.4,1-8,4.14-3.04,7.48-2.37,10,2Z"/>
  <path class="st204" d="M280.94,583.16h1c-1.25,4.42-2.58,8.75-4,13,.18-4.62,1.18-8.96,3-13Z"/>
  <path class="st169" d="M163.94,579.16c.72.42,1.22,1.08,1.5,2,1.4,6.95,1.73,13.95,1,21-.67.75-1.5,1.09-2.5,1,1.23-7.95,1.23-15.95,0-24Z"/>
  <path class="st41" d="M263.94,587.16c-1,3.83-1,7.49,0,11-.3,2.87-.97,5.54-2,8,.17-.99-.16-1.66-1-2,.21-5.95,1.21-11.61,3-17Z"/>
  <path class="st155" d="M142.94,592.16c1.05,4.73,3.05,9.07,6,13,0,.67-.33,1-1,1,0-.67-.33-1-1-1-.71-.9-1.71-1.24-3-1,.28-1.91-.05-3.58-1-5,.07-1.46-.27-2.79-1-4-.24-1.29.1-2.29,1-3Z"/>
  <path class="st137" d="M239.94,584.16c-.16,1.37.01,2.71.5,4,.23-1.24.73-2.24,1.5-3-.88,8.63-1.21,17.3-1,26-.67-7.33-1.33-14.67-2-22-.28-1.91.05-3.58,1-5Z"/>
  <path class="st207" d="M238.94,590.16v24c-.62-.11-1.12-.44-1.5-1-.17-3.17-.33-6.33-.5-9.5-.19-4.77.48-9.27,2-13.5Z"/>
  <path class="st205" d="M263.94,587.16c-1.79,5.39-2.79,11.05-3,17-.67,3.33-1.33,6.67-2,10-1.42,1.69-2.75,3.52-4,5.5-.95.48-1.95.65-3,.5v-21c.76-5.66,2.1-11.16,4-16.5,2.33-.67,4.67-.67,7,0,.88,1.36,1.21,2.86,1,4.5Z"/>
  <path class="st8" d="M152.94,591.16c.84,1.43,1.84,2.76,3,4-.82,3.81-1.32,7.81-1.5,12-1.36.88-2.86,1.21-4.5,1-1-.33-1.67-1-2-2,.67,0,1-.33,1-1,1.21.73,2.54,1.07,4,1v-15Z"/>
  <path class="st207" d="M155.94,595.16c.06,1.11.39,2.11,1,3-.98,3.46-1.32,7.13-1,11-2.24.29-4.24-.04-6-1,1.64.21,3.14-.12,4.5-1,.18-4.19.68-8.19,1.5-12Z"/>
  <path class="st188" d="M277.94,582.16c.89.61,1.89.94,3,1-1.82,4.04-2.82,8.38-3,13-3.14,9.1-7.47,17.6-13,25.5-2.17.88-3.84.38-5-1.5.67-3.33,1.33-6.67,2-10v9c1.17.22,2.17-.11,3-1,5.38-9.46,9.38-19.46,12-30,.96-1.77,1.3-3.77,1-6Z"/>
  <path class="st186" d="M260.94,604.16c.84.34,1.17,1.01,1,2v4c-.67,3.33-1.33,6.67-2,10v-2c-.33-1.33-.67-2.67-1-4,.67-3.33,1.33-6.67,2-10Z"/>
  <path class="st215" d="M251.94,599.16v21c1.05.15,2.05-.02,3-.5,1.25-1.98,2.58-3.81,4-5.5.33,1.33.67,2.67,1,4-1.76.79-3.09,2.12-4,4-1.22,1.11-2.56,1.28-4,.5-2.33-3.56-3.66-7.39-4-11.5-.13-.74.04-1.41.5-2,1.23,2.8,1.9,5.8,2,9,.17-6.51.67-12.85,1.5-19Z"/>
</svg>