<?xml version="1.0" encoding="UTF-8"?>
<svg id="Layer_1" xmlns="http://www.w3.org/2000/svg" version="1.1" viewBox="0 0 635.82 715.63">
  <!-- Generator: Adobe Illustrator 29.6.1, SVG Export Plug-In . SVG Version: 2.1.1 Build 9)  -->
  <defs>
    <style>
      .st0 {
        fill: #dadcdb;
      }

      .st0, .st1, .st2, .st3, .st4, .st5, .st6, .st7, .st8, .st9, .st10, .st11, .st12, .st13, .st14, .st15, .st16, .st17, .st18, .st19, .st20, .st21, .st22, .st23, .st24, .st25, .st26, .st27, .st28, .st29, .st30, .st31, .st32, .st33, .st34, .st35, .st36, .st37, .st38, .st39, .st40, .st41, .st42, .st43, .st44, .st45, .st46, .st47, .st48, .st49, .st50, .st51, .st52, .st53, .st54, .st55, .st56, .st57, .st58, .st59, .st60, .st61, .st62, .st63, .st64, .st65, .st66, .st67, .st68, .st69, .st70, .st71, .st72, .st73, .st74, .st75, .st76, .st77, .st78, .st79, .st80, .st81, .st82, .st83, .st84, .st85, .st86, .st87, .st88, .st89, .st90, .st91, .st92, .st93, .st94, .st95, .st96, .st97, .st98, .st99, .st100, .st101, .st102, .st103, .st104, .st105, .st106, .st107, .st108, .st109, .st110, .st111, .st112, .st113, .st114, .st115, .st116, .st117, .st118, .st119, .st120, .st121, .st122, .st123, .st124, .st125, .st126, .st127, .st128, .st129, .st130, .st131, .st132, .st133, .st134, .st135, .st136, .st137, .st138, .st139, .st140, .st141, .st142, .st143, .st144, .st145, .st146, .st147, .st148, .st149, .st150, .st151, .st152, .st153, .st154, .st155, .st156, .st157, .st158, .st159, .st160, .st161, .st162, .st163, .st164, .st165, .st166, .st167, .st168, .st169, .st170, .st171 {
        fill-rule: evenodd;
      }

      .st1 {
        fill: #ea759e;
      }

      .st2 {
        fill: #b5b5b4;
      }

      .st3 {
        fill: #974a65;
      }

      .st4 {
        fill: #bcbbbb;
      }

      .st5 {
        fill: #4a4b4a;
      }

      .st6 {
        fill: #bf697f;
      }

      .st7 {
        fill: #ed769f;
      }

      .st8 {
        fill: #d4cbcf;
      }

      .st9 {
        fill: #d2d3d2;
      }

      .st10 {
        fill: #d0d1d1;
      }

      .st11 {
        fill: #633c49;
      }

      .st12 {
        fill: #795663;
      }

      .st13 {
        fill: #b8b9b9;
      }

      .st14 {
        fill: #704352;
      }

      .st15 {
        fill: #3b2d35;
      }

      .st16 {
        fill: #e777a0;
      }

      .st17 {
        fill: #6f4e58;
      }

      .st18 {
        fill: #e76897;
      }

      .st19 {
        fill: #c9cac9;
      }

      .st20 {
        fill: #b6b6b5;
      }

      .st21 {
        fill: #b5acae;
      }

      .st22 {
        fill: #e5759b;
      }

      .st23 {
        fill: #676969;
      }

      .st24 {
        fill: #dd6793;
      }

      .st25 {
        fill: #513b42;
      }

      .st26 {
        fill: #5f5f5f;
      }

      .st27 {
        fill: #6d4855;
      }

      .st28 {
        fill: #70535d;
      }

      .st29 {
        fill: #c46283;
      }

      .st30 {
        fill: #9e9a9c;
      }

      .st31 {
        fill: #b6b6b6;
      }

      .st32 {
        fill: #bc4e78;
      }

      .st33 {
        fill: #6b424f;
      }

      .st34 {
        fill: #5e343b;
      }

      .st35 {
        fill: #d8d8d9;
      }

      .st36 {
        fill: #d75b87;
      }

      .st37 {
        fill: #583842;
      }

      .st38 {
        fill: #be6081;
      }

      .st39 {
        fill: #857076;
      }

      .st40 {
        fill: #656665;
      }

      .st41 {
        fill: #b5b6b6;
      }

      .st42 {
        fill: #9a9295;
      }

      .st43 {
        fill: #565655;
      }

      .st44 {
        fill: #949291;
      }

      .st45 {
        fill: #636263;
      }

      .st46 {
        fill: #653144;
      }

      .st47 {
        fill: #6c4853;
      }

      .st48 {
        fill: #d46d8f;
      }

      .st49 {
        fill: #8f8f8f;
      }

      .st50 {
        fill: #6e6f6e;
      }

      .st51 {
        fill: #9d999a;
      }

      .st52 {
        fill: #686767;
      }

      .st53 {
        fill: #e0799d;
      }

      .st54 {
        fill: #7b314d;
      }

      .st55 {
        fill: #4f2c37;
      }

      .st56 {
        fill: #782b46;
      }

      .st57 {
        fill: #c4c0bf;
      }

      .st58 {
        fill: #613643;
      }

      .st59 {
        fill: #e97390;
      }

      .st60 {
        fill: #c0b9bd;
      }

      .st61 {
        fill: #979393;
      }

      .st62 {
        fill: #a55875;
      }

      .st63 {
        fill: #c9698c;
      }

      .st64 {
        fill: #66404b;
      }

      .st65 {
        fill: #302128;
      }

      .st66 {
        fill: #a05a71;
      }

      .st67 {
        fill: #747576;
      }

      .st68 {
        fill: #65404c;
      }

      .st69 {
        fill: #6e4551;
      }

      .st70 {
        fill: #dc5787;
      }

      .st71 {
        fill: #471d1f;
      }

      .st72 {
        fill: #b1a6ab;
      }

      .st73 {
        fill: #878887;
      }

      .st74 {
        fill: #ababaa;
      }

      .st75 {
        fill: #babab9;
      }

      .st76 {
        fill: #e4749a;
      }

      .st77 {
        fill: #b44c72;
      }

      .st78 {
        fill: #dc5786;
      }

      .st79 {
        fill: #b3afb1;
      }

      .st80 {
        fill: #845364;
      }

      .st81 {
        fill: #ba617f;
      }

      .st82 {
        fill: #bfbfbf;
      }

      .st83 {
        fill: #eee;
      }

      .st84 {
        fill: #50504f;
      }

      .st85 {
        fill: #727273;
      }

      .st86 {
        fill: #605f5f;
      }

      .st87 {
        fill: #b9537a;
      }

      .st88 {
        fill: #cfc9cb;
      }

      .st89 {
        fill: #341e1d;
      }

      .st90 {
        fill: #e3749a;
      }

      .st91 {
        fill: #a79c9e;
      }

      .st92 {
        fill: #bcb6b7;
      }

      .st93 {
        fill: #d0d0d0;
      }

      .st94 {
        fill: #b15e7c;
      }

      .st95 {
        fill: #704956;
      }

      .st96 {
        fill: #7f7075;
      }

      .st97 {
        fill: #dad7dc;
      }

      .st98 {
        fill: #734253;
      }

      .st99 {
        fill: #e4dde0;
      }

      .st100 {
        fill: #444545;
      }

      .st101 {
        fill: #3a1e25;
      }

      .st102 {
        fill: #848585;
      }

      .st103 {
        fill: #663446;
      }

      .st104 {
        fill: #e2739c;
      }

      .st105 {
        fill: #e4e4e5;
      }

      .st106 {
        fill: #e0769a;
      }

      .st107 {
        fill: #c0c1c1;
      }

      .st108 {
        fill: #732c46;
      }

      .st109 {
        fill: #cecfd1;
      }

      .st110 {
        fill: #5e434c;
      }

      .st111 {
        fill: #555;
      }

      .st112 {
        fill: #b8bab9;
      }

      .st113 {
        fill: #b05c79;
      }

      .st114 {
        fill: #d0d1d2;
      }

      .st115 {
        fill: #bca2ab;
      }

      .st116 {
        fill: #88415b;
      }

      .st117 {
        fill: #787878;
      }

      .st118 {
        fill: #96888d;
      }

      .st119 {
        fill: #6b404f;
      }

      .st120 {
        fill: #b4b3b2;
      }

      .st121 {
        fill: #b1abad;
      }

      .st122 {
        fill: #9ea09f;
      }

      .st123 {
        fill: #5f3a46;
      }

      .st124 {
        fill: #9b9596;
      }

      .st125 {
        fill: #e5e2e2;
      }

      .st126 {
        fill: #a35466;
      }

      .st127 {
        fill: #6e4051;
      }

      .st128 {
        fill: #111213;
      }

      .st129 {
        fill: #65444f;
      }

      .st130 {
        fill: #694752;
      }

      .st131 {
        fill: #bbacb1;
      }

      .st132 {
        fill: #c4c4c4;
      }

      .st133 {
        fill: #b4a1a7;
      }

      .st134 {
        fill: #131314;
      }

      .st135 {
        fill: #7d3952;
      }

      .st136 {
        fill: #f0729f;
      }

      .st137 {
        fill: #827c7e;
      }

      .st138 {
        fill: #222;
      }

      .st139 {
        fill: #b1b1b1;
      }

      .st140 {
        fill: #553540;
      }

      .st141 {
        fill: #95898f;
      }

      .st142 {
        fill: #db5786;
      }

      .st143 {
        fill: #7a7c7b;
      }

      .st144 {
        fill: #da5786;
      }

      .st145 {
        fill: #8e8e8d;
      }

      .st146 {
        fill: #7f6a70;
      }

      .st147 {
        fill: #772742;
      }

      .st148 {
        fill: #60605f;
      }

      .st149 {
        fill: #5f2d40;
      }

      .st150 {
        fill: #7d3c52;
      }

      .st151 {
        fill: #e1799e;
      }

      .st152 {
        fill: #99858c;
      }

      .st153 {
        fill: #52333d;
      }

      .st154 {
        fill: #a6949b;
      }

      .st155 {
        fill: #742946;
      }

      .st156 {
        fill: #4e3133;
      }

      .st157 {
        fill: #804155;
      }

      .st158 {
        fill: #744c5b;
      }

      .st159 {
        fill: #ccc;
      }

      .st160 {
        fill: #86878b;
      }

      .st161 {
        fill: #6f4051;
      }

      .st162 {
        fill: #c1c1c0;
      }

      .st163 {
        fill: #d2d2d0;
      }

      .st164 {
        fill: #714552;
      }

      .st165 {
        fill: #404241;
      }

      .st166 {
        fill: #c5c3c2;
      }

      .st167 {
        fill: #782647;
      }

      .st168 {
        fill: #f0739e;
      }

      .st169 {
        fill: #f1739f;
      }

      .st170 {
        fill: #747072;
      }

      .st171 {
        fill: #cecece;
      }
    </style>
  </defs>
  <path class="st57" d="M425.78,200.64c10.36-1.12,20.69-.78,31,1h-20c-3.46-.98-7.13-1.31-11-1Z"/>
  <path class="st55" d="M436.78,201.64h16v1h-23c.22,1.68-.45,2.68-2,3v-4h9Z"/>
  <path class="st66" d="M452.78,202.64c.99-.17,1.66.16,2,1h-23v3c-1.72.13-3.38.46-5,1h-6c2.22-.77,4.55-1.43,7-2,1.55-.32,2.22-1.32,2-3h23Z"/>
  <path class="st69" d="M452.78,202.64v-1h4c5.62.77,11.28,1.43,17,2,5.18.82,10.51,1.48,16,2-.14,2.05.53,3.72,2,5-2.07-.02-4.07-.35-6-1,.14-1.62-.53-2.79-2-3.5-9.77-.24-19.44-1.08-29-2.5-.34-.84-1.01-1.17-2-1Z"/>
  <path class="st72" d="M473.78,203.64c5.4-.23,10.73.1,16,1v1c-5.49-.52-10.82-1.18-16-2Z"/>
  <path class="st169" d="M454.78,203.64c9.56,1.42,19.23,2.26,29,2.5,1.47.71,2.14,1.88,2,3.5-.03,1,.47,1.66,1.5,2,3.4,1.46,6.9,2.46,10.5,3,3.22,3.89,6.89,7.56,11,11v1c.36,1.87,1.36,3.37,3,4.5-3.03,1.07-5.03.07-6-3-.95-.48-1.95-.65-3-.5-.18,3.69,1.49,5.69,5,6,.17,1.32-.16,2.49-1,3.5-3.71.57-7.21,1.74-10.5,3.5-1.77-.73-3.6-1.07-5.5-1-3.18-1.75-6.18-3.75-9-6-3.53-2.11-7.2-4.28-11-6.5-6.85-.3-13.68-.8-20.5-1.5-2.58.43-5.08,1.1-7.5,2-2.42.27-3.09-.4-2-2,1.58-.8,3.24-1.3,5-1.5-4.53-1.23-8.53-.39-12,2.5.83.89,1.83,1.22,3,1,.19,2.46-.81,4.13-3,5-4.67,3.67-9.33,7.33-14,11-3.56.95-6.56,2.62-9,5v-4h-3c-1.7,5.46-2.87,11.12-3.5,17-.91-.83-1.58-1.83-2-3-.5,2.98-.66,5.98-.5,9-.7,3.74-1.7,7.4-3,11v1c-1.54,2.34-2.21,5-2,8-1.95,4.9-2.61,10.23-2,16h-3c1.91-6.16,1.24-12-2-17.5,3.5-4.27,3.66-8.77.5-13.5-2.2,5.39-2.7,10.89-1.5,16.5-1.12,1.74-2.12,3.57-3,5.5,2.49,1.04,2.49,1.87,0,2.5,1.58,6.4,3.74,12.57,6.5,18.5.29-1.54.96-2.88,2-4,.33,2.67.67,5.33,1,8,.48-.95.65-1.95.5-3h3c-.24,1.29.1,2.29,1,3,4.62,5.64,9.62,11.14,15,16.5,11.95,7.47,24.95,12.47,39,15,9.38.23,18.71.39,28,.5-3.63,2.53-7.3,4.86-11,7-14.08,9.81-22.91,23.14-26.5,40-1.36.88-2.86,1.21-4.5,1-1.43,8.18-3.43,16.18-6,24v3c-.96.45-1.79,1.12-2.5,2-2.15,6-3.65,12.33-4.5,19-.69-.53-1.19-1.19-1.5-2-3.2,5.56-5.7,11.39-7.5,17.5,2.32,1.3,3.32,3.3,3,6-1.36,4.1-2.36,8.27-3,12.5v1c-2.4,4.47-5.07,8.8-8,13-.45-1.96-1.45-2.3-3-1-1.51,1.34-2.17,3.01-2,5-3.05,1.21-5.39,3.38-7,6.5-12.35,8-25.69,13.67-40,17-12.42.78-24.75.45-37-1-4.79,2.96-9.12,6.46-13,10.5-7.58,3.68-14.58,8.18-21,13.5-8.09,2.88-15.76,6.54-23,11-14.41,3.93-29.08,4.59-44,2-13.91-4.31-27.25-9.98-40-17-7.27-2.47-14.6-4.64-22-6.5-1.5-1.25-3.17-2.25-5-3-.56-1.41-.9-2.91-1-4.5.78-3.49,1.44-6.99,2-10.5,3.7-11.62,10.36-21.12,20-28.5,3.57-2.45,7.57-3.62,12-3.5,4.89.19,9.56,1.19,14,3-.71.9-1.71,1.24-3,1v4h-3v3c1.43.08,2.76-.25,4-1,2.67,3.01,6.01,5.01,10,6-.88.75-1.88,1.25-3,1.5,2.87,1.46,5.87,1.79,9,1,.75-.67,1.09-1.5,1-2.5,3-3.33,6-6.67,9-10,4.68-5.02,9.02-10.35,13-16,1.91-3.5,3.58-7.17,5-11-1.55-1.3-2.55-.96-3,1-.66-1.8-.99-3.8-1-6,1.46-5.88,2.12-11.88,2-18,2.14-1.22,4.47-2.05,7-2.5-2.04-1.95-2.04-4.11,0-6.5.01-2.11-.65-3.94-2-5.5,1.19-2.43,3.19-3.6,6-3.5-.15-1.05.02-2.05.5-3,2.2-1.15,3.7-2.82,4.5-5,3.43-2.92,6.77-6.08,10-9.5,3.06-1.22,5.72-3.05,8-5.5,4.93-.85,8.93-3.19,12-7,13.9-6.3,27.9-12.3,42-18,.78-3.68-.56-6.18-4-7.5-6.68-2.67-13.34-5.34-20-8-24.44-4.82-48.27-2.98-71.5,5.5-11.05,5.44-21.88,11.27-32.5,17.5-8.14,1.74-16.14,3.57-24,5.5h-3c-3.68-1.85-5.51-4.85-5.5-9-1-1.82-2.16-3.49-3.5-5-.16-2.36,0-4.69.5-7,3.26-2.75,6.09-2.25,8.5,1.5-.33.5-.67,1-1,1.5-1.16-.99-2.33-1.99-3.5-3-.5.33-1,.67-1.5,1,3.33,9.33,6.67,9.33,10,0-.81-1.57-1.14-3.24-1-5-2.73.3-4.4-.86-5-3.5.91-2.79,1.57-5.62,2-8.5,1.17-.22,2.17.11,3,1-1.52,3.24-1.18,6.24,1,9,.82-2.61,1.32-5.27,1.5-8,2.57,1.48,4.74.98,6.5-1.5-.4-3.27-1.4-6.27-3-9,2.11-1.26,3.11-3.1,3-5.5-3.6.24-3.93-.76-1-3,2.03.39,4.36.73,7,1,.14-1.62-.53-2.79-2-3.5-2.06-.31-4.06-.31-6,0,1.16-1.99,2.5-3.83,4-5.5.95-2.12,2.45-3.79,4.5-5,.68-1.28.52-2.45-.5-3.5,1.56-.76,2.56-1.93,3-3.5,11.42-10.5,24.75-17.83,40-22,2.36-.17,4.69-.51,7-1,.08-1.43-.25-2.76-1-4,4.58-.54,8.91-1.54,13-3h1c8.01-.17,16.01,0,24,.5,3.08.53,6.08,1.36,9,2.5,4.34-1.22,8.67-1.22,13,0,12.09,1.27,23.75,3.94,35,8,4.97,1.5,9.81,3.5,14.5,6,.51-1.5,0-2.66-1.5-3.5-1.58-1.09-3.24-1.93-5-2.5-1.41-1.64-1.08-2.97,1-4-1.46-3.25-.46-5.58,3-7,1.23,1.15,1.23,2.32,0,3.5,1.33.67,2.67.67,4,0,1.77-3.27,2.77-6.77,3-10.5,1.48.26,2.81-.07,4-1,1.24-2.23,2.58-4.4,4-6.5-1.41-.37-2.41-1.2-3-2.5,1.39-2.19,2.89-3.52,4.5-4,.07,2.38.9,3.05,2.5,2,1.59-1.67,2.25-3.67,2-6h-3v-4h1c2.16-3.23,4.99-5.9,8.5-8,1.65-2.25,1.82-4.59.5-7,2.3-3.38,5.3-4.72,9-4-.88,1.47-2.21,2.3-4,2.5.91,2.6,2.58,2.93,5,1,.83-4.15,2.66-4.65,5.5-1.5,2.96-1.96,5.63-4.29,8-7,.69-.83.52-1.5-.5-2-3.65,2.08-7.49,3.74-11.5,5-.59-1.63-1.42-3.13-2.5-4.5.33-.5.67-1,1-1.5,4.28.94,6.94-.9,8-5.5,1.29-.49,2.63-.66,4-.5-.97-4.53.86-6.86,5.5-7,1.67,1,3.33,2,5,3,3.9-.41,7.4-1.74,10.5-4-2.1-.95-4.27-.95-6.5,0-2.24-.18-2.74-1.01-1.5-2.5,5.84-1.31,11.51-2.81,17-4.5,1.62-.54,3.28-.87,5-1v-3h23Z"/>
  <path class="st81" d="M485.78,209.64c1.93.65,3.93.98,6,1,2,1.33,4,2.67,6,4-3.6-.54-7.1-1.54-10.5-3-1.03-.34-1.53-1-1.5-2Z"/>
  <path class="st125" d="M489.78,204.64c2.01,4.72,5.51,6.06,10.5,4,1.76.44,1.59.94-.5,1.5,1.33.33,2.67.67,4,1-1.15.91-.99,1.75.5,2.5.72-.95,1.55-1.12,2.5-.5-.95,2.43-.95,4.93,0,7.5-2.11-1.77-3.77-3.94-5-6.5-3.06-2.03-6.4-3.2-10-3.5-1.47-1.28-2.14-2.95-2-5v-1Z"/>
  <path class="st28" d="M425.78,200.64c3.87-.31,7.54.02,11,1h-9v4c-2.45.57-4.78,1.23-7,2-8.57,1.41-16.57,4.24-24,8.5-.67.67-1.33,1.33-2,2,1.33,1,1.33,2,0,3-4.92,1.47-9.25,3.97-13,7.5-.8,1.58-1.3,3.24-1.5,5-2.33,2-4.67,4-7,6-.48.95-.65,1.95-.5,3-1.46.07-2.79-.27-4-1,2.83-2.6,5.5-5.44,8-8.5-1.23-1.18-1.23-2.35,0-3.5,4.16-3.25,8.49-6.25,13-9,.67-1.33,1.33-2.67,2-4,10.31-5.99,21.31-9.99,33-12,.67-.33,1.33-.67,2-1-.63-.92-.96-1.92-1-3Z"/>
  <path class="st64" d="M491.78,210.64c3.6.3,6.94,1.47,10,3.5,1.23,2.56,2.89,4.73,5,6.5.67,1,1.33,2,2,3v2c-4.11-3.44-7.78-7.11-11-11-2-1.33-4-2.67-6-4Z"/>
  <path class="st106" d="M481.78,233.64c-3.93-.81-7.6-2.31-11-4.5-7.14-1.44-14.14-1.61-21-.5-5.47.71-10.81,2.05-16,4,2.19-.87,3.19-2.54,3-5-1.17.22-2.17-.11-3-1,3.47-2.89,7.47-3.73,12-2.5-1.76.2-3.42.7-5,1.5-1.09,1.6-.42,2.27,2,2,2.42-.9,4.92-1.57,7.5-2,6.82.7,13.65,1.2,20.5,1.5,3.8,2.22,7.47,4.39,11,6.5Z"/>
  <path class="st30" d="M460.78,229.64c1.91-.28,3.58.05,5,1-6.7-.16-13.37.17-20,1,.42-.72,1.08-1.22,2-1.5,4.32-.5,8.65-.67,13-.5Z"/>
  <path class="st53" d="M508.78,226.64c4.3,3.11,7.14,7.11,8.5,12-3.07-1.12-6.24-1.28-9.5-.5-3.8,1.99-7.64,3.82-11.5,5.5-2.01-1.18-3.84-2.52-5.5-4,1.9-.07,3.73.27,5.5,1,3.29-1.76,6.79-2.93,10.5-3.5.84-1.01,1.17-2.18,1-3.5-3.51-.31-5.18-2.31-5-6,1.05-.15,2.05.02,3,.5.97,3.07,2.97,4.07,6,3-1.64-1.13-2.64-2.63-3-4.5Z"/>
  <path class="st104" d="M420.78,207.64h6c-5.49,1.69-11.16,3.19-17,4.5-1.24,1.49-.74,2.32,1.5,2.5,2.23-.95,4.4-.95,6.5,0-3.1,2.26-6.6,3.59-10.5,4-1.67-1-3.33-2-5-3-4.64.14-6.47,2.47-5.5,7-1.37-.16-2.71.01-4,.5-1.06,4.6-3.72,6.44-8,5.5-.33.5-.67,1-1,1.5,1.08,1.37,1.91,2.87,2.5,4.5,4.01-1.26,7.85-2.92,11.5-5,1.02.5,1.19,1.17.5,2-2.37,2.71-5.04,5.04-8,7-2.84-3.15-4.67-2.65-5.5,1.5-2.42,1.93-4.09,1.6-5-1,1.79-.2,3.12-1.03,4-2.5-3.7-.72-6.7.62-9,4,1.32,2.41,1.15,4.75-.5,7-3.51,2.1-6.34,4.77-8.5,8,1.36-3.37,2.69-6.71,4-10,2,0,3-1,3-3-.15-1.05.02-2.05.5-3,2.33-2,4.67-4,7-6,.2-1.76.7-3.42,1.5-5,3.75-3.53,8.08-6.03,13-7.5,1.33-1,1.33-2,0-3,.67-.67,1.33-1.33,2-2,7.43-4.26,15.43-7.09,24-8.5Z"/>
  <path class="st17" d="M508.78,223.64c5.05,4.06,9.05,9.06,12,15-1.41.47-2.07,1.47-2,3-3.47-1.76-7.14-2.26-11-1.5-4.05,1.44-7.88,3.27-11.5,5.5-6.43-3.46-12.6-7.3-18.5-11.5-4.12-.86-8.12-2.03-12-3.5-1.42-.95-3.09-1.28-5-1-3.46-.98-7.13-1.31-11-1,6.86-1.11,13.86-.94,21,.5,3.4,2.19,7.07,3.69,11,4.5,2.82,2.25,5.82,4.25,9,6,1.66,1.48,3.49,2.82,5.5,4,3.86-1.68,7.7-3.51,11.5-5.5,3.26-.78,6.43-.62,9.5.5-1.36-4.89-4.2-8.89-8.5-12v-3Z"/>
  <path class="st101" d="M367.78,241.64h1c1.21.73,2.54,1.07,4,1,0,2-1,3-3,3h-1c-.73-1.21-1.07-2.54-1-4Z"/>
  <path class="st8" d="M367.78,241.64c-.07,1.46.27,2.79,1,4-.53,1.73-1.53,3.06-3,4-.16-2.36,0-4.69.5-7,.38-.56.88-.89,1.5-1Z"/>
  <path class="st151" d="M419.78,243.64c-1.96,2.46-4.13,4.8-6.5,7-3.38,6.13-7.21,11.79-11.5,17-.16-3.02,0-6.02.5-9,.42,1.17,1.09,2.17,2,3,.63-5.88,1.8-11.54,3.5-17h3v4c2.44-2.38,5.44-4.05,9-5Z"/>
  <path class="st52" d="M518.12,238.64c4.66,7,7.99,14.66,10,23,.67,7.98,1,15.98,1,24h-1c.32-4.86-.01-9.53-1-14-.49-7.97-2.32-15.64-5.5-23-.99-3.14-2.82-5.47-5.5-7-.07-1.53.59-2.53,2-3Z"/>
  <path class="st110" d="M449.78,228.64c3.87-.31,7.54.02,11,1-4.35-.17-8.68,0-13,.5-.92.28-1.58.78-2,1.5-12.35,3.15-22.51,9.82-30.5,20-6.14,7.95-10.97,16.62-14.5,26-.67.33-1.33.67-2,1,1.3-3.6,2.3-7.26,3-11,4.29-5.21,8.12-10.87,11.5-17,2.37-2.2,4.54-4.54,6.5-7,4.67-3.67,9.33-7.33,14-11,5.19-1.95,10.53-3.29,16-4Z"/>
  <path class="st100" d="M469.78,266.64c.19,4.07-.14,8.07-1,12-3.93,7.39-10.09,11.72-18.5,13-17.79-.9-33.29,4.43-46.5,16-1.91,1.57-2.91,3.57-3,6h-1c-.08-2.71-.41-5.37-1-8,.65.59,1.32,1.26,2,2,14.21-12.56,30.88-18.73,50-18.5,12.64-1.8,18.14-8.96,16.5-21.5-.71-1.58-1.54-3.08-2.5-4.5-8.53-4.8-17.53-5.8-27-3-5.57,1.78-10.9,4.12-16,7-7.72,5.52-15.39,11.02-23,16.5v-5c.67-.33,1.33-.67,2-1-.13.88.2,1.54,1,2,11.53-11.94,25.53-19.44,42-22.5,10.85-2.3,19.52.86,26,9.5Z"/>
  <path class="st67" d="M398.78,305.64v-22c7.61-5.48,15.28-10.98,23-16.5,5.1-2.88,10.43-5.22,16-7,9.47-2.8,18.47-1.8,27,3,.96,1.42,1.79,2.92,2.5,4.5,1.64,12.54-3.86,19.7-16.5,21.5-19.12-.23-35.79,5.94-50,18.5-.68-.74-1.35-1.41-2-2Z"/>
  <path class="st139" d="M528.12,261.64c1.49,4.58,2.16,9.41,2,14.5,0,3.35-.34,6.52-1,9.5,0-8.02-.33-16.02-1-24Z"/>
  <path class="st138" d="M499.78,278.64c5.34.65,9.67,2.99,13,7,1.15,3.1.82,6.1-1,9-5.72,4.24-12.05,5.08-19,2.5-2.71-2.64-5.05-5.47-7-8.5-.49-3.26.51-5.92,3-8,3.49-1.59,7.16-2.26,11-2Z"/>
  <path class="st121" d="M257.78,281.64c-6.43,1.63-13.09,2.29-20,2,6.48-1.1,13.15-1.76,20-2Z"/>
  <path class="st164" d="M257.78,281.64h25c6.14,1.4,12.47,2.4,19,3,2.22.87,4.55,1.2,7,1,3.01,1.78,6.34,2.78,10,3,2.02,1.42,4.35,2.09,7,2,2.53,1.14,5.19,1.81,8,2,.67.33,1.33.67,2,1h2c.11.62.44,1.12,1,1.5-1.29.49-2.63.66-4,.5-11.25-4.06-22.91-6.73-35-8-6.68-2.21-13.68-3.38-21-3.5-8.51-.82-16.84-.66-25,.5h-1c-5.69.39-11.36,1.06-17,2,.76,1.22,1.76,2.22,3,3-.46.8-1.12,1.13-2,1-1.28-.28-2.28-.95-3-2-1.07-.75-1.24-1.75-.5-3,1.62-.6,3.12-1.27,4.5-2,6.91.29,13.57-.37,20-2Z"/>
  <path class="st166" d="M282.78,281.64c5.7.1,11.36.6,17,1.5.92.28,1.58.78,2,1.5-6.53-.6-12.86-1.6-19-3Z"/>
  <path class="st158" d="M368.78,245.64h1c-1.31,3.29-2.64,6.63-4,10h-1c-3.26,4.43-6.76,8.77-10.5,13-.33,1.67-.67,3.33-1,5-5.35,7.18-11.18,13.84-17.5,20-.67-.33-1.33-.67-2-1,1.67-2,3.33-4,5-6,4.3-3.47,8.14-7.47,11.5-12,.2-1.71.2-3.37,0-5,6.15-5.97,11.31-12.64,15.5-20,1.47-.94,2.47-2.27,3-4Z"/>
  <path class="st16" d="M364.78,255.64v4h3c.25,2.33-.41,4.33-2,6-1.6,1.05-2.43.38-2.5-2-1.61.48-3.11,1.81-4.5,4,.59,1.3,1.59,2.13,3,2.5-1.42,2.1-2.76,4.27-4,6.5-1.19.93-2.52,1.26-4,1-.23,3.73-1.23,7.23-3,10.5-1.33.67-2.67.67-4,0,1.23-1.18,1.23-2.35,0-3.5-3.46,1.42-4.46,3.75-3,7-2.08,1.03-2.41,2.36-1,4-1.67-.67-3.33-1.33-5-2h-2c6.32-6.16,12.15-12.82,17.5-20,.33-1.67.67-3.33,1-5,3.74-4.23,7.24-8.57,10.5-13Z"/>
  <path class="st48" d="M253.78,284.64c8.16-1.16,16.49-1.32,25-.5,7.32.12,14.32,1.29,21,3.5-4.33-1.22-8.66-1.22-13,0-2.92-1.14-5.92-1.97-9-2.5-7.99-.5-15.99-.67-24-.5Z"/>
  <path class="st21" d="M308.78,285.64c3.66.22,6.99,1.22,10,3-3.66-.22-6.99-1.22-10-3Z"/>
  <path class="st63" d="M252.78,284.64c-4.09,1.46-8.42,2.46-13,3,.75,1.24,1.08,2.57,1,4-2.31.49-4.64.83-7,1,1-.67,2-1.33,3-2,.88.13,1.54-.2,2-1-1.24-.78-2.24-1.78-3-3,5.64-.94,11.31-1.61,17-2Z"/>
  <path class="st99" d="M338.78,286.64c-1.67,2-3.33,4-5,6-2.81-.19-5.47-.86-8-2v-1c2.64-1.32,5.3-1.32,8,0,.92-2.26,2.59-3.26,5-3Z"/>
  <path class="st51" d="M318.78,288.64c2.36.17,4.69.51,7,1v1c-2.65.09-4.98-.58-7-2Z"/>
  <path class="st22" d="M396.78,287.64c-.24,8.76.42,17.43,2,26,.65,1.94.98,3.94,1,6-.9-.71-1.24-1.71-1-3h-3c.15,1.05-.02,2.05-.5,3-.33-2.67-.67-5.33-1-8-1.04,1.12-1.71,2.46-2,4-2.76-5.93-4.92-12.1-6.5-18.5,2.49-.63,2.49-1.46,0-2.5.88-1.93,1.88-3.76,3-5.5-1.2-5.61-.7-11.11,1.5-16.5,3.16,4.73,3,9.23-.5,13.5,3.24,5.5,3.91,11.34,2,17.5h3c-.61-5.77.05-11.1,2-16Z"/>
  <path class="st93" d="M465.78,230.64c3.88,1.47,7.88,2.64,12,3.5,5.9,4.2,12.07,8.04,18.5,11.5,3.62-2.23,7.45-4.06,11.5-5.5,3.86-.76,7.53-.26,11,1.5,2.68,1.53,4.51,3.86,5.5,7,3.18,7.36,5.01,15.03,5.5,23-4.85-1.9-9.02-.9-12.5,3-1.28,3.99-2.78,7.66-4.5,11-3.33-4.01-7.66-6.35-13-7-2.47-1.13-5.13-1.3-8-.5-11.86,2.43-22.53,7.27-32,14.5-.08,4.4.42,8.73,1.5,13,.38.56.88.89,1.5,1,2.25,9.25,7.92,15.25,17,18,5.58,1.73,10.92.9,16-2.5,5.2-5.04,10.2-10.2,15-15.5,3.89-2.1,6.06-5.44,6.5-10,2.33,3,4.67,6,7,9,.49,2.05.32,4.05-.5,6-3.81,5.6-7.64,11.27-11.5,17-4.78,3.77-9.28,7.94-13.5,12.5-5.04,4.15-10.71,6.65-17,7.5h-7c-9.39-.01-18.73-.68-28-2-15.87-2.18-29.04-9.18-39.5-21-2.91-3.71-5.08-7.71-6.5-12,.09-2.43,1.09-4.43,3-6,13.21-11.57,28.71-16.9,46.5-16,8.41-1.28,14.57-5.61,18.5-13,.62-.11,1.12-.44,1.5-1,.81-3.86.64-7.52-.5-11-6.48-8.64-15.15-11.8-26-9.5-16.47,3.06-30.47,10.56-42,22.5-.8-.46-1.13-1.12-1-2,3.53-9.38,8.36-18.05,14.5-26,7.99-10.18,18.15-16.85,30.5-20,6.63-.83,13.3-1.16,20-1Z"/>
  <path class="st134" d="M440.78,269.64c2.69,1.16,5.02,3,7,5.5,4.72,1.38,8.72.38,12-3,.95-.48,1.95-.65,3-.5.17,3.67-1.49,6.17-5,7.5-4.46.87-8.79.53-13-1-2.82-2.14-4.15-4.97-4-8.5Z"/>
  <path class="st102" d="M469.78,266.64c1.14,3.48,1.31,7.14.5,11-.38.56-.88.89-1.5,1,.86-3.93,1.19-7.93,1-12Z"/>
  <path class="st50" d="M485.78,288.64c1.95,3.03,4.29,5.86,7,8.5,6.95,2.58,13.28,1.74,19-2.5,2.36,2.18,2.69,4.85,1,8-2.93.98-5.93,1.32-9,1-8.05.22-16.05-.28-24-1.5-3.17-.32-5.83-1.49-8-3.5,1.32.32,2.65.65,4,1,1.02-1.51,3.02-2.51,6-3,.92-2.29.92-4.62,0-7-5.16-1.31-5.16-1.81,0-1.5,1.2.9,2.03,2.07,2.5,3.5.23-1.24.73-2.24,1.5-3Z"/>
  <path class="st73" d="M230.78,290.64c-1.53,1.75-3.53,2.75-6,3,1.53-1.75,3.53-2.75,6-3Z"/>
  <path class="st112" d="M566.12,284.64c.67,2,1.33,4,2,6-.28.79-.78,1.46-1.5,2-.5-2.65-.66-5.31-.5-8Z"/>
  <path class="st117" d="M499.78,278.64c-3.84-.26-7.51.41-11,2-2.49,2.08-3.49,4.74-3,8-.77.76-1.27,1.76-1.5,3-.47-1.43-1.3-2.6-2.5-3.5-5.16-.31-5.16.19,0,1.5.92,2.38.92,4.71,0,7-2.98.49-4.98,1.49-6,3-1.35-.35-2.68-.68-4-1-3.75-.44-6.75-2.11-9-5-.71-.9-1.71-1.24-3-1,9.47-7.23,20.14-12.07,32-14.5,2.87-.8,5.53-.63,8,.5Z"/>
  <path class="st25" d="M398.78,279.64v26c.59,2.63.92,5.29,1,8h-1c-1.58-8.57-2.24-17.24-2-26-.21-3,.46-5.66,2-8Z"/>
  <path class="st12" d="M233.78,288.64c.72,1.05,1.72,1.72,3,2-1,.67-2,1.33-3,2-15.25,4.17-28.58,11.5-40,22-2.69.69-4.36,2.36-5,5-.89-.61-1.89-.94-3-1,1.46-1.96,3.13-3.8,5-5.5,6.35-3.84,12.35-8.18,18-13,5.49-2.04,10.82-4.21,16-6.5,2.47-.25,4.47-1.25,6-3,1.21-.43,2.21-1.1,3-2Z"/>
  <path class="st162" d="M557.12,319.64c-1.55,1.87-3.55,2.87-6,3-1.85.16-3.19-.51-4-2v-6c2.55-10.43,7.22-19.76,14-28,.82-.89,1.82-1.22,3-1-1.54,11.58-3.87,22.91-7,34Z"/>
  <path class="st54" d="M337.78,293.64c1.67.67,3.33,1.33,5,2,1.76.57,3.42,1.41,5,2.5,1.51.84,2.01,2,1.5,3.5-4.69-2.5-9.53-4.5-14.5-6,1.37.16,2.71-.01,4-.5-.56-.38-.89-.88-1-1.5Z"/>
  <path class="st132" d="M528.12,285.64h1c.17,4.01,0,8.01-.5,12-.28.92-.78,1.58-1.5,2,.73-4.63,1.06-9.3,1-14Z"/>
  <path class="st156" d="M459.78,292.64c1.29-.24,2.29.1,3,1-1.15.29-1.82,1.12-2,2.5,0,3.15.66,3.32,2,.5,2.76,1.38,5.42,2.71,8,4-2.32-.27-4.32.4-6,2-.67-.33-1.33-.67-2-1-1.28,1.11-1.28,2.11,0,3v2c-.62-.11-1.12-.44-1.5-1-1.08-4.27-1.58-8.6-1.5-13Z"/>
  <path class="st111" d="M527.12,271.64c.99,4.47,1.32,9.14,1,14,.06,4.7-.27,9.37-1,14-1.38,4.43-3.05,8.77-5,13-.67,0-1-.33-1-1,.82-1.95.99-3.95.5-6-2.33-3-4.67-6-7-9-.44,4.56-2.61,7.9-6.5,10-2.01-1.58-4.34-2.58-7-3,3.07.32,6.07-.02,9-1,1.69-3.15,1.36-5.82-1-8,1.82-2.9,2.15-5.9,1-9,1.72-3.34,3.22-7.01,4.5-11,3.48-3.9,7.65-4.9,12.5-3Z"/>
  <path class="st128" d="M526.12,281.64c2.11,7.5-.56,10.5-8,9-2.47-3.48-2.63-7.15-.5-11,3.39-1.56,6.23-.89,8.5,2Z"/>
  <path class="st160" d="M519.12,280.64h3v3c-3.07.38-4.07-.62-3-3Z"/>
  <path class="st67" d="M526.12,281.64c-2.27-2.89-5.11-3.56-8.5-2-2.13,3.85-1.97,7.52.5,11,.11.62.44,1.12,1,1.5,1.97.5,3.97.66,6,.5-.38,3.52-1.38,6.86-3,10-1.89-1.35-3.39-3.02-4.5-5-1.77-4.06-2.94-8.23-3.5-12.5-.04-8.48,3.96-11.98,12-10.5,1.3,2.47,1.3,4.81,0,7Z"/>
  <path class="st89" d="M462.78,293.64c2.25,2.89,5.25,4.56,9,5,2.17,2.01,4.83,3.18,8,3.5,7.95,1.22,15.95,1.72,24,1.5,2.66.42,4.99,1.42,7,3-4.8,5.3-9.8,10.46-15,15.5-5.08,3.4-10.42,4.23-16,2.5v-1h7c5.39-.54,9.06-3.2,11-8,1.32.17,2.49-.16,3.5-1,1.45-2.59,2.61-5.26,3.5-8-5.22-.49-10.39-.49-15.5,0-6.39-1.7-12.56-3.7-18.5-6-2.58-1.29-5.24-2.62-8-4-1.34,2.82-2.01,2.65-2-.5.18-1.38.85-2.21,2-2.5Z"/>
  <path class="st126" d="M476.78,309.64c-4.06-1.48-8.06-3.15-12-5-.8.46-1.13,1.12-1,2h-1v-2c2.01-1.19,4.18-1.19,6.5,0,2.78,1.4,5.28,3.07,7.5,5Z"/>
  <path class="st71" d="M470.78,300.64c5.94,2.3,12.11,4.3,18.5,6,5.11-.49,10.28-.49,15.5,0-.89,2.74-2.05,5.41-3.5,8-1.01.84-2.18,1.17-3.5,1-1.94,4.8-5.61,7.46-11,8-.09-4.18-1.76-7.52-5-10-1.08-2.04-2.75-3.38-5-4-2.22-1.93-4.72-3.6-7.5-5-2.32-1.19-4.49-1.19-6.5,0-1.28-.89-1.28-1.89,0-3,.67.33,1.33.67,2,1,1.68-1.6,3.68-2.27,6-2Z"/>
  <path class="st107" d="M578.12,327.64c-1.4,2.13-3.24,3.8-5.5,5-2.53-.37-4.37-1.7-5.5-4,2.11-9.84,4.95-19.51,8.5-29,4.05-8.11,6.22-7.44,6.5,2-.39,8.83-1.72,17.5-4,26Z"/>
  <path class="st2" d="M575.12,296.64c-3.04,8.86-6.37,17.52-10,26-2.28-.48-4.28-1.48-6-3,1.17-6.22,2.84-12.22,5-18-.25,2.5-.58,5-1,7.5.56,4.28,1.23,4.44,2,.5h4c-.11-2.55.55-4.88,2-7-.17-.33-.33-.67-.5-1-.91.83-1.58,1.83-2,3-.82-3.67.68-5.33,4.5-5-.21-1.68.45-2.68,2-3Z"/>
  <path class="st82" d="M584.12,294.64c.66,2.81,1,5.81,1,9,.22,4.3-.44,8.3-2,12,.84-6.96,1.17-13.96,1-21Z"/>
  <path class="st59" d="M476.78,309.64c2.25.62,3.92,1.96,5,4,1.11,1.81,1.78,3.81,2,6-.33,1-.67,2-1,3-1.57-.81-3.24-1.14-5-1-6.73-3.07-11.4-8.07-14-15-.13-.88.2-1.54,1-2,3.94,1.85,7.94,3.52,12,5Z"/>
  <path class="st148" d="M566.12,284.64c-.16,2.69,0,5.35.5,8,.72-.54,1.22-1.21,1.5-2,1.68-4.06,4.68-5.56,9-4.5.75,1.73,1.25,3.57,1.5,5.5,2.75-1.07,4.58-.07,5.5,3,.17,7.04-.16,14.04-1,21-.65,1.94-.98,3.94-1,6-1.66,1.94-2.33,4.27-2,7-.67-.33-1.33-.67-2-1,2.28-8.5,3.61-17.17,4-26-.28-9.44-2.45-10.11-6.5-2-3.55,9.49-6.39,19.16-8.5,29-.79-1.87-1.45-3.87-2-6,3.63-8.48,6.96-17.14,10-26,.32-3.07-.02-6.07-1-9-4.49,3.83-7.82,8.49-10,14-2.16,5.78-3.83,11.78-5,18h-2c3.13-11.09,5.46-22.42,7-34-1.18-.22-2.18.11-3,1-6.78,8.24-11.45,17.57-14,28h-1c.24-1.29-.1-2.29-1-3,3.13-10.43,8.47-19.6,16-27.5,1.89-.78,3.55-.61,5,.5Z"/>
  <path class="st19" d="M575.12,296.64c-1.55.32-2.21,1.32-2,3-3.82-.33-5.32,1.33-4.5,5,.42-1.17,1.09-2.17,2-3,.17.33.33.67.5,1-1.45,2.12-2.11,4.45-2,7h-4c-.77,3.94-1.44,3.78-2-.5.42-2.5.75-5,1-7.5,2.18-5.51,5.51-10.17,10-14,.98,2.93,1.32,5.93,1,9Z"/>
  <path class="st91" d="M546.12,314.64h1v6c-1.45-.63-2.11-1.8-2-3.5.03-1.07.36-1.9,1-2.5Z"/>
  <path class="st15" d="M185.78,318.64c1.11.06,2.11.39,3,1,.74-.13,1.41.04,2,.5-.97,1.48-2.3,2.31-4,2.5,0-.67-.33-1-1-1-.84-.34-1.17-1.01-1-2,0-.67.33-1,1-1Z"/>
  <path class="st62" d="M193.78,314.64c-.44,1.57-1.44,2.74-3,3.5,1.02,1.05,1.18,2.22.5,3.5-2.05,1.21-3.55,2.88-4.5,5h-2c1.1-1.1,1.77-2.44,2-4,1.7-.19,3.03-1.02,4-2.5-.59-.46-1.26-.63-2-.5.64-2.64,2.31-4.31,5-5Z"/>
  <path class="st34" d="M462.78,306.64h1c2.6,6.93,7.27,11.93,14,15,.67.67,1.33,1.33,2,2v1c-9.08-2.75-14.75-8.75-17-18Z"/>
  <path class="st97" d="M184.78,319.64c-.17.99.16,1.66,1,2-1.93,3.6-4.6,6.6-8,9v-4c1.05.15,2.05-.02,3-.5-.33-.33-.67-.67-1-1,1.75-1.89,3.42-3.72,5-5.5Z"/>
  <path class="st58" d="M545.12,311.64c.9.71,1.24,1.71,1,3-.64.6-.97,1.43-1,2.5-.11,1.7.55,2.87,2,3.5.81,1.49,2.15,2.16,4,2,2.45-.13,4.45-1.13,6-3h2c1.72,1.52,3.72,2.52,6,3,.55,2.13,1.21,4.13,2,6,1.13,2.3,2.97,3.63,5.5,4,2.26-1.2,4.1-2.87,5.5-5,.67.33,1.33.67,2,1v2c-2.27,1.92-4.94,2.92-8,3-3.34.3-5.68-1.03-7-4,.86-3.66-.47-5.83-4-6.5-3.51.05-7.01.55-10.5,1.5-1.56-.1-3.06-.44-4.5-1-1.63-2.77-2.3-5.77-2-9,.06-1.11.39-2.11,1-3Z"/>
  <path class="st4" d="M582.12,321.64c-.46,2.98-.8,5.98-1,9h-1v-2c-.33-2.73.34-5.06,2-7Z"/>
  <path class="st168" d="M546.78,314.64c-.3,3.23.37,6.23,2,9,1.44.56,2.94.9,4.5,1,3.49-.95,6.99-1.45,10.5-1.5,3.53.67,4.86,2.84,4,6.5-.18,2.48.82,4.31,3,5.5,3.62.97,6.95.47,10-1.5,1,5.96,1.33,11.96,1,18h-3c-.91,5.23-3.08,9.9-6.5,14-2.23,4.46-3.9,9.13-5,14-8.26,9.47-16.76,18.81-25.5,28-2.69.52-4.69,2.02-6,4.5-3.59,2.46-7.59,3.79-12,4-1.73,1.73-3.73,3.06-6,4-17.82,6.16-33.32,2.66-46.5-10.5-1.55-2.81-2.38-5.81-2.5-9h-3c-2.82-13.35-1.15-26.01,5-38,4.44-.61,8.77-1.28,13-2,2.1-1.11,4.43-1.78,7-2,2.34-1.57,4.34-1.23,6,1,1.24-.44,2.24-1.11,3-2,5.21-2.7,9.71-6.36,13.5-11,7.04-7.54,13.54-15.54,19.5-24,4.4-3.2,9.06-5.86,14-8Z"/>
  <path class="st29" d="M565.12,329.64c1.32,2.97,3.66,4.3,7,4,3.06-.08,5.73-1.08,8-3v21h-1c.33-6.04,0-12.04-1-18-3.05,1.97-6.38,2.47-10,1.5-2.18-1.19-3.18-3.02-3-5.5Z"/>
  <path class="st45" d="M523.78,311.64c0,.67.33,1,1,1-.61.89-.94,1.89-1,3-8.99,13.98-20.65,25.32-35,34-2.11-.97-4.44-1.3-7-1,6.29-.85,11.96-3.35,17-7.5,4.22-4.56,8.72-8.73,13.5-12.5,3.86-5.73,7.69-11.4,11.5-17Z"/>
  <path class="st146" d="M580.12,330.64h1c.67,3.65,1,7.48,1,11.5.16,6.07-.51,11.91-2,17.5v-29Z"/>
  <path class="st7" d="M184.78,326.64h2c-1.5,1.67-2.84,3.51-4,5.5,1.94-.31,3.94-.31,6,0,1.47.71,2.14,1.88,2,3.5-2.64-.27-4.97-.61-7-1-2.93,2.24-2.6,3.24,1,3,.11,2.4-.89,4.24-3,5.5,1.6,2.73,2.6,5.73,3,9-1.76,2.48-3.93,2.98-6.5,1.5-.18,2.73-.68,5.39-1.5,8-2.18-2.76-2.52-5.76-1-9-.83-.89-1.83-1.22-3-1-.43,2.88-1.09,5.71-2,8.5.6,2.64,2.27,3.8,5,3.5-.14,1.76.19,3.43,1,5-3.33,9.33-6.67,9.33-10,0,.5-.33,1-.67,1.5-1,1.17,1.01,2.34,2.01,3.5,3,.33-.5.67-1,1-1.5-2.41-3.75-5.24-4.25-8.5-1.5-.5,2.31-.66,4.64-.5,7h-5c.19-8.05,2.03-15.71,5.5-23,3-4.33,6-8.67,9-13,4.01-3.84,7.84-7.84,11.5-12Z"/>
  <path class="st130" d="M547.78,311.64c-.61.89-.94,1.89-1,3-4.94,2.14-9.6,4.8-14,8-5.96,8.46-12.46,16.46-19.5,24-3.79,4.64-8.29,8.3-13.5,11-3.25-2.48-6.25-2.15-9,1-2.57.22-4.9.89-7,2h-4c-2.34-.51-4.51-1.51-6.5-3-.67.75-1.5,1.09-2.5,1,3.7-2.14,7.37-4.47,11-7-9.29-.11-18.62-.27-28-.5-14.05-2.53-27.05-7.53-39-15-5.38-5.36-10.38-10.86-15-16.5-.02-2.06-.35-4.06-1-6h2c1.42,4.29,3.59,8.29,6.5,12,10.46,11.82,23.63,18.82,39.5,21,9.2,2.89,18.53,3.56,28,2h7c2.56-.3,4.89.03,7,1-4.27,2.81-8.6,5.64-13,8.5,4.74.73,9.41.39,14-1,3.21-2.1,6.54-3.93,10-5.5.75.88,1.25,1.88,1.5,3,8.75-6.75,16.08-14.75,22-24,4.18-4.41,8.35-8.74,12.5-13,3.77-2.43,7.77-4.43,12-6Z"/>
  <path class="st61" d="M446.78,346.64c9.27,1.32,18.61,1.99,28,2-9.47,1.56-18.8.89-28-2Z"/>
  <path class="st83" d="M523.78,315.64c-.59,2.34-1.59,4.51-3,6.5,2.4.63,4.24-.2,5.5-2.5.33.67.67,1.33,1,2,2.7-1.77,5.53-3.1,8.5-4-4.15,4.26-8.32,8.59-12.5,13-5.92,9.25-13.25,17.25-22,24-.25-1.12-.75-2.12-1.5-3-3.46,1.57-6.79,3.4-10,5.5-4.59,1.39-9.26,1.73-14,1,4.4-2.86,8.73-5.69,13-8.5,14.35-8.68,26.01-20.02,35-34Z"/>
  <path class="st6" d="M481.78,313.64c3.24,2.48,4.91,5.82,5,10h-7c-.67-.67-1.33-1.33-2-2,1.76-.14,3.43.19,5,1,.33-1,.67-2,1-3-.22-2.19-.89-4.19-2-6Z"/>
  <path class="st3" d="M499.78,357.64c-.76.89-1.76,1.56-3,2-1.66-2.23-3.66-2.57-6-1,2.75-3.15,5.75-3.48,9-1Z"/>
  <path class="st78" d="M255.78,415.64c-1.68.21-2.68-.45-3-2,0-.67.33-1,1-1,3.2-2.04,4.87-5.04,5-9,1.33-.67,2.33-1.67,3-3,1.19-.93,2.52-1.26,4-1,.13-3.79.8-7.45,2-11,3.75-3.74,7.08-7.74,10-12,1.75-1.16,2.75-2.83,3-5,4.75-.64,9.59-.97,14.5-1,9.95.2,19.78,1.03,29.5,2.5-.67-.67-1.33-1.33-2-2-13.84-3.04-27.84-4.21-42-3.5-5.3.23-10.47,1.23-15.5,3-2.52-2.32-5.02-2.32-7.5,0-5.02,2.49-9.68,5.66-14,9.5-1.53,1.01-3.19,1.51-5,1.5.22-1.18-.11-2.18-1-3-1.82,1.25-3.82,1.91-6,2,.22,1.18-.11,2.18-1,3-2.7,1.24-5.03,2.91-7,5-5.09,1.71-9.75,4.21-14,7.5-3.95,1.48-7.95,2.65-12,3.5-1.6-.27-2.93.07-4,1h-6c.16-2.69,0-5.35-.5-8-.71-.88-1.54-1.55-2.5-2-2.8-1.43-5.8-2.09-9-2,7.86-1.93,15.86-3.76,24-5.5,10.62-6.23,21.45-12.06,32.5-17.5,23.23-8.48,47.06-10.32,71.5-5.5,6.66,2.66,13.32,5.33,20,8,3.44,1.32,4.78,3.82,4,7.5-14.1,5.7-28.1,11.7-42,18-3.07,3.81-7.07,6.15-12,7-2.28,2.45-4.94,4.28-8,5.5-3.23,3.42-6.57,6.58-10,9.5Z"/>
  <path class="st113" d="M479.78,360.64h4c-4.23.72-8.56,1.39-13,2h-1c.11-.62.44-1.12,1-1.5,2.98-.5,5.98-.66,9-.5Z"/>
  <path class="st36" d="M579.12,351.64c-2.4,10.94-5.4,21.61-9,32-.88-.13-1.54.2-2,1-7.21,13.86-16.87,25.52-29,35,1.19.93,2.52,1.26,4,1,.22,1.18-.11,2.18-1,3-3.02,2.03-6.02,4.03-9,6,.67-1.52,1.67-2.86,3-4-1-.67-2-1.33-3-2,3.52-1.61,4.85-4.11,4-7.5,1.98-.61,2.31-1.61,1-3,1.05-.49,2.05-.33,3,.5,1.4-1.6,3.07-2.94,5-4-1.14-.93-1.14-1.76,0-2.5-2.08-.53-3.92-.03-5.5,1.5-.76-.07-1.26-.4-1.5-1,8.74-9.19,17.24-18.53,25.5-28,1.1-4.87,2.77-9.54,5-14,3.42-4.1,5.59-8.77,6.5-14h3Z"/>
  <path class="st167" d="M280.78,367.64c14.16-.71,28.16.46,42,3.5.67.67,1.33,1.33,2,2-9.72-1.47-19.55-2.3-29.5-2.5-4.91.03-9.75.36-14.5,1v-4Z"/>
  <path class="st135" d="M280.78,367.64v4c-.25,2.17-1.25,3.84-3,5,.99-1.83.99-3.5,0-5-2.23-1.26-4.56-1.26-7,0-1.62.54-3.28.87-5,1-2.67-.67-5.33-1.33-8-2,2.48-2.32,4.98-2.32,7.5,0,5.03-1.77,10.2-2.77,15.5-3Z"/>
  <path class="st131" d="M270.78,371.64c-2.12,2.15-4.78,3.15-8,3,1-.67,2-1.33,3-2,1.72-.13,3.38-.46,5-1Z"/>
  <path class="st118" d="M262.78,374.64c-2.13.6-4.46.6-7,0,.76-.89,1.76-1.56,3-2,1.12,1.13,2.46,1.8,4,2Z"/>
  <path class="st123" d="M579.12,351.64h1v8c-2.28,6.59-4.62,13.26-7,20-1,1.33-2,2.67-3,4,3.6-10.39,6.6-21.06,9-32Z"/>
  <path class="st27" d="M185.78,321.64c.67,0,1,.33,1,1-.23,1.56-.9,2.9-2,4-3.66,4.16-7.49,8.16-11.5,12-3,4.33-6,8.67-9,13-3.47,7.29-5.31,14.95-5.5,23h5c1.34,1.51,2.5,3.18,3.5,5-.01,4.15,1.82,7.15,5.5,9v2h-1c-1.64-.97-2.97-2.31-4-4-1.4-2.19-2.4-4.53-3-7-.67-1.33-1.67-2.33-3-3-1.07-.93-2.4-1.27-4-1v-11c.54-4.17,1.71-8.17,3.5-12,4.56-8.06,10.06-15.39,16.5-22,3.4-2.4,6.07-5.4,8-9Z"/>
  <path class="st161" d="M277.78,371.64c.99,1.5.99,3.17,0,5-2.92,4.26-6.25,8.26-10,12-2.88,2.24-4.55,5.24-5,9-1.12,1.13-2.46,1.8-4,2,.35-1.98.69-3.98,1-6,7.15-6.48,13.15-13.81,18-22Z"/>
  <path class="st103" d="M257.78,370.64c2.67.67,5.33,1.33,8,2-1,.67-2,1.33-3,2-1.54-.2-2.88-.87-4-2-1.24.44-2.24,1.11-3,2-3.59,1.6-6.93,3.6-10,6-2.14,2.47-4.81,4.13-8,5-1.17-.42-2.17-1.09-3-2-3.22,1.44-6.22,3.1-9,5h-2c1.97-2.09,4.3-3.76,7-5,.89-.82,1.22-1.82,1-3,2.18-.09,4.18-.75,6-2,.89.82,1.22,1.82,1,3,1.81.01,3.47-.49,5-1.5,4.32-3.84,8.98-7.01,14-9.5Z"/>
  <path class="st108" d="M479.78,360.64c-3.02-.16-6.02,0-9,.5-.56.38-.89.88-1,1.5-5.99,4.83-11.16,10.5-15.5,17-3.74,8.91-7.24,17.91-10.5,27-1.32-.17-2.49.16-3.5,1-2.9,7.74-4.4,15.74-4.5,24-.67-2.67-1.33-5.33-2-8,2.57-7.82,4.57-15.82,6-24,1.64.21,3.14-.12,4.5-1,3.59-16.86,12.42-30.19,26.5-40,1,.09,1.83-.25,2.5-1,1.99,1.49,4.16,2.49,6.5,3Z"/>
  <path class="st26" d="M157.78,364.64v11c1.6-.27,2.93.07,4,1-1.37-.16-2.71.01-4,.5-4.66,6-8.5,12.5-11.5,19.5-1.9,4.82-2.73,9.82-2.5,15,1.89.2,3.39-.46,4.5-2,4.52-8.52,9.85-16.52,16-24,.49-1.97.66-3.97.5-6,.6,2.47,1.6,4.81,3,7-1.52.01-2.68.68-3.5,2-4.35,6.7-8.68,13.37-13,20-1.28,3.6-1.61,7.26-1,11,10.08-7.57,17.25-17.24,21.5-29h1c.71.9,1.71,1.24,3,1-3.82,4.96-7.15,10.29-10,16-3.36,4.74-5.36,10.08-6,16,4.88-2.2,8.88-5.54,12-10,.67,0,1,.33,1,1-2.73,5.06-6.73,8.73-12,11-.94-.11-1.78-.44-2.5-1-.32-3.04-.32-6.04,0-9-2.17,3.01-5,5.01-8.5,6-.94-.11-1.78-.44-2.5-1-.49-1.97-.66-3.97-.5-6-1.64.21-3.14-.12-4.5-1-.5-2.65-.66-5.31-.5-8,1.42-2.01,2.09-4.35,2-7,1.93-8.48,5.93-15.81,12-22,.67-4.15,1.33-8.15,2-12Z"/>
  <path class="st142" d="M469.78,362.64h1c-6.15,11.99-7.82,24.65-5,38h3c.12,3.19.95,6.19,2.5,9,13.18,13.16,28.68,16.66,46.5,10.5,2.27-.94,4.27-2.27,6-4,4.41-.21,8.41-1.54,12-4,1.31-2.48,3.31-3.98,6-4.5.24.6.74.93,1.5,1,1.58-1.53,3.42-2.03,5.5-1.5-1.14.74-1.14,1.57,0,2.5-1.93,1.06-3.6,2.4-5,4-.95-.83-1.95-.99-3-.5,1.31,1.39.98,2.39-1,3,.85,3.39-.48,5.89-4,7.5,1,.67,2,1.33,3,2-1.33,1.14-2.33,2.48-3,4-8.18,3.61-16.51,6.61-25,9h-10c.06,2.55,1.39,4.05,4,4.5-10.11.96-20.11.46-30-1.5-2.36-1.08-4.69-1.08-7,0,1.11,1.71.44,2.38-2,2h-4c-8.72-3.7-17.38-7.7-26-12,.1-8.26,1.6-16.26,4.5-24,1.01-.84,2.18-1.17,3.5-1,3.26-9.09,6.76-18.09,10.5-27,4.34-6.5,9.51-12.17,15.5-17Z"/>
  <path class="st46" d="M172.78,388.64h3c3.2-.09,6.2.57,9,2,1.23,3.65,1.23,7.32,0,11,3.21.31,6.21-.02,9-1,1.07-.93,2.4-1.27,4-1-.06,1.11-.39,2.11-1,3h-1c-4.86.32-9.53-.01-14-1,1.79-2.73,2.29-5.73,1.5-9-2.36-2.15-4.86-2.48-7.5-1-1.29.24-2.29-.1-3-1v-2Z"/>
  <path class="st105" d="M245.78,380.64c-1.74,5.21-5.41,7.38-11,6.5-2.07,2.45-4.57,4.28-7.5,5.5-2.17-1.22-4.34-1.22-6.5,0,1.48-1.57,3.15-2.91,5-4,2.78-1.9,5.78-3.56,9-5,.83.91,1.83,1.58,3,2,3.19-.87,5.86-2.53,8-5Z"/>
  <path class="st35" d="M573.12,379.64c-.96,3.6-1.63,7.27-2,11h-3c.21,1.68-.45,2.68-2,3,1.36-3.37,2.69-6.71,4-10,1-1.33,2-2.67,3-4Z"/>
  <path class="st47" d="M223.78,388.64h2c-1.85,1.09-3.52,2.43-5,4-7.6,4.31-15.6,7.64-24,10,.61-.89.94-1.89,1-3,4.05-.85,8.05-2.02,12-3.5,4.25-3.29,8.91-5.79,14-7.5Z"/>
  <path class="st77" d="M184.78,390.64c.96.45,1.79,1.12,2.5,2,.5,2.65.66,5.31.5,8h6c-2.79.98-5.79,1.31-9,1,1.23-3.68,1.23-7.35,0-11Z"/>
  <path class="st42" d="M565.12,394.64c.07,1.53-.59,2.53-2,3-.07-1.53.59-2.53,2-3Z"/>
  <path class="st171" d="M161.78,376.64c1.33.67,2.33,1.67,3,3,.16,2.03,0,4.03-.5,6-6.15,7.48-11.48,15.48-16,24-1.11,1.54-2.61,2.2-4.5,2-.23-5.18.6-10.18,2.5-15,3-7,6.84-13.5,11.5-19.5,1.29-.49,2.63-.66,4-.5Z"/>
  <path class="st9" d="M175.78,391.64c1.79-.29,3.46.05,5,1-.83.89-1.83,1.22-3,1-1.03,3.74-2.37,7.41-4,11,.33.67.67,1.33,1,2-2.34,1.52-4.51,3.19-6.5,5-2.02-.53-2.85-1.87-2.5-4,2.85-5.71,6.18-11.04,10-16Z"/>
  <path class="st49" d="M143.78,398.64c.09,2.65-.58,4.99-2,7-.09-2.65.58-4.99,2-7Z"/>
  <path class="st32" d="M267.78,388.64c-1.2,3.55-1.87,7.21-2,11-1.48-.26-2.81.07-4,1-.67,1.33-1.67,2.33-3,3-.13,3.96-1.8,6.96-5,9,.55-1.89,1.55-3.56,3-5-.43-.79-.77-1.63-1-2.5,1.36-1.57,2.02-3.4,2-5.5h1c1.54-.2,2.88-.87,4-2,.45-3.76,2.12-6.76,5-9Z"/>
  <path class="st170" d="M181.78,401.64c4.47.99,9.14,1.32,14,1-4.48.83-9.15,1.33-14,1.5-2.86,3.69-5.86,7.19-9,10.5,0-.67-.33-1-1-1,3.33-4,6.67-8,10-12Z"/>
  <path class="st11" d="M257.78,399.64c.02,2.1-.64,3.93-2,5.5.23.87.57,1.71,1,2.5-1.45,1.44-2.45,3.11-3,5-.67,0-1,.33-1,1-1,.67-2,1.33-3,2-.97,1.64-2.31,2.97-4,4,1.5-3.85,3.84-7.18,7-10-2.14-1.35-2.47-3.02-1-5,2.02-1.69,4.02-3.36,6-5Z"/>
  <path class="st159" d="M167.78,386.64c1.03,1.69,2.36,3.03,4,4-4.25,11.76-11.42,21.43-21.5,29-.61-3.74-.28-7.4,1-11,4.32-6.63,8.65-13.3,13-20,.82-1.32,1.98-1.99,3.5-2Z"/>
  <path class="st75" d="M175.78,391.64c2.64-1.48,5.14-1.15,7.5,1,.79,3.27.29,6.27-1.5,9-3.33,4-6.67,8-10,12-3.12,4.46-7.12,7.8-12,10,.64-5.92,2.64-11.26,6-16-.35,2.13.48,3.47,2.5,4,1.99-1.81,4.16-3.48,6.5-5-.33-.67-.67-1.33-1-2,1.63-3.59,2.97-7.26,4-11,1.17.22,2.17-.11,3-1-1.54-.95-3.21-1.29-5-1Z"/>
  <path class="st80" d="M249.78,415.64c.15,1.05-.02,2.05-.5,3-4.48,4.64-7.65,9.97-9.5,16-1.55.32-2.22,1.32-2,3-.62-.42-.96-1.08-1-2,1.98-5.97,4.98-11.31,9-16,1.69-1.03,3.03-2.36,4-4Z"/>
  <path class="st68" d="M572.78,383.64c-1.31,3.29-2.64,6.63-4,10-.67,0-1,.33-1,1-1.41.47-2.07,1.47-2,3-2.92,4.1-6.09,8.1-9.5,12-2.37,2.71-5.04,5.04-8,7-.33,1.55.17,2.88,1.5,4-1.15,1.65-2.48,3.15-4,4.5-8.04,5.85-16.71,10.35-26,13.5-2.4-.24-4.4.43-6,2-3.04-.09-4.71,1.41-5,4.5-1.97.5-3.97.66-6,.5-5.2.32-10.2-.01-15-1h19v-3c-1.17.22-2.17-.11-3-1,2.47-.67,4.8-1.33,7-2,8.49-2.39,16.82-5.39,25-9,2.98-1.97,5.98-3.97,9-6,.89-.82,1.22-1.82,1-3-1.48.26-2.81-.07-4-1,12.13-9.48,21.79-21.14,29-35,.46-.8,1.12-1.13,2-1Z"/>
  <path class="st24" d="M252.78,413.64c.32,1.55,1.32,2.21,3,2-.8,2.18-2.3,3.85-4.5,5-.48.95-.65,1.95-.5,3-2.81-.1-4.81,1.07-6,3.5,1.35,1.56,2.01,3.39,2,5.5-2.04,2.39-2.04,4.55,0,6.5-2.53.45-4.86,1.28-7,2.5,1.19-2.37,1.19-4.71,0-7,1.85-6.03,5.02-11.36,9.5-16,.48-.95.65-1.95.5-3,1-.67,2-1.33,3-2Z"/>
  <path class="st95" d="M433.78,423.64c.67,2.67,1.33,5.33,2,8,8.62,4.3,17.28,8.3,26,12-1.33-.33-2.67-.67-4-1-3.4-.52-6.73-1.35-10-2.5-4.61-2.47-9.28-4.64-14-6.5-.33,2.67-.67,5.33-1,8-2.16,7.1-3.82,14.43-5,22-2.05,5.11-4.39,10.11-7,15h-1c3.36-8.53,6.19-17.2,8.5-26,1.11-8.89,2.95-17.56,5.5-26v-3Z"/>
  <path class="st74" d="M517.12,438.64c-1.6,1.57-3.6,2.24-6,2,1.6-1.57,3.6-2.24,6-2Z"/>
  <path class="st150" d="M510.78,438.64c-2.2.67-4.53,1.33-7,2,.83.89,1.83,1.22,3,1v3h-27c-1.62-.54-3.28-.87-5-1v-2c9.89,1.96,19.89,2.46,30,1.5-2.61-.45-3.94-1.95-4-4.5h10Z"/>
  <path class="st39" d="M457.78,442.64c1.33.33,2.67.67,4,1h4c.33.67.67,1.33,1,2-3.49.05-6.49-.95-9-3Z"/>
  <path class="st37" d="M474.78,441.64v2c-1.55.32-2.22,1.32-2,3-2.12.17-4.12-.16-6-1-.33-.67-.67-1.33-1-2,2.44.38,3.11-.29,2-2,2.31-1.08,4.64-1.08,7,0Z"/>
  <path class="st44" d="M479.78,444.64h8c4.8.99,9.8,1.32,15,1-7.72,1.37-15.39,1.04-23-1Z"/>
  <path class="st129" d="M239.78,434.64c1.19,2.29,1.19,4.63,0,7-1.36,4.8-2.36,9.8-3,15h-1v-2c.51-5.69,1.17-11.35,2-17-.22-1.68.45-2.68,2-3Z"/>
  <path class="st76" d="M433.78,426.64c-2.55,8.44-4.39,17.11-5.5,26-2.31,8.8-5.14,17.47-8.5,26,.07,1.53-.59,2.53-2,3,.64-4.23,1.64-8.4,3-12.5.32-2.7-.68-4.7-3-6,1.8-6.11,4.3-11.94,7.5-17.5.31.81.81,1.47,1.5,2,.85-6.67,2.35-13,4.5-19,.71-.88,1.54-1.55,2.5-2Z"/>
  <path class="st94" d="M239.78,441.64c.12,6.12-.54,12.12-2,18,0,2.2.34,4.2,1,6-.28.79-.78,1.46-1.5,2-.5-3.65-.66-7.32-.5-11,.64-5.2,1.64-10.2,3-15Z"/>
  <path class="st0" d="M432.78,441.64c-.69,5.68-1.53,11.34-2.5,17-.1,2.15-.93,3.82-2.5,5,1.18-7.57,2.84-14.9,5-22Z"/>
  <path class="st149" d="M235.78,456.64h1c-.16,3.68,0,7.35.5,11,.72-.54,1.22-1.21,1.5-2,.45-1.96,1.45-2.3,3-1-1.42,3.83-3.09,7.5-5,11h-1v-19Z"/>
  <path class="st152" d="M235.78,454.64v21c-.67.33-1.33.67-2,1,.6-7.46,1.27-14.8,2-22Z"/>
  <path class="st47" d="M235.78,475.64h1c-3.98,5.65-8.32,10.98-13,16h-4c-2.33-.67-4.67-1.33-7-2,3.68.17,7.35,0,11-.5,3.72-4,7.06-8.16,10-12.5.67-.33,1.33-.67,2-1Z"/>
  <path class="st79" d="M195.78,484.64c-5.7-1.14-11.36-1.14-17,0,.11-.62.44-1.12,1-1.5,5.6-.92,10.94-.42,16,1.5Z"/>
  <path class="st60" d="M202.78,486.64c2.4-.24,4.4.43,6,2-2.4.24-4.4-.43-6-2Z"/>
  <path class="st119" d="M195.78,484.64c2.02,1.42,4.35,2.09,7,2,1.6,1.57,3.6,2.24,6,2,1.07.93,2.4,1.27,4,1,2.33.67,4.67,1.33,7,2-6.93.54-13.59-.46-20-3-4.44-1.81-9.11-2.81-14-3-4.43-.12-8.43,1.05-12,3.5-9.64,7.38-16.3,16.88-20,28.5-3.34,4.98-3.67,9.98-1,15,1.83.75,3.5,1.75,5,3,1.59,3.78,2.43,7.78,2.5,12,12.63,13.88,27.8,23.55,45.5,29-1.09.12-1.75.79-2,2,.44,1.24,1.11,2.24,2,3-1.76.14-3.43-.19-5-1-.65-2.33-1.98-3.99-4-5-.47-1.41-1.47-2.07-3-2-6.11-2.22-11.78-5.22-17-9-1.97-1.64-3.97-3.3-6-5-1.64-.65-2.97-1.65-4-3l-3-3c-2-1.33-3.67-3-5-5-1.31-.97-1.97-2.3-2-4,1.37-2.51,1.03-4.85-1-7-.33-1-1-1.67-2-2-1.67-.67-3.33-1.33-5-2v-8c3.7-14.55,11.03-27.05,22-37.5,2.57-1.45,5.24-2.62,8-3.5,5.64-1.14,11.3-1.14,17,0Z"/>
  <path class="st56" d="M220.78,491.64h3c-3,3.33-6,6.67-9,10-.98.64-1.98,1.31-3,2-1.08-.86-1.25-1.86-.5-3,3.34-2.84,6.51-5.84,9.5-9Z"/>
  <path class="st18" d="M199.78,488.64c6.41,2.54,13.07,3.54,20,3h1c-2.99,3.16-6.16,6.16-9.5,9-.75,1.14-.58,2.14.5,3,1.02-.69,2.02-1.36,3-2,.09,1-.25,1.83-1,2.5-3.13.79-6.13.46-9-1,1.12-.25,2.12-.75,3-1.5-3.99-.99-7.33-2.99-10-6-1.24.75-2.57,1.08-4,1v-3h3v-4c1.29.24,2.29-.1,3-1Z"/>
  <path class="st133" d="M450.78,499.64c1.53-.07,2.53.59,3,2-1.53.07-2.53-.59-3-2Z"/>
  <path class="st136" d="M431.78,491.64c7.14,3.74,14.14,7.74,21,12,1.49,2.35,2.83,4.85,4,7.5-1.66,3.18-.66,4.68,3,4.5.08,1.43-.25,2.76-1,4,1.09,1.5,2.26,1.84,3.5,1,1.04,3.3-.12,5.47-3.5,6.5.67.17,1.33.33,2,.5,2.37-1.88,4.87-3.55,7.5-5,.49,1.63.66,3.3.5,5h4c-.33,3,1,4.33,4,4,4.08,4.43,7.42,9.43,10,15v3c-1.95.27-3.45-.39-4.5-2-.98,3.92-.48,7.59,1.5,11-.81.72-1.48,1.55-2,2.5.35,1.26,1.02,1.59,2,1,1.28-1.65,2.95-2.81,5-3.5-.53-.69-1.19-1.19-2-1.5,2.61-.74,4.28.26,5,3-1.85,1.09-3.52,2.43-5,4,.62,2.5-.04,4.83-2,7,.55.92,1.21,1.76,2,2.5.81-1.92,1.31-3.92,1.5-6,3.3-1.8,6.8-2.3,10.5-1.5.75.67,1.09,1.5,1,2.5-4.7,6.02-9.36,12.02-14,18-.42-.62-1.08-.96-2-1-5.91,1.73-11.91,2.23-18,1.5-4.79-2.45-9.79-4.45-15-6-2.9-2.4-5.23-5.23-7-8.5-4.84-3.17-8.17-7.51-10-13-1.32.17-2.49-.16-3.5-1-2.89-6.56-6.22-12.9-10-19-2.74-12.4-1.74-24.4,3-36,1.44-2.55,2.61-5.22,3.5-8,1.27-1.9,2.93-3.24,5-4Z"/>
  <path class="st90" d="M452.78,503.64c6.12,7.63,12.95,14.96,20.5,22,1.02,2.16,2.19,4.16,3.5,6-3,.33-4.33-1-4-4h-4c.16-1.7,0-3.37-.5-5-2.63,1.45-5.13,3.12-7.5,5-.67-.17-1.33-.33-2-.5,3.38-1.03,4.54-3.2,3.5-6.5-1.24.84-2.41.5-3.5-1,.75-1.24,1.08-2.57,1-4-3.66.18-4.66-1.32-3-4.5-1.17-2.65-2.51-5.15-4-7.5Z"/>
  <path class="st155" d="M417.78,482.64c-.17.99.16,1.66,1,2-12,27.16-32.34,45-61,53.5-2.1.74-3.76,1.9-5,3.5-2.05-.21-2.38-1.04-1-2.5-9.96.36-19.96.53-30,.5v-1c24.21,2.21,46.21-3.63,66-17.5,4.56-4.9,9.39-9.4,14.5-13.5,2.75-3.9,5.25-7.9,7.5-12,2.93-4.2,5.6-8.53,8-13Z"/>
  <path class="st38" d="M153.78,517.64c-.56,3.51-1.22,7.01-2,10.5.1,1.59.44,3.09,1,4.5-2.67-5.02-2.34-10.02,1-15Z"/>
  <path class="st109" d="M148.78,525.64v8c-1,.67-2,1.33-3,2,.4-3.62,1.4-6.95,3-10Z"/>
  <path class="st23" d="M148.78,533.64c1.67.67,3.33,1.33,5,2-1.91-.28-3.58.05-5,1-7.41,6.74-13.74,14.41-19,23h-1c0-.67-.33-1-1-1,5.77-7.89,11.77-15.55,18-23,1-.67,2-1.33,3-2Z"/>
  <path class="st137" d="M311.78,540.64c3.12-.98,6.46-1.31,10-1,8.67.67,17.33,1.33,26,2-12.02.2-24.02-.13-36-1Z"/>
  <path class="st33" d="M419.78,478.64h1c-.21,1.64.12,3.14,1,4.5,10.02,5.01,19.69,10.51,29,16.5.47,1.41,1.47,2.07,3,2,3.19,2.19,6.35,4.52,9.5,7,.68,1.28.52,2.45-.5,3.5,10.89,10.61,20.22,22.45,28,35.5,1.84-.53,3.5-1.19,5-2,3.97-.66,7.97-1,12-1,1.53-.07,2.53.59,3,2-9.74-1.4-18.41.93-26,7-.96-2.38.04-3.38,3-3,.27-1.6-.07-2.93-1-4-2.58-5.57-5.92-10.57-10-15-1.31-1.84-2.48-3.84-3.5-6-7.55-7.04-14.38-14.37-20.5-22-6.86-4.26-13.86-8.26-21-12-2.43-2.06-5.09-3.89-8-5.5-1.53-1.01-3.19-1.51-5-1.5-.84-.34-1.17-1.01-1-2v-1c1.41-.47,2.07-1.47,2-3Z"/>
  <path class="st96" d="M155.78,537.64c2.03,2.15,2.37,4.49,1,7-.49-2.31-.83-4.64-1-7Z"/>
  <path class="st92" d="M507.78,544.64c-4.03,0-8.03.34-12,1,2.18-1.43,4.68-2.09,7.5-2,1.71.01,3.21.34,4.5,1Z"/>
  <path class="st88" d="M310.78,541.64c-2,4-5,7-9,9,2.67-3.33,5.67-6.33,9-9Z"/>
  <path class="st114" d="M148.78,536.64c1.98-.02,2.98.98,3,3-.4,1.7-.9,3.36-1.5,5-4.7,5.87-9.87,11.2-15.5,16-.83.33-1.67.67-2.5,1-1.38-.18-2.21-.85-2.5-2,5.26-8.59,11.59-16.26,19-23Z"/>
  <path class="st86" d="M156.78,544.64c.03,1.7.69,3.03,2,4-5.25,3.24-10.25,6.9-15,11-.34-.84-1.01-1.17-2-1,6.08-3.53,11.08-8.2,15-14Z"/>
  <path class="st43" d="M548.12,542.64c-1.15.66-2.48.83-4,.5,2.11,2,3.94,3.83,5.5,5.5-.41-.46-.91-.79-1.5-1-8.91,4.53-17.91,8.86-27,13-.93,1.59-.93,3.26,0,5-.67,1.67-1.33,3.33-2,5,.47-2.88-.37-5.21-2.5-7-2.88.55-5.54,1.55-8,3-1.14-.49-2.3-.82-3.5-1v-2c1.57.97,3.23,1.14,5,.5,11.66-5.94,23.32-11.77,35-17.5-.48-.98-1.14-1.81-2-2.5-4.19-.81-8.19-.65-12,.5-7.88.8-15.22,3.13-22,7v-1c.07-1.46-.27-2.79-1-4,1.56.02,3.06.35,4.5,1,10.7-4.65,21.86-6.82,33.5-6.5.54.72,1.21,1.22,2,1.5Z"/>
  <path class="st13" d="M148.78,536.64c1.42-.95,3.09-1.28,5-1,1,.33,1.67,1,2,2,.17,2.36.51,4.69,1,7-3.92,5.8-8.92,10.47-15,14-3.74,3.03-8.07,4.69-13,5v-4h1c.29,1.15,1.12,1.82,2.5,2,.83-.33,1.67-.67,2.5-1,5.63-4.8,10.8-10.13,15.5-16,.6-1.64,1.1-3.3,1.5-5-.02-2.02-1.02-3.02-3-3Z"/>
  <path class="st41" d="M158.78,548.64c1.33,2,3,3.67,5,5-.34,2.18-1.34,4.01-3,5.5-5.19,3.76-10.52,7.26-16,10.5-3.14,1.52-6.47,2.19-10,2-.11-2.58.56-4.91,2-7,2.16-1.91,4.49-3.58,7-5,4.75-4.1,9.75-7.76,15-11Z"/>
  <path class="st14" d="M311.78,538.64h10v1c-3.54-.31-6.88.02-10,1-.67,0-1,.33-1,1-3.33,2.67-6.33,5.67-9,9-12.79,9.79-26.12,18.79-40,27-2.47.25-4.47,1.25-6,3-1.21.43-2.21,1.1-3,2-3.14.26-6.14.26-9,0-11.43,3.99-22.77,3.99-34,0h7c6.34.17,12.67,0,19-.5,4.85-.51,9.35-2.01,13.5-4.5,1.58,1.53,3.41,2.03,5.5,1.5,4.77-3.1,9.77-5.76,15-8,4.72-4.57,10.05-8.24,16-11,8.5-7.41,17.17-14.58,26-21.5Z"/>
  <path class="st144" d="M418.78,484.64c1.81-.01,3.47.49,5,1.5,2.91,1.61,5.57,3.44,8,5.5-2.07.76-3.73,2.1-5,4-.89,2.78-2.06,5.45-3.5,8-4.74,11.6-5.74,23.6-3,36,3.78,6.1,7.11,12.44,10,19,1.01.84,2.18,1.17,3.5,1,1.83,5.49,5.16,9.83,10,13,1.77,3.27,4.1,6.1,7,8.5,5.21,1.55,10.21,3.55,15,6,6.09.73,12.09.23,18-1.5.92.04,1.58.38,2,1-2.16,3.65-4.33,7.32-6.5,11-.88,3.55-2.04,6.89-3.5,10-1.53,3.22-3.2,6.39-5,9.5,1.77.54,2.1,1.37,1,2.5-.95.49-1.95.82-3,1-2.82-1.46-5.82-2.46-9-3-1.76-.57-3.42-1.41-5-2.5-7.24-6.42-14.24-12.92-21-19.5-3.09-5.96-7.09-11.46-12-16.5-1.29-.49-2.63-.66-4-.5v-3c-1.37.16-2.71-.01-4-.5-7.82-8.16-16.65-14.99-26.5-20.5-.95.52-1.78,1.19-2.5,2-10.49-5.58-21.16-10.58-32-15,1.24-1.6,2.9-2.76,5-3.5,28.66-8.5,49-26.34,61-53.5Z"/>
  <path class="st163" d="M531.12,544.64c3.68-.17,7.35,0,11,.5-2.7,2.46-6.37,4.46-11,6-1.61.72-3.11.55-4.5-.5-2.57,3.39-6.07,4.89-10.5,4.5-3.32,2.9-6.99,4.07-11,3.5.67-1.7,1.34-3.36,2-5,.33-1,1-1.67,2-2,6.78-3.87,14.12-6.2,22-7Z"/>
  <path class="st116" d="M504.12,553.64c-1.97,3.34-2.3,6.84-1,10.5-.48,1.3-1.15,2.47-2,3.5h-2c1.61-3.91,2.61-8.08,3-12.5.34-1.03,1-1.53,2-1.5Z"/>
  <path class="st122" d="M548.12,542.64c2.44,1.83,3.77,4.33,4,7.5.11,1.7-.55,2.87-2,3.5.13-.74-.04-1.41-.5-2-4.24,2.42-8.74,4.25-13.5,5.5-4.5,3.91-9.5,6.74-15,8.5-.93-1.74-.93-3.41,0-5,9.09-4.14,18.09-8.47,27-13,.59.21,1.09.54,1.5,1-1.56-1.67-3.39-3.5-5.5-5.5,1.52.33,2.85.16,4-.5Z"/>
  <path class="st153" d="M509.12,550.64v1c-1,.33-1.67,1-2,2-1.25.08-2.08.74-2.5,2-.72,2.76-.55,5.43.5,8v2c-1.1,1.1-2.44,1.77-4,2,.85-1.03,1.52-2.2,2-3.5-1.3-3.66-.97-7.16,1-10.5,1.16-1.75,2.83-2.75,5-3Z"/>
  <path class="st20" d="M531.12,544.64c3.81-1.15,7.81-1.31,12-.5.86.69,1.52,1.52,2,2.5-11.68,5.73-23.34,11.56-35,17.5-1.77.64-3.43.47-5-.5-1.05-2.57-1.22-5.24-.5-8,.42-1.26,1.25-1.92,2.5-2-.66,1.64-1.33,3.3-2,5,4.01.57,7.68-.6,11-3.5,4.43.39,7.93-1.11,10.5-4.5,1.39,1.05,2.89,1.22,4.5.5,4.63-1.54,8.3-3.54,11-6-3.65-.5-7.32-.67-11-.5Z"/>
  <path class="st84" d="M163.78,553.64l3,3c-6.67,5.31-13.67,10.31-21,15-2.2.09-2.53-.58-1-2,5.48-3.24,10.81-6.74,16-10.5,1.66-1.49,2.66-3.32,3-5.5Z"/>
  <path class="st1" d="M486.78,546.64c.93,1.07,1.27,2.4,1,4-2.96-.38-3.96.62-3,3,7.59-6.07,16.26-8.4,26-7,.73,1.21,1.07,2.54,1,4-2.17.25-3.84,1.25-5,3-1-.03-1.66.47-2,1.5-.39,4.42-1.39,8.59-3,12.5-.67.33-1.33.67-2,1,.09-1-.25-1.83-1-2.5-3.7-.8-7.2-.3-10.5,1.5-.19,2.08-.69,4.08-1.5,6-.79-.74-1.45-1.58-2-2.5,1.96-2.17,2.62-4.5,2-7,1.48-1.57,3.15-2.91,5-4-.72-2.74-2.39-3.74-5-3,.81.31,1.47.81,2,1.5-2.05.69-3.72,1.85-5,3.5-.98.59-1.65.26-2-1,.52-.95,1.19-1.78,2-2.5-1.98-3.41-2.48-7.08-1.5-11,1.05,1.61,2.55,2.27,4.5,2v-3Z"/>
  <path class="st70" d="M409.78,495.64c-2.25,4.1-4.75,8.1-7.5,12-5.11,4.1-9.94,8.6-14.5,13.5-19.79,13.87-41.79,19.71-66,17.5h-6c-.15-1.05.02-2.05.5-3,2.71-2.37,5.04-5.04,7-8,.69-.83.52-1.5-.5-2-4.09,4.08-7.76,8.41-11,13-8.83,6.92-17.5,14.09-26,21.5-5.95,2.76-11.28,6.43-16,11-5.23,2.24-10.23,4.9-15,8-2.09.53-3.92.03-5.5-1.5-4.15,2.49-8.65,3.99-13.5,4.5-6.33.5-12.66.67-19,.5-2.92-.69-5.92-1.53-9-2.5-.59-1.3-1.25-2.47-2-3.5-17.7-5.45-32.87-15.12-45.5-29-.07-4.22-.91-8.22-2.5-12,7.4,1.86,14.73,4.03,22,6.5,12.75,7.02,26.09,12.69,40,17,14.92,2.59,29.59,1.93,44-2,7.24-4.46,14.91-8.12,23-11,6.42-5.32,13.42-9.82,21-13.5,3.88-4.04,8.21-7.54,13-10.5,12.25,1.45,24.58,1.78,37,1,14.31-3.33,27.65-9,40-17,1.61-3.12,3.95-5.29,7-6.5-.17-1.99.49-3.66,2-5,1.55-1.3,2.55-.96,3,1Z"/>
  <path class="st147" d="M315.78,538.64h-4c3.24-4.59,6.91-8.92,11-13,1.02.5,1.19,1.17.5,2-1.96,2.96-4.29,5.63-7,8-.48.95-.65,1.95-.5,3Z"/>
  <path class="st10" d="M127.78,559.64v5h6c-.77,2.6-1.1,5.26-1,8-.96-1.76-1.29-3.76-1-6-1.96-.64-3.79-.64-5.5,0-.17-1.17-.33-2.33-.5-3.5.11-1.68.78-2.85,2-3.5Z"/>
  <path class="st165" d="M127.78,558.64c.67,0,1,.33,1,1v4c4.93-.31,9.26-1.97,13-5,.99-.17,1.66.16,2,1-2.51,1.42-4.84,3.09-7,5h-9v-6Z"/>
  <path class="st120" d="M166.78,556.64c1.03,1.35,2.36,2.35,4,3,.2,1.54.87,2.88,2,4-7.52,8.28-16.85,12.95-28,14-.17-2.12.16-4.12,1-6,7.33-4.69,14.33-9.69,21-15Z"/>
  <path class="st40" d="M170.78,559.64c2.03,1.7,4.03,3.36,6,5-5.49,3.98-11.16,7.81-17,11.5-5,2.8-10.33,3.8-16,3-1.57-1.83-2.41-3.99-2.5-6.5-2.83,1.29-5.66,1.29-8.5,0-.1-2.74.23-5.4,1-8h3c-1.44,2.09-2.11,4.42-2,7,3.53.19,6.86-.48,10-2-1.53,1.42-1.2,2.09,1,2-.84,1.88-1.17,3.88-1,6,11.15-1.05,20.48-5.72,28-14-1.13-1.12-1.8-2.46-2-4Z"/>
  <path class="st127" d="M352.78,541.64c10.84,4.42,21.51,9.42,32,15,.72-.81,1.55-1.48,2.5-2,9.85,5.51,18.68,12.34,26.5,20.5,1.29.49,2.63.66,4,.5v3c1.37-.16,2.71.01,4,.5,4.91,5.04,8.91,10.54,12,16.5-3.83-3-7.16-6.5-10-10.5-1.56-.21-2.89-.71-4-1.5.9-.71,1.24-1.71,1-3-1.29-.24-2.29.1-3,1-7.53-8.02-15.86-15.19-25-21.5-2.31.16-4.64.16-7,0-7.75-4.74-15.75-9.07-24-13-4.97-1.16-9.64-2.99-14-5.5-8.67-.67-17.33-1.33-26-2,10.04.03,20.04-.14,30-.5-1.38,1.46-1.05,2.29,1,2.5Z"/>
  <path class="st141" d="M193.78,573.64c1.53-.07,2.53.59,3,2-1.53.07-2.53-.59-3-2Z"/>
  <path class="st143" d="M521.78,570.64c-1.9,9.71-5.9,18.37-12,26-1.47-.85-2.3-2.18-2.5-4-.33.67-.67,1.33-1,2-3.64-2.07-7.47-3.74-11.5-5-2.05,2.41-4.05,2.25-6-.5.75-.67,1.09-1.5,1-2.5,3.48-7.16,8.15-13.49,14-19,1.56-.23,2.9-.9,4-2,1.2.18,2.36.51,3.5,1,2.46-1.45,5.12-2.45,8-3,2.13,1.79,2.97,4.12,2.5,7Z"/>
  <path class="st157" d="M205.78,576.64c.75,1.03,1.41,2.2,2,3.5,3.08.97,6.08,1.81,9,2.5h-7c-1.6.27-2.93-.07-4-1-.89-.76-1.56-1.76-2-3,.25-1.21.91-1.88,2-2Z"/>
  <path class="st154" d="M261.78,577.64c-1.53,1.75-3.53,2.75-6,3,1.53-1.75,3.53-2.75,6-3Z"/>
  <path class="st31" d="M521.12,575.64c.33,2.99-.67,5.32-3,7,.43-2.66,1.43-4.99,3-7Z"/>
  <path class="st65" d="M419.78,583.64c-1-.33-1.67-1-2-2,.33,1,1,1.67,2,2Z"/>
  <path class="st124" d="M243.78,582.64c2.86.26,5.86.26,9,0-.63,1.45-1.8,2.11-3.5,2-1.8-.88-3.63-1.55-5.5-2Z"/>
  <path class="st85" d="M489.78,586.64c.09,1-.25,1.83-1,2.5,1.95,2.75,3.95,2.91,6,.5,4.03,1.26,7.86,2.93,11.5,5,.33-.67.67-1.33,1-2,.2,1.82,1.03,3.15,2.5,4-5.75,9.62-13.41,17.45-23,23.5-2.31.5-4.64.66-7,.5-.96-.45-1.79-1.12-2.5-2-.03-12.27,4.13-22.94,12.5-32Z"/>
  <path class="st140" d="M501.78,567.64h2c-5.85,5.51-10.52,11.84-14,19-8.37,9.06-12.53,19.73-12.5,32,.71.88,1.54,1.55,2.5,2,.67,1,1.33,2,2,3v1c-5.54,1.42-10.88,1.08-16-1h6c2.69.16,5.35,0,8-.5-2.07-.95-3.57-2.45-4.5-4.5-.45-3.69-.28-7.35.5-11,1.46-3.11,2.62-6.45,3.5-10,2.17-3.68,4.34-7.35,6.5-11,4.64-5.98,9.3-11.98,14-18,.67-.33,1.33-.67,2-1Z"/>
  <path class="st5" d="M552.78,553.64c-9.97,3.15-18.97,8.15-27,15-1.44,2.11-2.11,4.44-2,7-1.57,2.01-2.57,4.34-3,7-7.08,16.4-18.08,29.4-33,39-2.08.47-4.08,1.14-6,2-.67-1-1.33-2-2-3,2.36.16,4.69,0,7-.5,9.59-6.05,17.25-13.88,23-23.5,6.1-7.63,10.1-16.29,12-26,.67-1.67,1.33-3.33,2-5,5.5-1.76,10.5-4.59,15-8.5,4.76-1.25,9.26-3.08,13.5-5.5.46.59.63,1.26.5,2Z"/>
  <path class="st115" d="M443.78,607.64c1.67,1,3,2.33,4,4-2.33-.33-3.67-1.67-4-4Z"/>
  <path class="st98" d="M433.78,595.64c6.76,6.58,13.76,13.08,21,19.5,1.58,1.09,3.24,1.93,5,2.5,3.56,2.89,7.56,4.89,12,6h-6c-6.84-2.86-12.84-6.86-18-12-1-1.67-2.33-3-4-4-4.26-3.17-7.6-7.17-10-12Z"/>
  <path class="st87" d="M475.78,607.64c-.78,3.65-.95,7.31-.5,11,.93,2.05,2.43,3.55,4.5,4.5-2.65.5-5.31.66-8,.5-4.44-1.11-8.44-3.11-12-6,3.18.54,6.18,1.54,9,3,1.05-.18,2.05-.51,3-1,1.1-1.13.77-1.96-1-2.5,1.8-3.11,3.47-6.28,5-9.5Z"/>
  <path class="st145" d="M487.78,621.64c-1.53,1.75-3.53,2.75-6,3v-1c1.92-.86,3.92-1.53,6-2Z"/>
</svg>
