<?xml version="1.0" encoding="UTF-8"?>
<svg id="Layer_1" xmlns="http://www.w3.org/2000/svg" version="1.1" viewBox="0 0 489.5 540.05">
  <!-- Generator: Adobe Illustrator 29.6.1, SVG Export Plug-In . SVG Version: 2.1.1 Build 9)  -->
  <defs>
    <style>
      .st0 {
        fill: #613d48;
      }

      .st0, .st1, .st2, .st3, .st4, .st5, .st6, .st7, .st8, .st9, .st10, .st11, .st12, .st13, .st14, .st15, .st16, .st17, .st18, .st19, .st20, .st21, .st22, .st23, .st24, .st25, .st26, .st27, .st28, .st29, .st30, .st31, .st32, .st33, .st34, .st35, .st36, .st37, .st38, .st39, .st40, .st41, .st42, .st43, .st44, .st45, .st46, .st47, .st48, .st49, .st50, .st51, .st52, .st53, .st54, .st55, .st56, .st57, .st58, .st59, .st60, .st61, .st62, .st63, .st64, .st65, .st66, .st67, .st68, .st69, .st70, .st71, .st72, .st73, .st74, .st75, .st76, .st77, .st78, .st79, .st80, .st81, .st82, .st83, .st84, .st85, .st86, .st87, .st88, .st89, .st90, .st91, .st92, .st93, .st94, .st95, .st96, .st97, .st98, .st99, .st100, .st101, .st102, .st103, .st104, .st105, .st106, .st107, .st108, .st109, .st110, .st111, .st112, .st113, .st114, .st115, .st116, .st117, .st118, .st119, .st120, .st121, .st122, .st123, .st124, .st125, .st126, .st127, .st128, .st129, .st130, .st131, .st132, .st133, .st134, .st135, .st136, .st137, .st138, .st139, .st140, .st141, .st142, .st143, .st144, .st145, .st146, .st147, .st148, .st149, .st150, .st151, .st152, .st153, .st154, .st155, .st156, .st157, .st158, .st159, .st160, .st161, .st162, .st163, .st164, .st165, .st166 {
        fill-rule: evenodd;
      }

      .st1 {
        fill: #53333e;
      }

      .st2 {
        fill: #da658c;
      }

      .st3 {
        fill: #ac5a76;
      }

      .st4 {
        fill: #78666e;
      }

      .st5 {
        fill: #5d6161;
      }

      .st6 {
        fill: #c95d88;
      }

      .st7 {
        fill: #4a1e31;
      }

      .st8 {
        fill: #454545;
      }

      .st9 {
        fill: #d45584;
      }

      .st10 {
        fill: #6c2e42;
      }

      .st11 {
        fill: #69565d;
      }

      .st12 {
        fill: #c8c4c6;
      }

      .st13 {
        fill: #853a53;
      }

      .st14 {
        fill: #753b4e;
      }

      .st15 {
        fill: #d37295;
      }

      .st16 {
        fill: #74515d;
      }

      .st17 {
        fill: #a19798;
      }

      .st18 {
        fill: #7d7f7f;
      }

      .st19 {
        fill: #341c25;
      }

      .st20 {
        fill: #d77293;
      }

      .st21 {
        fill: #cd557d;
      }

      .st22 {
        fill: #713e4f;
      }

      .st23 {
        fill: #6e6369;
      }

      .st24 {
        fill: #e5e5e4;
      }

      .st25 {
        fill: #702842;
      }

      .st26 {
        fill: #696b6a;
      }

      .st27 {
        fill: #b1a7aa;
      }

      .st28 {
        fill: #5f5e5e;
      }

      .st29 {
        fill: #585556;
      }

      .st30 {
        fill: #ceccce;
      }

      .st31 {
        fill: #7d344e;
      }

      .st32 {
        fill: #693747;
      }

      .st33 {
        fill: #5f3645;
      }

      .st34 {
        fill: #db5783;
      }

      .st35 {
        fill: #a05a72;
      }

      .st36 {
        fill: #d85382;
      }

      .st37 {
        fill: #ba6280;
      }

      .st38 {
        fill: #be5175;
      }

      .st39 {
        fill: #d4d2d0;
      }

      .st40 {
        fill: #7a646b;
      }

      .st41 {
        fill: #b2b6b5;
      }

      .st42 {
        fill: #e3729a;
      }

      .st43 {
        fill: #a0979a;
      }

      .st44 {
        fill: #cfcccb;
      }

      .st45 {
        fill: #81787b;
      }

      .st46 {
        fill: #d65581;
      }

      .st47 {
        fill: #afb2b0;
      }

      .st48 {
        fill: #643242;
      }

      .st49 {
        fill: #b5b6b6;
      }

      .st50 {
        fill: #0e0e0f;
      }

      .st51 {
        fill: #a35871;
      }

      .st52 {
        fill: #442936;
      }

      .st53 {
        fill: #794055;
      }

      .st54 {
        fill: #cdcccc;
      }

      .st55 {
        fill: #202122;
      }

      .st56 {
        fill: #9a9b9b;
      }

      .st57 {
        fill: #c4c4c3;
      }

      .st58 {
        fill: #656564;
      }

      .st59 {
        fill: #c0b2b6;
      }

      .st60 {
        fill: #dd7297;
      }

      .st61 {
        fill: #b6b5b4;
      }

      .st62 {
        fill: #f2719d;
      }

      .st63 {
        fill: #a64c6b;
      }

      .st64 {
        fill: #0d0e0e;
      }

      .st65 {
        fill: #a5a1a1;
      }

      .st66 {
        fill: #939393;
      }

      .st67 {
        fill: #d45983;
      }

      .st68 {
        fill: #5f3d45;
      }

      .st69 {
        fill: #3c2e33;
      }

      .st70 {
        fill: #582a40;
      }

      .st71 {
        fill: #b7b5b4;
      }

      .st72 {
        fill: #575051;
      }

      .st73 {
        fill: #ccccca;
      }

      .st74 {
        fill: #80636e;
      }

      .st75 {
        fill: #a3476c;
      }

      .st76 {
        fill: #ed76a0;
      }

      .st77 {
        fill: #6d2643;
      }

      .st78 {
        fill: #893752;
      }

      .st79 {
        fill: #cfcecd;
      }

      .st80 {
        fill: #747576;
      }

      .st81 {
        fill: #a3a0a0;
      }

      .st82 {
        fill: #f1729d;
      }

      .st83 {
        fill: #665c5d;
      }

      .st84 {
        fill: #a3526e;
      }

      .st85 {
        fill: #8f3e57;
      }

      .st86 {
        fill: #959192;
      }

      .st87 {
        fill: #c6c0c2;
      }

      .st88 {
        fill: #684552;
      }

      .st89 {
        fill: #7f4359;
      }

      .st90 {
        fill: #2a2b2b;
      }

      .st91 {
        fill: #955069;
      }

      .st92 {
        fill: #733347;
      }

      .st93 {
        fill: #464545;
      }

      .st94 {
        fill: #bfbbba;
      }

      .st95 {
        fill: #5c3644;
      }

      .st96 {
        fill: #e6739a;
      }

      .st97 {
        fill: #cdd1d0;
      }

      .st98 {
        fill: #b9b7b9;
      }

      .st99 {
        fill: #5b3943;
      }

      .st100 {
        fill: #4f4b4d;
      }

      .st101 {
        fill: #772d49;
      }

      .st102 {
        fill: #d1d2d1;
      }

      .st103 {
        fill: #cccbcb;
      }

      .st104 {
        fill: #e3749a;
      }

      .st105 {
        fill: #e5e6e6;
      }

      .st106 {
        fill: #dc5685;
      }

      .st107 {
        fill: #a7a5a6;
      }

      .st108 {
        fill: #eb77a1;
      }

      .st109 {
        fill: #772f4b;
      }

      .st110 {
        fill: #a39ca0;
      }

      .st111 {
        fill: #e4789e;
      }

      .st112 {
        fill: #6a4350;
      }

      .st113 {
        fill: #717273;
      }

      .st114 {
        fill: #1b1b1c;
      }

      .st115 {
        fill: #7f334f;
      }

      .st116 {
        fill: #6d2d43;
      }

      .st117 {
        fill: #603944;
      }

      .st118 {
        fill: #de5487;
      }

      .st119 {
        fill: #837c80;
      }

      .st120 {
        fill: #c16482;
      }

      .st121 {
        fill: #f273a0;
      }

      .st122 {
        fill: #6b2a41;
      }

      .st123 {
        fill: #4c162a;
      }

      .st124 {
        fill: #7c3c53;
      }

      .st125 {
        fill: #653e4c;
      }

      .st126 {
        fill: #e2749d;
      }

      .st127 {
        fill: #494949;
      }

      .st128 {
        fill: #cdcdcb;
      }

      .st129 {
        fill: #6c6d6c;
      }

      .st130 {
        fill: #b19ea3;
      }

      .st131 {
        fill: #4f1a30;
      }

      .st132 {
        fill: #79686d;
      }

      .st133 {
        fill: #dd7196;
      }

      .st134 {
        fill: #a4999d;
      }

      .st135 {
        fill: #b0aeaf;
      }

      .st136 {
        fill: #5c2638;
      }

      .st137 {
        fill: #673d4c;
      }

      .st138 {
        fill: #6a424c;
      }

      .st139 {
        fill: #babdba;
      }

      .st140 {
        fill: #724755;
      }

      .st141 {
        fill: #d85483;
      }

      .st142 {
        fill: #5a3240;
      }

      .st143 {
        fill: #60424b;
      }

      .st144 {
        fill: #adacab;
      }

      .st145 {
        fill: #9f9999;
      }

      .st146 {
        fill: #747475;
      }

      .st147 {
        fill: #d95583;
      }

      .st148 {
        fill: #ceccca;
      }

      .st149 {
        fill: #69424e;
      }

      .st150 {
        fill: #5c4a4e;
      }

      .st151 {
        fill: #8a737a;
      }

      .st152 {
        fill: #813e54;
      }

      .st153 {
        fill: #d95382;
      }

      .st154 {
        fill: #7d5a65;
      }

      .st155 {
        fill: #5d3744;
      }

      .st156 {
        fill: #ee749f;
      }

      .st157 {
        fill: #7b7879;
      }

      .st158 {
        fill: #734553;
      }

      .st159 {
        fill: #623d46;
      }

      .st160 {
        fill: #b5b4b2;
      }

      .st161 {
        fill: #e6618e;
      }

      .st162 {
        fill: #f1739f;
      }

      .st163 {
        fill: #6d6a69;
      }

      .st164 {
        fill: #cb5a86;
      }

      .st165 {
        fill: #e8759e;
      }

      .st166 {
        fill: #583641;
      }
    </style>
  </defs>
  <path class="st11" d="M211.77,110.78v1c-3.77-.26-7.44.08-11,1-.9-.71-1.24-1.71-1-3,4.02.15,8.02.48,12,1Z"/>
  <path class="st17" d="M211.77,111.78v-1c6.68.29,13.34.79,20,1.5,1.24.23,2.24.73,3,1.5-7.66-.71-15.33-1.38-23-2Z"/>
  <path class="st74" d="M190.77,114.78c-1,.67-2,1.33-3,2h-9c3.71-1.64,7.71-2.3,12-2Z"/>
  <path class="st139" d="M249.77,115.78c4.6-.22,8.93.45,13,2-4.62.34-8.95-.32-13-2Z"/>
  <path class="st1" d="M178.77,116.78h6c0,.67-.33,1-1,1-3.96-.53-6.29,1.14-7,5-2.83.19-5.5.86-8,2v-1c1.71-1.24,3.71-1.91,6-2v-5h4Z"/>
  <path class="st76" d="M204.77,113.78c.95-.65,2.11-.99,3.5-1,15,1.05,29.84,3.05,44.5,6,2.47.82,5.14,1.32,8,1.5.15,1.21.49,2.38,1,3.5,9.39,4.53,18.72,9.36,28,14.5-1.02,1.05-1.18,2.22-.5,3.5,2.69,1.86,5.19,3.86,7.5,6-2.83-.64-5.33-1.98-7.5-4-1.77.84-3.1,2.17-4,4-.87-.61-1.37-1.44-1.5-2.5,3.31-5.21,1.98-8.71-4-10.5-1.78,1.95-3.78,2.28-6,1,3.85-2.05,3.51-3.71-1-5-.89.82-1.22,1.82-1,3-2.33-.25-4.33.41-6,2-.33-.33-.67-.67-1-1,.67-.67,1.33-1.33,2-2-4.5-2.01-6.83-.51-7,4.5.33.33.67.67,1,1-1.29.49-2.63.66-4,.5.85-1.98,1.35-3.98,1.5-6-7.88-5.04-16.38-6.71-25.5-5,.36-2.27-.31-4.1-2-5.5-4.62-.99-9.29-1.49-14-1.5v-3c-3.3-.48-5.96.52-8,3-2.07-.32-2.4-1.16-1-2.5-5-.67-10-.67-15,0-2.95,1.22-3.95,3.22-3,6-1.07.74-1.74,1.74-2,3,1.08,2.16,2.41,4.16,4,6-.83.91-1.83,1.58-3,2,2.01.42,3.85,1.26,5.5,2.5,5.02-.03,10.02-.37,15-1,.51,1.03,1.01,2.03,1.5,3-5.68-.17-11.34,0-17,.5-2.08.7-3.75,1.86-5,3.5-3.37,1.36-6.71,2.69-10,4,.22-1.18-.11-2.18-1-3-1.57.81-3.24,1.14-5,1v-3c1.97.24,3.8-.09,5.5-1,1.35,3.07,3.51,3.4,6.5,1-1.54-.95-3.21-1.29-5-1v-3c-3.73.32-7.39-.01-11-1,3.36-.99,6.69-1.15,10-.5-.67-2-2-3.33-4-4-3.37-.66-6.7-.5-10,.5-3.99-2.45-7.99-2.45-12,0-.03-1,.47-1.66,1.5-2,4.89-2.51,9.72-4.85,14.5-7,2.5-1.14,5.17-1.81,8-2,2.68-.02,4.01-1.36,4-4,1.29.24,2.29-.1,3-1,.67,0,1-.33,1-1h21c.24-1.29-.1-2.29-1-3Z"/>
  <path class="st35" d="M252.77,118.78c3.41-.25,6.74.08,10,1,.33.33.67.67,1,1-.69,1.02-1.36,2.02-2,3-.51-1.12-.85-2.29-1-3.5-2.86-.18-5.53-.68-8-1.5Z"/>
  <path class="st91" d="M183.77,117.78c-.71.9-1.71,1.24-3,1,.01,2.64-1.32,3.98-4,4,.71-3.86,3.04-5.53,7-5Z"/>
  <path class="st83" d="M264.77,118.78h3c.08,1.43-.25,2.76-1,4,.74.68,1.41,1.35,2,2h-4v-6Z"/>
  <path class="st158" d="M211.77,111.78c7.67.62,15.34,1.29,23,2,4.95.99,9.95,1.66,15,2,4.05,1.68,8.38,2.34,13,2,.34.84,1.01,1.17,2,1v6h4c7.17,3.96,14.5,7.8,22,11.5,1.29.49,2.63.66,4,.5.02,1.64-.65,2.98-2,4,2.35,3.02,5.02,5.69,8,8v2c-1.33-1-2.67-2-4-3-2.31-2.14-4.81-4.14-7.5-6-.68-1.28-.52-2.45.5-3.5-9.28-5.14-18.61-9.97-28-14.5.64-.98,1.31-1.98,2-3-.33-.33-.67-.67-1-1-3.26-.92-6.59-1.25-10-1-14.66-2.95-29.5-4.95-44.5-6-1.39.01-2.55.35-3.5,1-3.73,1.63-7.73,2.63-12,3h-5c1-.67,2-1.33,3-2,3.48-.51,6.82-1.18,10-2,3.56-.92,7.23-1.26,11-1Z"/>
  <path class="st84" d="M204.77,113.78c.9.71,1.24,1.71,1,3h-13c4.27-.37,8.27-1.37,12-3Z"/>
  <path class="st121" d="M296.77,147.78c.42,2.41,1.75,4.24,4,5.5-3.24,1.47-3.57,3.31-1,5.5-.56,2.35-1.23,4.69-2,7-.88-1.26-1.88-2.43-3-3.5,1.08-.67,1.74-1.67,2-3-.45-1.72-1.29-3.22-2.5-4.5-2,2.67-4,2.67-6,0-1.01,1.16-2.34,1.82-4,2-6.66-1.21-13.16-1.21-19.5,0-4.78-.15-9.45.51-14,2-4.03-.8-6.2-3.13-6.5-7,1.36.88,2.86,1.21,4.5,1-.71-4.04-3.04-6.37-7-7v5c-3.45.74-5.12-.59-5-4-2.67-.33-5.33-.67-8-1-5.5-2.28-11.17-3.95-17-5,0-.67-.33-1-1-1-.49-.97-.99-1.97-1.5-3-4.98.63-9.98.97-15,1-1.65-1.24-3.49-2.08-5.5-2.5,1.17-.42,2.17-1.09,3-2-1.59-1.84-2.92-3.84-4-6,.26-1.26.93-2.26,2-3-.95-2.78.05-4.78,3-6,5-.67,10-.67,15,0-1.4,1.34-1.07,2.18,1,2.5,2.04-2.48,4.7-3.48,8-3v3c4.71.01,9.38.51,14,1.5,1.69,1.4,2.36,3.23,2,5.5,9.12-1.71,17.62-.04,25.5,5-.15,2.02-.65,4.02-1.5,6,1.37.16,2.71-.01,4-.5-.33-.33-.67-.67-1-1,.17-5.01,2.5-6.51,7-4.5-.67.67-1.33,1.33-2,2,.33.33.67.67,1,1,1.67-1.59,3.67-2.25,6-2-.22-1.18.11-2.18,1-3,4.51,1.29,4.85,2.95,1,5,2.22,1.28,4.22.95,6-1,5.98,1.79,7.31,5.29,4,10.5.13,1.06.63,1.89,1.5,2.5.9-1.83,2.23-3.16,4-4,2.17,2.02,4.67,3.36,7.5,4Z"/>
  <path class="st62" d="M178.77,147.78c-2.77,3.1-6.11,5.44-10,7-2.75.31-5.41-.02-8-1,.43-.79.76-1.63,1-2.5-2.66-1.83-4.32-4.33-5-7.5-2.68-1.02-4.68-2.69-6-5,1.76-1.05,2.42-2.72,2-5,4.01-2.45,8.01-2.45,12,0,3.3-1,6.63-1.16,10-.5,2,.67,3.33,2,4,4-3.31-.65-6.64-.49-10,.5,3.61.99,7.27,1.32,11,1v3c1.79-.29,3.46.05,5,1-2.99,2.4-5.15,2.07-6.5-1-1.7.91-3.53,1.24-5.5,1v3c1.76.14,3.43-.19,5-1,.89.82,1.22,1.82,1,3Z"/>
  <path class="st37" d="M210.77,139.78c.67,0,1,.33,1,1-7.89-.47-15.55.53-23,3,1.25-1.64,2.92-2.8,5-3.5,5.66-.5,11.32-.67,17-.5Z"/>
  <path class="st143" d="M211.77,140.78c5.83,1.05,11.5,2.72,17,5,4.9,2.57,9.24,5.9,13,10v1c-25.29-19.43-49.96-18.59-74,2.5-8.11,7.94-14.44,17.11-19,27.5h-2c.95-3.43,2.11-6.77,3.5-10,5.96-7.62,12.12-14.95,18.5-22,3.89-1.56,7.23-3.9,10-7,3.29-1.31,6.63-2.64,10-4,7.45-2.47,15.11-3.47,23-3Z"/>
  <path class="st108" d="M150.77,138.78c1.32,2.31,3.32,3.98,6,5,.68,3.17,2.34,5.67,5,7.5-.24.87-.57,1.71-1,2.5,2.59.98,5.25,1.31,8,1-6.38,7.05-12.54,14.38-18.5,22-1.39,3.23-2.55,6.57-3.5,10h-1c.43-3.42.93-6.75,1.5-10-5.52,3.03-6.36,2.36-2.5-2-.48-1.43-1.14-2.76-2-4-.69,2.05-1.85,3.72-3.5,5-1.16-4.65.67-6.65,5.5-6,.26-2.29-.08-4.46-1-6.5,1.91-1.2,3.24-2.87,4-5,.95-.48,1.95-.65,3-.5v-3h-5v-4c-4.86.88-7.19,3.88-7,9-1.35,1.45-3.02,2.12-5,2v3h3c-.73,2.48-2.23,4.48-4.5,6-.67-1.33-1.33-2.67-2-4-2.74,1.47-4.4,3.8-5,7-3.62,3.07-5.45,7.07-5.5,12-1.49,2.08-3.49,3.08-6,3,.17-2.36.51-4.69,1-7,4.29-5.46,8.79-10.79,13.5-16,1.65-2.25,1.99-4.58,1-7,6.74-7.24,13.9-13.91,21.5-20Z"/>
  <path class="st111" d="M228.77,145.78c2.67.33,5.33.67,8,1-.12,3.41,1.55,4.74,5,4v-5c3.96.63,6.29,2.96,7,7-1.64.21-3.14-.12-4.5-1,.3,3.87,2.47,6.2,6.5,7,4.55-1.49,9.22-2.15,14-2-4.92,1.22-9.92,2.55-15,4-2.66-1.66-5.33-3.32-8-5-3.76-4.1-8.1-7.43-13-10Z"/>
  <path class="st162" d="M145.77,186.78c-.51,3.7-1.17,7.36-2,11-.67,1.67-1.33,3.33-2,5-1.1,5.66-2.43,11.33-4,17,.54,1.77,1.37,2.1,2.5,1,.21,4.76.38,9.42.5,14,.67-1,1.33-2,2-3,.64,1.49,1.64,2.49,3,3-.1,2.59.56,4.92,2,7-.32,1.15-.98,1.98-2,2.5.69,1.07,1.19,2.23,1.5,3.5,1.05-1.02,2.22-1.18,3.5-.5-.84,1.01-1.17,2.18-1,3.5,2.38-1.05,4.71-1.05,7,0,11.14,8.57,23.14,15.57,36,21-2.45-.18-4.62.49-6.5,2-1.93-1.68-4.1-2.18-6.5-1.5.84,1.01,1.17,2.18,1,3.5-4.39.77-8.55-.23-12.5-3-1.57.56-2.9-.11-4-2-.41.46-.91.79-1.5,1-2.01-1.75-4.34-2.75-7-3-1.4-1.61-3.07-2.44-5-2.5,4.69,5.69,9.69,11.02,15,16,.95.48,1.95.65,3,.5,8.68,9.35,19.35,15.69,32,19,2.18,2.08,4.85,3.08,8,3,2.67,1,5.33,2,8,3,8.83,1.57,17.83,2.9,27,4,12.13,1.62,24.47,2.62,37,3,13.02.71,25.02,4.38,36,11-.08,1.25-.74,2.08-2,2.5,1.67.33,3.33.67,5,1-2.81,4.98-2.31,9.48,1.5,13.5.17-.5.33-1,.5-1.5-.85-2.77-1.18-5.6-1-8.5h3c2.39,14.3,2.73,18.97,1,14h-3v17c-10.41,4.85-21.41,8.02-33,9.5-18.03,1.5-36.03,3.17-54,5-15.32,1.24-30.65,1.57-46,1-13.46-2.29-26.46-5.96-39-11-5.84-3.98-12.17-6.98-19-9-4.61-3.78-9.61-6.94-15-9.5-1.7-4.71-5.04-7.04-10-7-2.03-3.02-4.03-6.02-6-9-1.26-3.03-2.59-3.36-4-1-4.52-5.04-7.52-11.04-9-18-1.18-.22-2.18.11-3,1,2.32,7.31,5.65,13.97,10,20v2c.67.77,1.51,1.43,2.5,2,1.56,4.55,3.56,8.89,6,13,7.4,8.47,14.57,17.14,21.5,26-.62,1.13-1.46,2.13-2.5,3-.75,1.14-.58,2.14.5,3,2.3-2.48,4.97-4.48,8-6,6.03,5.53,12.7,10.37,20,14.5,26.4,11.93,54.07,15.59,83,11,19.19-3.73,37.86-9.07,56-16,4.66-.67,9.32-1.17,14-1.5,8.8,2.36,17.47,5.03,26,8,3.61,2.4,7.27,4.9,11,7.5,1.66,1.49,2.66,3.32,3,5.5-1.52.01-2.68.68-3.5,2-.33,2.33-.67,4.67-1,7-1.54,3.59-3.38,6.92-5.5,10-1.76.83-3.1,2.16-4,4-1.45,2.2-3.11,4.37-5,6.5-22.07,2.1-44.07,1.43-66-2-8.9-2.18-17.9-3.85-27-5-23.35-.54-46.68-.04-70,1.5-21.47.41-40.8-5.76-58-18.5-3.48-3.83-7.48-6.83-12-9-4.81-6.44-9.98-12.61-15.5-18.5-1.12-2.27-1.95-4.6-2.5-7h-3c-5.83-13.16-10.83-26.49-15-40-.77-.76-1.27-1.76-1.5-3-1.78-14.32-2.28-28.66-1.5-43,2.79-8.61,5.46-17.27,8-26h1c2.04-3.11,3.71-6.45,5-10,2.17-3.67,4.33-7.34,6.5-11,.92-6.1,4.09-10.77,9.5-14,.89-.82,1.22-1.82,1-3-1.05.15-2.05-.02-3-.5,1.21-1.38,2.54-2.54,4-3.5,1.59-.42,3.09-1.09,4.5-2,.95.41,1.61,1.07,2,2,.72-2.46,2.06-3.46,4-3v-4c1.36.88,2.86,1.21,4.5,1-.33-3,1-4.33,4-4,.17-2.41-.5-4.58-2-6.5.64-1.71,1.64-1.88,3-.5,1.15-1.28,1.15-2.61,0-4,.82-.89,1.82-1.22,3-1,.67-4,1.33-4,2,0,1.89.2,3.39-.46,4.5-2,.17-2.21.84-4.21,2-6,1.17,2.17,3.01,3.17,5.5,3,.26,1.48-.07,2.81-1,4-1.11-1.09-2.11-1.09-3,0,1.02.85,1.85,1.85,2.5,3,1.6-1.37,3.43-2.37,5.5-3-1.08-2.5-2.41-4.83-4-7-2.56-.63-4.9-1.63-7-3-1.12-.85-1.12-1.85,0-3,2.51.08,4.51-.92,6-3,.05-4.93,1.88-8.93,5.5-12,.6-3.2,2.26-5.53,5-7,.67,1.33,1.33,2.67,2,4,2.27-1.52,3.77-3.52,4.5-6h-3v-3c1.98.12,3.65-.55,5-2-.19-5.12,2.14-8.12,7-9v4h5v3c-1.05-.15-2.05.02-3,.5-.76,2.13-2.09,3.8-4,5,.92,2.04,1.26,4.21,1,6.5-4.83-.65-6.66,1.35-5.5,6,1.65-1.28,2.81-2.95,3.5-5,.86,1.24,1.52,2.57,2,4-3.86,4.36-3.02,5.03,2.5,2-.57,3.25-1.07,6.58-1.5,10Z"/>
  <path class="st126" d="M296.77,147.78c1.33,1,2.67,2,4,3,.79,1.29,1.79,2.46,3,3.5-1.12.25-2.12.75-3,1.5,6.89,9.37,11.23,19.71,13,31,.17,3.68,0,7.35-.5,11-.33-.33-.67-.67-1-1-.19,2.21-.69,4.21-1.5,6-.48-16.65-7.15-30.15-20-40.5-8.03-4.71-16.69-6.54-26-5.5,6.34-1.21,12.84-1.21,19.5,0,1.66-.18,2.99-.84,4-2,2,2.67,4,2.67,6,0,1.21,1.28,2.05,2.78,2.5,4.5-.26,1.33-.92,2.33-2,3,1.12,1.07,2.12,2.24,3,3.5.77-2.31,1.44-4.65,2-7-2.57-2.19-2.24-4.03,1-5.5-2.25-1.26-3.58-3.09-4-5.5Z"/>
  <path class="st125" d="M241.77,155.78c2.67,1.68,5.34,3.34,8,5,5.08-1.45,10.08-2.78,15-4,9.31-1.04,17.97.79,26,5.5,12.85,10.35,19.52,23.85,20,40.5v16h-1c.32-6.52-.01-12.86-1-19-1.61-15.06-8.27-27.22-20-36.5-3.39-1.93-7.06-3.1-11-3.5-2.48-.66-5.14-1-8-1-3.97-.21-7.64.46-11,2-7.06,3.81-12.73,2.48-17-4v-1Z"/>
  <path class="st43" d="M277.77,159.78c-6.35.15-12.68.49-19,1,3.36-1.54,7.03-2.21,11-2,2.86,0,5.52.34,8,1Z"/>
  <path class="st105" d="M126.77,158.78c-1.26,1.78-1.26,3.61,0,5.5-4.23,5.05-8.56,9.89-13,14.5-1.46-1.92-1.13-3.59,1-5,.9,1.01,1.56,1.01,2,0-.67-.67-1.33-1.33-2-2,2.32-1.16,4.66-2.33,7-3.5-.33-.33-.67-.67-1-1,3.18-2.31,3.85-5.15,2-8.5h4Z"/>
  <path class="st102" d="M241.77,156.78c4.27,6.48,9.94,7.81,17,4,6.32-.51,12.65-.85,19-1,3.94.4,7.61,1.57,11,3.5,11.73,9.28,18.39,21.44,20,36.5.62,6.1-.05,11.76-2,17-3.96-10.38-11.29-17.21-22-20.5-18.39-.77-25.05,7.73-20,25.5,1.88,2.59,3.88,5.09,6,7.5,5.82,3.66,11.49,7.5,17,11.5.54,1.62.87,3.28,1,5-5.04,2.45-10.37,4.62-16,6.5-20.02,3.95-39.35,9.79-58,17.5-3.99.76-7.99,1.43-12,2-21.53-4.72-39.03-15.72-52.5-33-3.27-4.86-5.1-10.2-5.5-16,5-5.84,11.34-9.68,19-11.5,8.62-1.17,17.28-1.84,26-2,15.63-.95,22.46-9.12,20.5-24.5-3.16-5.33-7.66-8.99-13.5-11-2.69-1.49-5.69-2.16-9-2-2.2,0-4.2.34-6,1-9.96,1.54-18.96,5.2-27,11-2.02,1.03-4.02,2.03-6,3,4.56-10.39,10.89-19.56,19-27.5,24.04-21.09,48.71-21.93,74-2.5Z"/>
  <path class="st112" d="M300.77,148.78c5.06,1.95,6.73,5.45,5,10.5,3.27,4.37,5.6,9.2,7,14.5-.07,1.53.59,2.53,2,3v1c.74,2.11,1.4,4.28,2,6.5-.95,4.14-.95,8.31,0,12.5.17,7.04-.16,14.04-1,21-.38,6.62-1.71,12.95-4,19,15.2-.28,29.53,3.05,43,10,1.31,1.3,1.31,2.63,0,4,.69,1.35,1.69,2.35,3,3-.34.84-1.01,1.17-2,1-2.95-2.12-4.95-4.96-6-8.5-1.52-1.01-3.19-1.51-5-1.5-4.87-2.84-10.21-4.51-16-5-5.81-.99-11.81-1.32-18-1v-9c5.23-14.06,6.23-28.39,3-43-1.77-11.29-6.11-21.63-13-31,.88-.75,1.88-1.25,3-1.5-1.21-1.04-2.21-2.21-3-3.5v-2Z"/>
  <path class="st26" d="M181.77,172.78c1.8-.66,3.8-1,6-1,3.31-.16,6.31.51,9,2-4.96-.75-9.96-1.09-15-1Z"/>
  <path class="st134" d="M312.77,173.78c1.41.47,2.07,1.47,2,3-1.41-.47-2.07-1.47-2-3Z"/>
  <path class="st110" d="M111.77,180.78c-.47,1.41-1.47,2.07-3,2,.47-1.41,1.47-2.07,3-2Z"/>
  <path class="st30" d="M314.77,177.78c2.11,1.27,3.11,3.27,3,6-.59,4.27-.59,8.61,0,13h-1c-.95-4.19-.95-8.36,0-12.5-.6-2.22-1.26-4.39-2-6.5Z"/>
  <path class="st69" d="M158.77,183.78c-3.89,2.2-7.72,4.53-11.5,7-1.65,4.67-2.82,9.34-3.5,14v-7c.83-3.64,1.49-7.3,2-11h3c1.98-.97,3.98-1.97,6-3,1.54-.85,2.87-.85,4,0Z"/>
  <path class="st15" d="M114.77,181.78c-.49,2.31-.83,4.64-1,7-1.12,1.15-1.12,2.15,0,3v3c-2.01-.51-4.01-.68-6-.5,1.14,2.22.47,3.72-2,4.5.71-2.25,1.21-4.58,1.5-7,3.35-1.93,4.68-4.6,4-8,1.11-.81,2.28-1.47,3.5-2Z"/>
  <path class="st80" d="M143.77,205.78v-1c.68-4.66,1.85-9.33,3.5-14,3.78-2.47,7.61-4.8,11.5-7,6.33-3.5,12.99-6.34,20-8.5,8.03-1.36,15.7-.36,23,3,2.21,1.87,4.04,4.04,5.5,6.5,3.34,11.15-.49,18.32-11.5,21.5-8.96,1.1-17.96,1.76-27,2-9.27,1.63-17.44,5.47-24.5,11.5-.5-4.65-.67-9.32-.5-14Z"/>
  <path class="st64" d="M198.77,197.78c-5.3.77-10.63,1.11-16,1-5.45-1.78-8.78-5.45-10-11,3.73,2.37,7.73,4.54,12,6.5,2,.17,4,.33,6,.5,3.72-.56,7.38-1.23,11-2,.19,2.46-.81,4.13-3,5Z"/>
  <path class="st127" d="M198.77,197.78c-.42.72-1.08,1.22-2,1.5-4.85.82-9.52.65-14-.5,5.37.11,10.7-.23,16-1Z"/>
  <path class="st113" d="M305.77,217.78c1.22,1.79,1.89,3.79,2,6-1.13,7.01-3.13,13.67-6,20-2.01,1.63-3.68,3.63-5,6-2.38-4.89-5.72-9.05-10-12.5-6.73-3.73-12.89-8.23-18.5-13.5-6.65-19.68.18-27.51,20.5-23.5,7.57,3.98,13.24,9.81,17,17.5Z"/>
  <path class="st114" d="M241.77,201.78c1.27,1.55,2.93,2.55,5,3,.8.92.97,1.92.5,3-1.49-1.5-3.32-2.34-5.5-2.5-6.4-1-12.74-1.16-19-.5-1.3,3.11-.97,6.11,1,9,2.04,1.1,3.37,2.76,4,5,2.41,1.08,4.75,2.24,7,3.5,4.83-.04,9.49-1.04,14-3,2.9-2.69,3.73-5.86,2.5-9.5,1.35,2.09,1.85,4.43,1.5,7-1.09,2.93-3.09,5.09-6,6.5-15.15,4.11-24.15-1.39-27-16.5.95-2.61,2.62-4.61,5-6,5.75-1.36,11.42-1.03,17,1Z"/>
  <path class="st8" d="M181.77,172.78c5.04-.09,10.04.25,15,1,5.84,2.01,10.34,5.67,13.5,11,1.96,15.38-4.87,23.55-20.5,24.5-8.72.16-17.38.83-26,2-7.66,1.82-14,5.66-19,11.5h-2c-.32-5.86.01-11.52,1-17-.17,4.68,0,9.35.5,14,7.06-6.03,15.23-9.87,24.5-11.5,9.04-.24,18.04-.9,27-2,11.01-3.18,14.84-10.35,11.5-21.5-1.46-2.46-3.29-4.63-5.5-6.5-7.3-3.36-14.97-4.36-23-3-7.01,2.16-13.67,5-20,8.5-1.13-.85-2.46-.85-4,0,8.04-5.8,17.04-9.46,27-11Z"/>
  <path class="st56" d="M241.77,201.78c2.68.73,5.35,1.56,8,2.5,1.64,1.13,2.64,2.63,3,4.5-1.75-1.75-3.75-3.08-6-4-2.07-.45-3.73-1.45-5-3Z"/>
  <path class="st55" d="M246.77,204.78c2.25.92,4.25,2.25,6,4,.84.34,1.17,1.01,1,2,.3,2.24-.04,4.24-1,6,.35-2.57-.15-4.91-1.5-7,1.23,3.64.4,6.81-2.5,9.5-4.51,1.96-9.17,2.96-14,3-2.25-1.26-4.59-2.42-7-3.5-.63-2.24-1.96-3.9-4-5-1.97-2.89-2.3-5.89-1-9,6.26-.66,12.6-.5,19,.5,2.18.16,4.01,1,5.5,2.5.47-1.08.3-2.08-.5-3Z"/>
  <path class="st65" d="M316.77,196.78h1c.17,6.01,0,12.01-.5,18-.23,1.24-.73,2.24-1.5,3,.84-6.96,1.17-13.96,1-21Z"/>
  <path class="st93" d="M306.77,216.78c-.67,0-1,.33-1,1-3.76-7.69-9.43-13.52-17-17.5-20.32-4.01-27.15,3.82-20.5,23.5,5.61,5.27,11.77,9.77,18.5,13.5,4.28,3.45,7.62,7.61,10,12.5,1.32-2.37,2.99-4.37,5-6-.19,2.71-1.19,5.04-3,7-1.76,1.05-2.42,2.72-2,5h-5c2.63-1.16,3.47-3.16,2.5-6-1.64-3.46-3.81-6.46-6.5-9-5.51-4-11.18-7.84-17-11.5-2.12-2.41-4.12-4.91-6-7.5-5.05-17.77,1.61-26.27,20-25.5,10.71,3.29,18.04,10.12,22,20.5Z"/>
  <path class="st48" d="M143.77,197.78v8c-.99,5.48-1.32,11.14-1,17v1c-.99-6.81-1.32-13.81-1-21,.67-1.67,1.33-3.33,2-5Z"/>
  <path class="st6" d="M313.77,186.78c3.23,14.61,2.23,28.94-3,43-.83-3.49-.83-7.16,0-11v-16c.81-1.79,1.31-3.79,1.5-6,.33.33.67.67,1,1,.5-3.65.67-7.32.5-11Z"/>
  <path class="st165" d="M113.77,191.78c2.1,1.37,4.44,2.37,7,3,1.59,2.17,2.92,4.5,4,7-2.07.63-3.9,1.63-5.5,3-.65-1.15-1.48-2.15-2.5-3,.89-1.09,1.89-1.09,3,0,.93-1.19,1.26-2.52,1-4-2.49.17-4.33-.83-5.5-3-1.16,1.79-1.83,3.79-2,6-1.11,1.54-2.61,2.2-4.5,2-.67-4-1.33-4-2,0-1.18-.22-2.18.11-3,1,1.15,1.39,1.15,2.72,0,4-1.36-1.38-2.36-1.21-3,.5,1.5,1.92,2.17,4.09,2,6.5-3-.33-4.33,1-4,4-1.64.21-3.14-.12-4.5-1v4c-1.94-.46-3.28.54-4,3-.39-.93-1.05-1.59-2-2-1.41.91-2.91,1.58-4.5,2,7.71-8.37,15.04-17.04,22-26,2.47-.78,3.14-2.28,2-4.5,1.99-.18,3.99-.01,6,.5v-3Z"/>
  <path class="st23" d="M308.77,199.78c.99,6.14,1.32,12.48,1,19-1.53.07-2.53-.59-3-2,1.95-5.24,2.62-10.9,2-17Z"/>
  <path class="st20" d="M141.77,202.78c-.32,7.19,0,14.19,1,21,1.14,3.56,2.14,7.23,3,11-1.36-.51-2.36-1.51-3-3-.67,1-1.33,2-2,3-.12-4.58-.29-9.24-.5-14-1.13,1.1-1.96.77-2.5-1,1.57-5.67,2.9-11.34,4-17Z"/>
  <path class="st88" d="M168.77,123.78v1c-4.78,2.15-9.61,4.49-14.5,7-1.03.34-1.53,1-1.5,2,.42,2.28-.24,3.95-2,5-7.6,6.09-14.76,12.76-21.5,20,.99,2.42.65,4.75-1,7-4.71,5.21-9.21,10.54-13.5,16-1.22.53-2.39,1.19-3.5,2,.68,3.4-.65,6.07-4,8-.29,2.42-.79,4.75-1.5,7-6.96,8.96-14.29,17.63-22,26-1.46.96-2.79,2.12-4,3.5.95.48,1.95.65,3,.5.22,1.18-.11,2.18-1,3-5.41,3.23-8.58,7.9-9.5,14-2.17,3.66-4.33,7.33-6.5,11-1,.67-2,1.33-3,2,1.54-4.21,3.54-8.21,6-12-1.54-1.03-2.04-2.37-1.5-4,3.01-3.18,6.18-6.18,9.5-9,.55-1.91.72-3.91.5-6,9.37-9.1,18.04-18.77,26-29v-6c2.12-1.12,3.96-2.62,5.5-4.5-2.61-1.94-2.61-3.77,0-5.5,1.53.07,2.53-.59,3-2,1-.33,1.67-1,2-2,4.44-4.61,8.77-9.45,13-14.5-1.26-1.89-1.26-3.72,0-5.5,6.65-7.31,13.65-14.31,21-21-1.45-2.14-1.12-3.98,1-5.5,5.34-2.67,10.68-5.34,16-8,1.29-.49,2.63-.66,4-.5Z"/>
  <path class="st50" d="M271.77,210.78c2.87,2.48,5.87,4.98,9,7.5,4.9,1.33,9.9,1.83,15,1.5v3c-8.86,2.78-16.36.78-22.5-6-1.13-1.85-1.63-3.85-1.5-6Z"/>
  <path class="st146" d="M219.77,206.78c2.85,15.11,11.85,20.61,27,16.5,2.91-1.41,4.91-3.57,6-6.5.96-1.76,1.3-3.76,1-6,2.78,2.8,4.78,6.13,6,10,.14,1.62-.53,2.79-2,3.5,2.17,3,3.5,6,4,9-.86,1.59-2.19,2.43-4,2.5.64-.98,1.31-1.98,2-3-2.11-.21-4.11.63-6,2.5-7.55.07-14.55-1.93-21-6-8.33.32-16.33-1.02-24-4-.88-.71-1.55-1.54-2-2.5,3.07.32,6.07-.02,9-1,.88-2.27,2.54-3.27,5-3-.64-2.63-1.31-5.3-2-8,.01-1.55.34-2.88,1-4Z"/>
  <path class="st52" d="M306.77,216.78c.47,1.41,1.47,2.07,3,2-.63,6.12-1.8,12.12-3.5,18-1.05,2.81-2.55,5.15-4.5,7,2.87-6.33,4.87-12.99,6-20-.11-2.21-.78-4.21-2-6,0-.67.33-1,1-1Z"/>
  <path class="st18" d="M224.77,200.78c-2.38,1.39-4.05,3.39-5,6-.66,1.12-.99,2.45-1,4,.69,2.7,1.36,5.37,2,8-2.46-.27-4.12.73-5,3-2.93.98-5.93,1.32-9,1-1.64-.98-2.98-2.31-4-4-.33.5-.67,1-1,1.5,3.01,5.01,7.34,8.34,13,10,6,.33,12,.67,18,1,7.6,5.37,15.94,6.87,25,4.5,1.81-.07,3.14-.91,4-2.5-.5-3-1.83-6-4-9,1.47-.71,2.14-1.88,2-3.5,6.86,9.74,4.86,17.24-6,22.5-22.79,8.38-41.29,2.88-55.5-16.5-3.47-8.88-.97-15.38,7.5-19.5,3.61-1.14,6.95-2.81,10-5,2.93-.95,5.93-1.45,9-1.5Z"/>
  <path class="st90" d="M206.77,222.78c.45.96,1.12,1.79,2,2.5,7.67,2.98,15.67,4.32,24,4,6.45,4.07,13.45,6.07,21,6,1.89-1.87,3.89-2.71,6-2.5-.69,1.02-1.36,2.02-2,3-9.06,2.37-17.4.87-25-4.5-6-.33-12-.67-18-1-5.66-1.66-9.99-4.99-13-10,.33-.5.67-1,1-1.5,1.02,1.69,2.36,3.02,4,4Z"/>
  <path class="st70" d="M310.77,234.78v4c-1.92,2.84-3.59,5.84-5,9-.84-.34-1.17-1.01-1-2,1.72-2.94,3.05-6.11,4-9.5.34-1.03,1-1.53,2-1.5Z"/>
  <path class="st133" d="M145.77,234.78c3.6,5.29,7.27,10.62,11,16-2.29-1.05-4.62-1.05-7,0-.17-1.32.16-2.49,1-3.5-1.28-.68-2.45-.52-3.5.5-.31-1.27-.81-2.43-1.5-3.5,1.02-.52,1.68-1.35,2-2.5-1.44-2.08-2.1-4.41-2-7Z"/>
  <path class="st75" d="M309.77,218.78h1c-.83,3.84-.83,7.51,0,11v5c-1-.03-1.66.47-2,1.5-.95,3.39-2.28,6.56-4,9.5-1.24,1.46-2.24,3.13-3,5-2.43,3.81-3.43,3.81-3,0,1.81-1.96,2.81-4.29,3-7,1.95-1.85,3.45-4.19,4.5-7,1.7-5.88,2.87-11.88,3.5-18Z"/>
  <path class="st164" d="M310.77,238.78c6.19-.32,12.19.01,18,1h-13c.98,3.95.64,7.62-1,11-.46.8-1.12,1.13-2,1,1.35-1.32,1.18-2.32-.5-3-2.2.59-4.36,1.26-6.5,2-1.06-.92-1.06-1.92,0-3,1.41-3.16,3.08-6.16,5-9Z"/>
  <path class="st82" d="M328.77,239.78c5.79.49,11.13,2.16,16,5,.76.89,1.76,1.56,3,2,.89.82,1.22,1.82,1,3-4.54-.17-4.87.5-1,2-.83.89-1.83,1.22-3,1v4c1.37-.16,2.71.01,4,.5.87,2.58,2.54,4.41,5,5.5.93,1.19,1.26,2.52,1,4,2.42.08,4.26-.92,5.5-3,.77.14,1.44.48,2,1-.98,4.91-1.31,9.91-1,15,1.02-1.88,1.85-3.88,2.5-6,.33,1,.67,2,1,3-.5,3.22-1.5,6.22-3,9h3c-.44,3.65-.78,7.32-1,11-1.54-.2-2.88-.87-4-2-1.73,1.73-3.07,3.73-4,6-14.23,8.75-29.73,12.75-46.5,12-11.49-.9-22.99-1.57-34.5-2h-10c-10.45-1.75-21.12-2.75-32-3-1.6-3.43-4.1-6.1-7.5-8-.33-2.67-.67-5.33-1-8-1.11-.81-2.28-1.47-3.5-2,1.2-2.98,2.53-5.98,4-9,2.13-2.45,4.8-4.12,8-5,3.1-.27,5.76-1.44,8-3.5,4.53-1.62,9.2-2.62,14-3,.67-.67,1.33-1.33,2-2,3.32-.61,6.65-1.11,10-1.5,6.98,1.01,13.98,1.18,21,.5-3.93-1.03-7.93-1.86-12-2.5,4.63-1,9.3-1.83,14-2.5,3.06-.64,5.89-1.81,8.5-3.5,1.47,1.13,3.14,1.79,5,2,2-.67,4-1.33,6-2,1.11.09,2.11.42,3,1-.15-1.58-.98-2.91-2.5-4,1.1-.68,2.1-1.34,3-2v-1c.88.13,1.54-.2,2-1,1.64-3.38,1.98-7.05,1-11h13Z"/>
  <path class="st97" d="M354.77,246.78c1-.09,1.83.25,2.5,1,1.33,2.05,1.5,4.05.5,6-1.31-.65-2.31-1.65-3-3,1.31-1.37,1.31-2.7,0-4Z"/>
  <path class="st61" d="M287.77,240.78c2.69,2.54,4.86,5.54,6.5,9,.97,2.84.13,4.84-2.5,6-13.52,3.33-27.18,6.17-41,8.5-1.26.42-1.92,1.25-2,2.5-3.11-.15-6.11.35-9,1.5-5.54,2.93-10.87,6.1-16,9.5-7.57-.42-14.57-2.42-21-6,4.01-.57,8.01-1.24,12-2,18.65-7.71,37.98-13.55,58-17.5,5.63-1.88,10.96-4.05,16-6.5-.13-1.72-.46-3.38-1-5Z"/>
  <path class="st109" d="M304.77,245.78c-.17.99.16,1.66,1,2-1.06,1.08-1.06,2.08,0,3,2.14-.74,4.3-1.41,6.5-2,1.68.68,1.85,1.68.5,3v1c-2.74-.1-5.4.23-8,1l-3-3c.76-1.87,1.76-3.54,3-5Z"/>
  <path class="st123" d="M298.77,250.78c-.43,3.81.57,3.81,3,0l3,3c-1.29-.24-2.29.1-3,1-1.79-.13-3.46.2-5,1-.42-2.28.24-3.95,2-5Z"/>
  <path class="st138" d="M142.77,222.78h2c.4,5.8,2.23,11.14,5.5,16,13.47,17.28,30.97,28.28,52.5,33,6.43,3.58,13.43,5.58,21,6,5.13-3.4,10.46-6.57,16-9.5,2.89-1.15,5.89-1.65,9-1.5-3.65,2.29-7.65,4.12-12,5.5-1.59.95-2.93,2.12-4,3.5-3.2.88-5.87,2.55-8,5-1.33-.33-2.67-.67-4-1-6.66-1.66-13.32-3.33-20-5-2.62-.99-5.29-1.99-8-3-12.86-5.43-24.86-12.43-36-21-3.73-5.38-7.4-10.71-11-16-.86-3.77-1.86-7.44-3-11v-1Z"/>
  <path class="st89" d="M65.77,256.78c-1.29,3.55-2.96,6.89-5,10v-5c1.41-.47,2.07-1.47,2-3,1-.67,2-1.33,3-2Z"/>
  <path class="st154" d="M357.77,253.78c4.11,4.45,7.44,9.45,10,15h-2c-2.83-4.98-6.16-9.65-10-14,.99.17,1.66-.16,2-1Z"/>
  <path class="st86" d="M62.77,258.78c.07,1.53-.59,2.53-2,3-.07-1.53.59-2.53,2-3Z"/>
  <path class="st96" d="M344.77,244.78c1.81-.01,3.48.49,5,1.5,1.05,3.54,3.05,6.38,6,8.5,3.84,4.35,7.17,9.02,10,14v22c-.84,1.88-1.17,3.88-1,6h-1c.22-3.68.56-7.35,1-11h-3c1.5-2.78,2.5-5.78,3-9-.33-1-.67-2-1-3-.65,2.12-1.48,4.12-2.5,6-.31-5.09.02-10.09,1-15-.56-.52-1.23-.86-2-1-1.24,2.08-3.08,3.08-5.5,3,.26-1.48-.07-2.81-1-4-2.46-1.09-4.13-2.92-5-5.5-1.29-.49-2.63-.66-4-.5v-4c1.17.22,2.17-.11,3-1-3.87-1.5-3.54-2.17,1-2,.22-1.18-.11-2.18-1-3-1.24-.44-2.24-1.11-3-2Z"/>
  <path class="st117" d="M301.77,254.78c-9.73,2.41-19.4,5.08-29,8-5.69-.26-11.03.74-16,3-2.6.77-5.26,1.1-8,1,.08-1.25.74-2.08,2-2.5,13.82-2.33,27.48-5.17,41-8.5h5c1.54-.8,3.21-1.13,5-1Z"/>
  <path class="st104" d="M312.77,252.78c-.9.66-1.9,1.32-3,2,1.52,1.09,2.35,2.42,2.5,4-.89-.58-1.89-.91-3-1-2,.67-4,1.33-6,2-1.86-.21-3.53-.87-5-2-2.61,1.69-5.44,2.86-8.5,3.5-4.7.67-9.37,1.5-14,2.5,4.07.64,8.07,1.47,12,2.5-7.02.68-14.02.51-21-.5-3.35.39-6.68.89-10,1.5-.67.67-1.33,1.33-2,2-4.8.38-9.47,1.38-14,3-2.24,2.06-4.9,3.23-8,3.5,1.07-1.38,2.41-2.55,4-3.5,4.35-1.38,8.35-3.21,12-5.5,2.74.1,5.4-.23,8-1,5.58-.36,10.92-1.36,16-3,9.6-2.92,19.27-5.59,29-8,.71-.9,1.71-1.24,3-1,2.6-.77,5.26-1.1,8-1Z"/>
  <path class="st151" d="M60.77,261.78v5h-2c-.1-2.05.57-3.72,2-5Z"/>
  <path class="st3" d="M272.77,262.78c-5.08,1.64-10.42,2.64-16,3,4.97-2.26,10.31-3.26,16-3Z"/>
  <path class="st99" d="M365.77,268.78h2c.1,2.29.76,4.29,2,6-.49,4.37-1.15,8.7-2,13v9c2.4-.24,4.4.43,6,2-3.08-.87-6.08-.87-9,0v-2c-.17-2.12.16-4.12,1-6,.79-5.01,1.46-10.17,2-15.5-.02-1.88-.69-3.38-2-4.5v-2Z"/>
  <path class="st92" d="M155.77,268.78c4.41,4.74,8.74,9.41,13,14-1.05.15-2.05-.02-3-.5-5.31-4.98-10.31-10.31-15-16,1.93.06,3.6.89,5,2.5Z"/>
  <path class="st161" d="M155.77,268.78c2.66.25,4.99,1.25,7,3,.59-.21,1.09-.54,1.5-1,1.1,1.89,2.43,2.56,4,2,3.95,2.77,8.11,3.77,12.5,3,.17-1.32-.16-2.49-1-3.5,2.4-.68,4.57-.18,6.5,1.5,1.88-1.51,4.05-2.18,6.5-2,2.71,1.01,5.38,2.01,8,3,.85,1.59,2.18,2.76,4,3.5-1.29.49-2.63.66-4,.5,0,3.33-1.67,5-5,5v3c3.23.06,5.57,1.56,7,4.5,1,.33,2,.67,3,1-1.47.71-2.14,1.88-2,3.5h-3c.61-6.07-1.56-7.4-6.5-4-1.86-1.7-4.03-2.7-6.5-3v3c-1.72-.13-3.38-.46-5-1-4.67-2.67-9.33-5.33-14-8-4.26-4.59-8.59-9.26-13-14Z"/>
  <path class="st45" d="M369.77,274.78c1.13,2.47,1.3,5.13.5,8-.98,1.67-1.82,3.34-2.5,5,.85-4.3,1.51-8.63,2-13Z"/>
  <path class="st51" d="M365.77,270.78c1.31,1.12,1.98,2.62,2,4.5-.54,5.33-1.21,10.49-2,15.5v-20Z"/>
  <path class="st13" d="M220.77,279.78c1.33.33,2.67.67,4,1-1.47,3.02-2.8,6.02-4,9-.77-.76-1.27-1.76-1.5-3-.38,1.44-1.21,2.44-2.5,3,.51-2.35,1.68-4.35,3.5-6,.49-1.29.66-2.63.5-4Z"/>
  <path class="st157" d="M51.77,284.78c.09,2.65-.58,4.99-2,7-.09-2.65.58-4.99,2-7Z"/>
  <path class="st16" d="M58.77,266.78h1c-2.54,8.73-5.21,17.39-8,26-4.3,13.85-6.63,28.18-7,43-.72,3.73-1.72,7.4-3,11,.07-9.06.73-18.06,2-27,1.02-3.47,1.69-7.14,2-11,.86-5.77,2.19-11.44,4-17,1.42-2.01,2.09-4.35,2-7,1.44-6.49,3.77-12.49,7-18Z"/>
  <path class="st67" d="M200.77,274.78c6.68,1.67,13.34,3.34,20,5,.16,1.37-.01,2.71-.5,4-1.82,1.65-2.99,3.65-3.5,6-3.74.43-6.74,2.09-9,5-3.32,1.33-6.65,2.66-10,4-5.29-2.3-10.29-4.97-15-8,1.62.54,3.28.87,5,1v-3c2.47.3,4.64,1.3,6.5,3,4.94-3.4,7.11-2.07,6.5,4h3c-.14-1.62.53-2.79,2-3.5-1-.33-2-.67-3-1-1.43-2.94-3.77-4.44-7-4.5v-3c3.33,0,5-1.67,5-5,1.37.16,2.71-.01,4-.5-1.82-.74-3.15-1.91-4-3.5Z"/>
  <path class="st10" d="M168.77,282.78c4.67,2.67,9.33,5.33,14,8,4.71,3.03,9.71,5.7,15,8,1.4.6,2.4,1.6,3,3-12.65-3.31-23.32-9.65-32-19Z"/>
  <path class="st155" d="M220.77,289.78c1.22.53,2.39,1.19,3.5,2,.33,2.67.67,5.33,1,8,3.4,1.9,5.9,4.57,7.5,8-5.15.56-10.48.56-16,0-2.67-1-5.33-2-8-3,3.44-.25,6.77.09,10,1,3.61,1.01,7.28,1.18,11,.5-1.54-1.71-3.2-3.21-5-4.5-.58-2.78-1.24-5.45-2-8-.99-1.53-2.49-2.19-4.5-2-3.54.85-7.04,1.85-10.5,3,2.26-2.91,5.26-4.57,9-5,1.29-.56,2.12-1.56,2.5-3,.23,1.24.73,2.24,1.5,3Z"/>
  <path class="st94" d="M222.77,293.78c.27,2.62-.07,5.12-1,7.5-4.46,2.58-9.13,3.08-14,1.5-2.35-.41-4.35-1.41-6-3,2.44-1.21,4.44-2.88,6-5,3.46-1.15,6.96-2.15,10.5-3,2.01-.19,3.51.47,4.5,2Z"/>
  <path class="st72" d="M222.77,293.78c.76,2.55,1.42,5.22,2,8-2.35.84-4.35,2.17-6,4-3.23-.91-6.56-1.25-10-1-.33-.67-.67-1.33-1-2,4.87,1.58,9.54,1.08,14-1.5.93-2.38,1.27-4.88,1-7.5Z"/>
  <path class="st159" d="M207.77,294.78c-1.56,2.12-3.56,3.79-6,5,1.65,1.59,3.65,2.59,6,3,.33.67.67,1.33,1,2-3.15.08-5.82-.92-8-3-.6-1.4-1.6-2.4-3-3,3.35-1.34,6.68-2.67,10-4Z"/>
  <path class="st60" d="M373.77,298.78h1c3.65,4.18,6.82,8.85,9.5,14,.91,3.78,1.41,7.61,1.5,11.5.17,3.48-.49,6.64-2,9.5v-3c.17-5.34,0-10.68-.5-16-1.33-2-2.67-4-4-6-2.29,2.59-1.79,4.42,1.5,5.5-1.29.49-2.63.66-4,.5.37-3.62.37-7.12,0-10.5-.33-.17-.67-.33-1-.5-.67,2.67-1.33,5.33-2,8-1.3-.59-2.13-1.59-2.5-3-.56-3.59-1.73-6.93-3.5-10-.64,2.33-1.98,3.99-4,5,.54-1.62.87-3.28,1-5,2.92-.87,5.92-.87,9,0Z"/>
  <path class="st47" d="M224.77,301.78c1.8,1.29,3.46,2.79,5,4.5-3.72.68-7.39.51-11-.5,1.65-1.83,3.65-3.16,6-4Z"/>
  <path class="st156" d="M383.77,330.78c-1.47,2.34-2.8,4.84-4,7.5-4.64,1-9.31,1.33-14,1-3.74-2.96-7.58-5.79-11.5-8.5-.68-4.04-1.85-7.71-3.5-11,5.12-4.78,9.45-10.11,13-16,2.02-1.01,3.36-2.67,4-5,1.77,3.07,2.94,6.41,3.5,10,.37,1.41,1.2,2.41,2.5,3,.67-2.67,1.33-5.33,2-8,.33.17.67.33,1,.5.37,3.38.37,6.88,0,10.5,1.37.16,2.71-.01,4-.5-3.29-1.08-3.79-2.91-1.5-5.5,1.33,2,2.67,4,4,6,.5,5.32.67,10.66.5,16Z"/>
  <path class="st152" d="M216.77,307.78c5.52.56,10.85.56,16,0,10.88.25,21.55,1.25,32,3-7.99-.69-15.99-.86-24-.5,2.86.18,5.53.68,8,1.5h-5c-9.17-1.1-18.17-2.43-27-4Z"/>
  <path class="st149" d="M374.77,298.78c5.93,3.92,9.93,9.26,12,16,.2,8.03-.14,16.03-1,24-.02,2.06-.35,4.06-1,6-1,1.67-2.33,3-4,4-1.77,2.95-3.77,5.78-6,8.5,2.37,1.84,4.7,3.68,7,5.5h-3c-2.05-1.11-4.22-2.11-6.5-3-1.98.84-3.82,1.84-5.5,3,.07-1.46-.27-2.79-1-4,1.7.16,3.37-.01,5-.5,4.68-5.11,8.85-10.61,12.5-16.5.5-2.65.66-5.31.5-8,1.51-2.86,2.17-6.02,2-9.5-.09-3.89-.59-7.72-1.5-11.5-2.68-5.15-5.85-9.82-9.5-14Z"/>
  <path class="st120" d="M243.77,311.78h5c10.87.41,21.53,1.41,32,3-12.53-.38-24.87-1.38-37-3Z"/>
  <path class="st141" d="M363.77,296.78c-1.81,6.29-5.14,11.62-10,16-.67-1-1.33-2-2-3-1.44,1.37-2.77,2.87-4,4.5-7.79,3.6-15.79,6.6-24,9-2.33.67-4.67.67-7,0-4.38-2.9-9.05-5.24-14-7-9.36-2.42-18.69-4.26-28-5.5,11.51.43,23.01,1.1,34.5,2,16.77.75,32.27-3.25,46.5-12,.93-2.27,2.27-4.27,4-6,1.12,1.13,2.46,1.8,4,2Z"/>
  <path class="st98" d="M45.77,308.78c-.31,3.86-.98,7.53-2,11-.38-3.99.28-7.66,2-11Z"/>
  <path class="st31" d="M95.77,332.78c-1.05.72-1.72,1.72-2,3-4.35-6.03-7.68-12.69-10-20,.82-.89,1.82-1.22,3-1,1.48,6.96,4.48,12.96,9,18Z"/>
  <path class="st122" d="M363.77,296.78h1v2c-.13,1.72-.46,3.38-1,5-3.55,5.89-7.88,11.22-13,16-1.59-.42-3.09-1.09-4.5-2-4.73,2.23-9.56,4.23-14.5,6-3.31.55-6.64.88-10,1,.24,1.29-.1,2.29-1,3-1.56-.23-2.89-.9-4-2-10.98-6.62-22.98-10.29-36-11-10.47-1.59-21.13-2.59-32-3-2.47-.82-5.14-1.32-8-1.5,8.01-.36,16.01-.19,24,.5h10c9.31,1.24,18.64,3.08,28,5.5,4.95,1.76,9.62,4.1,14,7,2.33.67,4.67.67,7,0,8.21-2.4,16.21-5.4,24-9,1.23-1.63,2.56-3.13,4-4.5.67,1,1.33,2,2,3,4.86-4.38,8.19-9.71,10-16Z"/>
  <path class="st46" d="M350.77,319.78c1.65,3.29,2.82,6.96,3.5,11,3.92,2.71,7.76,5.54,11.5,8.5,4.69.33,9.36,0,14-1,1.2-2.66,2.53-5.16,4-7.5v3c.16,2.69,0,5.35-.5,8-3.65,5.89-7.82,11.39-12.5,16.5-1.63.49-3.3.66-5,.5v-1c.16-2.69,0-5.35-.5-8-2.48-2.14-4.98-4.14-7.5-6-.61-3.2-2.61-4.53-6-4v-3c-2.36.17-4.69.51-7,1-5.9-.44-11.56-1.78-17-4-.93-2.87-2.6-5.2-5-7,3.22-.69,6.22-1.69,9-3,4.94-1.77,9.77-3.77,14.5-6,1.41.91,2.91,1.58,4.5,2Z"/>
  <path class="st118" d="M44.77,343.78v-2c.82-4.15,1.32-8.48,1.5-13,.71,1.47,1.88,2.14,3.5,2-1.35-3.34-2.02-6.84-2-10.5-.1-2.37.4-4.54,1.5-6.5.11,4.49.94,8.83,2.5,13-1.04,5.88-.71,11.71,1,17.5-.49,1.58-1.49,2.75-3,3.5,2.56,5.02,2.56,10.02,0,15-.33-.33-.67-.67-1-1-.73-2.61-1.23-5.28-1.5-8-1,2.53-1.83,2.53-2.5,0,1.2-3.33,1.2-6.67,0-10Z"/>
  <path class="st145" d="M386.77,314.78c1.15,7.15,1.32,14.49.5,22-.28.92-.78,1.58-1.5,2,.86-7.97,1.2-15.97,1-24Z"/>
  <path class="st78" d="M331.77,323.78c-2.78,1.31-5.78,2.31-9,3,2.4,1.8,4.07,4.13,5,7-1.68.68-2.34,2.02-2,4-.81-1.79-1.31-3.79-1.5-6-1.38-1.21-2.54-2.54-3.5-4,.9-.71,1.24-1.71,1-3,3.36-.12,6.69-.45,10-1Z"/>
  <path class="st9" d="M51.77,292.78c-.78,14.34-.28,28.68,1.5,43,.23,1.24.73,2.24,1.5,3,.13,3.8-.53,7.47-2,11,.31,2.78,1.31,5.28,3,7.5-2.53,2.57-3.69,5.74-3.5,9.5-.71,5.43-.21,10.77,1.5,16-.17,1.33-.33,2.67-.5,4-.65-1.2-1.15-1.2-1.5,0,1.94,1.62,2.27,3.46,1,5.5.73,1.4,1.23,2.9,1.5,4.5,3.41-2.8,4.91-1.8,4.5,3h-3c-.05,2.4.28,4.74,1,7-.62-.11-1.12-.44-1.5-1-2.95-10.74-5.11-21.4-6.5-32-.71-.9-1.71-1.24-3-1v-10c.93-1.07,1.27-2.4,1-4h-3c-.32-5.19.01-10.19,1-15,1.2,3.33,1.2,6.67,0,10,.67,2.53,1.5,2.53,2.5,0,.27,2.72.77,5.39,1.5,8,.33.33.67.67,1,1,2.56-4.98,2.56-9.98,0-15,1.51-.75,2.51-1.92,3-3.5-1.71-5.79-2.04-11.62-1-17.5-1.56-4.17-2.39-8.51-2.5-13-1.1,1.96-1.6,4.13-1.5,6.5-.02,3.66.65,7.16,2,10.5-1.62.14-2.79-.53-3.5-2-.18,4.52-.68,8.85-1.5,13v-6c.37-14.82,2.7-29.15,7-43Z"/>
  <path class="st7" d="M99.77,333.78c-.28,1.28-.95,2.28-2,3-1.21.73-2.54,1.07-4,1v-2c.28-1.28.95-2.28,2-3,1.41-2.36,2.74-2.03,4,1Z"/>
  <path class="st38" d="M357.77,343.78c-4.45-1.85-8.78-3.85-13-6,2.31-.49,4.64-.83,7-1v3c3.39-.53,5.39.8,6,4Z"/>
  <path class="st0" d="M327.77,333.78c5.44,2.22,11.1,3.56,17,4,4.22,2.15,8.55,4.15,13,6,2.52,1.86,5.02,3.86,7.5,6,.5,2.65.66,5.31.5,8-.67-2.33-1.33-4.67-2-7-6.67-4.79-14-8.46-22-11-4.33-2-9-3-14-3-.24,1.29.1,2.29,1,3-.3,2.24.04,4.24,1,6-1.21,3.8-1.21,7.47,0,11,1.07.93,2.4,1.27,4,1-.34.84-1.01,1.17-2,1-2.84-.16-4.51,1.18-5,4-1.66,1.94-2.33,4.27-2,7-.97-2.11-1.3-4.44-1-7,1.06-1.1,1.89-2.43,2.5-4,.8-7.08.63-14.08-.5-21-.34-1.98.32-3.32,2-4Z"/>
  <path class="st81" d="M341.77,339.78c-3.88-.4-7.71-1.06-11.5-2-1.03.34-1.53,1-1.5,2-.9-.71-1.24-1.71-1-3,5,0,9.67,1,14,3Z"/>
  <path class="st44" d="M341.77,339.78c8,2.54,15.33,6.21,22,11v4c-6.75-2.8-13.75-4.8-21-6-4.15-1.31-8.48-2.31-13-3-.96-1.76-1.3-3.76-1-6-.03-1,.47-1.66,1.5-2,3.79.94,7.62,1.6,11.5,2Z"/>
  <path class="st124" d="M44.77,335.78v8c-.99,4.81-1.32,9.81-1,15h3c.27,1.6-.07,2.93-1,4v-3h-4v-13c1.28-3.6,2.28-7.27,3-11Z"/>
  <path class="st163" d="M329.77,345.78c4.52.69,8.85,1.69,13,3-1.29-.24-2.29.1-3,1-3.29-.71-6.62-1.04-10-1v8c-1.21-3.53-1.21-7.2,0-11Z"/>
  <path class="st49" d="M384.77,344.78v4h-4c1.67-1,3-2.33,4-4Z"/>
  <path class="st42" d="M316.77,325.78c1.11,1.1,2.44,1.77,4,2,.96,1.46,2.12,2.79,3.5,4,.19,2.21.69,4.21,1.5,6,1.13,6.92,1.3,13.92.5,21-.61,1.57-1.44,2.9-2.5,4-.67,0-1,.33-1,1h-1v-17h3c1.73,4.97,1.39.3-1-14h-3c-.18,2.9.15,5.73,1,8.5-.17.5-.33,1-.5,1.5-3.81-4.02-4.31-8.52-1.5-13.5-1.67-.33-3.33-.67-5-1,1.26-.42,1.92-1.25,2-2.5Z"/>
  <path class="st100" d="M339.77,349.78c.71-.9,1.71-1.24,3-1,7.25,1.2,14.25,3.2,21,6v-4c.67,2.33,1.33,4.67,2,7v1c-8.24-4.19-16.91-7.19-26-9Z"/>
  <path class="st77" d="M99.77,333.78c1.97,2.98,3.97,5.98,6,9,3.49,4.97,6.99,9.97,10.5,15,1.37,1.54,2.87,2.87,4.5,4v3c-7.76-7.77-14.43-16.44-20-26-.86-.93-1.86-1.59-3-2,1.05-.72,1.72-1.72,2-3Z"/>
  <path class="st148" d="M339.77,349.78c9.09,1.81,17.76,4.81,26,9,.73,1.21,1.07,2.54,1,4h-1c-.92.48-1.92.81-3,1-9.48-3.06-19.14-5.06-29-6-1.6.27-2.93-.07-4-1v-8c3.38-.04,6.71.29,10,1Z"/>
  <path class="st36" d="M97.77,336.78c1.14.41,2.14,1.07,3,2,5.57,9.56,12.24,18.23,20,26,1.51-1,3.18-1.67,5-2,2.64,2.98,5.31,5.98,8,9-2.65,3.33-5.99,5.66-10,7-6.93-8.86-14.1-17.53-21.5-26-2.44-4.11-4.44-8.45-6-13-.99-.57-1.83-1.23-2.5-2,1.46.07,2.79-.27,4-1Z"/>
  <path class="st119" d="M41.77,346.78v16h3v5h-1v-4h-3c-.32-5.86.01-11.52,1-17Z"/>
  <path class="st19" d="M41.77,359.78h4v3h-4v-3Z"/>
  <path class="st131" d="M123.77,358.78c1.1,1.1,1.77,2.44,2,4-1.82.33-3.49,1-5,2v-3c-.86-2.4-.86-4.73,0-7,1.79.78,2.79,2.12,3,4Z"/>
  <path class="st29" d="M333.77,357.78c9.86.94,19.52,2.94,29,6,1.08-.19,2.08-.52,3-1v4c-1.79.13-3.46-.2-5-1-3.35-1.93-7.02-3.09-11-3.5-5.7-.37-11.37-1.03-17-2-.56-.38-.89-.88-1-1.5.99.17,1.66-.16,2-1Z"/>
  <path class="st39" d="M331.77,358.78c.11.62.44,1.12,1,1.5,5.63.97,11.3,1.63,17,2,3.98.41,7.65,1.57,11,3.5-2.59,1.32-5.59,1.98-9,2-8.32-.62-16.66-.96-25-1v-4c.49-2.82,2.16-4.16,5-4Z"/>
  <path class="st140" d="M381.77,362.78c6.55,2.21,11.21,6.54,14,13,.24,1.29-.1,2.29-1,3-.11-2.28-.94-4.28-2.5-6-3.42-3.59-6.92-6.93-10.5-10Z"/>
  <path class="st2" d="M378.77,362.78h3c3.58,3.07,7.08,6.41,10.5,10,1.56,1.72,2.39,3.72,2.5,6h-5c-2.01-1.24-3.67-2.91-5-5-.83-.89-1.83-1.22-3-1v-3c1.17.22,2.17-.11,3-1-2.11-1.35-3.95-1.02-5.5,1-1.3-.59-2.13-1.59-2.5-3,.73-1.37,1.39-2.7,2-4Z"/>
  <path class="st71" d="M326.77,362.78v4c8.34.04,16.68.38,25,1,3.41-.02,6.41-.68,9-2,1.54.8,3.21,1.13,5,1,1.28.89,1.28,1.89,0,3-2.61.73-5.28,1.23-8,1.5-9.66.5-19.33.67-29,.5-1.33-.67-2.67-1.33-4-2-.33-2.73.34-5.06,2-7Z"/>
  <path class="st115" d="M44.77,362.78h1v10c1.29-.24,2.29.1,3,1-1.21.73-2.54,1.07-4,1v-12Z"/>
  <path class="st135" d="M40.77,363.78h3v15h4c.75,4.99,1.42,9.99,2,15-1.73-4.38-2.73-9.05-3-14h-4c.54-5.63-.13-10.97-2-16Z"/>
  <path class="st166" d="M365.77,362.78h1c3.6,6.44,1.6,9.77-6,10-10.85.33-21.51-.01-32-1,9.67.17,19.34,0,29-.5,2.72-.27,5.39-.77,8-1.5,1.28-1.11,1.28-2.11,0-3v-4Z"/>
  <path class="st153" d="M378.77,362.78c-.61,1.3-1.27,2.63-2,4,.37,1.41,1.2,2.41,2.5,3,1.55-2.02,3.39-2.35,5.5-1-.83.89-1.83,1.22-3,1v3c1.17-.22,2.17.11,3,1,1.33,2.09,2.99,3.76,5,5-.67,0-1,.33-1,1-.67,0-1,.33-1,1-1.32.17-2.49-.16-3.5-1-2.74,1.53-2.9,3.03-.5,4.5-1.64,1.8-3.47,1.97-5.5.5-3.13.7-6.29,1.2-9.5,1.5,3.56,1.26,7.23,2.09,11,2.5v3c-4.06-.02-8.06.48-12,1.5-.45,2.55-.79,5.38-1,8.5h-4c.15,1.05-.02,2.05-.5,3-.33-.33-.67-.67-1-1-5.2,1.92-10.7,2.59-16.5,2-.7-2.22-2.04-4.05-4-5.5-2.51-1.42-4.84-3.09-7-5-1.63-.49-3.3-.66-5-.5-1.85-1.95-4.19-3.45-7-4.5-5.76-1.71-11.43-3.71-17-6,4.18-2.26,8.52-4.26,13-6,2.55-2.06,5.22-3.9,8-5.5,11.81,1.3,23.48,1.3,35,0,7.6-.23,9.6-3.56,6-10,1.68-1.16,3.52-2.16,5.5-3,2.28.89,4.45,1.89,6.5,3Z"/>
  <path class="st147" d="M105.77,342.78c4.96-.04,8.3,2.29,10,7,5.39,2.56,10.39,5.72,15,9.5,6.83,2.02,13.16,5.02,19,9,12.54,5.04,25.54,8.71,39,11,15.35.57,30.68.24,46-1,17.97-1.83,35.97-3.5,54-5,11.59-1.48,22.59-4.65,33-9.5h1c-.95,2.64-1.11,5.31-.5,8-7.55,5.7-16.05,9.53-25.5,11.5-8.15.84-16.15,1.67-24,2.5-6.01.3-12.01.8-18,1.5-5.16,1.92-10.5,3.08-16,3.5v3c-18.41,2.51-36.41.84-54-5-2.38-2.58-5.38-3.58-9-3v3c-5.2-.79-10.2-2.29-15-4.5-14.2-6.08-26.54-14.58-37-25.5-.21-1.88-1.21-3.22-3-4-.86,2.27-.86,4.6,0,7-1.63-1.13-3.13-2.46-4.5-4-3.51-5.03-7.01-10.03-10.5-15Z"/>
  <path class="st32" d="M388.77,379.78c.67,0,1,.33,1,1-.84,1.88-1.17,3.88-1,6-2.03.47-3.7,1.47-5,3-1.41.47-2.07,1.47-2,3h-1c-.33-4.33,1.67-6.33,6-6-.17-2.12.16-4.12,1-6,0-.67.33-1,1-1Z"/>
  <path class="st116" d="M323.77,362.78c-.3,2.56.03,4.89,1,7,1.33.67,2.67,1.33,4,2,10.49.99,21.15,1.33,32,1-11.52,1.3-23.19,1.3-35,0-2.78,1.6-5.45,3.44-8,5.5-4.48,1.74-8.82,3.74-13,6,5.57,2.29,11.24,4.29,17,6,2.81,1.05,5.15,2.55,7,4.5-8.53-2.97-17.2-5.64-26-8-8.17-1.04-16.51-1.04-25,0-1.92.28-3.58-.05-5-1,7.85-.83,15.85-1.66,24-2.5,9.45-1.97,17.95-5.8,25.5-11.5-.61-2.69-.45-5.36.5-8,0-.67.33-1,1-1Z"/>
  <path class="st54" d="M388.77,386.78c-.17-2.12.16-4.12,1-6,1.9-1.01,3.9-1.18,6-.5,8.89,4.89,15.72,11.72,20.5,20.5.49,1.97.66,3.97.5,6-1.37.16-2.71-.01-4-.5-6.04-8.86-14.04-15.36-24-19.5Z"/>
  <path class="st25" d="M123.77,358.78c10.46,10.92,22.8,19.42,37,25.5,4.8,2.21,9.8,3.71,15,4.5v-3c3.62-.58,6.62.42,9,3,17.59,5.84,35.59,7.51,54,5v-3c5.5-.42,10.84-1.58,16-3.5,5.99-.7,11.99-1.2,18-1.5,1.42.95,3.08,1.28,5,1-10.86,1.74-21.86,3.41-33,5v3c-20.7,3.71-41.04,2.37-61-4-1.19,1.34-2.69,2.01-4.5,2-14.96-4.39-28.96-10.73-42-19-2.81,1.31-5.31,2.98-7.5,5-3.03,1.52-5.7,3.52-8,6-1.08-.86-1.25-1.86-.5-3,1.04-.87,1.88-1.87,2.5-3,4.01-1.34,7.35-3.67,10-7-2.69-3.02-5.36-6.02-8-9-.23-1.56-.9-2.9-2-4Z"/>
  <path class="st106" d="M54.77,338.78c4.17,13.51,9.17,26.84,15,40h3c.55,2.4,1.38,4.73,2.5,7,5.52,5.89,10.69,12.06,15.5,18.5,4.52,2.17,8.52,5.17,12,9,17.2,12.74,36.53,18.91,58,18.5,23.32-1.54,46.65-2.04,70-1.5,9.1,1.15,18.1,2.82,27,5,21.93,3.43,43.93,4.1,66,2,1.89-2.13,3.55-4.3,5-6.5-.52,4.35.48,8.18,3,11.5-3.13,3.07-6.8,5.4-11,7l-24,6c-10.84,1.2-21.51,2.7-32,4.5-14.52.26-29.02-.08-43.5-1-1.99.07-3.49.74-4.5,2-1.12.66-2.45.99-4,1-9.33-.83-18.66-1.5-28-2-2.45-.97-5.12-1.31-8-1v3c-8.07-.02-16.07-.69-24-2-4.17-.36-8.17-1.36-12-3-1.23,1.15-1.23,2.32,0,3.5-1.29.49-2.63.66-4,.5-14.21-3.05-27.54-8.21-40-15.5-2.23-1.61-4.23-3.44-6-5.5-.81,1.92-1.31,3.92-1.5,6-4.37-4.7-9.03-9.03-14-13-1.67-1.67-2.5-3.67-2.5-6h-3c-2.82-6.3-5.65-12.63-8.5-19-1.71-1.08-3.21-.75-4.5,1v-2c-.72-2.26-1.05-4.6-1-7h3c.41-4.8-1.09-5.8-4.5-3-.27-1.6-.77-3.1-1.5-4.5,1.27-2.04.94-3.88-1-5.5.35-1.2.85-1.2,1.5,0,.17-1.33.33-2.67.5-4-1.71-5.23-2.21-10.57-1.5-16-.19-3.76.97-6.93,3.5-9.5-1.69-2.22-2.69-4.72-3-7.5,1.47-3.53,2.13-7.2,2-11Z"/>
  <path class="st53" d="M380.77,392.78c-2.49,1.89-5.49,2.55-9,2,2.62-1.77,5.62-2.43,9-2Z"/>
  <path class="st58" d="M395.77,375.78c6.3,5.28,12.46,10.95,18.5,17,2.13,3.92,3.96,7.92,5.5,12-.55,2.06-1.71,3.72-3.5,5,.48,4.3-1.19,7.3-5,9-2.65-1.21-4.15-.21-4.5,3-.48-2.58-1.48-4.91-3-7-6.08-8.56-14.08-14.73-24-18.5-2.76-.72-5.43-.56-8,.5v-2c3.51.55,6.51-.11,9-2h1c-.09,1,.25,1.83,1,2.5,10.05,4.53,18.39,11.19,25,20,1.97.5,3.97.66,6,.5.16-2.03,0-4.03-.5-6-5.41-8.74-12.74-15.41-22-20-2.55-1.28-5.05-1.28-7.5,0,1.3-1.53,2.97-2.53,5-3,9.96,4.14,17.96,10.64,24,19.5,1.29.49,2.63.66,4,.5.16-2.03,0-4.03-.5-6-4.78-8.78-11.61-15.61-20.5-20.5-2.1-.68-4.1-.51-6,.5,0-.67-.33-1-1-1,0-.67.33-1,1-1h5c.9-.71,1.24-1.71,1-3Z"/>
  <path class="st101" d="M328.77,394.78c1.7-.16,3.37.01,5,.5,2.16,1.91,4.49,3.58,7,5,1.96,1.45,3.3,3.28,4,5.5-.67.67-1.33,1.33-2,2-.34-2.18-1.34-4.01-3-5.5-3.73-2.6-7.39-5.1-11-7.5Z"/>
  <path class="st95" d="M43.77,367.78h1v7c1.46.07,2.79-.27,4-1,1.39,10.6,3.55,21.26,6.5,32,.38.56.88.89,1.5,1v2c.62,2.48,1.62,2.48,3,0,.33.5.67,1,1,1.5-.93,1.08-1.6,2.24-2,3.5-1,.09-1.83-.25-2.5-1-.85-2.11-1.68-4.11-2.5-6-.38-3.31-1.38-6.31-3-9,.07-1.46-.27-2.79-1-4-.58-5.01-1.25-10.01-2-15h-4v-11Z"/>
  <path class="st34" d="M277.77,386.78c8.49-1.04,16.83-1.04,25,0-4.68.33-9.34.83-14,1.5-18.14,6.93-36.81,12.27-56,16-28.93,4.59-56.6.93-83-11-7.3-4.13-13.97-8.97-20-14.5,2.19-2.02,4.69-3.69,7.5-5,13.04,8.27,27.04,14.61,42,19,1.81.01,3.31-.66,4.5-2,19.96,6.37,40.3,7.71,61,4v-3c11.14-1.59,22.14-3.26,33-5Z"/>
  <path class="st41" d="M50.77,397.78c1.62,2.69,2.62,5.69,3,9-.62-.11-1.12-.44-1.5-1-.57-2.67-1.07-5.33-1.5-8Z"/>
  <path class="st21" d="M387.77,380.78c-.84,1.88-1.17,3.88-1,6-4.33-.33-6.33,1.67-6,6-3.38-.43-6.38.23-9,2-1.57.44-2.74,1.44-3.5,3-.63,3.05-.47,6.05.5,9,.09,1-.25,1.83-1,2.5-2.31.5-4.64.66-7,.5-1.42-.95-3.08-1.28-5-1-3.64-1.11-7.31-2.11-11-3,5.8.59,11.3-.08,16.5-2,.33.33.67.67,1,1,.48-.95.65-1.95.5-3h4c.21-3.12.55-5.95,1-8.5,3.94-1.02,7.94-1.52,12-1.5v-3c-3.77-.41-7.44-1.24-11-2.5,3.21-.3,6.37-.8,9.5-1.5,2.03,1.47,3.86,1.3,5.5-.5-2.4-1.47-2.24-2.97.5-4.5,1.01.84,2.18,1.17,3.5,1Z"/>
  <path class="st68" d="M371.77,394.78v2c-.62.11-1.12.44-1.5,1-1.34,4.54-.17,8.21,3.5,11-.67.67-1.33,1.33-2,2h-3c.78-.66,1.44-1.49,2-2.5-.34-1.03-1-1.53-2-1.5-.97-2.95-1.13-5.95-.5-9,.76-1.56,1.93-2.56,3.5-3Z"/>
  <path class="st73" d="M403.77,414.78c.65,1.94.98,3.94,1,6-4.54.04-8.54-1.29-12-4,1.29-2.31.62-4.14-2-5.5-4.49-3.05-9.16-5.88-14-8.5-1.74-2.06-3.41-4.06-5-6,2.57-1.06,5.24-1.22,8-.5,9.92,3.77,17.92,9.94,24,18.5Z"/>
  <path class="st150" d="M341.77,409.78c4.47-.99,9.14-1.32,14-1,1.92-.28,3.58.05,5,1,2.11.97,4.44,1.3,7,1,.03,1-.47,1.66-1.5,2-1.44-.65-2.94-.98-4.5-1-6.55-1.63-13.21-2.3-20-2Z"/>
  <path class="st85" d="M368.77,406.78c1-.03,1.66.47,2,1.5-.56,1.01-1.22,1.84-2,2.5h-1c-2.56.3-4.89-.03-7-1,2.36.16,4.69,0,7-.5.75-.67,1.09-1.5,1-2.5Z"/>
  <path class="st160" d="M371.77,396.78c1.59,1.94,3.26,3.94,5,6,4.84,2.62,9.51,5.45,14,8.5,2.62,1.36,3.29,3.19,2,5.5-6.21-2.94-12.55-5.61-19-8-3.67-2.79-4.84-6.46-3.5-11,.38-.56.88-.89,1.5-1Z"/>
  <path class="st57" d="M381.77,392.78c-.07-1.53.59-2.53,2-3,2.45-1.28,4.95-1.28,7.5,0,9.26,4.59,16.59,11.26,22,20,.49,1.97.66,3.97.5,6-2.03.16-4.03,0-6-.5-6.61-8.81-14.95-15.47-25-20-.75-.67-1.09-1.5-1-2.5Z"/>
  <path class="st79" d="M341.77,409.78c6.79-.3,13.45.37,20,2,5.55,1.81,10.89,4.31,16,7.5,1.52,1.35,2.85,2.85,4,4.5-1,.33-2,.67-3,1-11.69-5.56-24.02-8.23-37-8-1.33-2.33-1.33-4.67,0-7Z"/>
  <path class="st24" d="M370.77,410.78h1c1.37-.16,2.71.01,4,.5,4.93,2.21,9.6,4.71,14,7.5-.72.42-1.22,1.08-1.5,2-.54-1.77-1.37-2.1-2.5-1,1.52,1.66,1.19,2.82-1,3.5.97,3.53.81,7.36-.5,11.5-.74,2.39-1.9,4.39-3.5,6,.63-3.14,1.63-6.14,3-9-.22-1.56-.89-2.89-2-4,1.04-2.27,1.21-4.6.5-7-3.27-3.38-7.1-5.88-11.5-7.5-1.1-.77-1.1-1.6,0-2.5Z"/>
  <path class="st129" d="M373.77,408.78c6.45,2.39,12.79,5.06,19,8,3.46,2.71,7.46,4.04,12,4-.02-2.06-.35-4.06-1-6,1.52,2.09,2.52,4.42,3,7-.11.62-.44,1.12-1,1.5-2,.67-4,.67-6,0-2.97-2.32-6.3-3.82-10-4.5-4.4-2.79-9.07-5.29-14-7.5-1.29-.49-2.63-.66-4-.5.67-.67,1.33-1.33,2-2Z"/>
  <path class="st33" d="M344.77,405.78c3.69.89,7.36,1.89,11,3-4.86-.32-9.53.01-14,1-1.33,2.33-1.33,4.67,0,7-.67.67-1.33,1.33-2,2-.62.11-1.12.44-1.5,1-.49,1.97-.66,3.97-.5,6-1.42.95-3.08,1.28-5,1,2.12-3.08,3.96-6.41,5.5-10,.33-2.33.67-4.67,1-7,.82-1.32,1.98-1.99,3.5-2,.67-.67,1.33-1.33,2-2Z"/>
  <path class="st107" d="M63.77,419.78c1.41.47,2.07,1.47,2,3-1.41-.47-2.07-1.47-2-3Z"/>
  <path class="st28" d="M367.77,410.78h3c-1.1.9-1.1,1.73,0,2.5,4.4,1.62,8.23,4.12,11.5,7.5.71,2.4.54,4.73-.5,7,1.11,1.11,1.78,2.44,2,4-1.37,2.86-2.37,5.86-3,9-2.61.79-5.28,1.46-8,2-13.41-.31-26.75.02-40,1v-2c15.73.35,31.4-.31,47-2,.27-1.88-.4-3.21-2-4-14.47-5.94-29.47-8.27-45-7v-2c1.92.28,3.58-.05,5-1,14.22.84,28.05,3.5,41.5,8,2.98-1.33,3.15-3.17.5-5.5-12.45-6.76-25.78-9.92-40-9.5.67-.67,1.33-1.33,2-2,12.98-.23,25.31,2.44,37,8,1-.33,2-.67,3-1-1.15-1.65-2.48-3.15-4-4.5-5.11-3.19-10.45-5.69-16-7.5,1.56.02,3.06.35,4.5,1,1.03-.34,1.53-1,1.5-2Z"/>
  <path class="st103" d="M339.77,418.78c14.22-.42,27.55,2.74,40,9.5,2.65,2.33,2.48,4.17-.5,5.5-13.45-4.5-27.28-7.16-41.5-8-.16-2.03,0-4.03.5-6,.38-.56.88-.89,1.5-1Z"/>
  <path class="st128" d="M377.77,435.78c-.75,1.75-2.08,2.75-4,3-3.97.6-7.97.93-12,1-9.61-1.58-19.27-2.74-29-3.5-1.61-1.05-2.27-2.55-2-4.5.43-1.21,1.1-2.21,2-3,15.53-1.27,30.53,1.06,45,7Z"/>
  <path class="st22" d="M136.77,460.78v2c-2.83-.46-5.5-1.13-8-2-2.75-1.45-5.75-2.45-9-3h-2c-.47-1.41-1.47-2.07-3-2-7.51-1.75-14.18-5.09-20-10-2.46-1.13-3.79-.13-4,3-9.93-7.13-18.26-15.8-25-26,.07-1.53-.59-2.53-2-3-.72-2.44-1.72-4.77-3-7-.68.36-1.35.7-2,1,.4-1.26,1.07-2.42,2-3.5-.33-.5-.67-1-1-1.5-1.38,2.48-2.38,2.48-3,0,1.29-1.75,2.79-2.08,4.5-1,2.85,6.37,5.68,12.7,8.5,19h3c0,2.33.83,4.33,2.5,6,4.97,3.97,9.63,8.3,14,13,.19-2.08.69-4.08,1.5-6,1.77,2.06,3.77,3.89,6,5.5,12.46,7.29,25.79,12.45,40,15.5Z"/>
  <path class="st144" d="M330.77,431.78c-.27,1.95.39,3.45,2,4.5,9.73.76,19.39,1.92,29,3.5,4.03-.07,8.03-.4,12-1,1.92-.25,3.25-1.25,4-3,1.6.79,2.27,2.12,2,4-15.6,1.69-31.27,2.35-47,2-.18-1.7-1.02-3.03-2.5-4-.79-2.21-.62-4.21.5-6Z"/>
  <path class="st66" d="M372.77,442.78c-13.15,1.32-26.48,1.99-40,2v-1c13.25-.98,26.59-1.31,40-1Z"/>
  <path class="st137" d="M332.77,426.78v2c-.9.79-1.57,1.79-2,3-1.12,1.79-1.29,3.79-.5,6,1.48.97,2.32,2.3,2.5,4v3c-7.24,4.95-15.24,8.28-24,10-3.23.18-6.23.84-9,2-4.44,1.3-9.11,1.97-14,2-5.5.45-10.83,1.12-16,2h-5v-1c10.49-1.8,21.16-3.3,32-4.5l24-6c4.2-1.6,7.87-3.93,11-7-2.52-3.32-3.52-7.15-3-11.5.9-1.84,2.24-3.17,4-4Z"/>
  <path class="st5" d="M94.77,445.78c-.93,1.07-1.27,2.4-1,4-1.29.24-2.29-.1-3-1,.21-3.13,1.54-4.13,4-3Z"/>
  <path class="st27" d="M308.77,454.78c-.11.62-.44,1.12-1,1.5-2.65.5-5.31.66-8,.5,2.77-1.16,5.77-1.82,9-2Z"/>
  <path class="st130" d="M114.77,455.78c1.53-.07,2.53.59,3,2-1.53.07-2.53-.59-3-2Z"/>
  <path class="st59" d="M119.77,457.78c3.25.55,6.25,1.55,9,3-3.49.05-6.49-.95-9-3Z"/>
  <path class="st136" d="M264.77,459.78v1h-42v3h-11c2.47-.82,5.14-1.32,8-1.5-.74-1.04-1.74-1.54-3-1.5,1.01-1.26,2.51-1.93,4.5-2,14.48.92,28.98,1.26,43.5,1Z"/>
  <path class="st87" d="M285.77,458.78c-.11.62-.44,1.12-1,1.5-4.99.5-9.99.67-15,.5,5.17-.88,10.5-1.55,16-2Z"/>
  <path class="st14" d="M184.77,459.78c9.34.5,18.67,1.17,28,2,1.55-.01,2.88-.34,4-1,1.26-.04,2.26.46,3,1.5-2.86.18-5.53.68-8,1.5-2-.33-4-.67-6-1-7.15-.99-14.48-1.32-22-1-1.86-1.27-3.52-.93-5,1,.09-1-.25-1.83-1-2.5,2.31-.5,4.64-.66,7-.5Z"/>
  <path class="st40" d="M264.77,460.78h5c-4.8.99-9.8,1.32-15,1h-31v3c-1.6.27-2.93-.07-4-1h3v-3h42Z"/>
  <path class="st142" d="M152.77,459.78c8.35,2.5,17.02,3.5,26,3,1.48-1.93,3.14-2.27,5-1-5.71,1.89-11.71,2.55-18,2-5.99.13-11.66-.87-17-3-1.42-.95-3.09-1.28-5-1v3h-7v-2c1.37.16,2.71-.01,4-.5-1.23-1.18-1.23-2.35,0-3.5,3.83,1.64,7.83,2.64,12,3Z"/>
  <path class="st63" d="M184.77,459.78c-2.36-.16-4.69,0-7,.5.75.67,1.09,1.5,1,2.5-8.98.5-17.65-.5-26-3,7.93,1.31,15.93,1.98,24,2v-3c2.88-.31,5.55.03,8,1Z"/>
  <path class="st4" d="M148.77,460.78h-4v3c-2.56.3-4.89-.03-7-1h6v-3c1.91-.28,3.58.05,5,1Z"/>
  <path class="st132" d="M183.77,461.78c7.52-.32,14.85.01,22,1h-2c-9.71-.06-19.38.6-29,2-3.19,0-6.19-.34-9-1,6.29.55,12.29-.11,18-2Z"/>
  <path class="st12" d="M254.77,461.78c-9.49.99-19.15,1.33-29,1v3c-6.35-.23-12.68-.73-19-1.5-1.24-.23-2.24-.73-3-1.5h2c2,.33,4,.67,6,1h8c1.07.93,2.4,1.27,4,1v-3h31Z"/>
</svg>
